<?xml version="1.0" encoding="UTF-8" standalone="no"?>
<!DOCTYPE svg PUBLIC "-//W3C//DTD SVG 1.1//EN"
 "http://www.w3.org/Graphics/SVG/1.1/DTD/svg11.dtd">
<!-- Generated by graphviz version 7.1.0 (20230121.1956)
 -->
<!-- Pages: 1 -->
<svg width="820pt" height="476pt"
 viewBox="0.00 0.00 820.24 476.00" xmlns="http://www.w3.org/2000/svg" xmlns:xlink="http://www.w3.org/1999/xlink">
<g id="graph0" class="graph" transform="scale(1 1) rotate(0) translate(4 472)">
<polygon fill="white" stroke="none" points="-4,4 -4,-472 816.24,-472 816.24,4 -4,4"/>
<!-- start -->
<g id="node1" class="node">
<title>start</title>
<ellipse fill="none" stroke="black" cx="706.74" cy="-450" rx="27" ry="18"/>
<text text-anchor="middle" x="706.74" y="-446.3" font-family="Times,serif" font-size="14.00">start</text>
</g>
<!-- try -->
<g id="node2" class="node">
<title>try</title>
<ellipse fill="none" stroke="black" cx="706.74" cy="-378" rx="27" ry="18"/>
<text text-anchor="middle" x="706.74" y="-374.3" font-family="Times,serif" font-size="14.00">try</text>
</g>
<!-- start&#45;&gt;try -->
<g id="edge1" class="edge">
<title>start&#45;&gt;try</title>
<path fill="none" stroke="black" d="M706.74,-431.7C706.74,-424.41 706.74,-415.73 706.74,-407.54"/>
<polygon fill="black" stroke="black" points="710.24,-407.62 706.74,-397.62 703.24,-407.62 710.24,-407.62"/>
</g>
<!-- for -->
<g id="node3" class="node">
<title>for</title>
<ellipse fill="none" stroke="black" cx="669.74" cy="-306" rx="27" ry="18"/>
<text text-anchor="middle" x="669.74" y="-302.3" font-family="Times,serif" font-size="14.00">for</text>
</g>
<!-- try&#45;&gt;for -->
<g id="edge2" class="edge">
<title>try&#45;&gt;for</title>
<path fill="none" stroke="black" d="M698.16,-360.76C693.82,-352.55 688.44,-342.37 683.53,-333.09"/>
<polygon fill="black" stroke="black" points="686.75,-331.69 678.98,-324.49 680.56,-334.96 686.75,-331.69"/>
</g>
<!-- catch -->
<g id="node9" class="node">
<title>catch</title>
<ellipse fill="none" stroke="black" cx="753.74" cy="-306" rx="29.5" ry="18"/>
<text text-anchor="middle" x="753.74" y="-302.3" font-family="Times,serif" font-size="14.00">catch</text>
</g>
<!-- try&#45;&gt;catch -->
<g id="edge10" class="edge">
<title>try&#45;&gt;catch</title>
<path fill="none" stroke="black" d="M717.41,-361.12C723.12,-352.61 730.28,-341.94 736.74,-332.32"/>
<polygon fill="black" stroke="black" points="739.61,-334.33 742.28,-324.08 733.8,-330.43 739.61,-334.33"/>
</g>
<!-- a -->
<g id="node4" class="node">
<title>a</title>
<ellipse fill="none" stroke="black" cx="457.74" cy="-234" rx="27" ry="18"/>
<text text-anchor="middle" x="457.74" y="-230.3" font-family="Times,serif" font-size="14.00">a</text>
</g>
<!-- for&#45;&gt;a -->
<g id="edge3" class="edge">
<title>for&#45;&gt;a</title>
<path fill="none" stroke="black" d="M645.84,-297.11C608.36,-284.73 535.61,-260.71 492.39,-246.44"/>
<polygon fill="black" stroke="black" points="493.59,-243.15 483,-243.34 491.4,-249.8 493.59,-243.15"/>
</g>
<!-- end -->
<g id="node8" class="node">
<title>end</title>
<ellipse fill="none" stroke="black" cx="734.74" cy="-162" rx="27" ry="18"/>
<text text-anchor="middle" x="734.74" y="-158.3" font-family="Times,serif" font-size="14.00">end</text>
</g>
<!-- for&#45;&gt;end -->
<g id="edge9" class="edge">
<title>for&#45;&gt;end</title>
<path fill="none" stroke="black" d="M676.55,-288.12C683.91,-270.11 696.14,-240.81 707.74,-216 711.86,-207.19 716.61,-197.68 720.96,-189.19"/>
<polygon fill="black" stroke="black" points="724,-190.93 725.49,-180.44 717.78,-187.71 724,-190.93"/>
</g>
<!-- if1 -->
<g id="node5" class="node">
<title>if1</title>
<polygon fill="none" stroke="black" points="319.74,-180 290.42,-162 319.74,-144 349.07,-162 319.74,-180"/>
<text text-anchor="middle" x="319.74" y="-158.3" font-family="Times,serif" font-size="14.00">if1</text>
</g>
<!-- a&#45;&gt;if1 -->
<g id="edge4" class="edge">
<title>a&#45;&gt;if1</title>
<path fill="none" stroke="black" d="M436.78,-222.37C412.26,-209.93 371.68,-189.34 345.32,-175.98"/>
<polygon fill="black" stroke="black" points="347.17,-172.99 336.67,-171.59 344,-179.23 347.17,-172.99"/>
</g>
<!-- b -->
<g id="node6" class="node">
<title>b</title>
<polygon fill="none" stroke="black" points="622.24,-108 17.24,-108 17.24,-72 622.24,-72 622.24,-108"/>
<text text-anchor="middle" x="319.74" y="-86.3" font-family="Times,serif" font-size="14.00">columnMetadataList = getColumns(...); queries = new Queries(...); columnMetadataList = getColumns(...)</text>
</g>
<!-- if1&#45;&gt;b -->
<g id="edge5" class="edge">
<title>if1&#45;&gt;b</title>
<path fill="none" stroke="black" d="M319.74,-143.7C319.74,-136.41 319.74,-127.73 319.74,-119.54"/>
<polygon fill="black" stroke="black" points="323.24,-119.62 319.74,-109.62 316.24,-119.62 323.24,-119.62"/>
</g>
<!-- c -->
<g id="node7" class="node">
<title>c</title>
<ellipse fill="none" stroke="black" cx="319.74" cy="-18" rx="27" ry="18"/>
<text text-anchor="middle" x="319.74" y="-14.3" font-family="Times,serif" font-size="14.00">c</text>
</g>
<!-- if1&#45;&gt;c -->
<g id="edge7" class="edge">
<title>if1&#45;&gt;c</title>
<path fill="none" stroke="black" d="M291.85,-160.65C222.29,-159.13 44.08,-151.03 7.74,-108 -2.58,-95.78 -2.58,-84.22 7.74,-72 42.32,-31.06 205.35,-21.74 281,-19.62"/>
<polygon fill="black" stroke="black" points="280.94,-23.12 290.85,-19.38 280.76,-16.12 280.94,-23.12"/>
</g>
<!-- b&#45;&gt;c -->
<g id="edge6" class="edge">
<title>b&#45;&gt;c</title>
<path fill="none" stroke="black" d="M319.74,-71.7C319.74,-64.41 319.74,-55.73 319.74,-47.54"/>
<polygon fill="black" stroke="black" points="323.24,-47.62 319.74,-37.62 316.24,-47.62 323.24,-47.62"/>
</g>
<!-- c&#45;&gt;for -->
<g id="edge8" class="edge">
<title>c&#45;&gt;for</title>
<path fill="none" stroke="black" d="M346.64,-19.72C414.66,-22.12 591.01,-32.15 630.74,-72 685.34,-126.76 680.67,-227.22 674.42,-276.38"/>
<polygon fill="black" stroke="black" points="670.96,-275.83 673.04,-286.22 677.9,-276.8 670.96,-275.83"/>
</g>
<!-- d -->
<g id="node10" class="node">
<title>d</title>
<polygon fill="none" stroke="black" points="812.24,-252 717.24,-252 717.24,-216 812.24,-216 812.24,-252"/>
<text text-anchor="middle" x="764.74" y="-230.3" font-family="Times,serif" font-size="14.00">initFailure = e</text>
</g>
<!-- catch&#45;&gt;d -->
<g id="edge11" class="edge">
<title>catch&#45;&gt;d</title>
<path fill="none" stroke="black" d="M756.46,-287.7C757.62,-280.32 759,-271.52 760.3,-263.25"/>
<polygon fill="black" stroke="black" points="763.72,-264.02 761.82,-253.6 756.81,-262.93 763.72,-264.02"/>
</g>
<!-- d&#45;&gt;end -->
<g id="edge12" class="edge">
<title>d&#45;&gt;end</title>
<path fill="none" stroke="black" d="M757.33,-215.7C754.01,-207.95 750.02,-198.64 746.32,-190.02"/>
<polygon fill="black" stroke="black" points="749.62,-188.83 742.46,-181.01 743.18,-191.58 749.62,-188.83"/>
</g>
</g>
</svg>
