<?xml version="1.0" encoding="UTF-8" standalone="no"?>
<!DOCTYPE svg PUBLIC "-//W3C//DTD SVG 1.1//EN"
 "http://www.w3.org/Graphics/SVG/1.1/DTD/svg11.dtd">
<!-- Generated by graphviz version 7.1.0 (20230121.1956)
 -->
<!-- Pages: 1 -->
<svg width="429pt" height="692pt"
 viewBox="0.00 0.00 428.50 692.00" xmlns="http://www.w3.org/2000/svg" xmlns:xlink="http://www.w3.org/1999/xlink">
<g id="graph0" class="graph" transform="scale(1 1) rotate(0) translate(4 688)">
<polygon fill="white" stroke="none" points="-4,4 -4,-688 424.5,-688 424.5,4 -4,4"/>
<!-- start -->
<g id="node1" class="node">
<title>start</title>
<ellipse fill="none" stroke="black" cx="334" cy="-666" rx="27" ry="18"/>
<text text-anchor="middle" x="334" y="-662.3" font-family="Times,serif" font-size="14.00">start</text>
</g>
<!-- try -->
<g id="node2" class="node">
<title>try</title>
<ellipse fill="none" stroke="black" cx="334" cy="-594" rx="27" ry="18"/>
<text text-anchor="middle" x="334" y="-590.3" font-family="Times,serif" font-size="14.00">try</text>
</g>
<!-- start&#45;&gt;try -->
<g id="edge1" class="edge">
<title>start&#45;&gt;try</title>
<path fill="none" stroke="black" d="M334,-647.7C334,-640.41 334,-631.73 334,-623.54"/>
<polygon fill="black" stroke="black" points="337.5,-623.62 334,-613.62 330.5,-623.62 337.5,-623.62"/>
</g>
<!-- if1 -->
<g id="node3" class="node">
<title>if1</title>
<polygon fill="none" stroke="black" points="296,-540 266.67,-522 296,-504 325.33,-522 296,-540"/>
<text text-anchor="middle" x="296" y="-518.3" font-family="Times,serif" font-size="14.00">if1</text>
</g>
<!-- try&#45;&gt;if1 -->
<g id="edge2" class="edge">
<title>try&#45;&gt;if1</title>
<path fill="none" stroke="black" d="M325.19,-576.76C320.17,-567.53 313.82,-555.83 308.32,-545.7"/>
<polygon fill="black" stroke="black" points="311.56,-544.33 303.71,-537.21 305.41,-547.67 311.56,-544.33"/>
</g>
<!-- catch -->
<g id="node11" class="node">
<title>catch</title>
<ellipse fill="none" stroke="black" cx="373" cy="-522" rx="29.5" ry="18"/>
<text text-anchor="middle" x="373" y="-518.3" font-family="Times,serif" font-size="14.00">catch</text>
</g>
<!-- try&#45;&gt;catch -->
<g id="edge12" class="edge">
<title>try&#45;&gt;catch</title>
<path fill="none" stroke="black" d="M343.05,-576.76C347.62,-568.55 353.29,-558.37 358.46,-549.09"/>
<polygon fill="black" stroke="black" points="361.46,-550.91 363.27,-540.47 355.34,-547.5 361.46,-550.91"/>
</g>
<!-- a -->
<g id="node4" class="node">
<title>a</title>
<polygon fill="none" stroke="black" points="288,-468 0,-468 0,-432 288,-432 288,-468"/>
<text text-anchor="middle" x="144" y="-446.3" font-family="Times,serif" font-size="14.00">mappingColumns = resolveMappingColumns(...)</text>
</g>
<!-- if1&#45;&gt;a -->
<g id="edge3" class="edge">
<title>if1&#45;&gt;a</title>
<path fill="none" stroke="black" d="M279.73,-513.51C258.98,-503.95 222.16,-486.99 192.1,-473.15"/>
<polygon fill="black" stroke="black" points="193.71,-470.04 183.16,-469.03 190.78,-476.4 193.71,-470.04"/>
</g>
<!-- b -->
<g id="node5" class="node">
<title>b</title>
<ellipse fill="none" stroke="black" cx="200" cy="-378" rx="27" ry="18"/>
<text text-anchor="middle" x="200" y="-374.3" font-family="Times,serif" font-size="14.00">b</text>
</g>
<!-- if1&#45;&gt;b -->
<g id="edge5" class="edge">
<title>if1&#45;&gt;b</title>
<path fill="none" stroke="black" d="M300.55,-506.25C305.39,-487.55 310.64,-454.99 297,-432 283.91,-409.93 258.04,-396.46 236.3,-388.62"/>
<polygon fill="black" stroke="black" points="237.43,-385.31 226.84,-385.5 235.24,-391.96 237.43,-385.31"/>
</g>
<!-- a&#45;&gt;b -->
<g id="edge4" class="edge">
<title>a&#45;&gt;b</title>
<path fill="none" stroke="black" d="M157.84,-431.7C164.74,-423.07 173.2,-412.5 180.72,-403.1"/>
<polygon fill="black" stroke="black" points="183.38,-405.38 186.89,-395.38 177.91,-401.01 183.38,-405.38"/>
</g>
<!-- if2 -->
<g id="node6" class="node">
<title>if2</title>
<polygon fill="none" stroke="black" points="200,-324 170.67,-306 200,-288 229.33,-306 200,-324"/>
<text text-anchor="middle" x="200" y="-302.3" font-family="Times,serif" font-size="14.00">if2</text>
</g>
<!-- b&#45;&gt;if2 -->
<g id="edge6" class="edge">
<title>b&#45;&gt;if2</title>
<path fill="none" stroke="black" d="M200,-359.7C200,-352.41 200,-343.73 200,-335.54"/>
<polygon fill="black" stroke="black" points="203.5,-335.62 200,-325.62 196.5,-335.62 203.5,-335.62"/>
</g>
<!-- c -->
<g id="node7" class="node">
<title>c</title>
<polygon fill="none" stroke="black" points="272,-252 40,-252 40,-216 272,-216 272,-252"/>
<text text-anchor="middle" x="156" y="-230.3" font-family="Times,serif" font-size="14.00">columnMetadataList = getColumns(...)</text>
</g>
<!-- if2&#45;&gt;c -->
<g id="edge7" class="edge">
<title>if2&#45;&gt;c</title>
<path fill="none" stroke="black" d="M192.13,-292.49C186.81,-284.02 179.58,-272.52 172.99,-262.02"/>
<polygon fill="black" stroke="black" points="176.03,-260.29 167.74,-253.68 170.1,-264.01 176.03,-260.29"/>
</g>
<!-- d -->
<g id="node8" class="node">
<title>d</title>
<ellipse fill="none" stroke="black" cx="265" cy="-162" rx="27" ry="18"/>
<text text-anchor="middle" x="265" y="-158.3" font-family="Times,serif" font-size="14.00">d</text>
</g>
<!-- if2&#45;&gt;d -->
<g id="edge9" class="edge">
<title>if2&#45;&gt;d</title>
<path fill="none" stroke="black" d="M218.43,-298.92C237.97,-291.36 267.81,-276.39 281,-252 291.38,-232.81 285.77,-208.23 278.48,-189.77"/>
<polygon fill="black" stroke="black" points="281.79,-188.59 274.58,-180.82 275.37,-191.38 281.79,-188.59"/>
</g>
<!-- c&#45;&gt;d -->
<g id="edge8" class="edge">
<title>c&#45;&gt;d</title>
<path fill="none" stroke="black" d="M183.22,-215.52C199.41,-205.12 219.93,-191.95 236.36,-181.39"/>
<polygon fill="black" stroke="black" points="238.19,-184.38 244.71,-176.03 234.41,-178.49 238.19,-184.38"/>
</g>
<!-- e -->
<g id="node9" class="node">
<title>e</title>
<polygon fill="none" stroke="black" points="345,-108 185,-108 185,-72 345,-72 345,-108"/>
<text text-anchor="middle" x="265" y="-86.3" font-family="Times,serif" font-size="14.00">queries = new Queries(...)</text>
</g>
<!-- d&#45;&gt;e -->
<g id="edge10" class="edge">
<title>d&#45;&gt;e</title>
<path fill="none" stroke="black" d="M265,-143.7C265,-136.41 265,-127.73 265,-119.54"/>
<polygon fill="black" stroke="black" points="268.5,-119.62 265,-109.62 261.5,-119.62 268.5,-119.62"/>
</g>
<!-- end -->
<g id="node10" class="node">
<title>end</title>
<ellipse fill="none" stroke="black" cx="319" cy="-18" rx="27" ry="18"/>
<text text-anchor="middle" x="319" y="-14.3" font-family="Times,serif" font-size="14.00">end</text>
</g>
<!-- e&#45;&gt;end -->
<g id="edge11" class="edge">
<title>e&#45;&gt;end</title>
<path fill="none" stroke="black" d="M278.35,-71.7C285,-63.07 293.15,-52.5 300.41,-43.1"/>
<polygon fill="black" stroke="black" points="303.01,-45.46 306.35,-35.4 297.47,-41.18 303.01,-45.46"/>
</g>
<!-- f -->
<g id="node12" class="node">
<title>f</title>
<polygon fill="none" stroke="black" points="420.5,-396 325.5,-396 325.5,-360 420.5,-360 420.5,-396"/>
<text text-anchor="middle" x="373" y="-374.3" font-family="Times,serif" font-size="14.00">initFailure = e</text>
</g>
<!-- catch&#45;&gt;f -->
<g id="edge13" class="edge">
<title>catch&#45;&gt;f</title>
<path fill="none" stroke="black" d="M373,-503.59C373,-479.61 373,-436.14 373,-407.42"/>
<polygon fill="black" stroke="black" points="376.5,-407.62 373,-397.62 369.5,-407.62 376.5,-407.62"/>
</g>
<!-- f&#45;&gt;end -->
<g id="edge14" class="edge">
<title>f&#45;&gt;end</title>
<path fill="none" stroke="black" d="M373,-359.51C373,-332.71 373,-279.87 373,-235 373,-235 373,-235 373,-161 373,-120.55 369.64,-109.3 354,-72 349.89,-62.21 343.92,-52.28 338.07,-43.71"/>
<polygon fill="black" stroke="black" points="340.93,-41.68 332.26,-35.58 335.23,-45.75 340.93,-41.68"/>
</g>
</g>
</svg>
