<?xml version="1.0" encoding="UTF-8" standalone="no"?>
<!DOCTYPE svg PUBLIC "-//W3C//DTD SVG 1.1//EN"
 "http://www.w3.org/Graphics/SVG/1.1/DTD/svg11.dtd">
<!-- Generated by graphviz version 7.1.0 (20230121.1956)
 -->
<!-- Pages: 1 -->
<svg width="151pt" height="332pt"
 viewBox="0.00 0.00 151.39 332.00" xmlns="http://www.w3.org/2000/svg" xmlns:xlink="http://www.w3.org/1999/xlink">
<g id="graph0" class="graph" transform="scale(1 1) rotate(0) translate(4 328)">
<polygon fill="white" stroke="none" points="-4,4 -4,-328 147.39,-328 147.39,4 -4,4"/>
<!-- start -->
<g id="node1" class="node">
<title>start</title>
<ellipse fill="none" stroke="black" cx="112.5" cy="-306" rx="27" ry="18"/>
<text text-anchor="middle" x="112.5" y="-302.3" font-family="Times,serif" font-size="14.00">start</text>
</g>
<!-- if -->
<g id="node2" class="node">
<title>if</title>
<polygon fill="none" stroke="black" points="112.5,-252 85.5,-234 112.5,-216 139.5,-234 112.5,-252"/>
<text text-anchor="middle" x="112.5" y="-230.3" font-family="Times,serif" font-size="14.00">if</text>
</g>
<!-- start&#45;&gt;if -->
<g id="edge1" class="edge">
<title>start&#45;&gt;if</title>
<path fill="none" stroke="black" d="M112.5,-287.7C112.5,-280.52 112.5,-271.99 112.5,-263.9"/>
<polygon fill="black" stroke="black" points="116,-264.1 112.5,-254.1 109,-264.1 116,-264.1"/>
</g>
<!-- a -->
<g id="node3" class="node">
<title>a</title>
<polygon fill="none" stroke="black" points="131,-180 0,-180 0,-144 131,-144 131,-180"/>
<text text-anchor="middle" x="65.5" y="-158.3" font-family="Times,serif" font-size="14.00">state = new State(...)</text>
</g>
<!-- if&#45;&gt;a -->
<g id="edge2" class="edge">
<title>if&#45;&gt;a</title>
<path fill="none" stroke="black" d="M104.53,-221.13C98.79,-212.58 90.82,-200.72 83.58,-189.93"/>
<polygon fill="black" stroke="black" points="86.54,-188.06 78.06,-181.71 80.73,-191.97 86.54,-188.06"/>
</g>
<!-- b -->
<g id="node4" class="node">
<title>b</title>
<ellipse fill="none" stroke="black" cx="112.5" cy="-90" rx="27" ry="18"/>
<text text-anchor="middle" x="112.5" y="-86.3" font-family="Times,serif" font-size="14.00">b</text>
</g>
<!-- if&#45;&gt;b -->
<g id="edge4" class="edge">
<title>if&#45;&gt;b</title>
<path fill="none" stroke="black" d="M120.72,-221.47C127.54,-211.16 136.69,-195.35 140.5,-180 144.35,-164.47 144.35,-159.53 140.5,-144 138.18,-134.63 133.86,-125.08 129.29,-116.72"/>
<polygon fill="black" stroke="black" points="132.36,-115.03 124.28,-108.18 126.32,-118.58 132.36,-115.03"/>
</g>
<!-- a&#45;&gt;b -->
<g id="edge3" class="edge">
<title>a&#45;&gt;b</title>
<path fill="none" stroke="black" d="M77.12,-143.7C82.71,-135.37 89.51,-125.23 95.66,-116.08"/>
<polygon fill="black" stroke="black" points="98.47,-118.18 101.13,-107.93 92.65,-114.28 98.47,-118.18"/>
</g>
<!-- end -->
<g id="node5" class="node">
<title>end</title>
<ellipse fill="none" stroke="black" cx="112.5" cy="-18" rx="27" ry="18"/>
<text text-anchor="middle" x="112.5" y="-14.3" font-family="Times,serif" font-size="14.00">end</text>
</g>
<!-- b&#45;&gt;end -->
<g id="edge5" class="edge">
<title>b&#45;&gt;end</title>
<path fill="none" stroke="black" d="M112.5,-71.7C112.5,-64.41 112.5,-55.73 112.5,-47.54"/>
<polygon fill="black" stroke="black" points="116,-47.62 112.5,-37.62 109,-47.62 116,-47.62"/>
</g>
</g>
</svg>
