<?xml version="1.0" encoding="UTF-8" standalone="no"?>
<!DOCTYPE svg PUBLIC "-//W3C//DTD SVG 1.1//EN"
 "http://www.w3.org/Graphics/SVG/1.1/DTD/svg11.dtd">
<!-- Generated by graphviz version 7.1.0 (20230121.1956)
 -->
<!-- Pages: 1 -->
<svg width="176pt" height="332pt"
 viewBox="0.00 0.00 175.88 332.00" xmlns="http://www.w3.org/2000/svg" xmlns:xlink="http://www.w3.org/1999/xlink">
<g id="graph0" class="graph" transform="scale(1 1) rotate(0) translate(4 328)">
<polygon fill="white" stroke="none" points="-4,4 -4,-328 171.88,-328 171.88,4 -4,4"/>
<!-- start -->
<g id="node1" class="node">
<title>start</title>
<ellipse fill="none" stroke="black" cx="130.5" cy="-306" rx="27" ry="18"/>
<text text-anchor="middle" x="130.5" y="-302.3" font-family="Times,serif" font-size="14.00">start</text>
</g>
<!-- if -->
<g id="node2" class="node">
<title>if</title>
<polygon fill="none" stroke="black" points="130.5,-252 103.5,-234 130.5,-216 157.5,-234 130.5,-252"/>
<text text-anchor="middle" x="130.5" y="-230.3" font-family="Times,serif" font-size="14.00">if</text>
</g>
<!-- start&#45;&gt;if -->
<g id="edge1" class="edge">
<title>start&#45;&gt;if</title>
<path fill="none" stroke="black" d="M130.5,-287.7C130.5,-280.52 130.5,-271.99 130.5,-263.9"/>
<polygon fill="black" stroke="black" points="134,-264.1 130.5,-254.1 127,-264.1 134,-264.1"/>
</g>
<!-- a -->
<g id="node3" class="node">
<title>a</title>
<polygon fill="none" stroke="black" points="155,-180 0,-180 0,-144 155,-144 155,-180"/>
<text text-anchor="middle" x="77.5" y="-158.3" font-family="Times,serif" font-size="14.00">timestamp = getInt64(...)</text>
</g>
<!-- if&#45;&gt;a -->
<g id="edge2" class="edge">
<title>if&#45;&gt;a</title>
<path fill="none" stroke="black" d="M121.75,-221.44C115.13,-212.7 105.79,-200.36 97.39,-189.27"/>
<polygon fill="black" stroke="black" points="100.38,-187.41 91.55,-181.56 94.79,-191.64 100.38,-187.41"/>
</g>
<!-- b -->
<g id="node4" class="node">
<title>b</title>
<ellipse fill="none" stroke="black" cx="130.5" cy="-90" rx="27" ry="18"/>
<text text-anchor="middle" x="130.5" y="-86.3" font-family="Times,serif" font-size="14.00">b</text>
</g>
<!-- if&#45;&gt;b -->
<g id="edge4" class="edge">
<title>if&#45;&gt;b</title>
<path fill="none" stroke="black" d="M140.14,-222.16C148.42,-212.05 159.76,-196.16 164.5,-180 169,-164.65 169,-159.35 164.5,-144 161.54,-133.9 155.99,-123.89 150.23,-115.35"/>
<polygon fill="black" stroke="black" points="153.09,-113.33 144.39,-107.29 147.42,-117.44 153.09,-113.33"/>
</g>
<!-- a&#45;&gt;b -->
<g id="edge3" class="edge">
<title>a&#45;&gt;b</title>
<path fill="none" stroke="black" d="M90.6,-143.7C96.97,-135.28 104.74,-125.02 111.73,-115.79"/>
<polygon fill="black" stroke="black" points="114.47,-117.96 117.72,-107.88 108.89,-113.74 114.47,-117.96"/>
</g>
<!-- end -->
<g id="node5" class="node">
<title>end</title>
<ellipse fill="none" stroke="black" cx="130.5" cy="-18" rx="27" ry="18"/>
<text text-anchor="middle" x="130.5" y="-14.3" font-family="Times,serif" font-size="14.00">end</text>
</g>
<!-- b&#45;&gt;end -->
<g id="edge5" class="edge">
<title>b&#45;&gt;end</title>
<path fill="none" stroke="black" d="M130.5,-71.7C130.5,-64.41 130.5,-55.73 130.5,-47.54"/>
<polygon fill="black" stroke="black" points="134,-47.62 130.5,-37.62 127,-47.62 134,-47.62"/>
</g>
</g>
</svg>
