<?xml version="1.0" encoding="UTF-8" standalone="no"?>
<!DOCTYPE svg PUBLIC "-//W3C//DTD SVG 1.1//EN"
 "http://www.w3.org/Graphics/SVG/1.1/DTD/svg11.dtd">
<!-- Generated by graphviz version 7.1.0 (20230121.1956)
 -->
<!-- Pages: 1 -->
<svg width="158pt" height="332pt"
 viewBox="0.00 0.00 158.06 332.00" xmlns="http://www.w3.org/2000/svg" xmlns:xlink="http://www.w3.org/1999/xlink">
<g id="graph0" class="graph" transform="scale(1 1) rotate(0) translate(4 328)">
<polygon fill="white" stroke="none" points="-4,4 -4,-328 154.06,-328 154.06,4 -4,4"/>
<!-- start -->
<g id="node1" class="node">
<title>start</title>
<ellipse fill="none" stroke="black" cx="117" cy="-306" rx="27" ry="18"/>
<text text-anchor="middle" x="117" y="-302.3" font-family="Times,serif" font-size="14.00">start</text>
</g>
<!-- if -->
<g id="node2" class="node">
<title>if</title>
<polygon fill="none" stroke="black" points="117,-252 90,-234 117,-216 144,-234 117,-252"/>
<text text-anchor="middle" x="117" y="-230.3" font-family="Times,serif" font-size="14.00">if</text>
</g>
<!-- start&#45;&gt;if -->
<g id="edge1" class="edge">
<title>start&#45;&gt;if</title>
<path fill="none" stroke="black" d="M117,-287.7C117,-280.52 117,-271.99 117,-263.9"/>
<polygon fill="black" stroke="black" points="120.5,-264.1 117,-254.1 113.5,-264.1 120.5,-264.1"/>
</g>
<!-- a -->
<g id="node3" class="node">
<title>a</title>
<polygon fill="none" stroke="black" points="138,-180 0,-180 0,-144 138,-144 138,-180"/>
<text text-anchor="middle" x="69" y="-158.3" font-family="Times,serif" font-size="14.00">result = startsWith(...)</text>
</g>
<!-- if&#45;&gt;a -->
<g id="edge2" class="edge">
<title>if&#45;&gt;a</title>
<path fill="none" stroke="black" d="M108.86,-221.13C103,-212.58 94.86,-200.72 87.47,-189.93"/>
<polygon fill="black" stroke="black" points="90.37,-187.97 81.83,-181.7 84.59,-191.93 90.37,-187.97"/>
</g>
<!-- b -->
<g id="node4" class="node">
<title>b</title>
<ellipse fill="none" stroke="black" cx="117" cy="-90" rx="27" ry="18"/>
<text text-anchor="middle" x="117" y="-86.3" font-family="Times,serif" font-size="14.00">b</text>
</g>
<!-- if&#45;&gt;b -->
<g id="edge4" class="edge">
<title>if&#45;&gt;b</title>
<path fill="none" stroke="black" d="M125.8,-221.56C133.1,-211.31 142.91,-195.54 147,-180 151.08,-164.53 151.08,-159.47 147,-144 144.43,-134.26 139.62,-124.43 134.59,-115.92"/>
<polygon fill="black" stroke="black" points="137.61,-114.15 129.3,-107.58 131.7,-117.9 137.61,-114.15"/>
</g>
<!-- a&#45;&gt;b -->
<g id="edge3" class="edge">
<title>a&#45;&gt;b</title>
<path fill="none" stroke="black" d="M80.87,-143.7C86.57,-135.37 93.53,-125.23 99.8,-116.08"/>
<polygon fill="black" stroke="black" points="102.63,-118.15 105.4,-107.92 96.86,-114.19 102.63,-118.15"/>
</g>
<!-- end -->
<g id="node5" class="node">
<title>end</title>
<ellipse fill="none" stroke="black" cx="117" cy="-18" rx="27" ry="18"/>
<text text-anchor="middle" x="117" y="-14.3" font-family="Times,serif" font-size="14.00">end</text>
</g>
<!-- b&#45;&gt;end -->
<g id="edge5" class="edge">
<title>b&#45;&gt;end</title>
<path fill="none" stroke="black" d="M117,-71.7C117,-64.41 117,-55.73 117,-47.54"/>
<polygon fill="black" stroke="black" points="120.5,-47.62 117,-37.62 113.5,-47.62 120.5,-47.62"/>
</g>
</g>
</svg>
