<?xml version="1.0" encoding="UTF-8" standalone="no"?>
<!DOCTYPE svg PUBLIC "-//W3C//DTD SVG 1.1//EN"
 "http://www.w3.org/Graphics/SVG/1.1/DTD/svg11.dtd">
<!-- Generated by graphviz version 7.1.0 (20230121.1956)
 -->
<!-- Pages: 1 -->
<svg width="362pt" height="836pt"
 viewBox="0.00 0.00 362.25 836.00" xmlns="http://www.w3.org/2000/svg" xmlns:xlink="http://www.w3.org/1999/xlink">
<g id="graph0" class="graph" transform="scale(1 1) rotate(0) translate(4 832)">
<polygon fill="white" stroke="none" points="-4,4 -4,-832 358.25,-832 358.25,4 -4,4"/>
<!-- start -->
<g id="node1" class="node">
<title>start</title>
<ellipse fill="none" stroke="black" cx="296" cy="-810" rx="27" ry="18"/>
<text text-anchor="middle" x="296" y="-806.3" font-family="Times,serif" font-size="14.00">start</text>
</g>
<!-- try -->
<g id="node2" class="node">
<title>try</title>
<ellipse fill="none" stroke="black" cx="296" cy="-738" rx="27" ry="18"/>
<text text-anchor="middle" x="296" y="-734.3" font-family="Times,serif" font-size="14.00">try</text>
</g>
<!-- start&#45;&gt;try -->
<g id="edge1" class="edge">
<title>start&#45;&gt;try</title>
<path fill="none" stroke="black" d="M296,-791.7C296,-784.41 296,-775.73 296,-767.54"/>
<polygon fill="black" stroke="black" points="299.5,-767.62 296,-757.62 292.5,-767.62 299.5,-767.62"/>
</g>
<!-- if1 -->
<g id="node3" class="node">
<title>if1</title>
<polygon fill="none" stroke="black" points="268,-684 238.67,-666 268,-648 297.33,-666 268,-684"/>
<text text-anchor="middle" x="268" y="-662.3" font-family="Times,serif" font-size="14.00">if1</text>
</g>
<!-- try&#45;&gt;if1 -->
<g id="edge2" class="edge">
<title>try&#45;&gt;if1</title>
<path fill="none" stroke="black" d="M289.36,-720.41C285.92,-711.81 281.65,-701.13 277.84,-691.59"/>
<polygon fill="black" stroke="black" points="281.17,-690.5 274.21,-682.51 274.67,-693.1 281.17,-690.5"/>
</g>
<!-- catch -->
<g id="node14" class="node">
<title>catch</title>
<ellipse fill="none" stroke="black" cx="325" cy="-594" rx="29.5" ry="18"/>
<text text-anchor="middle" x="325" y="-590.3" font-family="Times,serif" font-size="14.00">catch</text>
</g>
<!-- try&#45;&gt;catch -->
<g id="edge16" class="edge">
<title>try&#45;&gt;catch</title>
<path fill="none" stroke="black" d="M299.5,-719.87C304.4,-695.88 313.36,-651.99 319.25,-623.16"/>
<polygon fill="black" stroke="black" points="322.61,-624.17 321.19,-613.67 315.76,-622.77 322.61,-624.17"/>
</g>
<!-- a -->
<g id="node4" class="node">
<title>a</title>
<ellipse fill="none" stroke="black" cx="212" cy="-594" rx="27" ry="18"/>
<text text-anchor="middle" x="212" y="-590.3" font-family="Times,serif" font-size="14.00">a</text>
</g>
<!-- if1&#45;&gt;a -->
<g id="edge3" class="edge">
<title>if1&#45;&gt;a</title>
<path fill="none" stroke="black" d="M258.75,-653.44C251.3,-644.13 240.57,-630.71 231.27,-619.08"/>
<polygon fill="black" stroke="black" points="234.13,-617.06 225.15,-611.44 228.66,-621.43 234.13,-617.06"/>
</g>
<!-- d -->
<g id="node8" class="node">
<title>d</title>
<ellipse fill="none" stroke="black" cx="219" cy="-306" rx="27" ry="18"/>
<text text-anchor="middle" x="219" y="-302.3" font-family="Times,serif" font-size="14.00">d</text>
</g>
<!-- if1&#45;&gt;d -->
<g id="edge9" class="edge">
<title>if1&#45;&gt;d</title>
<path fill="none" stroke="black" d="M268,-647.51C268,-620.71 268,-567.87 268,-523 268,-523 268,-523 268,-449 268,-408.55 263.35,-397.82 249,-360 245.43,-350.58 240.36,-340.83 235.4,-332.31"/>
<polygon fill="black" stroke="black" points="238.49,-330.64 230.31,-323.91 232.5,-334.27 238.49,-330.64"/>
</g>
<!-- if2 -->
<g id="node5" class="node">
<title>if2</title>
<polygon fill="none" stroke="black" points="211,-540 181.67,-522 211,-504 240.33,-522 211,-540"/>
<text text-anchor="middle" x="211" y="-518.3" font-family="Times,serif" font-size="14.00">if2</text>
</g>
<!-- a&#45;&gt;if2 -->
<g id="edge4" class="edge">
<title>a&#45;&gt;if2</title>
<path fill="none" stroke="black" d="M211.75,-575.7C211.65,-568.41 211.52,-559.73 211.41,-551.54"/>
<polygon fill="black" stroke="black" points="214.91,-551.57 211.27,-541.62 207.91,-551.67 214.91,-551.57"/>
</g>
<!-- b -->
<g id="node6" class="node">
<title>b</title>
<polygon fill="none" stroke="black" points="194,-468 0,-468 0,-432 194,-432 194,-468"/>
<text text-anchor="middle" x="97" y="-446.3" font-family="Times,serif" font-size="14.00">lastCommitTime = currentTime</text>
</g>
<!-- if2&#45;&gt;b -->
<g id="edge5" class="edge">
<title>if2&#45;&gt;b</title>
<path fill="none" stroke="black" d="M197.02,-512.42C181.62,-502.96 156.21,-487.36 134.86,-474.24"/>
<polygon fill="black" stroke="black" points="136.71,-471.28 126.36,-469.03 133.05,-477.24 136.71,-471.28"/>
</g>
<!-- c -->
<g id="node7" class="node">
<title>c</title>
<ellipse fill="none" stroke="black" cx="213" cy="-378" rx="27" ry="18"/>
<text text-anchor="middle" x="213" y="-374.3" font-family="Times,serif" font-size="14.00">c</text>
</g>
<!-- if2&#45;&gt;c -->
<g id="edge7" class="edge">
<title>if2&#45;&gt;c</title>
<path fill="none" stroke="black" d="M211.25,-503.59C211.58,-479.61 212.2,-436.14 212.6,-407.42"/>
<polygon fill="black" stroke="black" points="216.1,-407.67 212.74,-397.62 209.1,-407.57 216.1,-407.67"/>
</g>
<!-- b&#45;&gt;c -->
<g id="edge6" class="edge">
<title>b&#45;&gt;c</title>
<path fill="none" stroke="black" d="M125.97,-431.52C143.59,-420.89 166.01,-407.35 183.69,-396.69"/>
<polygon fill="black" stroke="black" points="185.43,-399.73 192.18,-391.56 181.81,-393.73 185.43,-399.73"/>
</g>
<!-- c&#45;&gt;d -->
<g id="edge8" class="edge">
<title>c&#45;&gt;d</title>
<path fill="none" stroke="black" d="M214.48,-359.7C215.11,-352.41 215.85,-343.73 216.55,-335.54"/>
<polygon fill="black" stroke="black" points="220.04,-335.87 217.4,-325.61 213.06,-335.28 220.04,-335.87"/>
</g>
<!-- if3 -->
<g id="node9" class="node">
<title>if3</title>
<polygon fill="none" stroke="black" points="219,-252 189.67,-234 219,-216 248.33,-234 219,-252"/>
<text text-anchor="middle" x="219" y="-230.3" font-family="Times,serif" font-size="14.00">if3</text>
</g>
<!-- d&#45;&gt;if3 -->
<g id="edge10" class="edge">
<title>d&#45;&gt;if3</title>
<path fill="none" stroke="black" d="M219,-287.7C219,-280.41 219,-271.73 219,-263.54"/>
<polygon fill="black" stroke="black" points="222.5,-263.62 219,-253.62 215.5,-263.62 222.5,-263.62"/>
</g>
<!-- e -->
<g id="node10" class="node">
<title>e</title>
<polygon fill="none" stroke="black" points="207,-108 43,-108 43,-72 207,-72 207,-108"/>
<text text-anchor="middle" x="125" y="-86.3" font-family="Times,serif" font-size="14.00">traverser = flatMapIdle(...)</text>
</g>
<!-- if3&#45;&gt;e -->
<g id="edge11" class="edge">
<title>if3&#45;&gt;e</title>
<path fill="none" stroke="black" d="M202.48,-225.84C185.13,-217.44 158.39,-201.83 144,-180 132.23,-162.15 127.59,-138.29 125.84,-119.77"/>
<polygon fill="black" stroke="black" points="129.34,-119.74 125.16,-110 122.36,-120.22 129.34,-119.74"/>
</g>
<!-- f -->
<g id="node12" class="node">
<title>f</title>
<polygon fill="none" stroke="black" points="296.5,-180 153.5,-180 153.5,-144 296.5,-144 296.5,-180"/>
<text text-anchor="middle" x="225" y="-158.3" font-family="Times,serif" font-size="14.00">traverser = flatMap(...)</text>
</g>
<!-- if3&#45;&gt;f -->
<g id="edge13" class="edge">
<title>if3&#45;&gt;f</title>
<path fill="none" stroke="black" d="M220.42,-216.41C221.05,-209.05 221.81,-200.16 222.53,-191.77"/>
<polygon fill="black" stroke="black" points="226.01,-192.22 223.38,-181.95 219.03,-191.62 226.01,-192.22"/>
</g>
<!-- end -->
<g id="node11" class="node">
<title>end</title>
<ellipse fill="none" stroke="black" cx="252" cy="-18" rx="27" ry="18"/>
<text text-anchor="middle" x="252" y="-14.3" font-family="Times,serif" font-size="14.00">end</text>
</g>
<!-- e&#45;&gt;end -->
<g id="edge12" class="edge">
<title>e&#45;&gt;end</title>
<path fill="none" stroke="black" d="M156.72,-71.52C176.65,-60.53 202.2,-46.45 221.83,-35.63"/>
<polygon fill="black" stroke="black" points="223.38,-38.77 230.45,-30.88 220,-32.64 223.38,-38.77"/>
</g>
<!-- g -->
<g id="node13" class="node">
<title>g</title>
<ellipse fill="none" stroke="black" cx="252" cy="-90" rx="27" ry="18"/>
<text text-anchor="middle" x="252" y="-86.3" font-family="Times,serif" font-size="14.00">g</text>
</g>
<!-- f&#45;&gt;g -->
<g id="edge14" class="edge">
<title>f&#45;&gt;g</title>
<path fill="none" stroke="black" d="M231.67,-143.7C234.63,-136.04 238.17,-126.85 241.47,-118.3"/>
<polygon fill="black" stroke="black" points="244.71,-119.62 245.04,-109.03 238.18,-117.1 244.71,-119.62"/>
</g>
<!-- g&#45;&gt;end -->
<g id="edge15" class="edge">
<title>g&#45;&gt;end</title>
<path fill="none" stroke="black" d="M252,-71.7C252,-64.41 252,-55.73 252,-47.54"/>
<polygon fill="black" stroke="black" points="255.5,-47.62 252,-37.62 248.5,-47.62 255.5,-47.62"/>
</g>
<!-- catch&#45;&gt;end -->
<g id="edge17" class="edge">
<title>catch&#45;&gt;end</title>
<path fill="none" stroke="black" d="M325,-575.51C325,-548.71 325,-495.87 325,-451 325,-451 325,-451 325,-161 325,-115.13 294.49,-69.22 272.92,-42.5"/>
<polygon fill="black" stroke="black" points="275.79,-40.47 266.7,-35.04 270.42,-44.96 275.79,-40.47"/>
</g>
</g>
</svg>
