<?xml version="1.0" encoding="UTF-8" standalone="no"?>
<!DOCTYPE svg PUBLIC "-//W3C//DTD SVG 1.1//EN"
 "http://www.w3.org/Graphics/SVG/1.1/DTD/svg11.dtd">
<!-- Generated by graphviz version 7.1.0 (20230121.1956)
 -->
<!-- Pages: 1 -->
<svg width="452pt" height="620pt"
 viewBox="0.00 0.00 452.25 620.00" xmlns="http://www.w3.org/2000/svg" xmlns:xlink="http://www.w3.org/1999/xlink">
<g id="graph0" class="graph" transform="scale(1 1) rotate(0) translate(4 616)">
<polygon fill="white" stroke="none" points="-4,4 -4,-616 448.25,-616 448.25,4 -4,4"/>
<!-- start -->
<g id="node1" class="node">
<title>start</title>
<ellipse fill="none" stroke="black" cx="386" cy="-594" rx="27" ry="18"/>
<text text-anchor="middle" x="386" y="-590.3" font-family="Times,serif" font-size="14.00">start</text>
</g>
<!-- try -->
<g id="node2" class="node">
<title>try</title>
<ellipse fill="none" stroke="black" cx="386" cy="-522" rx="27" ry="18"/>
<text text-anchor="middle" x="386" y="-518.3" font-family="Times,serif" font-size="14.00">try</text>
</g>
<!-- start&#45;&gt;try -->
<g id="edge1" class="edge">
<title>start&#45;&gt;try</title>
<path fill="none" stroke="black" d="M386,-575.7C386,-568.41 386,-559.73 386,-551.54"/>
<polygon fill="black" stroke="black" points="389.5,-551.62 386,-541.62 382.5,-551.62 389.5,-551.62"/>
</g>
<!-- if1 -->
<g id="node3" class="node">
<title>if1</title>
<polygon fill="none" stroke="black" points="358,-468 328.67,-450 358,-432 387.33,-450 358,-468"/>
<text text-anchor="middle" x="358" y="-446.3" font-family="Times,serif" font-size="14.00">if1</text>
</g>
<!-- try&#45;&gt;if1 -->
<g id="edge2" class="edge">
<title>try&#45;&gt;if1</title>
<path fill="none" stroke="black" d="M379.36,-504.41C375.92,-495.81 371.65,-485.13 367.84,-475.59"/>
<polygon fill="black" stroke="black" points="371.17,-474.5 364.21,-466.51 364.67,-477.1 371.17,-474.5"/>
</g>
<!-- catch -->
<g id="node10" class="node">
<title>catch</title>
<ellipse fill="none" stroke="black" cx="415" cy="-378" rx="29.5" ry="18"/>
<text text-anchor="middle" x="415" y="-374.3" font-family="Times,serif" font-size="14.00">catch</text>
</g>
<!-- try&#45;&gt;catch -->
<g id="edge11" class="edge">
<title>try&#45;&gt;catch</title>
<path fill="none" stroke="black" d="M389.5,-503.87C394.4,-479.88 403.36,-435.99 409.25,-407.16"/>
<polygon fill="black" stroke="black" points="412.61,-408.17 411.19,-397.67 405.76,-406.77 412.61,-408.17"/>
</g>
<!-- a -->
<g id="node4" class="node">
<title>a</title>
<polygon fill="none" stroke="black" points="330,-396 0,-396 0,-360 330,-360 330,-396"/>
<text text-anchor="middle" x="165" y="-374.3" font-family="Times,serif" font-size="14.00">connector = startNewConnector(...); taskConfig = get(...)</text>
</g>
<!-- if1&#45;&gt;a -->
<g id="edge3" class="edge">
<title>if1&#45;&gt;a</title>
<path fill="none" stroke="black" d="M340.19,-442.54C313.95,-433.02 263.68,-414.79 223.7,-400.29"/>
<polygon fill="black" stroke="black" points="225,-397.04 214.41,-396.92 222.62,-403.62 225,-397.04"/>
</g>
<!-- b -->
<g id="node5" class="node">
<title>b</title>
<ellipse fill="none" stroke="black" cx="308" cy="-306" rx="27" ry="18"/>
<text text-anchor="middle" x="308" y="-302.3" font-family="Times,serif" font-size="14.00">b</text>
</g>
<!-- if1&#45;&gt;b -->
<g id="edge5" class="edge">
<title>if1&#45;&gt;b</title>
<path fill="none" stroke="black" d="M356.12,-432.8C353.65,-414.62 348.48,-384.45 339,-360 335.33,-350.53 330.1,-340.77 324.98,-332.25"/>
<polygon fill="black" stroke="black" points="327.98,-330.45 319.7,-323.85 322.05,-334.17 327.98,-330.45"/>
</g>
<!-- a&#45;&gt;b -->
<g id="edge4" class="edge">
<title>a&#45;&gt;b</title>
<path fill="none" stroke="black" d="M200.72,-359.52C224.03,-348.1 254.19,-333.34 276.6,-322.37"/>
<polygon fill="black" stroke="black" points="278.1,-325.53 285.55,-317.99 275.02,-319.24 278.1,-325.53"/>
</g>
<!-- if2 -->
<g id="node6" class="node">
<title>if2</title>
<polygon fill="none" stroke="black" points="308,-252 278.67,-234 308,-216 337.33,-234 308,-252"/>
<text text-anchor="middle" x="308" y="-230.3" font-family="Times,serif" font-size="14.00">if2</text>
</g>
<!-- b&#45;&gt;if2 -->
<g id="edge6" class="edge">
<title>b&#45;&gt;if2</title>
<path fill="none" stroke="black" d="M308,-287.7C308,-280.41 308,-271.73 308,-263.54"/>
<polygon fill="black" stroke="black" points="311.5,-263.62 308,-253.62 304.5,-263.62 311.5,-263.62"/>
</g>
<!-- c -->
<g id="node7" class="node">
<title>c</title>
<polygon fill="none" stroke="black" points="340.5,-180 191.5,-180 191.5,-144 340.5,-144 340.5,-180"/>
<text text-anchor="middle" x="266" y="-158.3" font-family="Times,serif" font-size="14.00">task = startNewTask(...)</text>
</g>
<!-- if2&#45;&gt;c -->
<g id="edge7" class="edge">
<title>if2&#45;&gt;c</title>
<path fill="none" stroke="black" d="M300.3,-220.16C295.25,-211.75 288.47,-200.45 282.27,-190.11"/>
<polygon fill="black" stroke="black" points="285.27,-188.31 277.12,-181.54 279.27,-191.92 285.27,-188.31"/>
</g>
<!-- d -->
<g id="node8" class="node">
<title>d</title>
<ellipse fill="none" stroke="black" cx="360" cy="-90" rx="27" ry="18"/>
<text text-anchor="middle" x="360" y="-86.3" font-family="Times,serif" font-size="14.00">d</text>
</g>
<!-- if2&#45;&gt;d -->
<g id="edge9" class="edge">
<title>if2&#45;&gt;d</title>
<path fill="none" stroke="black" d="M319.09,-222.35C328.73,-212.38 342.18,-196.57 349,-180 356.85,-160.93 359.52,-137.78 360.27,-119.86"/>
<polygon fill="black" stroke="black" points="363.77,-120 360.49,-109.93 356.77,-119.85 363.77,-120"/>
</g>
<!-- c&#45;&gt;d -->
<g id="edge8" class="edge">
<title>c&#45;&gt;d</title>
<path fill="none" stroke="black" d="M289.24,-143.7C302.58,-133.76 319.38,-121.25 333.27,-110.91"/>
<polygon fill="black" stroke="black" points="335.19,-113.84 341.12,-105.06 331.01,-108.22 335.19,-113.84"/>
</g>
<!-- end -->
<g id="node9" class="node">
<title>end</title>
<ellipse fill="none" stroke="black" cx="387" cy="-18" rx="27" ry="18"/>
<text text-anchor="middle" x="387" y="-14.3" font-family="Times,serif" font-size="14.00">end</text>
</g>
<!-- d&#45;&gt;end -->
<g id="edge10" class="edge">
<title>d&#45;&gt;end</title>
<path fill="none" stroke="black" d="M366.54,-72.05C369.52,-64.32 373.13,-54.96 376.48,-46.27"/>
<polygon fill="black" stroke="black" points="379.65,-47.79 379.98,-37.2 373.12,-45.27 379.65,-47.79"/>
</g>
<!-- catch&#45;&gt;end -->
<g id="edge12" class="edge">
<title>catch&#45;&gt;end</title>
<path fill="none" stroke="black" d="M415,-359.51C415,-332.71 415,-279.87 415,-235 415,-235 415,-235 415,-161 415,-120.59 403.95,-74.9 395.73,-46.52"/>
<polygon fill="black" stroke="black" points="399.19,-45.86 392.97,-37.29 392.48,-47.87 399.19,-45.86"/>
</g>
</g>
</svg>
