<?xml version="1.0" encoding="UTF-8" standalone="no"?>
<!DOCTYPE svg PUBLIC "-//W3C//DTD SVG 1.1//EN"
 "http://www.w3.org/Graphics/SVG/1.1/DTD/svg11.dtd">
<!-- Generated by graphviz version 7.1.0 (20230121.1956)
 -->
<!-- Pages: 1 -->
<svg width="316pt" height="620pt"
 viewBox="0.00 0.00 316.00 620.00" xmlns="http://www.w3.org/2000/svg" xmlns:xlink="http://www.w3.org/1999/xlink">
<g id="graph0" class="graph" transform="scale(1 1) rotate(0) translate(4 616)">
<polygon fill="white" stroke="none" points="-4,4 -4,-616 312,-616 312,4 -4,4"/>
<!-- start -->
<g id="node1" class="node">
<title>start</title>
<ellipse fill="none" stroke="black" cx="154" cy="-594" rx="27" ry="18"/>
<text text-anchor="middle" x="154" y="-590.3" font-family="Times,serif" font-size="14.00">start</text>
</g>
<!-- a -->
<g id="node2" class="node">
<title>a</title>
<polygon fill="none" stroke="black" points="239,-540 69,-540 69,-504 239,-504 239,-540"/>
<text text-anchor="middle" x="154" y="-518.3" font-family="Times,serif" font-size="14.00">this.mapName = mapName</text>
</g>
<!-- start&#45;&gt;a -->
<g id="edge1" class="edge">
<title>start&#45;&gt;a</title>
<path fill="none" stroke="black" d="M154,-575.7C154,-568.41 154,-559.73 154,-551.54"/>
<polygon fill="black" stroke="black" points="157.5,-551.62 154,-541.62 150.5,-551.62 157.5,-551.62"/>
</g>
<!-- b -->
<g id="node3" class="node">
<title>b</title>
<polygon fill="none" stroke="black" points="225.5,-468 82.5,-468 82.5,-432 225.5,-432 225.5,-468"/>
<text text-anchor="middle" x="154" y="-446.3" font-family="Times,serif" font-size="14.00">logger = getLogger(...)</text>
</g>
<!-- a&#45;&gt;b -->
<g id="edge2" class="edge">
<title>a&#45;&gt;b</title>
<path fill="none" stroke="black" d="M154,-503.7C154,-496.41 154,-487.73 154,-479.54"/>
<polygon fill="black" stroke="black" points="157.5,-479.62 154,-469.62 150.5,-479.62 157.5,-479.62"/>
</g>
<!-- c -->
<g id="node4" class="node">
<title>c</title>
<polygon fill="none" stroke="black" points="265.5,-396 42.5,-396 42.5,-360 265.5,-360 265.5,-396"/>
<text text-anchor="middle" x="154" y="-374.3" font-family="Times,serif" font-size="14.00">this.initTimeoutMillis = getMillis(...)</text>
</g>
<!-- b&#45;&gt;c -->
<g id="edge3" class="edge">
<title>b&#45;&gt;c</title>
<path fill="none" stroke="black" d="M154,-431.7C154,-424.41 154,-415.73 154,-407.54"/>
<polygon fill="black" stroke="black" points="157.5,-407.62 154,-397.62 150.5,-407.62 157.5,-407.62"/>
</g>
<!-- d -->
<g id="node5" class="node">
<title>d</title>
<polygon fill="none" stroke="black" points="205.5,-324 102.5,-324 102.5,-288 205.5,-288 205.5,-324"/>
<text text-anchor="middle" x="154" y="-302.3" font-family="Times,serif" font-size="14.00">sql = getSql(...)</text>
</g>
<!-- c&#45;&gt;d -->
<g id="edge4" class="edge">
<title>c&#45;&gt;d</title>
<path fill="none" stroke="black" d="M154,-359.7C154,-352.41 154,-343.73 154,-335.54"/>
<polygon fill="black" stroke="black" points="157.5,-335.62 154,-325.62 150.5,-335.62 157.5,-335.62"/>
</g>
<!-- e -->
<g id="node6" class="node">
<title>e</title>
<polygon fill="none" stroke="black" points="284,-252 24,-252 24,-216 284,-216 284,-252"/>
<text text-anchor="middle" x="154" y="-230.3" font-family="Times,serif" font-size="14.00">this.instance = getHazelcastInstanceImpl(...)</text>
</g>
<!-- d&#45;&gt;e -->
<g id="edge5" class="edge">
<title>d&#45;&gt;e</title>
<path fill="none" stroke="black" d="M154,-287.7C154,-280.41 154,-271.73 154,-263.54"/>
<polygon fill="black" stroke="black" points="157.5,-263.62 154,-253.62 150.5,-263.62 157.5,-263.62"/>
</g>
<!-- f -->
<g id="node7" class="node">
<title>f</title>
<polygon fill="none" stroke="black" points="225,-180 83,-180 83,-144 225,-144 225,-180"/>
<text text-anchor="middle" x="154" y="-158.3" font-family="Times,serif" font-size="14.00">this.mapping = ... + ...</text>
</g>
<!-- e&#45;&gt;f -->
<g id="edge6" class="edge">
<title>e&#45;&gt;f</title>
<path fill="none" stroke="black" d="M154,-215.7C154,-208.41 154,-199.73 154,-191.54"/>
<polygon fill="black" stroke="black" points="157.5,-191.62 154,-181.62 150.5,-191.62 157.5,-191.62"/>
</g>
<!-- g -->
<g id="node8" class="node">
<title>g</title>
<polygon fill="none" stroke="black" points="308,-108 0,-108 0,-72 308,-72 308,-108"/>
<text text-anchor="middle" x="154" y="-86.3" font-family="Times,serif" font-size="14.00">this.properties = new GenericMapStoreProperties(...)</text>
</g>
<!-- f&#45;&gt;g -->
<g id="edge7" class="edge">
<title>f&#45;&gt;g</title>
<path fill="none" stroke="black" d="M154,-143.7C154,-136.41 154,-127.73 154,-119.54"/>
<polygon fill="black" stroke="black" points="157.5,-119.62 154,-109.62 150.5,-119.62 157.5,-119.62"/>
</g>
<!-- end -->
<g id="node9" class="node">
<title>end</title>
<ellipse fill="none" stroke="black" cx="154" cy="-18" rx="27" ry="18"/>
<text text-anchor="middle" x="154" y="-14.3" font-family="Times,serif" font-size="14.00">end</text>
</g>
<!-- g&#45;&gt;end -->
<g id="edge8" class="edge">
<title>g&#45;&gt;end</title>
<path fill="none" stroke="black" d="M154,-71.7C154,-64.41 154,-55.73 154,-47.54"/>
<polygon fill="black" stroke="black" points="157.5,-47.62 154,-37.62 150.5,-47.62 157.5,-47.62"/>
</g>
</g>
</svg>
