<?xml version="1.0" encoding="UTF-8" standalone="no"?>
<!DOCTYPE svg PUBLIC "-//W3C//DTD SVG 1.1//EN"
 "http://www.w3.org/Graphics/SVG/1.1/DTD/svg11.dtd">
<!-- Generated by graphviz version 7.1.0 (20230121.1956)
 -->
<!-- Pages: 1 -->
<svg width="220pt" height="816pt"
 viewBox="0.00 0.00 219.84 816.00" xmlns="http://www.w3.org/2000/svg" xmlns:xlink="http://www.w3.org/1999/xlink">
<g id="graph0" class="graph" transform="scale(1 1) rotate(0) translate(4 812)">
<polygon fill="white" stroke="none" points="-4,4 -4,-812 215.84,-812 215.84,4 -4,4"/>
<!-- start -->
<g id="node1" class="node">
<title>start</title>
<ellipse fill="none" stroke="black" cx="101.2" cy="-790" rx="27" ry="18"/>
<text text-anchor="middle" x="101.2" y="-786.3" font-family="Times,serif" font-size="14.00">start</text>
</g>
<!-- if9_9 -->
<g id="node2" class="node">
<title>if9_9</title>
<ellipse fill="none" stroke="black" cx="101.2" cy="-717" rx="29.5" ry="18"/>
<text text-anchor="middle" x="101.2" y="-713.3" font-family="Times,serif" font-size="14.00">if9_9</text>
</g>
<!-- start&#45;&gt;if9_9 -->
<g id="edge1" class="edge">
<title>start&#45;&gt;if9_9</title>
<path fill="none" stroke="black" d="M101.2,-771.81C101.2,-764.23 101.2,-755.1 101.2,-746.54"/>
<polygon fill="black" stroke="black" points="104.7,-746.54 101.2,-736.54 97.7,-746.54 104.7,-746.54"/>
</g>
<!-- if_block2 -->
<g id="node3" class="node">
<title>if_block2</title>
<ellipse fill="none" stroke="black" cx="61.2" cy="-630" rx="44.39" ry="18"/>
<text text-anchor="middle" x="61.2" y="-626.3" font-family="Times,serif" font-size="14.00">if_block2</text>
</g>
<!-- if9_9&#45;&gt;if_block2 -->
<g id="edge2" class="edge">
<title>if9_9&#45;&gt;if_block2</title>
<path fill="none" stroke="black" d="M93.29,-699.21C87.8,-687.52 80.35,-671.69 74.01,-658.22"/>
<polygon fill="black" stroke="black" points="77.29,-656.98 69.86,-649.42 70.95,-659.96 77.29,-656.98"/>
<text text-anchor="middle" x="97.2" y="-669.8" font-family="Times,serif" font-size="14.00">True</text>
</g>
<!-- block3 -->
<g id="node4" class="node">
<title>block3</title>
<ellipse fill="none" stroke="black" cx="101.2" cy="-557" rx="34.39" ry="18"/>
<text text-anchor="middle" x="101.2" y="-553.3" font-family="Times,serif" font-size="14.00">block3</text>
</g>
<!-- if9_9&#45;&gt;block3 -->
<g id="edge3" class="edge">
<title>if9_9&#45;&gt;block3</title>
<path fill="none" stroke="black" d="M108.79,-699.25C110.99,-693.58 113.1,-687.12 114.2,-681 119.62,-650.82 117.81,-642.45 114.2,-612 113.18,-603.41 111.27,-594.21 109.23,-585.88"/>
<polygon fill="black" stroke="black" points="112.65,-585.09 106.72,-576.3 105.87,-586.86 112.65,-585.09"/>
<text text-anchor="middle" x="132.7" y="-626.3" font-family="Times,serif" font-size="14.00">False</text>
</g>
<!-- if_block2&#45;&gt;block3 -->
<g id="edge4" class="edge">
<title>if_block2&#45;&gt;block3</title>
<path fill="none" stroke="black" d="M70.68,-612.17C75.31,-603.95 80.99,-593.86 86.2,-584.62"/>
<polygon fill="black" stroke="black" points="89.18,-586.45 91.04,-576.02 83.08,-583.02 89.18,-586.45"/>
</g>
<!-- if22_22 -->
<g id="node5" class="node">
<title>if22_22</title>
<ellipse fill="none" stroke="black" cx="101.2" cy="-484" rx="38.19" ry="18"/>
<text text-anchor="middle" x="101.2" y="-480.3" font-family="Times,serif" font-size="14.00">if22_22</text>
</g>
<!-- block3&#45;&gt;if22_22 -->
<g id="edge5" class="edge">
<title>block3&#45;&gt;if22_22</title>
<path fill="none" stroke="black" d="M101.2,-538.81C101.2,-531.23 101.2,-522.1 101.2,-513.54"/>
<polygon fill="black" stroke="black" points="104.7,-513.54 101.2,-503.54 97.7,-513.54 104.7,-513.54"/>
</g>
<!-- if_block4 -->
<g id="node6" class="node">
<title>if_block4</title>
<ellipse fill="none" stroke="black" cx="61.2" cy="-397" rx="44.39" ry="18"/>
<text text-anchor="middle" x="61.2" y="-393.3" font-family="Times,serif" font-size="14.00">if_block4</text>
</g>
<!-- if22_22&#45;&gt;if_block4 -->
<g id="edge6" class="edge">
<title>if22_22&#45;&gt;if_block4</title>
<path fill="none" stroke="black" d="M93.29,-466.21C87.8,-454.52 80.35,-438.69 74.01,-425.22"/>
<polygon fill="black" stroke="black" points="77.29,-423.98 69.86,-416.42 70.95,-426.96 77.29,-423.98"/>
<text text-anchor="middle" x="97.2" y="-436.8" font-family="Times,serif" font-size="14.00">True</text>
</g>
<!-- block5 -->
<g id="node7" class="node">
<title>block5</title>
<ellipse fill="none" stroke="black" cx="101.2" cy="-324" rx="34.39" ry="18"/>
<text text-anchor="middle" x="101.2" y="-320.3" font-family="Times,serif" font-size="14.00">block5</text>
</g>
<!-- if22_22&#45;&gt;block5 -->
<g id="edge7" class="edge">
<title>if22_22&#45;&gt;block5</title>
<path fill="none" stroke="black" d="M108.93,-465.9C111.08,-460.31 113.12,-454 114.2,-448 119.62,-417.82 117.81,-409.45 114.2,-379 113.18,-370.41 111.27,-361.21 109.23,-352.88"/>
<polygon fill="black" stroke="black" points="112.65,-352.09 106.72,-343.3 105.87,-353.86 112.65,-352.09"/>
<text text-anchor="middle" x="132.7" y="-393.3" font-family="Times,serif" font-size="14.00">False</text>
</g>
<!-- if_block4&#45;&gt;block5 -->
<g id="edge8" class="edge">
<title>if_block4&#45;&gt;block5</title>
<path fill="none" stroke="black" d="M70.68,-379.17C75.31,-370.95 80.99,-360.86 86.2,-351.62"/>
<polygon fill="black" stroke="black" points="89.18,-353.45 91.04,-343.02 83.08,-350.02 89.18,-353.45"/>
</g>
<!-- if26_35 -->
<g id="node8" class="node">
<title>if26_35</title>
<ellipse fill="none" stroke="black" cx="101.2" cy="-251" rx="38.19" ry="18"/>
<text text-anchor="middle" x="101.2" y="-247.3" font-family="Times,serif" font-size="14.00">if26_35</text>
</g>
<!-- block5&#45;&gt;if26_35 -->
<g id="edge9" class="edge">
<title>block5&#45;&gt;if26_35</title>
<path fill="none" stroke="black" d="M101.2,-305.81C101.2,-298.23 101.2,-289.1 101.2,-280.54"/>
<polygon fill="black" stroke="black" points="104.7,-280.54 101.2,-270.54 97.7,-280.54 104.7,-280.54"/>
</g>
<!-- if_block6 -->
<g id="node9" class="node">
<title>if_block6</title>
<ellipse fill="none" stroke="black" cx="44.2" cy="-164" rx="44.39" ry="18"/>
<text text-anchor="middle" x="44.2" y="-160.3" font-family="Times,serif" font-size="14.00">if_block6</text>
</g>
<!-- if26_35&#45;&gt;if_block6 -->
<g id="edge10" class="edge">
<title>if26_35&#45;&gt;if_block6</title>
<path fill="none" stroke="black" d="M90.21,-233.61C82.14,-221.58 71.01,-204.98 61.72,-191.13"/>
<polygon fill="black" stroke="black" points="64.67,-189.24 56.19,-182.89 58.85,-193.14 64.67,-189.24"/>
<text text-anchor="middle" x="89.2" y="-203.8" font-family="Times,serif" font-size="14.00">True</text>
</g>
<!-- else_block7 -->
<g id="node10" class="node">
<title>else_block7</title>
<ellipse fill="none" stroke="black" cx="159.2" cy="-164" rx="52.79" ry="18"/>
<text text-anchor="middle" x="159.2" y="-160.3" font-family="Times,serif" font-size="14.00">else_block7</text>
</g>
<!-- if26_35&#45;&gt;else_block7 -->
<g id="edge11" class="edge">
<title>if26_35&#45;&gt;else_block7</title>
<path fill="none" stroke="black" d="M112.38,-233.61C120.54,-221.65 131.77,-205.2 141.18,-191.4"/>
<polygon fill="black" stroke="black" points="144.05,-193.4 146.8,-183.17 138.27,-189.46 144.05,-193.4"/>
<text text-anchor="middle" x="147.7" y="-203.8" font-family="Times,serif" font-size="14.00">False</text>
</g>
<!-- block8 -->
<g id="node11" class="node">
<title>block8</title>
<ellipse fill="none" stroke="black" cx="101.2" cy="-91" rx="34.39" ry="18"/>
<text text-anchor="middle" x="101.2" y="-87.3" font-family="Times,serif" font-size="14.00">block8</text>
</g>
<!-- if_block6&#45;&gt;block8 -->
<g id="edge13" class="edge">
<title>if_block6&#45;&gt;block8</title>
<path fill="none" stroke="black" d="M57.42,-146.53C64.49,-137.72 73.36,-126.68 81.25,-116.84"/>
<polygon fill="black" stroke="black" points="83.96,-119.06 87.49,-109.07 78.5,-114.68 83.96,-119.06"/>
</g>
<!-- else_block7&#45;&gt;block8 -->
<g id="edge12" class="edge">
<title>else_block7&#45;&gt;block8</title>
<path fill="none" stroke="black" d="M145.45,-146.17C138.24,-137.35 129.27,-126.37 121.3,-116.61"/>
<polygon fill="black" stroke="black" points="124.04,-114.43 115.01,-108.9 118.62,-118.86 124.04,-114.43"/>
</g>
<!-- end -->
<g id="node12" class="node">
<title>end</title>
<ellipse fill="none" stroke="black" cx="101.2" cy="-18" rx="27" ry="18"/>
<text text-anchor="middle" x="101.2" y="-14.3" font-family="Times,serif" font-size="14.00">end</text>
</g>
<!-- block8&#45;&gt;end -->
<g id="edge14" class="edge">
<title>block8&#45;&gt;end</title>
<path fill="none" stroke="black" d="M101.2,-72.81C101.2,-65.23 101.2,-56.1 101.2,-47.54"/>
<polygon fill="black" stroke="black" points="104.7,-47.54 101.2,-37.54 97.7,-47.54 104.7,-47.54"/>
</g>
</g>
</svg>
