<?xml version="1.0" encoding="UTF-8" standalone="no"?>
<!DOCTYPE svg PUBLIC "-//W3C//DTD SVG 1.1//EN"
 "http://www.w3.org/Graphics/SVG/1.1/DTD/svg11.dtd">
<!-- Generated by graphviz version 7.1.0 (20230121.1956)
 -->
<!-- Pages: 1 -->
<svg width="150pt" height="1049pt"
 viewBox="0.00 0.00 149.54 1049.00" xmlns="http://www.w3.org/2000/svg" xmlns:xlink="http://www.w3.org/1999/xlink">
<g id="graph0" class="graph" transform="scale(1 1) rotate(0) translate(4 1045)">
<polygon fill="white" stroke="none" points="-4,4 -4,-1045 145.54,-1045 145.54,4 -4,4"/>
<!-- start -->
<g id="node1" class="node">
<title>start</title>
<ellipse fill="none" stroke="black" cx="103.2" cy="-1023" rx="27" ry="18"/>
<text text-anchor="middle" x="103.2" y="-1019.3" font-family="Times,serif" font-size="14.00">start</text>
</g>
<!-- if22_23 -->
<g id="node2" class="node">
<title>if22_23</title>
<ellipse fill="none" stroke="black" cx="103.2" cy="-950" rx="38.19" ry="18"/>
<text text-anchor="middle" x="103.2" y="-946.3" font-family="Times,serif" font-size="14.00">if22_23</text>
</g>
<!-- start&#45;&gt;if22_23 -->
<g id="edge1" class="edge">
<title>start&#45;&gt;if22_23</title>
<path fill="none" stroke="black" d="M103.2,-1004.81C103.2,-997.23 103.2,-988.1 103.2,-979.54"/>
<polygon fill="black" stroke="black" points="106.7,-979.54 103.2,-969.54 99.7,-979.54 106.7,-979.54"/>
</g>
<!-- if_block2 -->
<g id="node3" class="node">
<title>if_block2</title>
<ellipse fill="none" stroke="black" cx="44.2" cy="-863" rx="44.39" ry="18"/>
<text text-anchor="middle" x="44.2" y="-859.3" font-family="Times,serif" font-size="14.00">if_block2</text>
</g>
<!-- if22_23&#45;&gt;if_block2 -->
<g id="edge2" class="edge">
<title>if22_23&#45;&gt;if_block2</title>
<path fill="none" stroke="black" d="M91.82,-932.61C83.39,-920.46 71.72,-903.66 62.05,-889.73"/>
<polygon fill="black" stroke="black" points="65.18,-888.09 56.6,-881.87 59.43,-892.08 65.18,-888.09"/>
<text text-anchor="middle" x="91.2" y="-902.8" font-family="Times,serif" font-size="14.00">True</text>
</g>
<!-- block3 -->
<g id="node4" class="node">
<title>block3</title>
<ellipse fill="none" stroke="black" cx="84.2" cy="-790" rx="34.39" ry="18"/>
<text text-anchor="middle" x="84.2" y="-786.3" font-family="Times,serif" font-size="14.00">block3</text>
</g>
<!-- if22_23&#45;&gt;block3 -->
<g id="edge3" class="edge">
<title>if22_23&#45;&gt;block3</title>
<path fill="none" stroke="black" d="M106.18,-931.61C107,-926 107.79,-919.76 108.2,-914 110.55,-880.84 101.55,-843.44 93.9,-818.68"/>
<polygon fill="black" stroke="black" points="97.3,-817.81 90.89,-809.38 90.64,-819.97 97.3,-817.81"/>
<text text-anchor="middle" x="121.7" y="-859.3" font-family="Times,serif" font-size="14.00">False</text>
</g>
<!-- if_block2&#45;&gt;block3 -->
<g id="edge4" class="edge">
<title>if_block2&#45;&gt;block3</title>
<path fill="none" stroke="black" d="M53.68,-845.17C58.31,-836.95 63.99,-826.86 69.2,-817.62"/>
<polygon fill="black" stroke="black" points="72.18,-819.45 74.04,-809.02 66.08,-816.02 72.18,-819.45"/>
</g>
<!-- if27_27 -->
<g id="node5" class="node">
<title>if27_27</title>
<ellipse fill="none" stroke="black" cx="84.2" cy="-717" rx="38.19" ry="18"/>
<text text-anchor="middle" x="84.2" y="-713.3" font-family="Times,serif" font-size="14.00">if27_27</text>
</g>
<!-- block3&#45;&gt;if27_27 -->
<g id="edge5" class="edge">
<title>block3&#45;&gt;if27_27</title>
<path fill="none" stroke="black" d="M84.2,-771.81C84.2,-764.23 84.2,-755.1 84.2,-746.54"/>
<polygon fill="black" stroke="black" points="87.7,-746.54 84.2,-736.54 80.7,-746.54 87.7,-746.54"/>
</g>
<!-- if_block4 -->
<g id="node6" class="node">
<title>if_block4</title>
<ellipse fill="none" stroke="black" cx="44.2" cy="-630" rx="44.39" ry="18"/>
<text text-anchor="middle" x="44.2" y="-626.3" font-family="Times,serif" font-size="14.00">if_block4</text>
</g>
<!-- if27_27&#45;&gt;if_block4 -->
<g id="edge6" class="edge">
<title>if27_27&#45;&gt;if_block4</title>
<path fill="none" stroke="black" d="M76.29,-699.21C70.8,-687.52 63.35,-671.69 57.01,-658.22"/>
<polygon fill="black" stroke="black" points="60.29,-656.98 52.86,-649.42 53.95,-659.96 60.29,-656.98"/>
<text text-anchor="middle" x="80.2" y="-669.8" font-family="Times,serif" font-size="14.00">True</text>
</g>
<!-- block5 -->
<g id="node7" class="node">
<title>block5</title>
<ellipse fill="none" stroke="black" cx="84.2" cy="-557" rx="34.39" ry="18"/>
<text text-anchor="middle" x="84.2" y="-553.3" font-family="Times,serif" font-size="14.00">block5</text>
</g>
<!-- if27_27&#45;&gt;block5 -->
<g id="edge7" class="edge">
<title>if27_27&#45;&gt;block5</title>
<path fill="none" stroke="black" d="M91.93,-698.9C94.08,-693.31 96.12,-687 97.2,-681 102.62,-650.82 100.81,-642.45 97.2,-612 96.18,-603.41 94.27,-594.21 92.23,-585.88"/>
<polygon fill="black" stroke="black" points="95.65,-585.09 89.72,-576.3 88.87,-586.86 95.65,-585.09"/>
<text text-anchor="middle" x="114.7" y="-626.3" font-family="Times,serif" font-size="14.00">False</text>
</g>
<!-- if_block4&#45;&gt;block5 -->
<g id="edge8" class="edge">
<title>if_block4&#45;&gt;block5</title>
<path fill="none" stroke="black" d="M53.68,-612.17C58.31,-603.95 63.99,-593.86 69.2,-584.62"/>
<polygon fill="black" stroke="black" points="72.18,-586.45 74.04,-576.02 66.08,-583.02 72.18,-586.45"/>
</g>
<!-- if30_30 -->
<g id="node8" class="node">
<title>if30_30</title>
<ellipse fill="none" stroke="black" cx="84.2" cy="-484" rx="38.19" ry="18"/>
<text text-anchor="middle" x="84.2" y="-480.3" font-family="Times,serif" font-size="14.00">if30_30</text>
</g>
<!-- block5&#45;&gt;if30_30 -->
<g id="edge9" class="edge">
<title>block5&#45;&gt;if30_30</title>
<path fill="none" stroke="black" d="M84.2,-538.81C84.2,-531.23 84.2,-522.1 84.2,-513.54"/>
<polygon fill="black" stroke="black" points="87.7,-513.54 84.2,-503.54 80.7,-513.54 87.7,-513.54"/>
</g>
<!-- if_block6 -->
<g id="node9" class="node">
<title>if_block6</title>
<ellipse fill="none" stroke="black" cx="44.2" cy="-397" rx="44.39" ry="18"/>
<text text-anchor="middle" x="44.2" y="-393.3" font-family="Times,serif" font-size="14.00">if_block6</text>
</g>
<!-- if30_30&#45;&gt;if_block6 -->
<g id="edge10" class="edge">
<title>if30_30&#45;&gt;if_block6</title>
<path fill="none" stroke="black" d="M76.29,-466.21C70.8,-454.52 63.35,-438.69 57.01,-425.22"/>
<polygon fill="black" stroke="black" points="60.29,-423.98 52.86,-416.42 53.95,-426.96 60.29,-423.98"/>
<text text-anchor="middle" x="80.2" y="-436.8" font-family="Times,serif" font-size="14.00">True</text>
</g>
<!-- block7 -->
<g id="node10" class="node">
<title>block7</title>
<ellipse fill="none" stroke="black" cx="84.2" cy="-324" rx="34.39" ry="18"/>
<text text-anchor="middle" x="84.2" y="-320.3" font-family="Times,serif" font-size="14.00">block7</text>
</g>
<!-- if30_30&#45;&gt;block7 -->
<g id="edge11" class="edge">
<title>if30_30&#45;&gt;block7</title>
<path fill="none" stroke="black" d="M91.93,-465.9C94.08,-460.31 96.12,-454 97.2,-448 102.62,-417.82 100.81,-409.45 97.2,-379 96.18,-370.41 94.27,-361.21 92.23,-352.88"/>
<polygon fill="black" stroke="black" points="95.65,-352.09 89.72,-343.3 88.87,-353.86 95.65,-352.09"/>
<text text-anchor="middle" x="114.7" y="-393.3" font-family="Times,serif" font-size="14.00">False</text>
</g>
<!-- if_block6&#45;&gt;block7 -->
<g id="edge12" class="edge">
<title>if_block6&#45;&gt;block7</title>
<path fill="none" stroke="black" d="M53.68,-379.17C58.31,-370.95 63.99,-360.86 69.2,-351.62"/>
<polygon fill="black" stroke="black" points="72.18,-353.45 74.04,-343.02 66.08,-350.02 72.18,-353.45"/>
</g>
<!-- if34_34 -->
<g id="node11" class="node">
<title>if34_34</title>
<ellipse fill="none" stroke="black" cx="84.2" cy="-251" rx="38.19" ry="18"/>
<text text-anchor="middle" x="84.2" y="-247.3" font-family="Times,serif" font-size="14.00">if34_34</text>
</g>
<!-- block7&#45;&gt;if34_34 -->
<g id="edge13" class="edge">
<title>block7&#45;&gt;if34_34</title>
<path fill="none" stroke="black" d="M84.2,-305.81C84.2,-298.23 84.2,-289.1 84.2,-280.54"/>
<polygon fill="black" stroke="black" points="87.7,-280.54 84.2,-270.54 80.7,-280.54 87.7,-280.54"/>
</g>
<!-- if_block8 -->
<g id="node12" class="node">
<title>if_block8</title>
<ellipse fill="none" stroke="black" cx="44.2" cy="-164" rx="44.39" ry="18"/>
<text text-anchor="middle" x="44.2" y="-160.3" font-family="Times,serif" font-size="14.00">if_block8</text>
</g>
<!-- if34_34&#45;&gt;if_block8 -->
<g id="edge14" class="edge">
<title>if34_34&#45;&gt;if_block8</title>
<path fill="none" stroke="black" d="M76.29,-233.21C70.8,-221.52 63.35,-205.69 57.01,-192.22"/>
<polygon fill="black" stroke="black" points="60.29,-190.98 52.86,-183.42 53.95,-193.96 60.29,-190.98"/>
<text text-anchor="middle" x="80.2" y="-203.8" font-family="Times,serif" font-size="14.00">True</text>
</g>
<!-- block9 -->
<g id="node13" class="node">
<title>block9</title>
<ellipse fill="none" stroke="black" cx="84.2" cy="-91" rx="34.39" ry="18"/>
<text text-anchor="middle" x="84.2" y="-87.3" font-family="Times,serif" font-size="14.00">block9</text>
</g>
<!-- if34_34&#45;&gt;block9 -->
<g id="edge15" class="edge">
<title>if34_34&#45;&gt;block9</title>
<path fill="none" stroke="black" d="M91.93,-232.9C94.08,-227.31 96.12,-221 97.2,-215 102.62,-184.82 100.81,-176.45 97.2,-146 96.18,-137.41 94.27,-128.21 92.23,-119.88"/>
<polygon fill="black" stroke="black" points="95.65,-119.09 89.72,-110.3 88.87,-120.86 95.65,-119.09"/>
<text text-anchor="middle" x="114.7" y="-160.3" font-family="Times,serif" font-size="14.00">False</text>
</g>
<!-- if_block8&#45;&gt;block9 -->
<g id="edge16" class="edge">
<title>if_block8&#45;&gt;block9</title>
<path fill="none" stroke="black" d="M53.68,-146.17C58.31,-137.95 63.99,-127.86 69.2,-118.62"/>
<polygon fill="black" stroke="black" points="72.18,-120.45 74.04,-110.02 66.08,-117.02 72.18,-120.45"/>
</g>
<!-- end -->
<g id="node14" class="node">
<title>end</title>
<ellipse fill="none" stroke="black" cx="84.2" cy="-18" rx="27" ry="18"/>
<text text-anchor="middle" x="84.2" y="-14.3" font-family="Times,serif" font-size="14.00">end</text>
</g>
<!-- block9&#45;&gt;end -->
<g id="edge17" class="edge">
<title>block9&#45;&gt;end</title>
<path fill="none" stroke="black" d="M84.2,-72.81C84.2,-65.23 84.2,-56.1 84.2,-47.54"/>
<polygon fill="black" stroke="black" points="87.7,-47.54 84.2,-37.54 80.7,-47.54 87.7,-47.54"/>
</g>
</g>
</svg>
