<?xml version="1.0" encoding="UTF-8" standalone="no"?>
<!DOCTYPE svg PUBLIC "-//W3C//DTD SVG 1.1//EN"
 "http://www.w3.org/Graphics/SVG/1.1/DTD/svg11.dtd">
<!-- Generated by graphviz version 7.1.0 (20230121.1956)
 -->
<!-- Pages: 1 -->
<svg width="238pt" height="1515pt"
 viewBox="0.00 0.00 237.94 1515.00" xmlns="http://www.w3.org/2000/svg" xmlns:xlink="http://www.w3.org/1999/xlink">
<g id="graph0" class="graph" transform="scale(1 1) rotate(0) translate(4 1511)">
<polygon fill="white" stroke="none" points="-4,4 -4,-1511 233.94,-1511 233.94,4 -4,4"/>
<!-- start -->
<g id="node1" class="node">
<title>start</title>
<ellipse fill="none" stroke="black" cx="109.75" cy="-1489" rx="27" ry="18"/>
<text text-anchor="middle" x="109.75" y="-1485.3" font-family="Times,serif" font-size="14.00">start</text>
</g>
<!-- if29_29 -->
<g id="node2" class="node">
<title>if29_29</title>
<ellipse fill="none" stroke="black" cx="109.75" cy="-1416" rx="38.19" ry="18"/>
<text text-anchor="middle" x="109.75" y="-1412.3" font-family="Times,serif" font-size="14.00">if29_29</text>
</g>
<!-- start&#45;&gt;if29_29 -->
<g id="edge1" class="edge">
<title>start&#45;&gt;if29_29</title>
<path fill="none" stroke="black" d="M109.75,-1470.81C109.75,-1463.23 109.75,-1454.1 109.75,-1445.54"/>
<polygon fill="black" stroke="black" points="113.25,-1445.54 109.75,-1435.54 106.25,-1445.54 113.25,-1445.54"/>
</g>
<!-- if_block2 -->
<g id="node3" class="node">
<title>if_block2</title>
<ellipse fill="none" stroke="black" cx="69.75" cy="-1329" rx="44.39" ry="18"/>
<text text-anchor="middle" x="69.75" y="-1325.3" font-family="Times,serif" font-size="14.00">if_block2</text>
</g>
<!-- if29_29&#45;&gt;if_block2 -->
<g id="edge2" class="edge">
<title>if29_29&#45;&gt;if_block2</title>
<path fill="none" stroke="black" d="M101.84,-1398.21C96.35,-1386.52 88.89,-1370.69 82.56,-1357.22"/>
<polygon fill="black" stroke="black" points="85.84,-1355.98 78.41,-1348.42 79.5,-1358.96 85.84,-1355.98"/>
<text text-anchor="middle" x="105.75" y="-1368.8" font-family="Times,serif" font-size="14.00">True</text>
</g>
<!-- block3 -->
<g id="node4" class="node">
<title>block3</title>
<ellipse fill="none" stroke="black" cx="109.75" cy="-1256" rx="34.39" ry="18"/>
<text text-anchor="middle" x="109.75" y="-1252.3" font-family="Times,serif" font-size="14.00">block3</text>
</g>
<!-- if29_29&#45;&gt;block3 -->
<g id="edge3" class="edge">
<title>if29_29&#45;&gt;block3</title>
<path fill="none" stroke="black" d="M117.48,-1397.9C119.63,-1392.31 121.67,-1386 122.75,-1380 128.17,-1349.82 126.36,-1341.45 122.75,-1311 121.73,-1302.41 119.82,-1293.21 117.78,-1284.88"/>
<polygon fill="black" stroke="black" points="121.19,-1284.09 115.27,-1275.3 114.42,-1285.86 121.19,-1284.09"/>
<text text-anchor="middle" x="141.25" y="-1325.3" font-family="Times,serif" font-size="14.00">False</text>
</g>
<!-- if_block2&#45;&gt;block3 -->
<g id="edge4" class="edge">
<title>if_block2&#45;&gt;block3</title>
<path fill="none" stroke="black" d="M79.23,-1311.17C83.86,-1302.95 89.54,-1292.86 94.75,-1283.62"/>
<polygon fill="black" stroke="black" points="97.73,-1285.45 99.59,-1275.02 91.63,-1282.02 97.73,-1285.45"/>
</g>
<!-- if31_31 -->
<g id="node5" class="node">
<title>if31_31</title>
<ellipse fill="none" stroke="black" cx="109.75" cy="-1183" rx="38.19" ry="18"/>
<text text-anchor="middle" x="109.75" y="-1179.3" font-family="Times,serif" font-size="14.00">if31_31</text>
</g>
<!-- block3&#45;&gt;if31_31 -->
<g id="edge5" class="edge">
<title>block3&#45;&gt;if31_31</title>
<path fill="none" stroke="black" d="M109.75,-1237.81C109.75,-1230.23 109.75,-1221.1 109.75,-1212.54"/>
<polygon fill="black" stroke="black" points="113.25,-1212.54 109.75,-1202.54 106.25,-1212.54 113.25,-1212.54"/>
</g>
<!-- if_block4 -->
<g id="node6" class="node">
<title>if_block4</title>
<ellipse fill="none" stroke="black" cx="69.75" cy="-1096" rx="44.39" ry="18"/>
<text text-anchor="middle" x="69.75" y="-1092.3" font-family="Times,serif" font-size="14.00">if_block4</text>
</g>
<!-- if31_31&#45;&gt;if_block4 -->
<g id="edge6" class="edge">
<title>if31_31&#45;&gt;if_block4</title>
<path fill="none" stroke="black" d="M101.84,-1165.21C96.35,-1153.52 88.89,-1137.69 82.56,-1124.22"/>
<polygon fill="black" stroke="black" points="85.84,-1122.98 78.41,-1115.42 79.5,-1125.96 85.84,-1122.98"/>
<text text-anchor="middle" x="105.75" y="-1135.8" font-family="Times,serif" font-size="14.00">True</text>
</g>
<!-- block5 -->
<g id="node7" class="node">
<title>block5</title>
<ellipse fill="none" stroke="black" cx="109.75" cy="-1023" rx="34.39" ry="18"/>
<text text-anchor="middle" x="109.75" y="-1019.3" font-family="Times,serif" font-size="14.00">block5</text>
</g>
<!-- if31_31&#45;&gt;block5 -->
<g id="edge7" class="edge">
<title>if31_31&#45;&gt;block5</title>
<path fill="none" stroke="black" d="M117.48,-1164.9C119.63,-1159.31 121.67,-1153 122.75,-1147 128.17,-1116.82 126.36,-1108.45 122.75,-1078 121.73,-1069.41 119.82,-1060.21 117.78,-1051.88"/>
<polygon fill="black" stroke="black" points="121.19,-1051.09 115.27,-1042.3 114.42,-1052.86 121.19,-1051.09"/>
<text text-anchor="middle" x="141.25" y="-1092.3" font-family="Times,serif" font-size="14.00">False</text>
</g>
<!-- if_block4&#45;&gt;block5 -->
<g id="edge8" class="edge">
<title>if_block4&#45;&gt;block5</title>
<path fill="none" stroke="black" d="M79.23,-1078.17C83.86,-1069.95 89.54,-1059.86 94.75,-1050.62"/>
<polygon fill="black" stroke="black" points="97.73,-1052.45 99.59,-1042.02 91.63,-1049.02 97.73,-1052.45"/>
</g>
<!-- if35_35 -->
<g id="node8" class="node">
<title>if35_35</title>
<ellipse fill="none" stroke="black" cx="109.75" cy="-950" rx="38.19" ry="18"/>
<text text-anchor="middle" x="109.75" y="-946.3" font-family="Times,serif" font-size="14.00">if35_35</text>
</g>
<!-- block5&#45;&gt;if35_35 -->
<g id="edge9" class="edge">
<title>block5&#45;&gt;if35_35</title>
<path fill="none" stroke="black" d="M109.75,-1004.81C109.75,-997.23 109.75,-988.1 109.75,-979.54"/>
<polygon fill="black" stroke="black" points="113.25,-979.54 109.75,-969.54 106.25,-979.54 113.25,-979.54"/>
</g>
<!-- if_block6 -->
<g id="node9" class="node">
<title>if_block6</title>
<ellipse fill="none" stroke="black" cx="69.75" cy="-863" rx="44.39" ry="18"/>
<text text-anchor="middle" x="69.75" y="-859.3" font-family="Times,serif" font-size="14.00">if_block6</text>
</g>
<!-- if35_35&#45;&gt;if_block6 -->
<g id="edge10" class="edge">
<title>if35_35&#45;&gt;if_block6</title>
<path fill="none" stroke="black" d="M101.84,-932.21C96.35,-920.52 88.89,-904.69 82.56,-891.22"/>
<polygon fill="black" stroke="black" points="85.84,-889.98 78.41,-882.42 79.5,-892.96 85.84,-889.98"/>
<text text-anchor="middle" x="105.75" y="-902.8" font-family="Times,serif" font-size="14.00">True</text>
</g>
<!-- block7 -->
<g id="node10" class="node">
<title>block7</title>
<ellipse fill="none" stroke="black" cx="109.75" cy="-790" rx="34.39" ry="18"/>
<text text-anchor="middle" x="109.75" y="-786.3" font-family="Times,serif" font-size="14.00">block7</text>
</g>
<!-- if35_35&#45;&gt;block7 -->
<g id="edge11" class="edge">
<title>if35_35&#45;&gt;block7</title>
<path fill="none" stroke="black" d="M117.48,-931.9C119.63,-926.31 121.67,-920 122.75,-914 128.17,-883.82 126.36,-875.45 122.75,-845 121.73,-836.41 119.82,-827.21 117.78,-818.88"/>
<polygon fill="black" stroke="black" points="121.19,-818.09 115.27,-809.3 114.42,-819.86 121.19,-818.09"/>
<text text-anchor="middle" x="141.25" y="-859.3" font-family="Times,serif" font-size="14.00">False</text>
</g>
<!-- if_block6&#45;&gt;block7 -->
<g id="edge12" class="edge">
<title>if_block6&#45;&gt;block7</title>
<path fill="none" stroke="black" d="M79.23,-845.17C83.86,-836.95 89.54,-826.86 94.75,-817.62"/>
<polygon fill="black" stroke="black" points="97.73,-819.45 99.59,-809.02 91.63,-816.02 97.73,-819.45"/>
</g>
<!-- if40_40 -->
<g id="node11" class="node">
<title>if40_40</title>
<ellipse fill="none" stroke="black" cx="109.75" cy="-717" rx="38.19" ry="18"/>
<text text-anchor="middle" x="109.75" y="-713.3" font-family="Times,serif" font-size="14.00">if40_40</text>
</g>
<!-- block7&#45;&gt;if40_40 -->
<g id="edge13" class="edge">
<title>block7&#45;&gt;if40_40</title>
<path fill="none" stroke="black" d="M109.75,-771.81C109.75,-764.23 109.75,-755.1 109.75,-746.54"/>
<polygon fill="black" stroke="black" points="113.25,-746.54 109.75,-736.54 106.25,-746.54 113.25,-746.54"/>
</g>
<!-- if_block8 -->
<g id="node12" class="node">
<title>if_block8</title>
<ellipse fill="none" stroke="black" cx="69.75" cy="-630" rx="44.39" ry="18"/>
<text text-anchor="middle" x="69.75" y="-626.3" font-family="Times,serif" font-size="14.00">if_block8</text>
</g>
<!-- if40_40&#45;&gt;if_block8 -->
<g id="edge14" class="edge">
<title>if40_40&#45;&gt;if_block8</title>
<path fill="none" stroke="black" d="M101.84,-699.21C96.35,-687.52 88.89,-671.69 82.56,-658.22"/>
<polygon fill="black" stroke="black" points="85.84,-656.98 78.41,-649.42 79.5,-659.96 85.84,-656.98"/>
<text text-anchor="middle" x="105.75" y="-669.8" font-family="Times,serif" font-size="14.00">True</text>
</g>
<!-- block9 -->
<g id="node13" class="node">
<title>block9</title>
<ellipse fill="none" stroke="black" cx="109.75" cy="-557" rx="34.39" ry="18"/>
<text text-anchor="middle" x="109.75" y="-553.3" font-family="Times,serif" font-size="14.00">block9</text>
</g>
<!-- if40_40&#45;&gt;block9 -->
<g id="edge15" class="edge">
<title>if40_40&#45;&gt;block9</title>
<path fill="none" stroke="black" d="M117.48,-698.9C119.63,-693.31 121.67,-687 122.75,-681 128.17,-650.82 126.36,-642.45 122.75,-612 121.73,-603.41 119.82,-594.21 117.78,-585.88"/>
<polygon fill="black" stroke="black" points="121.19,-585.09 115.27,-576.3 114.42,-586.86 121.19,-585.09"/>
<text text-anchor="middle" x="141.25" y="-626.3" font-family="Times,serif" font-size="14.00">False</text>
</g>
<!-- if_block8&#45;&gt;block9 -->
<g id="edge16" class="edge">
<title>if_block8&#45;&gt;block9</title>
<path fill="none" stroke="black" d="M79.23,-612.17C83.86,-603.95 89.54,-593.86 94.75,-584.62"/>
<polygon fill="black" stroke="black" points="97.73,-586.45 99.59,-576.02 91.63,-583.02 97.73,-586.45"/>
</g>
<!-- if43_45 -->
<g id="node14" class="node">
<title>if43_45</title>
<ellipse fill="none" stroke="black" cx="109.75" cy="-484" rx="38.19" ry="18"/>
<text text-anchor="middle" x="109.75" y="-480.3" font-family="Times,serif" font-size="14.00">if43_45</text>
</g>
<!-- block9&#45;&gt;if43_45 -->
<g id="edge17" class="edge">
<title>block9&#45;&gt;if43_45</title>
<path fill="none" stroke="black" d="M109.75,-538.81C109.75,-531.23 109.75,-522.1 109.75,-513.54"/>
<polygon fill="black" stroke="black" points="113.25,-513.54 109.75,-503.54 106.25,-513.54 113.25,-513.54"/>
</g>
<!-- if_block10 -->
<g id="node15" class="node">
<title>if_block10</title>
<ellipse fill="none" stroke="black" cx="48.75" cy="-397" rx="48.99" ry="18"/>
<text text-anchor="middle" x="48.75" y="-393.3" font-family="Times,serif" font-size="14.00">if_block10</text>
</g>
<!-- if43_45&#45;&gt;if_block10 -->
<g id="edge18" class="edge">
<title>if43_45&#45;&gt;if_block10</title>
<path fill="none" stroke="black" d="M97.98,-466.61C89.32,-454.54 77.36,-437.88 67.4,-424"/>
<polygon fill="black" stroke="black" points="70.45,-422.23 61.77,-416.15 64.76,-426.32 70.45,-422.23"/>
<text text-anchor="middle" x="96.75" y="-436.8" font-family="Times,serif" font-size="14.00">True</text>
</g>
<!-- else_block11 -->
<g id="node16" class="node">
<title>else_block11</title>
<ellipse fill="none" stroke="black" cx="172.75" cy="-397" rx="57.39" ry="18"/>
<text text-anchor="middle" x="172.75" y="-393.3" font-family="Times,serif" font-size="14.00">else_block11</text>
</g>
<!-- if43_45&#45;&gt;else_block11 -->
<g id="edge19" class="edge">
<title>if43_45&#45;&gt;else_block11</title>
<path fill="none" stroke="black" d="M121.89,-466.61C130.84,-454.54 143.19,-437.88 153.48,-424"/>
<polygon fill="black" stroke="black" points="156.16,-426.25 159.3,-416.14 150.54,-422.09 156.16,-426.25"/>
<text text-anchor="middle" x="159.25" y="-436.8" font-family="Times,serif" font-size="14.00">False</text>
</g>
<!-- block12 -->
<g id="node17" class="node">
<title>block12</title>
<ellipse fill="none" stroke="black" cx="109.75" cy="-324" rx="38.99" ry="18"/>
<text text-anchor="middle" x="109.75" y="-320.3" font-family="Times,serif" font-size="14.00">block12</text>
</g>
<!-- if_block10&#45;&gt;block12 -->
<g id="edge21" class="edge">
<title>if_block10&#45;&gt;block12</title>
<path fill="none" stroke="black" d="M62.89,-379.53C70.55,-370.63 80.15,-359.45 88.67,-349.54"/>
<polygon fill="black" stroke="black" points="91.25,-351.9 95.11,-342.04 85.94,-347.34 91.25,-351.9"/>
</g>
<!-- else_block11&#45;&gt;block12 -->
<g id="edge20" class="edge">
<title>else_block11&#45;&gt;block12</title>
<path fill="none" stroke="black" d="M157.82,-379.17C150.02,-370.38 140.32,-359.46 131.68,-349.72"/>
<polygon fill="black" stroke="black" points="134.39,-347.51 125.14,-342.35 129.16,-352.15 134.39,-347.51"/>
</g>
<!-- if50_50 -->
<g id="node18" class="node">
<title>if50_50</title>
<ellipse fill="none" stroke="black" cx="109.75" cy="-251" rx="38.19" ry="18"/>
<text text-anchor="middle" x="109.75" y="-247.3" font-family="Times,serif" font-size="14.00">if50_50</text>
</g>
<!-- block12&#45;&gt;if50_50 -->
<g id="edge22" class="edge">
<title>block12&#45;&gt;if50_50</title>
<path fill="none" stroke="black" d="M109.75,-305.81C109.75,-298.23 109.75,-289.1 109.75,-280.54"/>
<polygon fill="black" stroke="black" points="113.25,-280.54 109.75,-270.54 106.25,-280.54 113.25,-280.54"/>
</g>
<!-- if_block13 -->
<g id="node19" class="node">
<title>if_block13</title>
<ellipse fill="none" stroke="black" cx="67.75" cy="-164" rx="48.99" ry="18"/>
<text text-anchor="middle" x="67.75" y="-160.3" font-family="Times,serif" font-size="14.00">if_block13</text>
</g>
<!-- if50_50&#45;&gt;if_block13 -->
<g id="edge23" class="edge">
<title>if50_50&#45;&gt;if_block13</title>
<path fill="none" stroke="black" d="M101.45,-233.21C95.68,-221.52 87.85,-205.69 81.2,-192.22"/>
<polygon fill="black" stroke="black" points="84.41,-190.82 76.84,-183.41 78.13,-193.92 84.41,-190.82"/>
<text text-anchor="middle" x="104.75" y="-203.8" font-family="Times,serif" font-size="14.00">True</text>
</g>
<!-- block14 -->
<g id="node20" class="node">
<title>block14</title>
<ellipse fill="none" stroke="black" cx="109.75" cy="-91" rx="38.99" ry="18"/>
<text text-anchor="middle" x="109.75" y="-87.3" font-family="Times,serif" font-size="14.00">block14</text>
</g>
<!-- if50_50&#45;&gt;block14 -->
<g id="edge24" class="edge">
<title>if50_50&#45;&gt;block14</title>
<path fill="none" stroke="black" d="M116.33,-233.12C118.33,-227.44 120.37,-221.01 121.75,-215 128.61,-185.06 130.15,-176.4 125.75,-146 124.51,-137.45 122.22,-128.37 119.75,-120.14"/>
<polygon fill="black" stroke="black" points="123.09,-119.11 116.7,-110.67 116.43,-121.26 123.09,-119.11"/>
<text text-anchor="middle" x="143.25" y="-160.3" font-family="Times,serif" font-size="14.00">False</text>
</g>
<!-- if_block13&#45;&gt;block14 -->
<g id="edge25" class="edge">
<title>if_block13&#45;&gt;block14</title>
<path fill="none" stroke="black" d="M77.7,-146.17C82.62,-137.86 88.66,-127.64 94.17,-118.33"/>
<polygon fill="black" stroke="black" points="97.01,-120.4 99.09,-110.01 90.99,-116.83 97.01,-120.4"/>
</g>
<!-- end -->
<g id="node21" class="node">
<title>end</title>
<ellipse fill="none" stroke="black" cx="109.75" cy="-18" rx="27" ry="18"/>
<text text-anchor="middle" x="109.75" y="-14.3" font-family="Times,serif" font-size="14.00">end</text>
</g>
<!-- block14&#45;&gt;end -->
<g id="edge26" class="edge">
<title>block14&#45;&gt;end</title>
<path fill="none" stroke="black" d="M109.75,-72.81C109.75,-65.23 109.75,-56.1 109.75,-47.54"/>
<polygon fill="black" stroke="black" points="113.25,-47.54 109.75,-37.54 106.25,-47.54 113.25,-47.54"/>
</g>
</g>
</svg>
