<?xml version="1.0" encoding="UTF-8" standalone="no"?>
<!DOCTYPE svg PUBLIC "-//W3C//DTD SVG 1.1//EN"
 "http://www.w3.org/Graphics/SVG/1.1/DTD/svg11.dtd">
<!-- Generated by graphviz version 7.1.0 (20230121.1956)
 -->
<!-- Pages: 1 -->
<svg width="147pt" height="1515pt"
 viewBox="0.00 0.00 146.75 1515.00" xmlns="http://www.w3.org/2000/svg" xmlns:xlink="http://www.w3.org/1999/xlink">
<g id="graph0" class="graph" transform="scale(1 1) rotate(0) translate(4 1511)">
<polygon fill="white" stroke="none" points="-4,4 -4,-1511 142.75,-1511 142.75,4 -4,4"/>
<!-- start -->
<g id="node1" class="node">
<title>start</title>
<ellipse fill="none" stroke="black" cx="90.75" cy="-1489" rx="27" ry="18"/>
<text text-anchor="middle" x="90.75" y="-1485.3" font-family="Times,serif" font-size="14.00">start</text>
</g>
<!-- if15_15 -->
<g id="node2" class="node">
<title>if15_15</title>
<ellipse fill="none" stroke="black" cx="90.75" cy="-1416" rx="38.19" ry="18"/>
<text text-anchor="middle" x="90.75" y="-1412.3" font-family="Times,serif" font-size="14.00">if15_15</text>
</g>
<!-- start&#45;&gt;if15_15 -->
<g id="edge1" class="edge">
<title>start&#45;&gt;if15_15</title>
<path fill="none" stroke="black" d="M90.75,-1470.81C90.75,-1463.23 90.75,-1454.1 90.75,-1445.54"/>
<polygon fill="black" stroke="black" points="94.25,-1445.54 90.75,-1435.54 87.25,-1445.54 94.25,-1445.54"/>
</g>
<!-- if_block2 -->
<g id="node3" class="node">
<title>if_block2</title>
<ellipse fill="none" stroke="black" cx="50.75" cy="-1329" rx="44.39" ry="18"/>
<text text-anchor="middle" x="50.75" y="-1325.3" font-family="Times,serif" font-size="14.00">if_block2</text>
</g>
<!-- if15_15&#45;&gt;if_block2 -->
<g id="edge2" class="edge">
<title>if15_15&#45;&gt;if_block2</title>
<path fill="none" stroke="black" d="M82.84,-1398.21C77.35,-1386.52 69.89,-1370.69 63.56,-1357.22"/>
<polygon fill="black" stroke="black" points="66.84,-1355.98 59.41,-1348.42 60.5,-1358.96 66.84,-1355.98"/>
<text text-anchor="middle" x="86.75" y="-1368.8" font-family="Times,serif" font-size="14.00">True</text>
</g>
<!-- block3 -->
<g id="node4" class="node">
<title>block3</title>
<ellipse fill="none" stroke="black" cx="90.75" cy="-1256" rx="34.39" ry="18"/>
<text text-anchor="middle" x="90.75" y="-1252.3" font-family="Times,serif" font-size="14.00">block3</text>
</g>
<!-- if15_15&#45;&gt;block3 -->
<g id="edge3" class="edge">
<title>if15_15&#45;&gt;block3</title>
<path fill="none" stroke="black" d="M98.48,-1397.9C100.63,-1392.31 102.67,-1386 103.75,-1380 109.17,-1349.82 107.36,-1341.45 103.75,-1311 102.73,-1302.41 100.82,-1293.21 98.78,-1284.88"/>
<polygon fill="black" stroke="black" points="102.19,-1284.09 96.27,-1275.3 95.42,-1285.86 102.19,-1284.09"/>
<text text-anchor="middle" x="122.25" y="-1325.3" font-family="Times,serif" font-size="14.00">False</text>
</g>
<!-- if_block2&#45;&gt;block3 -->
<g id="edge4" class="edge">
<title>if_block2&#45;&gt;block3</title>
<path fill="none" stroke="black" d="M60.23,-1311.17C64.86,-1302.95 70.54,-1292.86 75.75,-1283.62"/>
<polygon fill="black" stroke="black" points="78.73,-1285.45 80.59,-1275.02 72.63,-1282.02 78.73,-1285.45"/>
</g>
<!-- if20_20 -->
<g id="node5" class="node">
<title>if20_20</title>
<ellipse fill="none" stroke="black" cx="90.75" cy="-1183" rx="38.19" ry="18"/>
<text text-anchor="middle" x="90.75" y="-1179.3" font-family="Times,serif" font-size="14.00">if20_20</text>
</g>
<!-- block3&#45;&gt;if20_20 -->
<g id="edge5" class="edge">
<title>block3&#45;&gt;if20_20</title>
<path fill="none" stroke="black" d="M90.75,-1237.81C90.75,-1230.23 90.75,-1221.1 90.75,-1212.54"/>
<polygon fill="black" stroke="black" points="94.25,-1212.54 90.75,-1202.54 87.25,-1212.54 94.25,-1212.54"/>
</g>
<!-- if_block4 -->
<g id="node6" class="node">
<title>if_block4</title>
<ellipse fill="none" stroke="black" cx="50.75" cy="-1096" rx="44.39" ry="18"/>
<text text-anchor="middle" x="50.75" y="-1092.3" font-family="Times,serif" font-size="14.00">if_block4</text>
</g>
<!-- if20_20&#45;&gt;if_block4 -->
<g id="edge6" class="edge">
<title>if20_20&#45;&gt;if_block4</title>
<path fill="none" stroke="black" d="M82.84,-1165.21C77.35,-1153.52 69.89,-1137.69 63.56,-1124.22"/>
<polygon fill="black" stroke="black" points="66.84,-1122.98 59.41,-1115.42 60.5,-1125.96 66.84,-1122.98"/>
<text text-anchor="middle" x="86.75" y="-1135.8" font-family="Times,serif" font-size="14.00">True</text>
</g>
<!-- block5 -->
<g id="node7" class="node">
<title>block5</title>
<ellipse fill="none" stroke="black" cx="90.75" cy="-1023" rx="34.39" ry="18"/>
<text text-anchor="middle" x="90.75" y="-1019.3" font-family="Times,serif" font-size="14.00">block5</text>
</g>
<!-- if20_20&#45;&gt;block5 -->
<g id="edge7" class="edge">
<title>if20_20&#45;&gt;block5</title>
<path fill="none" stroke="black" d="M98.48,-1164.9C100.63,-1159.31 102.67,-1153 103.75,-1147 109.17,-1116.82 107.36,-1108.45 103.75,-1078 102.73,-1069.41 100.82,-1060.21 98.78,-1051.88"/>
<polygon fill="black" stroke="black" points="102.19,-1051.09 96.27,-1042.3 95.42,-1052.86 102.19,-1051.09"/>
<text text-anchor="middle" x="122.25" y="-1092.3" font-family="Times,serif" font-size="14.00">False</text>
</g>
<!-- if_block4&#45;&gt;block5 -->
<g id="edge8" class="edge">
<title>if_block4&#45;&gt;block5</title>
<path fill="none" stroke="black" d="M60.23,-1078.17C64.86,-1069.95 70.54,-1059.86 75.75,-1050.62"/>
<polygon fill="black" stroke="black" points="78.73,-1052.45 80.59,-1042.02 72.63,-1049.02 78.73,-1052.45"/>
</g>
<!-- if42_42 -->
<g id="node8" class="node">
<title>if42_42</title>
<ellipse fill="none" stroke="black" cx="90.75" cy="-950" rx="38.19" ry="18"/>
<text text-anchor="middle" x="90.75" y="-946.3" font-family="Times,serif" font-size="14.00">if42_42</text>
</g>
<!-- block5&#45;&gt;if42_42 -->
<g id="edge9" class="edge">
<title>block5&#45;&gt;if42_42</title>
<path fill="none" stroke="black" d="M90.75,-1004.81C90.75,-997.23 90.75,-988.1 90.75,-979.54"/>
<polygon fill="black" stroke="black" points="94.25,-979.54 90.75,-969.54 87.25,-979.54 94.25,-979.54"/>
</g>
<!-- if_block6 -->
<g id="node9" class="node">
<title>if_block6</title>
<ellipse fill="none" stroke="black" cx="50.75" cy="-863" rx="44.39" ry="18"/>
<text text-anchor="middle" x="50.75" y="-859.3" font-family="Times,serif" font-size="14.00">if_block6</text>
</g>
<!-- if42_42&#45;&gt;if_block6 -->
<g id="edge10" class="edge">
<title>if42_42&#45;&gt;if_block6</title>
<path fill="none" stroke="black" d="M82.84,-932.21C77.35,-920.52 69.89,-904.69 63.56,-891.22"/>
<polygon fill="black" stroke="black" points="66.84,-889.98 59.41,-882.42 60.5,-892.96 66.84,-889.98"/>
<text text-anchor="middle" x="86.75" y="-902.8" font-family="Times,serif" font-size="14.00">True</text>
</g>
<!-- block7 -->
<g id="node10" class="node">
<title>block7</title>
<ellipse fill="none" stroke="black" cx="90.75" cy="-790" rx="34.39" ry="18"/>
<text text-anchor="middle" x="90.75" y="-786.3" font-family="Times,serif" font-size="14.00">block7</text>
</g>
<!-- if42_42&#45;&gt;block7 -->
<g id="edge11" class="edge">
<title>if42_42&#45;&gt;block7</title>
<path fill="none" stroke="black" d="M98.48,-931.9C100.63,-926.31 102.67,-920 103.75,-914 109.17,-883.82 107.36,-875.45 103.75,-845 102.73,-836.41 100.82,-827.21 98.78,-818.88"/>
<polygon fill="black" stroke="black" points="102.19,-818.09 96.27,-809.3 95.42,-819.86 102.19,-818.09"/>
<text text-anchor="middle" x="122.25" y="-859.3" font-family="Times,serif" font-size="14.00">False</text>
</g>
<!-- if_block6&#45;&gt;block7 -->
<g id="edge12" class="edge">
<title>if_block6&#45;&gt;block7</title>
<path fill="none" stroke="black" d="M60.23,-845.17C64.86,-836.95 70.54,-826.86 75.75,-817.62"/>
<polygon fill="black" stroke="black" points="78.73,-819.45 80.59,-809.02 72.63,-816.02 78.73,-819.45"/>
</g>
<!-- if57_57 -->
<g id="node11" class="node">
<title>if57_57</title>
<ellipse fill="none" stroke="black" cx="90.75" cy="-717" rx="38.19" ry="18"/>
<text text-anchor="middle" x="90.75" y="-713.3" font-family="Times,serif" font-size="14.00">if57_57</text>
</g>
<!-- block7&#45;&gt;if57_57 -->
<g id="edge13" class="edge">
<title>block7&#45;&gt;if57_57</title>
<path fill="none" stroke="black" d="M90.75,-771.81C90.75,-764.23 90.75,-755.1 90.75,-746.54"/>
<polygon fill="black" stroke="black" points="94.25,-746.54 90.75,-736.54 87.25,-746.54 94.25,-746.54"/>
</g>
<!-- if_block8 -->
<g id="node12" class="node">
<title>if_block8</title>
<ellipse fill="none" stroke="black" cx="50.75" cy="-630" rx="44.39" ry="18"/>
<text text-anchor="middle" x="50.75" y="-626.3" font-family="Times,serif" font-size="14.00">if_block8</text>
</g>
<!-- if57_57&#45;&gt;if_block8 -->
<g id="edge14" class="edge">
<title>if57_57&#45;&gt;if_block8</title>
<path fill="none" stroke="black" d="M82.84,-699.21C77.35,-687.52 69.89,-671.69 63.56,-658.22"/>
<polygon fill="black" stroke="black" points="66.84,-656.98 59.41,-649.42 60.5,-659.96 66.84,-656.98"/>
<text text-anchor="middle" x="86.75" y="-669.8" font-family="Times,serif" font-size="14.00">True</text>
</g>
<!-- block9 -->
<g id="node13" class="node">
<title>block9</title>
<ellipse fill="none" stroke="black" cx="90.75" cy="-557" rx="34.39" ry="18"/>
<text text-anchor="middle" x="90.75" y="-553.3" font-family="Times,serif" font-size="14.00">block9</text>
</g>
<!-- if57_57&#45;&gt;block9 -->
<g id="edge15" class="edge">
<title>if57_57&#45;&gt;block9</title>
<path fill="none" stroke="black" d="M98.48,-698.9C100.63,-693.31 102.67,-687 103.75,-681 109.17,-650.82 107.36,-642.45 103.75,-612 102.73,-603.41 100.82,-594.21 98.78,-585.88"/>
<polygon fill="black" stroke="black" points="102.19,-585.09 96.27,-576.3 95.42,-586.86 102.19,-585.09"/>
<text text-anchor="middle" x="122.25" y="-626.3" font-family="Times,serif" font-size="14.00">False</text>
</g>
<!-- if_block8&#45;&gt;block9 -->
<g id="edge16" class="edge">
<title>if_block8&#45;&gt;block9</title>
<path fill="none" stroke="black" d="M60.23,-612.17C64.86,-603.95 70.54,-593.86 75.75,-584.62"/>
<polygon fill="black" stroke="black" points="78.73,-586.45 80.59,-576.02 72.63,-583.02 78.73,-586.45"/>
</g>
<!-- if67_67 -->
<g id="node14" class="node">
<title>if67_67</title>
<ellipse fill="none" stroke="black" cx="90.75" cy="-484" rx="38.19" ry="18"/>
<text text-anchor="middle" x="90.75" y="-480.3" font-family="Times,serif" font-size="14.00">if67_67</text>
</g>
<!-- block9&#45;&gt;if67_67 -->
<g id="edge17" class="edge">
<title>block9&#45;&gt;if67_67</title>
<path fill="none" stroke="black" d="M90.75,-538.81C90.75,-531.23 90.75,-522.1 90.75,-513.54"/>
<polygon fill="black" stroke="black" points="94.25,-513.54 90.75,-503.54 87.25,-513.54 94.25,-513.54"/>
</g>
<!-- if_block10 -->
<g id="node15" class="node">
<title>if_block10</title>
<ellipse fill="none" stroke="black" cx="48.75" cy="-397" rx="48.99" ry="18"/>
<text text-anchor="middle" x="48.75" y="-393.3" font-family="Times,serif" font-size="14.00">if_block10</text>
</g>
<!-- if67_67&#45;&gt;if_block10 -->
<g id="edge18" class="edge">
<title>if67_67&#45;&gt;if_block10</title>
<path fill="none" stroke="black" d="M82.45,-466.21C76.68,-454.52 68.85,-438.69 62.2,-425.22"/>
<polygon fill="black" stroke="black" points="65.41,-423.82 57.84,-416.41 59.13,-426.92 65.41,-423.82"/>
<text text-anchor="middle" x="85.75" y="-436.8" font-family="Times,serif" font-size="14.00">True</text>
</g>
<!-- block11 -->
<g id="node16" class="node">
<title>block11</title>
<ellipse fill="none" stroke="black" cx="90.75" cy="-324" rx="38.99" ry="18"/>
<text text-anchor="middle" x="90.75" y="-320.3" font-family="Times,serif" font-size="14.00">block11</text>
</g>
<!-- if67_67&#45;&gt;block11 -->
<g id="edge19" class="edge">
<title>if67_67&#45;&gt;block11</title>
<path fill="none" stroke="black" d="M97.33,-466.12C99.33,-460.44 101.37,-454.01 102.75,-448 109.61,-418.06 111.15,-409.4 106.75,-379 105.51,-370.45 103.22,-361.37 100.75,-353.14"/>
<polygon fill="black" stroke="black" points="104.09,-352.11 97.7,-343.67 97.43,-354.26 104.09,-352.11"/>
<text text-anchor="middle" x="124.25" y="-393.3" font-family="Times,serif" font-size="14.00">False</text>
</g>
<!-- if_block10&#45;&gt;block11 -->
<g id="edge20" class="edge">
<title>if_block10&#45;&gt;block11</title>
<path fill="none" stroke="black" d="M58.7,-379.17C63.62,-370.86 69.66,-360.64 75.17,-351.33"/>
<polygon fill="black" stroke="black" points="78.01,-353.4 80.09,-343.01 71.99,-349.83 78.01,-353.4"/>
</g>
<!-- if78_79 -->
<g id="node17" class="node">
<title>if78_79</title>
<ellipse fill="none" stroke="black" cx="90.75" cy="-251" rx="38.19" ry="18"/>
<text text-anchor="middle" x="90.75" y="-247.3" font-family="Times,serif" font-size="14.00">if78_79</text>
</g>
<!-- block11&#45;&gt;if78_79 -->
<g id="edge21" class="edge">
<title>block11&#45;&gt;if78_79</title>
<path fill="none" stroke="black" d="M90.75,-305.81C90.75,-298.23 90.75,-289.1 90.75,-280.54"/>
<polygon fill="black" stroke="black" points="94.25,-280.54 90.75,-270.54 87.25,-280.54 94.25,-280.54"/>
</g>
<!-- if_block12 -->
<g id="node18" class="node">
<title>if_block12</title>
<ellipse fill="none" stroke="black" cx="48.75" cy="-164" rx="48.99" ry="18"/>
<text text-anchor="middle" x="48.75" y="-160.3" font-family="Times,serif" font-size="14.00">if_block12</text>
</g>
<!-- if78_79&#45;&gt;if_block12 -->
<g id="edge22" class="edge">
<title>if78_79&#45;&gt;if_block12</title>
<path fill="none" stroke="black" d="M82.45,-233.21C76.68,-221.52 68.85,-205.69 62.2,-192.22"/>
<polygon fill="black" stroke="black" points="65.41,-190.82 57.84,-183.41 59.13,-193.92 65.41,-190.82"/>
<text text-anchor="middle" x="85.75" y="-203.8" font-family="Times,serif" font-size="14.00">True</text>
</g>
<!-- block13 -->
<g id="node19" class="node">
<title>block13</title>
<ellipse fill="none" stroke="black" cx="90.75" cy="-91" rx="38.99" ry="18"/>
<text text-anchor="middle" x="90.75" y="-87.3" font-family="Times,serif" font-size="14.00">block13</text>
</g>
<!-- if78_79&#45;&gt;block13 -->
<g id="edge23" class="edge">
<title>if78_79&#45;&gt;block13</title>
<path fill="none" stroke="black" d="M97.33,-233.12C99.33,-227.44 101.37,-221.01 102.75,-215 109.61,-185.06 111.15,-176.4 106.75,-146 105.51,-137.45 103.22,-128.37 100.75,-120.14"/>
<polygon fill="black" stroke="black" points="104.09,-119.11 97.7,-110.67 97.43,-121.26 104.09,-119.11"/>
<text text-anchor="middle" x="124.25" y="-160.3" font-family="Times,serif" font-size="14.00">False</text>
</g>
<!-- if_block12&#45;&gt;block13 -->
<g id="edge24" class="edge">
<title>if_block12&#45;&gt;block13</title>
<path fill="none" stroke="black" d="M58.7,-146.17C63.62,-137.86 69.66,-127.64 75.17,-118.33"/>
<polygon fill="black" stroke="black" points="78.01,-120.4 80.09,-110.01 71.99,-116.83 78.01,-120.4"/>
</g>
<!-- end -->
<g id="node20" class="node">
<title>end</title>
<ellipse fill="none" stroke="black" cx="90.75" cy="-18" rx="27" ry="18"/>
<text text-anchor="middle" x="90.75" y="-14.3" font-family="Times,serif" font-size="14.00">end</text>
</g>
<!-- block13&#45;&gt;end -->
<g id="edge25" class="edge">
<title>block13&#45;&gt;end</title>
<path fill="none" stroke="black" d="M90.75,-72.81C90.75,-65.23 90.75,-56.1 90.75,-47.54"/>
<polygon fill="black" stroke="black" points="94.25,-47.54 90.75,-37.54 87.25,-47.54 94.25,-47.54"/>
</g>
</g>
</svg>
