<?xml version="1.0" encoding="UTF-8" standalone="no"?>
<!DOCTYPE svg PUBLIC "-//W3C//DTD SVG 1.1//EN"
 "http://www.w3.org/Graphics/SVG/1.1/DTD/svg11.dtd">
<!-- Generated by graphviz version 7.1.0 (20230121.1956)
 -->
<!-- Pages: 1 -->
<svg width="220pt" height="816pt"
 viewBox="0.00 0.00 219.84 816.00" xmlns="http://www.w3.org/2000/svg" xmlns:xlink="http://www.w3.org/1999/xlink">
<g id="graph0" class="graph" transform="scale(1 1) rotate(0) translate(4 812)">
<polygon fill="white" stroke="none" points="-4,4 -4,-812 215.84,-812 215.84,4 -4,4"/>
<!-- start -->
<g id="node1" class="node">
<title>start</title>
<ellipse fill="none" stroke="black" cx="101.2" cy="-790" rx="27" ry="18"/>
<text text-anchor="middle" x="101.2" y="-786.3" font-family="Times,serif" font-size="14.00">start</text>
</g>
<!-- if108_115 -->
<g id="node2" class="node">
<title>if108_115</title>
<ellipse fill="none" stroke="black" cx="101.2" cy="-717" rx="46.59" ry="18"/>
<text text-anchor="middle" x="101.2" y="-713.3" font-family="Times,serif" font-size="14.00">if108_115</text>
</g>
<!-- start&#45;&gt;if108_115 -->
<g id="edge1" class="edge">
<title>start&#45;&gt;if108_115</title>
<path fill="none" stroke="black" d="M101.2,-771.81C101.2,-764.23 101.2,-755.1 101.2,-746.54"/>
<polygon fill="black" stroke="black" points="104.7,-746.54 101.2,-736.54 97.7,-746.54 104.7,-746.54"/>
</g>
<!-- if_block2 -->
<g id="node3" class="node">
<title>if_block2</title>
<ellipse fill="none" stroke="black" cx="44.2" cy="-630" rx="44.39" ry="18"/>
<text text-anchor="middle" x="44.2" y="-626.3" font-family="Times,serif" font-size="14.00">if_block2</text>
</g>
<!-- if108_115&#45;&gt;if_block2 -->
<g id="edge2" class="edge">
<title>if108_115&#45;&gt;if_block2</title>
<path fill="none" stroke="black" d="M89.93,-699.21C81.89,-687.22 70.92,-670.85 61.74,-657.16"/>
<polygon fill="black" stroke="black" points="64.75,-655.37 56.28,-649.02 58.94,-659.27 64.75,-655.37"/>
<text text-anchor="middle" x="89.2" y="-669.8" font-family="Times,serif" font-size="14.00">True</text>
</g>
<!-- else_block3 -->
<g id="node4" class="node">
<title>else_block3</title>
<ellipse fill="none" stroke="black" cx="159.2" cy="-630" rx="52.79" ry="18"/>
<text text-anchor="middle" x="159.2" y="-626.3" font-family="Times,serif" font-size="14.00">else_block3</text>
</g>
<!-- if108_115&#45;&gt;else_block3 -->
<g id="edge3" class="edge">
<title>if108_115&#45;&gt;else_block3</title>
<path fill="none" stroke="black" d="M112.66,-699.21C120.78,-687.29 131.86,-671.06 141.17,-657.42"/>
<polygon fill="black" stroke="black" points="143.96,-659.53 146.71,-649.3 138.18,-655.59 143.96,-659.53"/>
<text text-anchor="middle" x="147.7" y="-669.8" font-family="Times,serif" font-size="14.00">False</text>
</g>
<!-- block4 -->
<g id="node5" class="node">
<title>block4</title>
<ellipse fill="none" stroke="black" cx="101.2" cy="-557" rx="34.39" ry="18"/>
<text text-anchor="middle" x="101.2" y="-553.3" font-family="Times,serif" font-size="14.00">block4</text>
</g>
<!-- if_block2&#45;&gt;block4 -->
<g id="edge5" class="edge">
<title>if_block2&#45;&gt;block4</title>
<path fill="none" stroke="black" d="M57.42,-612.53C64.49,-603.72 73.36,-592.68 81.25,-582.84"/>
<polygon fill="black" stroke="black" points="83.96,-585.06 87.49,-575.07 78.5,-580.68 83.96,-585.06"/>
</g>
<!-- else_block3&#45;&gt;block4 -->
<g id="edge4" class="edge">
<title>else_block3&#45;&gt;block4</title>
<path fill="none" stroke="black" d="M145.45,-612.17C138.24,-603.35 129.27,-592.37 121.3,-582.61"/>
<polygon fill="black" stroke="black" points="124.04,-580.43 115.01,-574.9 118.62,-584.86 124.04,-580.43"/>
</g>
<!-- if52_72 -->
<g id="node6" class="node">
<title>if52_72</title>
<ellipse fill="none" stroke="black" cx="101.2" cy="-484" rx="38.19" ry="18"/>
<text text-anchor="middle" x="101.2" y="-480.3" font-family="Times,serif" font-size="14.00">if52_72</text>
</g>
<!-- block4&#45;&gt;if52_72 -->
<g id="edge6" class="edge">
<title>block4&#45;&gt;if52_72</title>
<path fill="none" stroke="black" d="M101.2,-538.81C101.2,-531.23 101.2,-522.1 101.2,-513.54"/>
<polygon fill="black" stroke="black" points="104.7,-513.54 101.2,-503.54 97.7,-513.54 104.7,-513.54"/>
</g>
<!-- if_block5 -->
<g id="node7" class="node">
<title>if_block5</title>
<ellipse fill="none" stroke="black" cx="61.2" cy="-397" rx="44.39" ry="18"/>
<text text-anchor="middle" x="61.2" y="-393.3" font-family="Times,serif" font-size="14.00">if_block5</text>
</g>
<!-- if52_72&#45;&gt;if_block5 -->
<g id="edge7" class="edge">
<title>if52_72&#45;&gt;if_block5</title>
<path fill="none" stroke="black" d="M93.29,-466.21C87.8,-454.52 80.35,-438.69 74.01,-425.22"/>
<polygon fill="black" stroke="black" points="77.29,-423.98 69.86,-416.42 70.95,-426.96 77.29,-423.98"/>
<text text-anchor="middle" x="97.2" y="-436.8" font-family="Times,serif" font-size="14.00">True</text>
</g>
<!-- block6 -->
<g id="node8" class="node">
<title>block6</title>
<ellipse fill="none" stroke="black" cx="101.2" cy="-324" rx="34.39" ry="18"/>
<text text-anchor="middle" x="101.2" y="-320.3" font-family="Times,serif" font-size="14.00">block6</text>
</g>
<!-- if52_72&#45;&gt;block6 -->
<g id="edge8" class="edge">
<title>if52_72&#45;&gt;block6</title>
<path fill="none" stroke="black" d="M108.93,-465.9C111.08,-460.31 113.12,-454 114.2,-448 119.62,-417.82 117.81,-409.45 114.2,-379 113.18,-370.41 111.27,-361.21 109.23,-352.88"/>
<polygon fill="black" stroke="black" points="112.65,-352.09 106.72,-343.3 105.87,-353.86 112.65,-352.09"/>
<text text-anchor="middle" x="131.7" y="-393.3" font-family="Times,serif" font-size="14.00">False</text>
</g>
<!-- if_block5&#45;&gt;block6 -->
<g id="edge9" class="edge">
<title>if_block5&#45;&gt;block6</title>
<path fill="none" stroke="black" d="M70.68,-379.17C75.31,-370.95 80.99,-360.86 86.2,-351.62"/>
<polygon fill="black" stroke="black" points="89.18,-353.45 91.04,-343.02 83.08,-350.02 89.18,-353.45"/>
</g>
<!-- if75_77 -->
<g id="node9" class="node">
<title>if75_77</title>
<ellipse fill="none" stroke="black" cx="101.2" cy="-251" rx="38.19" ry="18"/>
<text text-anchor="middle" x="101.2" y="-247.3" font-family="Times,serif" font-size="14.00">if75_77</text>
</g>
<!-- block6&#45;&gt;if75_77 -->
<g id="edge10" class="edge">
<title>block6&#45;&gt;if75_77</title>
<path fill="none" stroke="black" d="M101.2,-305.81C101.2,-298.23 101.2,-289.1 101.2,-280.54"/>
<polygon fill="black" stroke="black" points="104.7,-280.54 101.2,-270.54 97.7,-280.54 104.7,-280.54"/>
</g>
<!-- if_block7 -->
<g id="node10" class="node">
<title>if_block7</title>
<ellipse fill="none" stroke="black" cx="44.2" cy="-164" rx="44.39" ry="18"/>
<text text-anchor="middle" x="44.2" y="-160.3" font-family="Times,serif" font-size="14.00">if_block7</text>
</g>
<!-- if75_77&#45;&gt;if_block7 -->
<g id="edge11" class="edge">
<title>if75_77&#45;&gt;if_block7</title>
<path fill="none" stroke="black" d="M90.21,-233.61C82.14,-221.58 71.01,-204.98 61.72,-191.13"/>
<polygon fill="black" stroke="black" points="64.67,-189.24 56.19,-182.89 58.85,-193.14 64.67,-189.24"/>
<text text-anchor="middle" x="89.2" y="-203.8" font-family="Times,serif" font-size="14.00">True</text>
</g>
<!-- else_block8 -->
<g id="node11" class="node">
<title>else_block8</title>
<ellipse fill="none" stroke="black" cx="159.2" cy="-164" rx="52.79" ry="18"/>
<text text-anchor="middle" x="159.2" y="-160.3" font-family="Times,serif" font-size="14.00">else_block8</text>
</g>
<!-- if75_77&#45;&gt;else_block8 -->
<g id="edge12" class="edge">
<title>if75_77&#45;&gt;else_block8</title>
<path fill="none" stroke="black" d="M112.38,-233.61C120.54,-221.65 131.77,-205.2 141.18,-191.4"/>
<polygon fill="black" stroke="black" points="144.05,-193.4 146.8,-183.17 138.27,-189.46 144.05,-193.4"/>
<text text-anchor="middle" x="147.7" y="-203.8" font-family="Times,serif" font-size="14.00">False</text>
</g>
<!-- block9 -->
<g id="node12" class="node">
<title>block9</title>
<ellipse fill="none" stroke="black" cx="101.2" cy="-91" rx="34.39" ry="18"/>
<text text-anchor="middle" x="101.2" y="-87.3" font-family="Times,serif" font-size="14.00">block9</text>
</g>
<!-- if_block7&#45;&gt;block9 -->
<g id="edge14" class="edge">
<title>if_block7&#45;&gt;block9</title>
<path fill="none" stroke="black" d="M57.42,-146.53C64.49,-137.72 73.36,-126.68 81.25,-116.84"/>
<polygon fill="black" stroke="black" points="83.96,-119.06 87.49,-109.07 78.5,-114.68 83.96,-119.06"/>
</g>
<!-- else_block8&#45;&gt;block9 -->
<g id="edge13" class="edge">
<title>else_block8&#45;&gt;block9</title>
<path fill="none" stroke="black" d="M145.45,-146.17C138.24,-137.35 129.27,-126.37 121.3,-116.61"/>
<polygon fill="black" stroke="black" points="124.04,-114.43 115.01,-108.9 118.62,-118.86 124.04,-114.43"/>
</g>
<!-- end -->
<g id="node13" class="node">
<title>end</title>
<ellipse fill="none" stroke="black" cx="101.2" cy="-18" rx="27" ry="18"/>
<text text-anchor="middle" x="101.2" y="-14.3" font-family="Times,serif" font-size="14.00">end</text>
</g>
<!-- block9&#45;&gt;end -->
<g id="edge15" class="edge">
<title>block9&#45;&gt;end</title>
<path fill="none" stroke="black" d="M101.2,-72.81C101.2,-65.23 101.2,-56.1 101.2,-47.54"/>
<polygon fill="black" stroke="black" points="104.7,-47.54 101.2,-37.54 97.7,-47.54 104.7,-47.54"/>
</g>
</g>
</svg>
