<?xml version="1.0" encoding="UTF-8" standalone="no"?>
<!DOCTYPE svg PUBLIC "-//W3C//DTD SVG 1.1//EN"
 "http://www.w3.org/Graphics/SVG/1.1/DTD/svg11.dtd">
<!-- Generated by graphviz version 7.1.0 (20230121.1956)
 -->
<!-- Pages: 1 -->
<svg width="238pt" height="2447pt"
 viewBox="0.00 0.00 237.94 2447.00" xmlns="http://www.w3.org/2000/svg" xmlns:xlink="http://www.w3.org/1999/xlink">
<g id="graph0" class="graph" transform="scale(1 1) rotate(0) translate(4 2443)">
<polygon fill="white" stroke="none" points="-4,4 -4,-2443 233.94,-2443 233.94,4 -4,4"/>
<!-- start -->
<g id="node1" class="node">
<title>start</title>
<ellipse fill="none" stroke="black" cx="102.75" cy="-2421" rx="27" ry="18"/>
<text text-anchor="middle" x="102.75" y="-2417.3" font-family="Times,serif" font-size="14.00">start</text>
</g>
<!-- if15_39 -->
<g id="node2" class="node">
<title>if15_39</title>
<ellipse fill="none" stroke="black" cx="102.75" cy="-2348" rx="38.19" ry="18"/>
<text text-anchor="middle" x="102.75" y="-2344.3" font-family="Times,serif" font-size="14.00">if15_39</text>
</g>
<!-- start&#45;&gt;if15_39 -->
<g id="edge1" class="edge">
<title>start&#45;&gt;if15_39</title>
<path fill="none" stroke="black" d="M102.75,-2402.81C102.75,-2395.23 102.75,-2386.1 102.75,-2377.54"/>
<polygon fill="black" stroke="black" points="106.25,-2377.54 102.75,-2367.54 99.25,-2377.54 106.25,-2377.54"/>
</g>
<!-- if_block2 -->
<g id="node3" class="node">
<title>if_block2</title>
<ellipse fill="none" stroke="black" cx="45.75" cy="-2261" rx="44.39" ry="18"/>
<text text-anchor="middle" x="45.75" y="-2257.3" font-family="Times,serif" font-size="14.00">if_block2</text>
</g>
<!-- if15_39&#45;&gt;if_block2 -->
<g id="edge2" class="edge">
<title>if15_39&#45;&gt;if_block2</title>
<path fill="none" stroke="black" d="M91.76,-2330.61C83.69,-2318.58 72.56,-2301.98 63.27,-2288.13"/>
<polygon fill="black" stroke="black" points="66.22,-2286.24 57.74,-2279.89 60.4,-2290.14 66.22,-2286.24"/>
<text text-anchor="middle" x="90.75" y="-2300.8" font-family="Times,serif" font-size="14.00">True</text>
</g>
<!-- else_block3 -->
<g id="node4" class="node">
<title>else_block3</title>
<ellipse fill="none" stroke="black" cx="160.75" cy="-2261" rx="52.79" ry="18"/>
<text text-anchor="middle" x="160.75" y="-2257.3" font-family="Times,serif" font-size="14.00">else_block3</text>
</g>
<!-- if15_39&#45;&gt;else_block3 -->
<g id="edge3" class="edge">
<title>if15_39&#45;&gt;else_block3</title>
<path fill="none" stroke="black" d="M113.93,-2330.61C122.09,-2318.65 133.32,-2302.2 142.73,-2288.4"/>
<polygon fill="black" stroke="black" points="145.6,-2290.4 148.35,-2280.17 139.82,-2286.46 145.6,-2290.4"/>
<text text-anchor="middle" x="149.25" y="-2300.8" font-family="Times,serif" font-size="14.00">False</text>
</g>
<!-- block4 -->
<g id="node5" class="node">
<title>block4</title>
<ellipse fill="none" stroke="black" cx="102.75" cy="-2188" rx="34.39" ry="18"/>
<text text-anchor="middle" x="102.75" y="-2184.3" font-family="Times,serif" font-size="14.00">block4</text>
</g>
<!-- if_block2&#45;&gt;block4 -->
<g id="edge5" class="edge">
<title>if_block2&#45;&gt;block4</title>
<path fill="none" stroke="black" d="M58.97,-2243.53C66.04,-2234.72 74.91,-2223.68 82.8,-2213.84"/>
<polygon fill="black" stroke="black" points="85.51,-2216.06 89.04,-2206.07 80.05,-2211.68 85.51,-2216.06"/>
</g>
<!-- else_block3&#45;&gt;block4 -->
<g id="edge4" class="edge">
<title>else_block3&#45;&gt;block4</title>
<path fill="none" stroke="black" d="M147,-2243.17C139.79,-2234.35 130.82,-2223.37 122.85,-2213.61"/>
<polygon fill="black" stroke="black" points="125.59,-2211.43 116.56,-2205.9 120.17,-2215.86 125.59,-2211.43"/>
</g>
<!-- if339_339 -->
<g id="node6" class="node">
<title>if339_339</title>
<ellipse fill="none" stroke="black" cx="102.75" cy="-2115" rx="46.59" ry="18"/>
<text text-anchor="middle" x="102.75" y="-2111.3" font-family="Times,serif" font-size="14.00">if339_339</text>
</g>
<!-- block4&#45;&gt;if339_339 -->
<g id="edge6" class="edge">
<title>block4&#45;&gt;if339_339</title>
<path fill="none" stroke="black" d="M102.75,-2169.81C102.75,-2162.23 102.75,-2153.1 102.75,-2144.54"/>
<polygon fill="black" stroke="black" points="106.25,-2144.54 102.75,-2134.54 99.25,-2144.54 106.25,-2144.54"/>
</g>
<!-- if_block5 -->
<g id="node7" class="node">
<title>if_block5</title>
<ellipse fill="none" stroke="black" cx="62.75" cy="-2028" rx="44.39" ry="18"/>
<text text-anchor="middle" x="62.75" y="-2024.3" font-family="Times,serif" font-size="14.00">if_block5</text>
</g>
<!-- if339_339&#45;&gt;if_block5 -->
<g id="edge7" class="edge">
<title>if339_339&#45;&gt;if_block5</title>
<path fill="none" stroke="black" d="M94.65,-2096.8C89.18,-2085.16 81.83,-2069.55 75.56,-2056.24"/>
<polygon fill="black" stroke="black" points="78.9,-2055.1 71.47,-2047.54 72.56,-2058.08 78.9,-2055.1"/>
<text text-anchor="middle" x="98.75" y="-2067.8" font-family="Times,serif" font-size="14.00">True</text>
</g>
<!-- block6 -->
<g id="node8" class="node">
<title>block6</title>
<ellipse fill="none" stroke="black" cx="115.75" cy="-1955" rx="34.39" ry="18"/>
<text text-anchor="middle" x="115.75" y="-1951.3" font-family="Times,serif" font-size="14.00">block6</text>
</g>
<!-- if339_339&#45;&gt;block6 -->
<g id="edge8" class="edge">
<title>if339_339&#45;&gt;block6</title>
<path fill="none" stroke="black" d="M110.48,-2096.9C112.63,-2091.31 114.67,-2085 115.75,-2079 121.49,-2047.03 120.41,-2009.63 118.58,-1984.53"/>
<polygon fill="black" stroke="black" points="122.09,-1984.47 117.78,-1974.79 115.11,-1985.05 122.09,-1984.47"/>
<text text-anchor="middle" x="134.25" y="-2024.3" font-family="Times,serif" font-size="14.00">False</text>
</g>
<!-- if_block5&#45;&gt;block6 -->
<g id="edge9" class="edge">
<title>if_block5&#45;&gt;block6</title>
<path fill="none" stroke="black" d="M75.04,-2010.53C81.62,-2001.72 89.86,-1990.68 97.2,-1980.84"/>
<polygon fill="black" stroke="black" points="99.8,-1983.21 102.98,-1973.1 94.19,-1979.02 99.8,-1983.21"/>
</g>
<!-- if343_343 -->
<g id="node9" class="node">
<title>if343_343</title>
<ellipse fill="none" stroke="black" cx="115.75" cy="-1882" rx="46.59" ry="18"/>
<text text-anchor="middle" x="115.75" y="-1878.3" font-family="Times,serif" font-size="14.00">if343_343</text>
</g>
<!-- block6&#45;&gt;if343_343 -->
<g id="edge10" class="edge">
<title>block6&#45;&gt;if343_343</title>
<path fill="none" stroke="black" d="M115.75,-1936.81C115.75,-1929.23 115.75,-1920.1 115.75,-1911.54"/>
<polygon fill="black" stroke="black" points="119.25,-1911.54 115.75,-1901.54 112.25,-1911.54 119.25,-1911.54"/>
</g>
<!-- if_block7 -->
<g id="node10" class="node">
<title>if_block7</title>
<ellipse fill="none" stroke="black" cx="56.75" cy="-1795" rx="44.39" ry="18"/>
<text text-anchor="middle" x="56.75" y="-1791.3" font-family="Times,serif" font-size="14.00">if_block7</text>
</g>
<!-- if343_343&#45;&gt;if_block7 -->
<g id="edge11" class="edge">
<title>if343_343&#45;&gt;if_block7</title>
<path fill="none" stroke="black" d="M104.09,-1864.21C95.77,-1852.22 84.41,-1835.85 74.9,-1822.16"/>
<polygon fill="black" stroke="black" points="77.82,-1820.22 69.24,-1814 72.07,-1824.21 77.82,-1820.22"/>
<text text-anchor="middle" x="103.75" y="-1834.8" font-family="Times,serif" font-size="14.00">True</text>
</g>
<!-- block8 -->
<g id="node11" class="node">
<title>block8</title>
<ellipse fill="none" stroke="black" cx="109.75" cy="-1722" rx="34.39" ry="18"/>
<text text-anchor="middle" x="109.75" y="-1718.3" font-family="Times,serif" font-size="14.00">block8</text>
</g>
<!-- if343_343&#45;&gt;block8 -->
<g id="edge12" class="edge">
<title>if343_343&#45;&gt;block8</title>
<path fill="none" stroke="black" d="M118.73,-1863.61C119.55,-1858 120.34,-1851.76 120.75,-1846 123.06,-1813.47 118.74,-1776.17 114.85,-1751.26"/>
<polygon fill="black" stroke="black" points="118.34,-1750.89 113.26,-1741.59 111.43,-1752.03 118.34,-1750.89"/>
<text text-anchor="middle" x="135.25" y="-1791.3" font-family="Times,serif" font-size="14.00">False</text>
</g>
<!-- if_block7&#45;&gt;block8 -->
<g id="edge13" class="edge">
<title>if_block7&#45;&gt;block8</title>
<path fill="none" stroke="black" d="M69.04,-1777.53C75.62,-1768.72 83.86,-1757.68 91.2,-1747.84"/>
<polygon fill="black" stroke="black" points="93.8,-1750.21 96.98,-1740.1 88.19,-1746.02 93.8,-1750.21"/>
</g>
<!-- if347_347 -->
<g id="node12" class="node">
<title>if347_347</title>
<ellipse fill="none" stroke="black" cx="109.75" cy="-1649" rx="46.59" ry="18"/>
<text text-anchor="middle" x="109.75" y="-1645.3" font-family="Times,serif" font-size="14.00">if347_347</text>
</g>
<!-- block8&#45;&gt;if347_347 -->
<g id="edge14" class="edge">
<title>block8&#45;&gt;if347_347</title>
<path fill="none" stroke="black" d="M109.75,-1703.81C109.75,-1696.23 109.75,-1687.1 109.75,-1678.54"/>
<polygon fill="black" stroke="black" points="113.25,-1678.54 109.75,-1668.54 106.25,-1678.54 113.25,-1678.54"/>
</g>
<!-- if_block9 -->
<g id="node13" class="node">
<title>if_block9</title>
<ellipse fill="none" stroke="black" cx="69.75" cy="-1562" rx="44.39" ry="18"/>
<text text-anchor="middle" x="69.75" y="-1558.3" font-family="Times,serif" font-size="14.00">if_block9</text>
</g>
<!-- if347_347&#45;&gt;if_block9 -->
<g id="edge15" class="edge">
<title>if347_347&#45;&gt;if_block9</title>
<path fill="none" stroke="black" d="M101.65,-1630.8C96.18,-1619.16 88.83,-1603.55 82.56,-1590.24"/>
<polygon fill="black" stroke="black" points="85.9,-1589.1 78.47,-1581.54 79.56,-1592.08 85.9,-1589.1"/>
<text text-anchor="middle" x="105.75" y="-1601.8" font-family="Times,serif" font-size="14.00">True</text>
</g>
<!-- block10 -->
<g id="node14" class="node">
<title>block10</title>
<ellipse fill="none" stroke="black" cx="109.75" cy="-1489" rx="38.99" ry="18"/>
<text text-anchor="middle" x="109.75" y="-1485.3" font-family="Times,serif" font-size="14.00">block10</text>
</g>
<!-- if347_347&#45;&gt;block10 -->
<g id="edge16" class="edge">
<title>if347_347&#45;&gt;block10</title>
<path fill="none" stroke="black" d="M117.48,-1630.9C119.63,-1625.31 121.67,-1619 122.75,-1613 128.17,-1582.82 126.36,-1574.45 122.75,-1544 121.74,-1535.54 119.88,-1526.49 117.88,-1518.26"/>
<polygon fill="black" stroke="black" points="121.32,-1517.58 115.4,-1508.78 114.54,-1519.34 121.32,-1517.58"/>
<text text-anchor="middle" x="140.25" y="-1558.3" font-family="Times,serif" font-size="14.00">False</text>
</g>
<!-- if_block9&#45;&gt;block10 -->
<g id="edge17" class="edge">
<title>if_block9&#45;&gt;block10</title>
<path fill="none" stroke="black" d="M79.23,-1544.17C83.86,-1535.95 89.54,-1525.86 94.75,-1516.62"/>
<polygon fill="black" stroke="black" points="97.73,-1518.45 99.59,-1508.02 91.63,-1515.02 97.73,-1518.45"/>
</g>
<!-- if393_393 -->
<g id="node15" class="node">
<title>if393_393</title>
<ellipse fill="none" stroke="black" cx="109.75" cy="-1416" rx="46.59" ry="18"/>
<text text-anchor="middle" x="109.75" y="-1412.3" font-family="Times,serif" font-size="14.00">if393_393</text>
</g>
<!-- block10&#45;&gt;if393_393 -->
<g id="edge18" class="edge">
<title>block10&#45;&gt;if393_393</title>
<path fill="none" stroke="black" d="M109.75,-1470.81C109.75,-1463.23 109.75,-1454.1 109.75,-1445.54"/>
<polygon fill="black" stroke="black" points="113.25,-1445.54 109.75,-1435.54 106.25,-1445.54 113.25,-1445.54"/>
</g>
<!-- if_block11 -->
<g id="node16" class="node">
<title>if_block11</title>
<ellipse fill="none" stroke="black" cx="67.75" cy="-1329" rx="48.99" ry="18"/>
<text text-anchor="middle" x="67.75" y="-1325.3" font-family="Times,serif" font-size="14.00">if_block11</text>
</g>
<!-- if393_393&#45;&gt;if_block11 -->
<g id="edge19" class="edge">
<title>if393_393&#45;&gt;if_block11</title>
<path fill="none" stroke="black" d="M101.45,-1398.21C95.68,-1386.52 87.85,-1370.69 81.2,-1357.22"/>
<polygon fill="black" stroke="black" points="84.41,-1355.82 76.84,-1348.41 78.13,-1358.92 84.41,-1355.82"/>
<text text-anchor="middle" x="104.75" y="-1368.8" font-family="Times,serif" font-size="14.00">True</text>
</g>
<!-- block12 -->
<g id="node17" class="node">
<title>block12</title>
<ellipse fill="none" stroke="black" cx="109.75" cy="-1256" rx="38.99" ry="18"/>
<text text-anchor="middle" x="109.75" y="-1252.3" font-family="Times,serif" font-size="14.00">block12</text>
</g>
<!-- if393_393&#45;&gt;block12 -->
<g id="edge20" class="edge">
<title>if393_393&#45;&gt;block12</title>
<path fill="none" stroke="black" d="M116.46,-1397.76C118.42,-1392.17 120.4,-1385.89 121.75,-1380 128.61,-1350.06 130.15,-1341.4 125.75,-1311 124.51,-1302.45 122.22,-1293.37 119.75,-1285.14"/>
<polygon fill="black" stroke="black" points="123.09,-1284.11 116.7,-1275.67 116.43,-1286.26 123.09,-1284.11"/>
<text text-anchor="middle" x="142.25" y="-1325.3" font-family="Times,serif" font-size="14.00">False</text>
</g>
<!-- if_block11&#45;&gt;block12 -->
<g id="edge21" class="edge">
<title>if_block11&#45;&gt;block12</title>
<path fill="none" stroke="black" d="M77.7,-1311.17C82.62,-1302.86 88.66,-1292.64 94.17,-1283.33"/>
<polygon fill="black" stroke="black" points="97.01,-1285.4 99.09,-1275.01 90.99,-1281.83 97.01,-1285.4"/>
</g>
<!-- if443_445 -->
<g id="node18" class="node">
<title>if443_445</title>
<ellipse fill="none" stroke="black" cx="109.75" cy="-1183" rx="46.59" ry="18"/>
<text text-anchor="middle" x="109.75" y="-1179.3" font-family="Times,serif" font-size="14.00">if443_445</text>
</g>
<!-- block12&#45;&gt;if443_445 -->
<g id="edge22" class="edge">
<title>block12&#45;&gt;if443_445</title>
<path fill="none" stroke="black" d="M109.75,-1237.81C109.75,-1230.23 109.75,-1221.1 109.75,-1212.54"/>
<polygon fill="black" stroke="black" points="113.25,-1212.54 109.75,-1202.54 106.25,-1212.54 113.25,-1212.54"/>
</g>
<!-- if_block13 -->
<g id="node19" class="node">
<title>if_block13</title>
<ellipse fill="none" stroke="black" cx="67.75" cy="-1096" rx="48.99" ry="18"/>
<text text-anchor="middle" x="67.75" y="-1092.3" font-family="Times,serif" font-size="14.00">if_block13</text>
</g>
<!-- if443_445&#45;&gt;if_block13 -->
<g id="edge23" class="edge">
<title>if443_445&#45;&gt;if_block13</title>
<path fill="none" stroke="black" d="M101.45,-1165.21C95.68,-1153.52 87.85,-1137.69 81.2,-1124.22"/>
<polygon fill="black" stroke="black" points="84.41,-1122.82 76.84,-1115.41 78.13,-1125.92 84.41,-1122.82"/>
<text text-anchor="middle" x="104.75" y="-1135.8" font-family="Times,serif" font-size="14.00">True</text>
</g>
<!-- block14 -->
<g id="node20" class="node">
<title>block14</title>
<ellipse fill="none" stroke="black" cx="109.75" cy="-1023" rx="38.99" ry="18"/>
<text text-anchor="middle" x="109.75" y="-1019.3" font-family="Times,serif" font-size="14.00">block14</text>
</g>
<!-- if443_445&#45;&gt;block14 -->
<g id="edge24" class="edge">
<title>if443_445&#45;&gt;block14</title>
<path fill="none" stroke="black" d="M116.46,-1164.76C118.42,-1159.17 120.4,-1152.89 121.75,-1147 128.61,-1117.06 130.15,-1108.4 125.75,-1078 124.51,-1069.45 122.22,-1060.37 119.75,-1052.14"/>
<polygon fill="black" stroke="black" points="123.09,-1051.11 116.7,-1042.67 116.43,-1053.26 123.09,-1051.11"/>
<text text-anchor="middle" x="142.25" y="-1092.3" font-family="Times,serif" font-size="14.00">False</text>
</g>
<!-- if_block13&#45;&gt;block14 -->
<g id="edge25" class="edge">
<title>if_block13&#45;&gt;block14</title>
<path fill="none" stroke="black" d="M77.7,-1078.17C82.62,-1069.86 88.66,-1059.64 94.17,-1050.33"/>
<polygon fill="black" stroke="black" points="97.01,-1052.4 99.09,-1042.01 90.99,-1048.83 97.01,-1052.4"/>
</g>
<!-- if457_459 -->
<g id="node21" class="node">
<title>if457_459</title>
<ellipse fill="none" stroke="black" cx="109.75" cy="-950" rx="46.59" ry="18"/>
<text text-anchor="middle" x="109.75" y="-946.3" font-family="Times,serif" font-size="14.00">if457_459</text>
</g>
<!-- block14&#45;&gt;if457_459 -->
<g id="edge26" class="edge">
<title>block14&#45;&gt;if457_459</title>
<path fill="none" stroke="black" d="M109.75,-1004.81C109.75,-997.23 109.75,-988.1 109.75,-979.54"/>
<polygon fill="black" stroke="black" points="113.25,-979.54 109.75,-969.54 106.25,-979.54 113.25,-979.54"/>
</g>
<!-- if_block15 -->
<g id="node22" class="node">
<title>if_block15</title>
<ellipse fill="none" stroke="black" cx="67.75" cy="-863" rx="48.99" ry="18"/>
<text text-anchor="middle" x="67.75" y="-859.3" font-family="Times,serif" font-size="14.00">if_block15</text>
</g>
<!-- if457_459&#45;&gt;if_block15 -->
<g id="edge27" class="edge">
<title>if457_459&#45;&gt;if_block15</title>
<path fill="none" stroke="black" d="M101.45,-932.21C95.68,-920.52 87.85,-904.69 81.2,-891.22"/>
<polygon fill="black" stroke="black" points="84.41,-889.82 76.84,-882.41 78.13,-892.92 84.41,-889.82"/>
<text text-anchor="middle" x="104.75" y="-902.8" font-family="Times,serif" font-size="14.00">True</text>
</g>
<!-- block16 -->
<g id="node23" class="node">
<title>block16</title>
<ellipse fill="none" stroke="black" cx="109.75" cy="-790" rx="38.99" ry="18"/>
<text text-anchor="middle" x="109.75" y="-786.3" font-family="Times,serif" font-size="14.00">block16</text>
</g>
<!-- if457_459&#45;&gt;block16 -->
<g id="edge28" class="edge">
<title>if457_459&#45;&gt;block16</title>
<path fill="none" stroke="black" d="M116.46,-931.76C118.42,-926.17 120.4,-919.89 121.75,-914 128.61,-884.06 130.15,-875.4 125.75,-845 124.51,-836.45 122.22,-827.37 119.75,-819.14"/>
<polygon fill="black" stroke="black" points="123.09,-818.11 116.7,-809.67 116.43,-820.26 123.09,-818.11"/>
<text text-anchor="middle" x="142.25" y="-859.3" font-family="Times,serif" font-size="14.00">False</text>
</g>
<!-- if_block15&#45;&gt;block16 -->
<g id="edge29" class="edge">
<title>if_block15&#45;&gt;block16</title>
<path fill="none" stroke="black" d="M77.7,-845.17C82.62,-836.86 88.66,-826.64 94.17,-817.33"/>
<polygon fill="black" stroke="black" points="97.01,-819.4 99.09,-809.01 90.99,-815.83 97.01,-819.4"/>
</g>
<!-- if471_471 -->
<g id="node24" class="node">
<title>if471_471</title>
<ellipse fill="none" stroke="black" cx="109.75" cy="-717" rx="46.59" ry="18"/>
<text text-anchor="middle" x="109.75" y="-713.3" font-family="Times,serif" font-size="14.00">if471_471</text>
</g>
<!-- block16&#45;&gt;if471_471 -->
<g id="edge30" class="edge">
<title>block16&#45;&gt;if471_471</title>
<path fill="none" stroke="black" d="M109.75,-771.81C109.75,-764.23 109.75,-755.1 109.75,-746.54"/>
<polygon fill="black" stroke="black" points="113.25,-746.54 109.75,-736.54 106.25,-746.54 113.25,-746.54"/>
</g>
<!-- if_block17 -->
<g id="node25" class="node">
<title>if_block17</title>
<ellipse fill="none" stroke="black" cx="67.75" cy="-630" rx="48.99" ry="18"/>
<text text-anchor="middle" x="67.75" y="-626.3" font-family="Times,serif" font-size="14.00">if_block17</text>
</g>
<!-- if471_471&#45;&gt;if_block17 -->
<g id="edge31" class="edge">
<title>if471_471&#45;&gt;if_block17</title>
<path fill="none" stroke="black" d="M101.45,-699.21C95.68,-687.52 87.85,-671.69 81.2,-658.22"/>
<polygon fill="black" stroke="black" points="84.41,-656.82 76.84,-649.41 78.13,-659.92 84.41,-656.82"/>
<text text-anchor="middle" x="104.75" y="-669.8" font-family="Times,serif" font-size="14.00">True</text>
</g>
<!-- block18 -->
<g id="node26" class="node">
<title>block18</title>
<ellipse fill="none" stroke="black" cx="109.75" cy="-557" rx="38.99" ry="18"/>
<text text-anchor="middle" x="109.75" y="-553.3" font-family="Times,serif" font-size="14.00">block18</text>
</g>
<!-- if471_471&#45;&gt;block18 -->
<g id="edge32" class="edge">
<title>if471_471&#45;&gt;block18</title>
<path fill="none" stroke="black" d="M116.46,-698.76C118.42,-693.17 120.4,-686.89 121.75,-681 128.61,-651.06 130.15,-642.4 125.75,-612 124.51,-603.45 122.22,-594.37 119.75,-586.14"/>
<polygon fill="black" stroke="black" points="123.09,-585.11 116.7,-576.67 116.43,-587.26 123.09,-585.11"/>
<text text-anchor="middle" x="142.25" y="-626.3" font-family="Times,serif" font-size="14.00">False</text>
</g>
<!-- if_block17&#45;&gt;block18 -->
<g id="edge33" class="edge">
<title>if_block17&#45;&gt;block18</title>
<path fill="none" stroke="black" d="M77.7,-612.17C82.62,-603.86 88.66,-593.64 94.17,-584.33"/>
<polygon fill="black" stroke="black" points="97.01,-586.4 99.09,-576.01 90.99,-582.83 97.01,-586.4"/>
</g>
<!-- if483_483 -->
<g id="node27" class="node">
<title>if483_483</title>
<ellipse fill="none" stroke="black" cx="109.75" cy="-484" rx="46.59" ry="18"/>
<text text-anchor="middle" x="109.75" y="-480.3" font-family="Times,serif" font-size="14.00">if483_483</text>
</g>
<!-- block18&#45;&gt;if483_483 -->
<g id="edge34" class="edge">
<title>block18&#45;&gt;if483_483</title>
<path fill="none" stroke="black" d="M109.75,-538.81C109.75,-531.23 109.75,-522.1 109.75,-513.54"/>
<polygon fill="black" stroke="black" points="113.25,-513.54 109.75,-503.54 106.25,-513.54 113.25,-513.54"/>
</g>
<!-- if_block19 -->
<g id="node28" class="node">
<title>if_block19</title>
<ellipse fill="none" stroke="black" cx="67.75" cy="-397" rx="48.99" ry="18"/>
<text text-anchor="middle" x="67.75" y="-393.3" font-family="Times,serif" font-size="14.00">if_block19</text>
</g>
<!-- if483_483&#45;&gt;if_block19 -->
<g id="edge35" class="edge">
<title>if483_483&#45;&gt;if_block19</title>
<path fill="none" stroke="black" d="M101.45,-466.21C95.68,-454.52 87.85,-438.69 81.2,-425.22"/>
<polygon fill="black" stroke="black" points="84.41,-423.82 76.84,-416.41 78.13,-426.92 84.41,-423.82"/>
<text text-anchor="middle" x="104.75" y="-436.8" font-family="Times,serif" font-size="14.00">True</text>
</g>
<!-- block20 -->
<g id="node29" class="node">
<title>block20</title>
<ellipse fill="none" stroke="black" cx="109.75" cy="-324" rx="38.99" ry="18"/>
<text text-anchor="middle" x="109.75" y="-320.3" font-family="Times,serif" font-size="14.00">block20</text>
</g>
<!-- if483_483&#45;&gt;block20 -->
<g id="edge36" class="edge">
<title>if483_483&#45;&gt;block20</title>
<path fill="none" stroke="black" d="M116.46,-465.76C118.42,-460.17 120.4,-453.89 121.75,-448 128.61,-418.06 130.15,-409.4 125.75,-379 124.51,-370.45 122.22,-361.37 119.75,-353.14"/>
<polygon fill="black" stroke="black" points="123.09,-352.11 116.7,-343.67 116.43,-354.26 123.09,-352.11"/>
<text text-anchor="middle" x="142.25" y="-393.3" font-family="Times,serif" font-size="14.00">False</text>
</g>
<!-- if_block19&#45;&gt;block20 -->
<g id="edge37" class="edge">
<title>if_block19&#45;&gt;block20</title>
<path fill="none" stroke="black" d="M77.7,-379.17C82.62,-370.86 88.66,-360.64 94.17,-351.33"/>
<polygon fill="black" stroke="black" points="97.01,-353.4 99.09,-343.01 90.99,-349.83 97.01,-353.4"/>
</g>
<!-- if489_501 -->
<g id="node30" class="node">
<title>if489_501</title>
<ellipse fill="none" stroke="black" cx="109.75" cy="-251" rx="46.59" ry="18"/>
<text text-anchor="middle" x="109.75" y="-247.3" font-family="Times,serif" font-size="14.00">if489_501</text>
</g>
<!-- block20&#45;&gt;if489_501 -->
<g id="edge38" class="edge">
<title>block20&#45;&gt;if489_501</title>
<path fill="none" stroke="black" d="M109.75,-305.81C109.75,-298.23 109.75,-289.1 109.75,-280.54"/>
<polygon fill="black" stroke="black" points="113.25,-280.54 109.75,-270.54 106.25,-280.54 113.25,-280.54"/>
</g>
<!-- if_block21 -->
<g id="node31" class="node">
<title>if_block21</title>
<ellipse fill="none" stroke="black" cx="48.75" cy="-164" rx="48.99" ry="18"/>
<text text-anchor="middle" x="48.75" y="-160.3" font-family="Times,serif" font-size="14.00">if_block21</text>
</g>
<!-- if489_501&#45;&gt;if_block21 -->
<g id="edge39" class="edge">
<title>if489_501&#45;&gt;if_block21</title>
<path fill="none" stroke="black" d="M97.69,-233.21C89.01,-221.1 77.12,-204.53 67.23,-190.76"/>
<polygon fill="black" stroke="black" points="70.33,-189.07 61.65,-182.99 64.64,-193.15 70.33,-189.07"/>
<text text-anchor="middle" x="96.75" y="-203.8" font-family="Times,serif" font-size="14.00">True</text>
</g>
<!-- else_block22 -->
<g id="node32" class="node">
<title>else_block22</title>
<ellipse fill="none" stroke="black" cx="172.75" cy="-164" rx="57.39" ry="18"/>
<text text-anchor="middle" x="172.75" y="-160.3" font-family="Times,serif" font-size="14.00">else_block22</text>
</g>
<!-- if489_501&#45;&gt;else_block22 -->
<g id="edge40" class="edge">
<title>if489_501&#45;&gt;else_block22</title>
<path fill="none" stroke="black" d="M122.19,-233.21C131.11,-221.18 143.29,-204.75 153.45,-191.03"/>
<polygon fill="black" stroke="black" points="156.07,-193.38 159.21,-183.27 150.44,-189.22 156.07,-193.38"/>
<text text-anchor="middle" x="159.25" y="-203.8" font-family="Times,serif" font-size="14.00">False</text>
</g>
<!-- block23 -->
<g id="node33" class="node">
<title>block23</title>
<ellipse fill="none" stroke="black" cx="109.75" cy="-91" rx="38.99" ry="18"/>
<text text-anchor="middle" x="109.75" y="-87.3" font-family="Times,serif" font-size="14.00">block23</text>
</g>
<!-- if_block21&#45;&gt;block23 -->
<g id="edge42" class="edge">
<title>if_block21&#45;&gt;block23</title>
<path fill="none" stroke="black" d="M62.89,-146.53C70.55,-137.63 80.15,-126.45 88.67,-116.54"/>
<polygon fill="black" stroke="black" points="91.25,-118.9 95.11,-109.04 85.94,-114.34 91.25,-118.9"/>
</g>
<!-- else_block22&#45;&gt;block23 -->
<g id="edge41" class="edge">
<title>else_block22&#45;&gt;block23</title>
<path fill="none" stroke="black" d="M157.82,-146.17C150.02,-137.38 140.32,-126.46 131.68,-116.72"/>
<polygon fill="black" stroke="black" points="134.39,-114.51 125.14,-109.35 129.16,-119.15 134.39,-114.51"/>
</g>
<!-- end -->
<g id="node34" class="node">
<title>end</title>
<ellipse fill="none" stroke="black" cx="109.75" cy="-18" rx="27" ry="18"/>
<text text-anchor="middle" x="109.75" y="-14.3" font-family="Times,serif" font-size="14.00">end</text>
</g>
<!-- block23&#45;&gt;end -->
<g id="edge43" class="edge">
<title>block23&#45;&gt;end</title>
<path fill="none" stroke="black" d="M109.75,-72.81C109.75,-65.23 109.75,-56.1 109.75,-47.54"/>
<polygon fill="black" stroke="black" points="113.25,-47.54 109.75,-37.54 106.25,-47.54 113.25,-47.54"/>
</g>
</g>
</svg>
