<?xml version="1.0" encoding="UTF-8" standalone="no"?>
<!DOCTYPE svg PUBLIC "-//W3C//DTD SVG 1.1//EN"
 "http://www.w3.org/Graphics/SVG/1.1/DTD/svg11.dtd">
<!-- Generated by graphviz version 7.1.0 (20230121.1956)
 -->
<!-- Pages: 1 -->
<svg width="150pt" height="583pt"
 viewBox="0.00 0.00 149.54 583.00" xmlns="http://www.w3.org/2000/svg" xmlns:xlink="http://www.w3.org/1999/xlink">
<g id="graph0" class="graph" transform="scale(1 1) rotate(0) translate(4 579)">
<polygon fill="white" stroke="none" points="-4,4 -4,-579 145.54,-579 145.54,4 -4,4"/>
<!-- start -->
<g id="node1" class="node">
<title>start</title>
<ellipse fill="none" stroke="black" cx="103.2" cy="-557" rx="27" ry="18"/>
<text text-anchor="middle" x="103.2" y="-553.3" font-family="Times,serif" font-size="14.00">start</text>
</g>
<!-- if18_18 -->
<g id="node2" class="node">
<title>if18_18</title>
<ellipse fill="none" stroke="black" cx="103.2" cy="-484" rx="38.19" ry="18"/>
<text text-anchor="middle" x="103.2" y="-480.3" font-family="Times,serif" font-size="14.00">if18_18</text>
</g>
<!-- start&#45;&gt;if18_18 -->
<g id="edge1" class="edge">
<title>start&#45;&gt;if18_18</title>
<path fill="none" stroke="black" d="M103.2,-538.81C103.2,-531.23 103.2,-522.1 103.2,-513.54"/>
<polygon fill="black" stroke="black" points="106.7,-513.54 103.2,-503.54 99.7,-513.54 106.7,-513.54"/>
</g>
<!-- if_block2 -->
<g id="node3" class="node">
<title>if_block2</title>
<ellipse fill="none" stroke="black" cx="44.2" cy="-397" rx="44.39" ry="18"/>
<text text-anchor="middle" x="44.2" y="-393.3" font-family="Times,serif" font-size="14.00">if_block2</text>
</g>
<!-- if18_18&#45;&gt;if_block2 -->
<g id="edge2" class="edge">
<title>if18_18&#45;&gt;if_block2</title>
<path fill="none" stroke="black" d="M91.82,-466.61C83.39,-454.46 71.72,-437.66 62.05,-423.73"/>
<polygon fill="black" stroke="black" points="65.18,-422.09 56.6,-415.87 59.43,-426.08 65.18,-422.09"/>
<text text-anchor="middle" x="91.2" y="-436.8" font-family="Times,serif" font-size="14.00">True</text>
</g>
<!-- block3 -->
<g id="node4" class="node">
<title>block3</title>
<ellipse fill="none" stroke="black" cx="84.2" cy="-324" rx="34.39" ry="18"/>
<text text-anchor="middle" x="84.2" y="-320.3" font-family="Times,serif" font-size="14.00">block3</text>
</g>
<!-- if18_18&#45;&gt;block3 -->
<g id="edge3" class="edge">
<title>if18_18&#45;&gt;block3</title>
<path fill="none" stroke="black" d="M106.18,-465.61C107,-460 107.79,-453.76 108.2,-448 110.55,-414.84 101.55,-377.44 93.9,-352.68"/>
<polygon fill="black" stroke="black" points="97.3,-351.81 90.89,-343.38 90.64,-353.97 97.3,-351.81"/>
<text text-anchor="middle" x="121.7" y="-393.3" font-family="Times,serif" font-size="14.00">False</text>
</g>
<!-- if_block2&#45;&gt;block3 -->
<g id="edge4" class="edge">
<title>if_block2&#45;&gt;block3</title>
<path fill="none" stroke="black" d="M53.68,-379.17C58.31,-370.95 63.99,-360.86 69.2,-351.62"/>
<polygon fill="black" stroke="black" points="72.18,-353.45 74.04,-343.02 66.08,-350.02 72.18,-353.45"/>
</g>
<!-- if23_26 -->
<g id="node5" class="node">
<title>if23_26</title>
<ellipse fill="none" stroke="black" cx="84.2" cy="-251" rx="38.19" ry="18"/>
<text text-anchor="middle" x="84.2" y="-247.3" font-family="Times,serif" font-size="14.00">if23_26</text>
</g>
<!-- block3&#45;&gt;if23_26 -->
<g id="edge5" class="edge">
<title>block3&#45;&gt;if23_26</title>
<path fill="none" stroke="black" d="M84.2,-305.81C84.2,-298.23 84.2,-289.1 84.2,-280.54"/>
<polygon fill="black" stroke="black" points="87.7,-280.54 84.2,-270.54 80.7,-280.54 87.7,-280.54"/>
</g>
<!-- if_block4 -->
<g id="node6" class="node">
<title>if_block4</title>
<ellipse fill="none" stroke="black" cx="44.2" cy="-164" rx="44.39" ry="18"/>
<text text-anchor="middle" x="44.2" y="-160.3" font-family="Times,serif" font-size="14.00">if_block4</text>
</g>
<!-- if23_26&#45;&gt;if_block4 -->
<g id="edge6" class="edge">
<title>if23_26&#45;&gt;if_block4</title>
<path fill="none" stroke="black" d="M76.29,-233.21C70.8,-221.52 63.35,-205.69 57.01,-192.22"/>
<polygon fill="black" stroke="black" points="60.29,-190.98 52.86,-183.42 53.95,-193.96 60.29,-190.98"/>
<text text-anchor="middle" x="80.2" y="-203.8" font-family="Times,serif" font-size="14.00">True</text>
</g>
<!-- block5 -->
<g id="node7" class="node">
<title>block5</title>
<ellipse fill="none" stroke="black" cx="84.2" cy="-91" rx="34.39" ry="18"/>
<text text-anchor="middle" x="84.2" y="-87.3" font-family="Times,serif" font-size="14.00">block5</text>
</g>
<!-- if23_26&#45;&gt;block5 -->
<g id="edge7" class="edge">
<title>if23_26&#45;&gt;block5</title>
<path fill="none" stroke="black" d="M91.93,-232.9C94.08,-227.31 96.12,-221 97.2,-215 102.62,-184.82 100.81,-176.45 97.2,-146 96.18,-137.41 94.27,-128.21 92.23,-119.88"/>
<polygon fill="black" stroke="black" points="95.65,-119.09 89.72,-110.3 88.87,-120.86 95.65,-119.09"/>
<text text-anchor="middle" x="114.7" y="-160.3" font-family="Times,serif" font-size="14.00">False</text>
</g>
<!-- if_block4&#45;&gt;block5 -->
<g id="edge8" class="edge">
<title>if_block4&#45;&gt;block5</title>
<path fill="none" stroke="black" d="M53.68,-146.17C58.31,-137.95 63.99,-127.86 69.2,-118.62"/>
<polygon fill="black" stroke="black" points="72.18,-120.45 74.04,-110.02 66.08,-117.02 72.18,-120.45"/>
</g>
<!-- end -->
<g id="node8" class="node">
<title>end</title>
<ellipse fill="none" stroke="black" cx="84.2" cy="-18" rx="27" ry="18"/>
<text text-anchor="middle" x="84.2" y="-14.3" font-family="Times,serif" font-size="14.00">end</text>
</g>
<!-- block5&#45;&gt;end -->
<g id="edge9" class="edge">
<title>block5&#45;&gt;end</title>
<path fill="none" stroke="black" d="M84.2,-72.81C84.2,-65.23 84.2,-56.1 84.2,-47.54"/>
<polygon fill="black" stroke="black" points="87.7,-47.54 84.2,-37.54 80.7,-47.54 87.7,-47.54"/>
</g>
</g>
</svg>
