<?xml version="1.0" encoding="UTF-8" standalone="no"?>
<!DOCTYPE svg PUBLIC "-//W3C//DTD SVG 1.1//EN"
 "http://www.w3.org/Graphics/SVG/1.1/DTD/svg11.dtd">
<!-- Generated by graphviz version 7.1.0 (20230121.1956)
 -->
<!-- Pages: 1 -->
<svg width="220pt" height="1515pt"
 viewBox="0.00 0.00 219.84 1515.00" xmlns="http://www.w3.org/2000/svg" xmlns:xlink="http://www.w3.org/1999/xlink">
<g id="graph0" class="graph" transform="scale(1 1) rotate(0) translate(4 1511)">
<polygon fill="white" stroke="none" points="-4,4 -4,-1511 215.84,-1511 215.84,4 -4,4"/>
<!-- start -->
<g id="node1" class="node">
<title>start</title>
<ellipse fill="none" stroke="black" cx="101.2" cy="-1489" rx="27" ry="18"/>
<text text-anchor="middle" x="101.2" y="-1485.3" font-family="Times,serif" font-size="14.00">start</text>
</g>
<!-- if12_18 -->
<g id="node2" class="node">
<title>if12_18</title>
<ellipse fill="none" stroke="black" cx="101.2" cy="-1416" rx="38.19" ry="18"/>
<text text-anchor="middle" x="101.2" y="-1412.3" font-family="Times,serif" font-size="14.00">if12_18</text>
</g>
<!-- start&#45;&gt;if12_18 -->
<g id="edge1" class="edge">
<title>start&#45;&gt;if12_18</title>
<path fill="none" stroke="black" d="M101.2,-1470.81C101.2,-1463.23 101.2,-1454.1 101.2,-1445.54"/>
<polygon fill="black" stroke="black" points="104.7,-1445.54 101.2,-1435.54 97.7,-1445.54 104.7,-1445.54"/>
</g>
<!-- if_block2 -->
<g id="node3" class="node">
<title>if_block2</title>
<ellipse fill="none" stroke="black" cx="61.2" cy="-1329" rx="44.39" ry="18"/>
<text text-anchor="middle" x="61.2" y="-1325.3" font-family="Times,serif" font-size="14.00">if_block2</text>
</g>
<!-- if12_18&#45;&gt;if_block2 -->
<g id="edge2" class="edge">
<title>if12_18&#45;&gt;if_block2</title>
<path fill="none" stroke="black" d="M93.29,-1398.21C87.8,-1386.52 80.35,-1370.69 74.01,-1357.22"/>
<polygon fill="black" stroke="black" points="77.29,-1355.98 69.86,-1348.42 70.95,-1358.96 77.29,-1355.98"/>
<text text-anchor="middle" x="97.2" y="-1368.8" font-family="Times,serif" font-size="14.00">True</text>
</g>
<!-- block3 -->
<g id="node4" class="node">
<title>block3</title>
<ellipse fill="none" stroke="black" cx="101.2" cy="-1256" rx="34.39" ry="18"/>
<text text-anchor="middle" x="101.2" y="-1252.3" font-family="Times,serif" font-size="14.00">block3</text>
</g>
<!-- if12_18&#45;&gt;block3 -->
<g id="edge3" class="edge">
<title>if12_18&#45;&gt;block3</title>
<path fill="none" stroke="black" d="M108.93,-1397.9C111.08,-1392.31 113.12,-1386 114.2,-1380 119.62,-1349.82 117.81,-1341.45 114.2,-1311 113.18,-1302.41 111.27,-1293.21 109.23,-1284.88"/>
<polygon fill="black" stroke="black" points="112.65,-1284.09 106.72,-1275.3 105.87,-1285.86 112.65,-1284.09"/>
<text text-anchor="middle" x="132.7" y="-1325.3" font-family="Times,serif" font-size="14.00">False</text>
</g>
<!-- if_block2&#45;&gt;block3 -->
<g id="edge4" class="edge">
<title>if_block2&#45;&gt;block3</title>
<path fill="none" stroke="black" d="M70.68,-1311.17C75.31,-1302.95 80.99,-1292.86 86.2,-1283.62"/>
<polygon fill="black" stroke="black" points="89.18,-1285.45 91.04,-1275.02 83.08,-1282.02 89.18,-1285.45"/>
</g>
<!-- if22_27 -->
<g id="node5" class="node">
<title>if22_27</title>
<ellipse fill="none" stroke="black" cx="101.2" cy="-1183" rx="38.19" ry="18"/>
<text text-anchor="middle" x="101.2" y="-1179.3" font-family="Times,serif" font-size="14.00">if22_27</text>
</g>
<!-- block3&#45;&gt;if22_27 -->
<g id="edge5" class="edge">
<title>block3&#45;&gt;if22_27</title>
<path fill="none" stroke="black" d="M101.2,-1237.81C101.2,-1230.23 101.2,-1221.1 101.2,-1212.54"/>
<polygon fill="black" stroke="black" points="104.7,-1212.54 101.2,-1202.54 97.7,-1212.54 104.7,-1212.54"/>
</g>
<!-- if_block4 -->
<g id="node6" class="node">
<title>if_block4</title>
<ellipse fill="none" stroke="black" cx="44.2" cy="-1096" rx="44.39" ry="18"/>
<text text-anchor="middle" x="44.2" y="-1092.3" font-family="Times,serif" font-size="14.00">if_block4</text>
</g>
<!-- if22_27&#45;&gt;if_block4 -->
<g id="edge6" class="edge">
<title>if22_27&#45;&gt;if_block4</title>
<path fill="none" stroke="black" d="M90.21,-1165.61C82.14,-1153.58 71.01,-1136.98 61.72,-1123.13"/>
<polygon fill="black" stroke="black" points="64.67,-1121.24 56.19,-1114.89 58.85,-1125.14 64.67,-1121.24"/>
<text text-anchor="middle" x="89.2" y="-1135.8" font-family="Times,serif" font-size="14.00">True</text>
</g>
<!-- else_block5 -->
<g id="node7" class="node">
<title>else_block5</title>
<ellipse fill="none" stroke="black" cx="159.2" cy="-1096" rx="52.79" ry="18"/>
<text text-anchor="middle" x="159.2" y="-1092.3" font-family="Times,serif" font-size="14.00">else_block5</text>
</g>
<!-- if22_27&#45;&gt;else_block5 -->
<g id="edge7" class="edge">
<title>if22_27&#45;&gt;else_block5</title>
<path fill="none" stroke="black" d="M112.38,-1165.61C120.54,-1153.65 131.77,-1137.2 141.18,-1123.4"/>
<polygon fill="black" stroke="black" points="144.05,-1125.4 146.8,-1115.17 138.27,-1121.46 144.05,-1125.4"/>
<text text-anchor="middle" x="147.7" y="-1135.8" font-family="Times,serif" font-size="14.00">False</text>
</g>
<!-- block6 -->
<g id="node8" class="node">
<title>block6</title>
<ellipse fill="none" stroke="black" cx="101.2" cy="-1023" rx="34.39" ry="18"/>
<text text-anchor="middle" x="101.2" y="-1019.3" font-family="Times,serif" font-size="14.00">block6</text>
</g>
<!-- if_block4&#45;&gt;block6 -->
<g id="edge9" class="edge">
<title>if_block4&#45;&gt;block6</title>
<path fill="none" stroke="black" d="M57.42,-1078.53C64.49,-1069.72 73.36,-1058.68 81.25,-1048.84"/>
<polygon fill="black" stroke="black" points="83.96,-1051.06 87.49,-1041.07 78.5,-1046.68 83.96,-1051.06"/>
</g>
<!-- else_block5&#45;&gt;block6 -->
<g id="edge8" class="edge">
<title>else_block5&#45;&gt;block6</title>
<path fill="none" stroke="black" d="M145.45,-1078.17C138.24,-1069.35 129.27,-1058.37 121.3,-1048.61"/>
<polygon fill="black" stroke="black" points="124.04,-1046.43 115.01,-1040.9 118.62,-1050.86 124.04,-1046.43"/>
</g>
<!-- if37_39 -->
<g id="node9" class="node">
<title>if37_39</title>
<ellipse fill="none" stroke="black" cx="101.2" cy="-950" rx="38.19" ry="18"/>
<text text-anchor="middle" x="101.2" y="-946.3" font-family="Times,serif" font-size="14.00">if37_39</text>
</g>
<!-- block6&#45;&gt;if37_39 -->
<g id="edge10" class="edge">
<title>block6&#45;&gt;if37_39</title>
<path fill="none" stroke="black" d="M101.2,-1004.81C101.2,-997.23 101.2,-988.1 101.2,-979.54"/>
<polygon fill="black" stroke="black" points="104.7,-979.54 101.2,-969.54 97.7,-979.54 104.7,-979.54"/>
</g>
<!-- if_block7 -->
<g id="node10" class="node">
<title>if_block7</title>
<ellipse fill="none" stroke="black" cx="61.2" cy="-863" rx="44.39" ry="18"/>
<text text-anchor="middle" x="61.2" y="-859.3" font-family="Times,serif" font-size="14.00">if_block7</text>
</g>
<!-- if37_39&#45;&gt;if_block7 -->
<g id="edge11" class="edge">
<title>if37_39&#45;&gt;if_block7</title>
<path fill="none" stroke="black" d="M93.29,-932.21C87.8,-920.52 80.35,-904.69 74.01,-891.22"/>
<polygon fill="black" stroke="black" points="77.29,-889.98 69.86,-882.42 70.95,-892.96 77.29,-889.98"/>
<text text-anchor="middle" x="97.2" y="-902.8" font-family="Times,serif" font-size="14.00">True</text>
</g>
<!-- block8 -->
<g id="node11" class="node">
<title>block8</title>
<ellipse fill="none" stroke="black" cx="101.2" cy="-790" rx="34.39" ry="18"/>
<text text-anchor="middle" x="101.2" y="-786.3" font-family="Times,serif" font-size="14.00">block8</text>
</g>
<!-- if37_39&#45;&gt;block8 -->
<g id="edge12" class="edge">
<title>if37_39&#45;&gt;block8</title>
<path fill="none" stroke="black" d="M108.93,-931.9C111.08,-926.31 113.12,-920 114.2,-914 119.62,-883.82 117.81,-875.45 114.2,-845 113.18,-836.41 111.27,-827.21 109.23,-818.88"/>
<polygon fill="black" stroke="black" points="112.65,-818.09 106.72,-809.3 105.87,-819.86 112.65,-818.09"/>
<text text-anchor="middle" x="132.7" y="-859.3" font-family="Times,serif" font-size="14.00">False</text>
</g>
<!-- if_block7&#45;&gt;block8 -->
<g id="edge13" class="edge">
<title>if_block7&#45;&gt;block8</title>
<path fill="none" stroke="black" d="M70.68,-845.17C75.31,-836.95 80.99,-826.86 86.2,-817.62"/>
<polygon fill="black" stroke="black" points="89.18,-819.45 91.04,-809.02 83.08,-816.02 89.18,-819.45"/>
</g>
<!-- if42_44 -->
<g id="node12" class="node">
<title>if42_44</title>
<ellipse fill="none" stroke="black" cx="101.2" cy="-717" rx="38.19" ry="18"/>
<text text-anchor="middle" x="101.2" y="-713.3" font-family="Times,serif" font-size="14.00">if42_44</text>
</g>
<!-- block8&#45;&gt;if42_44 -->
<g id="edge14" class="edge">
<title>block8&#45;&gt;if42_44</title>
<path fill="none" stroke="black" d="M101.2,-771.81C101.2,-764.23 101.2,-755.1 101.2,-746.54"/>
<polygon fill="black" stroke="black" points="104.7,-746.54 101.2,-736.54 97.7,-746.54 104.7,-746.54"/>
</g>
<!-- if_block9 -->
<g id="node13" class="node">
<title>if_block9</title>
<ellipse fill="none" stroke="black" cx="61.2" cy="-630" rx="44.39" ry="18"/>
<text text-anchor="middle" x="61.2" y="-626.3" font-family="Times,serif" font-size="14.00">if_block9</text>
</g>
<!-- if42_44&#45;&gt;if_block9 -->
<g id="edge15" class="edge">
<title>if42_44&#45;&gt;if_block9</title>
<path fill="none" stroke="black" d="M93.29,-699.21C87.8,-687.52 80.35,-671.69 74.01,-658.22"/>
<polygon fill="black" stroke="black" points="77.29,-656.98 69.86,-649.42 70.95,-659.96 77.29,-656.98"/>
<text text-anchor="middle" x="97.2" y="-669.8" font-family="Times,serif" font-size="14.00">True</text>
</g>
<!-- block10 -->
<g id="node14" class="node">
<title>block10</title>
<ellipse fill="none" stroke="black" cx="101.2" cy="-557" rx="38.99" ry="18"/>
<text text-anchor="middle" x="101.2" y="-553.3" font-family="Times,serif" font-size="14.00">block10</text>
</g>
<!-- if42_44&#45;&gt;block10 -->
<g id="edge16" class="edge">
<title>if42_44&#45;&gt;block10</title>
<path fill="none" stroke="black" d="M108.93,-698.9C111.08,-693.31 113.12,-687 114.2,-681 119.62,-650.82 117.81,-642.45 114.2,-612 113.19,-603.54 111.33,-594.49 109.33,-586.26"/>
<polygon fill="black" stroke="black" points="112.77,-585.58 106.85,-576.78 105.99,-587.34 112.77,-585.58"/>
<text text-anchor="middle" x="132.7" y="-626.3" font-family="Times,serif" font-size="14.00">False</text>
</g>
<!-- if_block9&#45;&gt;block10 -->
<g id="edge17" class="edge">
<title>if_block9&#45;&gt;block10</title>
<path fill="none" stroke="black" d="M70.68,-612.17C75.31,-603.95 80.99,-593.86 86.2,-584.62"/>
<polygon fill="black" stroke="black" points="89.18,-586.45 91.04,-576.02 83.08,-583.02 89.18,-586.45"/>
</g>
<!-- if60_60 -->
<g id="node15" class="node">
<title>if60_60</title>
<ellipse fill="none" stroke="black" cx="101.2" cy="-484" rx="38.19" ry="18"/>
<text text-anchor="middle" x="101.2" y="-480.3" font-family="Times,serif" font-size="14.00">if60_60</text>
</g>
<!-- block10&#45;&gt;if60_60 -->
<g id="edge18" class="edge">
<title>block10&#45;&gt;if60_60</title>
<path fill="none" stroke="black" d="M101.2,-538.81C101.2,-531.23 101.2,-522.1 101.2,-513.54"/>
<polygon fill="black" stroke="black" points="104.7,-513.54 101.2,-503.54 97.7,-513.54 104.7,-513.54"/>
</g>
<!-- if_block11 -->
<g id="node16" class="node">
<title>if_block11</title>
<ellipse fill="none" stroke="black" cx="59.2" cy="-397" rx="48.99" ry="18"/>
<text text-anchor="middle" x="59.2" y="-393.3" font-family="Times,serif" font-size="14.00">if_block11</text>
</g>
<!-- if60_60&#45;&gt;if_block11 -->
<g id="edge19" class="edge">
<title>if60_60&#45;&gt;if_block11</title>
<path fill="none" stroke="black" d="M92.9,-466.21C87.13,-454.52 79.3,-438.69 72.65,-425.22"/>
<polygon fill="black" stroke="black" points="75.86,-423.82 68.29,-416.41 69.58,-426.92 75.86,-423.82"/>
<text text-anchor="middle" x="96.2" y="-436.8" font-family="Times,serif" font-size="14.00">True</text>
</g>
<!-- block12 -->
<g id="node17" class="node">
<title>block12</title>
<ellipse fill="none" stroke="black" cx="101.2" cy="-324" rx="38.99" ry="18"/>
<text text-anchor="middle" x="101.2" y="-320.3" font-family="Times,serif" font-size="14.00">block12</text>
</g>
<!-- if60_60&#45;&gt;block12 -->
<g id="edge20" class="edge">
<title>if60_60&#45;&gt;block12</title>
<path fill="none" stroke="black" d="M107.78,-466.12C109.79,-460.44 111.82,-454.01 113.2,-448 120.06,-418.06 121.61,-409.4 117.2,-379 115.96,-370.45 113.67,-361.37 111.2,-353.14"/>
<polygon fill="black" stroke="black" points="114.54,-352.11 108.15,-343.67 107.88,-354.26 114.54,-352.11"/>
<text text-anchor="middle" x="134.7" y="-393.3" font-family="Times,serif" font-size="14.00">False</text>
</g>
<!-- if_block11&#45;&gt;block12 -->
<g id="edge21" class="edge">
<title>if_block11&#45;&gt;block12</title>
<path fill="none" stroke="black" d="M69.15,-379.17C74.07,-370.86 80.11,-360.64 85.62,-351.33"/>
<polygon fill="black" stroke="black" points="88.46,-353.4 90.54,-343.01 82.44,-349.83 88.46,-353.4"/>
</g>
<!-- if68_68 -->
<g id="node18" class="node">
<title>if68_68</title>
<ellipse fill="none" stroke="black" cx="101.2" cy="-251" rx="38.19" ry="18"/>
<text text-anchor="middle" x="101.2" y="-247.3" font-family="Times,serif" font-size="14.00">if68_68</text>
</g>
<!-- block12&#45;&gt;if68_68 -->
<g id="edge22" class="edge">
<title>block12&#45;&gt;if68_68</title>
<path fill="none" stroke="black" d="M101.2,-305.81C101.2,-298.23 101.2,-289.1 101.2,-280.54"/>
<polygon fill="black" stroke="black" points="104.7,-280.54 101.2,-270.54 97.7,-280.54 104.7,-280.54"/>
</g>
<!-- if_block13 -->
<g id="node19" class="node">
<title>if_block13</title>
<ellipse fill="none" stroke="black" cx="59.2" cy="-164" rx="48.99" ry="18"/>
<text text-anchor="middle" x="59.2" y="-160.3" font-family="Times,serif" font-size="14.00">if_block13</text>
</g>
<!-- if68_68&#45;&gt;if_block13 -->
<g id="edge23" class="edge">
<title>if68_68&#45;&gt;if_block13</title>
<path fill="none" stroke="black" d="M92.9,-233.21C87.13,-221.52 79.3,-205.69 72.65,-192.22"/>
<polygon fill="black" stroke="black" points="75.86,-190.82 68.29,-183.41 69.58,-193.92 75.86,-190.82"/>
<text text-anchor="middle" x="96.2" y="-203.8" font-family="Times,serif" font-size="14.00">True</text>
</g>
<!-- block14 -->
<g id="node20" class="node">
<title>block14</title>
<ellipse fill="none" stroke="black" cx="101.2" cy="-91" rx="38.99" ry="18"/>
<text text-anchor="middle" x="101.2" y="-87.3" font-family="Times,serif" font-size="14.00">block14</text>
</g>
<!-- if68_68&#45;&gt;block14 -->
<g id="edge24" class="edge">
<title>if68_68&#45;&gt;block14</title>
<path fill="none" stroke="black" d="M107.78,-233.12C109.79,-227.44 111.82,-221.01 113.2,-215 120.06,-185.06 121.61,-176.4 117.2,-146 115.96,-137.45 113.67,-128.37 111.2,-120.14"/>
<polygon fill="black" stroke="black" points="114.54,-119.11 108.15,-110.67 107.88,-121.26 114.54,-119.11"/>
<text text-anchor="middle" x="134.7" y="-160.3" font-family="Times,serif" font-size="14.00">False</text>
</g>
<!-- if_block13&#45;&gt;block14 -->
<g id="edge25" class="edge">
<title>if_block13&#45;&gt;block14</title>
<path fill="none" stroke="black" d="M69.15,-146.17C74.07,-137.86 80.11,-127.64 85.62,-118.33"/>
<polygon fill="black" stroke="black" points="88.46,-120.4 90.54,-110.01 82.44,-116.83 88.46,-120.4"/>
</g>
<!-- end -->
<g id="node21" class="node">
<title>end</title>
<ellipse fill="none" stroke="black" cx="101.2" cy="-18" rx="27" ry="18"/>
<text text-anchor="middle" x="101.2" y="-14.3" font-family="Times,serif" font-size="14.00">end</text>
</g>
<!-- block14&#45;&gt;end -->
<g id="edge26" class="edge">
<title>block14&#45;&gt;end</title>
<path fill="none" stroke="black" d="M101.2,-72.81C101.2,-65.23 101.2,-56.1 101.2,-47.54"/>
<polygon fill="black" stroke="black" points="104.7,-47.54 101.2,-37.54 97.7,-47.54 104.7,-47.54"/>
</g>
</g>
</svg>
