<?xml version="1.0" encoding="UTF-8" standalone="no"?>
<!DOCTYPE svg PUBLIC "-//W3C//DTD SVG 1.1//EN"
 "http://www.w3.org/Graphics/SVG/1.1/DTD/svg11.dtd">
<!-- Generated by graphviz version 7.1.0 (20230121.1956)
 -->
<!-- Pages: 1 -->
<svg width="220pt" height="583pt"
 viewBox="0.00 0.00 219.84 583.00" xmlns="http://www.w3.org/2000/svg" xmlns:xlink="http://www.w3.org/1999/xlink">
<g id="graph0" class="graph" transform="scale(1 1) rotate(0) translate(4 579)">
<polygon fill="white" stroke="none" points="-4,4 -4,-579 215.84,-579 215.84,4 -4,4"/>
<!-- start -->
<g id="node1" class="node">
<title>start</title>
<ellipse fill="none" stroke="black" cx="101.2" cy="-557" rx="27" ry="18"/>
<text text-anchor="middle" x="101.2" y="-553.3" font-family="Times,serif" font-size="14.00">start</text>
</g>
<!-- if14_22 -->
<g id="node2" class="node">
<title>if14_22</title>
<ellipse fill="none" stroke="black" cx="101.2" cy="-484" rx="38.19" ry="18"/>
<text text-anchor="middle" x="101.2" y="-480.3" font-family="Times,serif" font-size="14.00">if14_22</text>
</g>
<!-- start&#45;&gt;if14_22 -->
<g id="edge1" class="edge">
<title>start&#45;&gt;if14_22</title>
<path fill="none" stroke="black" d="M101.2,-538.81C101.2,-531.23 101.2,-522.1 101.2,-513.54"/>
<polygon fill="black" stroke="black" points="104.7,-513.54 101.2,-503.54 97.7,-513.54 104.7,-513.54"/>
</g>
<!-- if_block2 -->
<g id="node3" class="node">
<title>if_block2</title>
<ellipse fill="none" stroke="black" cx="44.2" cy="-397" rx="44.39" ry="18"/>
<text text-anchor="middle" x="44.2" y="-393.3" font-family="Times,serif" font-size="14.00">if_block2</text>
</g>
<!-- if14_22&#45;&gt;if_block2 -->
<g id="edge2" class="edge">
<title>if14_22&#45;&gt;if_block2</title>
<path fill="none" stroke="black" d="M90.21,-466.61C82.14,-454.58 71.01,-437.98 61.72,-424.13"/>
<polygon fill="black" stroke="black" points="64.67,-422.24 56.19,-415.89 58.85,-426.14 64.67,-422.24"/>
<text text-anchor="middle" x="89.2" y="-436.8" font-family="Times,serif" font-size="14.00">True</text>
</g>
<!-- else_block3 -->
<g id="node4" class="node">
<title>else_block3</title>
<ellipse fill="none" stroke="black" cx="159.2" cy="-397" rx="52.79" ry="18"/>
<text text-anchor="middle" x="159.2" y="-393.3" font-family="Times,serif" font-size="14.00">else_block3</text>
</g>
<!-- if14_22&#45;&gt;else_block3 -->
<g id="edge3" class="edge">
<title>if14_22&#45;&gt;else_block3</title>
<path fill="none" stroke="black" d="M112.38,-466.61C120.54,-454.65 131.77,-438.2 141.18,-424.4"/>
<polygon fill="black" stroke="black" points="144.05,-426.4 146.8,-416.17 138.27,-422.46 144.05,-426.4"/>
<text text-anchor="middle" x="147.7" y="-436.8" font-family="Times,serif" font-size="14.00">False</text>
</g>
<!-- block4 -->
<g id="node5" class="node">
<title>block4</title>
<ellipse fill="none" stroke="black" cx="101.2" cy="-324" rx="34.39" ry="18"/>
<text text-anchor="middle" x="101.2" y="-320.3" font-family="Times,serif" font-size="14.00">block4</text>
</g>
<!-- if_block2&#45;&gt;block4 -->
<g id="edge5" class="edge">
<title>if_block2&#45;&gt;block4</title>
<path fill="none" stroke="black" d="M57.42,-379.53C64.49,-370.72 73.36,-359.68 81.25,-349.84"/>
<polygon fill="black" stroke="black" points="83.96,-352.06 87.49,-342.07 78.5,-347.68 83.96,-352.06"/>
</g>
<!-- else_block3&#45;&gt;block4 -->
<g id="edge4" class="edge">
<title>else_block3&#45;&gt;block4</title>
<path fill="none" stroke="black" d="M145.45,-379.17C138.24,-370.35 129.27,-359.37 121.3,-349.61"/>
<polygon fill="black" stroke="black" points="124.04,-347.43 115.01,-341.9 118.62,-351.86 124.04,-347.43"/>
</g>
<!-- if9_22 -->
<g id="node6" class="node">
<title>if9_22</title>
<ellipse fill="none" stroke="black" cx="101.2" cy="-251" rx="33.6" ry="18"/>
<text text-anchor="middle" x="101.2" y="-247.3" font-family="Times,serif" font-size="14.00">if9_22</text>
</g>
<!-- block4&#45;&gt;if9_22 -->
<g id="edge6" class="edge">
<title>block4&#45;&gt;if9_22</title>
<path fill="none" stroke="black" d="M101.2,-305.81C101.2,-298.23 101.2,-289.1 101.2,-280.54"/>
<polygon fill="black" stroke="black" points="104.7,-280.54 101.2,-270.54 97.7,-280.54 104.7,-280.54"/>
</g>
<!-- if_block5 -->
<g id="node7" class="node">
<title>if_block5</title>
<ellipse fill="none" stroke="black" cx="61.2" cy="-164" rx="44.39" ry="18"/>
<text text-anchor="middle" x="61.2" y="-160.3" font-family="Times,serif" font-size="14.00">if_block5</text>
</g>
<!-- if9_22&#45;&gt;if_block5 -->
<g id="edge7" class="edge">
<title>if9_22&#45;&gt;if_block5</title>
<path fill="none" stroke="black" d="M93.29,-233.21C87.8,-221.52 80.35,-205.69 74.01,-192.22"/>
<polygon fill="black" stroke="black" points="77.29,-190.98 69.86,-183.42 70.95,-193.96 77.29,-190.98"/>
<text text-anchor="middle" x="97.2" y="-203.8" font-family="Times,serif" font-size="14.00">True</text>
</g>
<!-- block6 -->
<g id="node8" class="node">
<title>block6</title>
<ellipse fill="none" stroke="black" cx="101.2" cy="-91" rx="34.39" ry="18"/>
<text text-anchor="middle" x="101.2" y="-87.3" font-family="Times,serif" font-size="14.00">block6</text>
</g>
<!-- if9_22&#45;&gt;block6 -->
<g id="edge8" class="edge">
<title>if9_22&#45;&gt;block6</title>
<path fill="none" stroke="black" d="M108.79,-233.25C110.99,-227.58 113.1,-221.12 114.2,-215 119.62,-184.82 117.81,-176.45 114.2,-146 113.18,-137.41 111.27,-128.21 109.23,-119.88"/>
<polygon fill="black" stroke="black" points="112.65,-119.09 106.72,-110.3 105.87,-120.86 112.65,-119.09"/>
<text text-anchor="middle" x="131.7" y="-160.3" font-family="Times,serif" font-size="14.00">False</text>
</g>
<!-- if_block5&#45;&gt;block6 -->
<g id="edge9" class="edge">
<title>if_block5&#45;&gt;block6</title>
<path fill="none" stroke="black" d="M70.68,-146.17C75.31,-137.95 80.99,-127.86 86.2,-118.62"/>
<polygon fill="black" stroke="black" points="89.18,-120.45 91.04,-110.02 83.08,-117.02 89.18,-120.45"/>
</g>
<!-- end -->
<g id="node9" class="node">
<title>end</title>
<ellipse fill="none" stroke="black" cx="101.2" cy="-18" rx="27" ry="18"/>
<text text-anchor="middle" x="101.2" y="-14.3" font-family="Times,serif" font-size="14.00">end</text>
</g>
<!-- block6&#45;&gt;end -->
<g id="edge10" class="edge">
<title>block6&#45;&gt;end</title>
<path fill="none" stroke="black" d="M101.2,-72.81C101.2,-65.23 101.2,-56.1 101.2,-47.54"/>
<polygon fill="black" stroke="black" points="104.7,-47.54 101.2,-37.54 97.7,-47.54 104.7,-47.54"/>
</g>
</g>
</svg>
