<?xml version="1.0" encoding="UTF-8" standalone="no"?>
<!DOCTYPE svg PUBLIC "-//W3C//DTD SVG 1.1//EN"
 "http://www.w3.org/Graphics/SVG/1.1/DTD/svg11.dtd">
<!-- Generated by graphviz version 7.1.0 (20230121.1956)
 -->
<!-- Pages: 1 -->
<svg width="150pt" height="350pt"
 viewBox="0.00 0.00 149.54 350.00" xmlns="http://www.w3.org/2000/svg" xmlns:xlink="http://www.w3.org/1999/xlink">
<g id="graph0" class="graph" transform="scale(1 1) rotate(0) translate(4 346)">
<polygon fill="white" stroke="none" points="-4,4 -4,-346 145.54,-346 145.54,4 -4,4"/>
<!-- start -->
<g id="node1" class="node">
<title>start</title>
<ellipse fill="none" stroke="black" cx="103.2" cy="-324" rx="27" ry="18"/>
<text text-anchor="middle" x="103.2" y="-320.3" font-family="Times,serif" font-size="14.00">start</text>
</g>
<!-- if19_22 -->
<g id="node2" class="node">
<title>if19_22</title>
<ellipse fill="none" stroke="black" cx="103.2" cy="-251" rx="38.19" ry="18"/>
<text text-anchor="middle" x="103.2" y="-247.3" font-family="Times,serif" font-size="14.00">if19_22</text>
</g>
<!-- start&#45;&gt;if19_22 -->
<g id="edge1" class="edge">
<title>start&#45;&gt;if19_22</title>
<path fill="none" stroke="black" d="M103.2,-305.81C103.2,-298.23 103.2,-289.1 103.2,-280.54"/>
<polygon fill="black" stroke="black" points="106.7,-280.54 103.2,-270.54 99.7,-280.54 106.7,-280.54"/>
</g>
<!-- if_block2 -->
<g id="node3" class="node">
<title>if_block2</title>
<ellipse fill="none" stroke="black" cx="44.2" cy="-164" rx="44.39" ry="18"/>
<text text-anchor="middle" x="44.2" y="-160.3" font-family="Times,serif" font-size="14.00">if_block2</text>
</g>
<!-- if19_22&#45;&gt;if_block2 -->
<g id="edge2" class="edge">
<title>if19_22&#45;&gt;if_block2</title>
<path fill="none" stroke="black" d="M91.82,-233.61C83.39,-221.46 71.72,-204.66 62.05,-190.73"/>
<polygon fill="black" stroke="black" points="65.18,-189.09 56.6,-182.87 59.43,-193.08 65.18,-189.09"/>
<text text-anchor="middle" x="91.2" y="-203.8" font-family="Times,serif" font-size="14.00">True</text>
</g>
<!-- block3 -->
<g id="node4" class="node">
<title>block3</title>
<ellipse fill="none" stroke="black" cx="84.2" cy="-91" rx="34.39" ry="18"/>
<text text-anchor="middle" x="84.2" y="-87.3" font-family="Times,serif" font-size="14.00">block3</text>
</g>
<!-- if19_22&#45;&gt;block3 -->
<g id="edge3" class="edge">
<title>if19_22&#45;&gt;block3</title>
<path fill="none" stroke="black" d="M106.18,-232.61C107,-227 107.79,-220.76 108.2,-215 110.55,-181.84 101.55,-144.44 93.9,-119.68"/>
<polygon fill="black" stroke="black" points="97.3,-118.81 90.89,-110.38 90.64,-120.97 97.3,-118.81"/>
<text text-anchor="middle" x="121.7" y="-160.3" font-family="Times,serif" font-size="14.00">False</text>
</g>
<!-- if_block2&#45;&gt;block3 -->
<g id="edge4" class="edge">
<title>if_block2&#45;&gt;block3</title>
<path fill="none" stroke="black" d="M53.68,-146.17C58.31,-137.95 63.99,-127.86 69.2,-118.62"/>
<polygon fill="black" stroke="black" points="72.18,-120.45 74.04,-110.02 66.08,-117.02 72.18,-120.45"/>
</g>
<!-- end -->
<g id="node5" class="node">
<title>end</title>
<ellipse fill="none" stroke="black" cx="84.2" cy="-18" rx="27" ry="18"/>
<text text-anchor="middle" x="84.2" y="-14.3" font-family="Times,serif" font-size="14.00">end</text>
</g>
<!-- block3&#45;&gt;end -->
<g id="edge5" class="edge">
<title>block3&#45;&gt;end</title>
<path fill="none" stroke="black" d="M84.2,-72.81C84.2,-65.23 84.2,-56.1 84.2,-47.54"/>
<polygon fill="black" stroke="black" points="87.7,-47.54 84.2,-37.54 80.7,-47.54 87.7,-47.54"/>
</g>
</g>
</svg>
