<?xml version="1.0" encoding="UTF-8" standalone="no"?>
<!DOCTYPE svg PUBLIC "-//W3C//DTD SVG 1.1//EN"
 "http://www.w3.org/Graphics/SVG/1.1/DTD/svg11.dtd">
<!-- Generated by graphviz version 7.1.0 (20230121.1956)
 -->
<!-- Pages: 1 -->
<svg width="238pt" height="1748pt"
 viewBox="0.00 0.00 237.94 1748.00" xmlns="http://www.w3.org/2000/svg" xmlns:xlink="http://www.w3.org/1999/xlink">
<g id="graph0" class="graph" transform="scale(1 1) rotate(0) translate(4 1744)">
<polygon fill="white" stroke="none" points="-4,4 -4,-1744 233.94,-1744 233.94,4 -4,4"/>
<!-- start -->
<g id="node1" class="node">
<title>start</title>
<ellipse fill="none" stroke="black" cx="109.75" cy="-1722" rx="27" ry="18"/>
<text text-anchor="middle" x="109.75" y="-1718.3" font-family="Times,serif" font-size="14.00">start</text>
</g>
<!-- if22_22 -->
<g id="node2" class="node">
<title>if22_22</title>
<ellipse fill="none" stroke="black" cx="109.75" cy="-1649" rx="38.19" ry="18"/>
<text text-anchor="middle" x="109.75" y="-1645.3" font-family="Times,serif" font-size="14.00">if22_22</text>
</g>
<!-- start&#45;&gt;if22_22 -->
<g id="edge1" class="edge">
<title>start&#45;&gt;if22_22</title>
<path fill="none" stroke="black" d="M109.75,-1703.81C109.75,-1696.23 109.75,-1687.1 109.75,-1678.54"/>
<polygon fill="black" stroke="black" points="113.25,-1678.54 109.75,-1668.54 106.25,-1678.54 113.25,-1678.54"/>
</g>
<!-- if_block2 -->
<g id="node3" class="node">
<title>if_block2</title>
<ellipse fill="none" stroke="black" cx="69.75" cy="-1562" rx="44.39" ry="18"/>
<text text-anchor="middle" x="69.75" y="-1558.3" font-family="Times,serif" font-size="14.00">if_block2</text>
</g>
<!-- if22_22&#45;&gt;if_block2 -->
<g id="edge2" class="edge">
<title>if22_22&#45;&gt;if_block2</title>
<path fill="none" stroke="black" d="M101.84,-1631.21C96.35,-1619.52 88.89,-1603.69 82.56,-1590.22"/>
<polygon fill="black" stroke="black" points="85.84,-1588.98 78.41,-1581.42 79.5,-1591.96 85.84,-1588.98"/>
<text text-anchor="middle" x="105.75" y="-1601.8" font-family="Times,serif" font-size="14.00">True</text>
</g>
<!-- block3 -->
<g id="node4" class="node">
<title>block3</title>
<ellipse fill="none" stroke="black" cx="109.75" cy="-1489" rx="34.39" ry="18"/>
<text text-anchor="middle" x="109.75" y="-1485.3" font-family="Times,serif" font-size="14.00">block3</text>
</g>
<!-- if22_22&#45;&gt;block3 -->
<g id="edge3" class="edge">
<title>if22_22&#45;&gt;block3</title>
<path fill="none" stroke="black" d="M117.48,-1630.9C119.63,-1625.31 121.67,-1619 122.75,-1613 128.17,-1582.82 126.36,-1574.45 122.75,-1544 121.73,-1535.41 119.82,-1526.21 117.78,-1517.88"/>
<polygon fill="black" stroke="black" points="121.19,-1517.09 115.27,-1508.3 114.42,-1518.86 121.19,-1517.09"/>
<text text-anchor="middle" x="141.25" y="-1558.3" font-family="Times,serif" font-size="14.00">False</text>
</g>
<!-- if_block2&#45;&gt;block3 -->
<g id="edge4" class="edge">
<title>if_block2&#45;&gt;block3</title>
<path fill="none" stroke="black" d="M79.23,-1544.17C83.86,-1535.95 89.54,-1525.86 94.75,-1516.62"/>
<polygon fill="black" stroke="black" points="97.73,-1518.45 99.59,-1508.02 91.63,-1515.02 97.73,-1518.45"/>
</g>
<!-- if43_48 -->
<g id="node5" class="node">
<title>if43_48</title>
<ellipse fill="none" stroke="black" cx="109.75" cy="-1416" rx="38.19" ry="18"/>
<text text-anchor="middle" x="109.75" y="-1412.3" font-family="Times,serif" font-size="14.00">if43_48</text>
</g>
<!-- block3&#45;&gt;if43_48 -->
<g id="edge5" class="edge">
<title>block3&#45;&gt;if43_48</title>
<path fill="none" stroke="black" d="M109.75,-1470.81C109.75,-1463.23 109.75,-1454.1 109.75,-1445.54"/>
<polygon fill="black" stroke="black" points="113.25,-1445.54 109.75,-1435.54 106.25,-1445.54 113.25,-1445.54"/>
</g>
<!-- if_block4 -->
<g id="node6" class="node">
<title>if_block4</title>
<ellipse fill="none" stroke="black" cx="52.75" cy="-1329" rx="44.39" ry="18"/>
<text text-anchor="middle" x="52.75" y="-1325.3" font-family="Times,serif" font-size="14.00">if_block4</text>
</g>
<!-- if43_48&#45;&gt;if_block4 -->
<g id="edge6" class="edge">
<title>if43_48&#45;&gt;if_block4</title>
<path fill="none" stroke="black" d="M98.76,-1398.61C90.69,-1386.58 79.56,-1369.98 70.27,-1356.13"/>
<polygon fill="black" stroke="black" points="73.22,-1354.24 64.74,-1347.89 67.4,-1358.14 73.22,-1354.24"/>
<text text-anchor="middle" x="97.75" y="-1368.8" font-family="Times,serif" font-size="14.00">True</text>
</g>
<!-- else_block5 -->
<g id="node7" class="node">
<title>else_block5</title>
<ellipse fill="none" stroke="black" cx="167.75" cy="-1329" rx="52.79" ry="18"/>
<text text-anchor="middle" x="167.75" y="-1325.3" font-family="Times,serif" font-size="14.00">else_block5</text>
</g>
<!-- if43_48&#45;&gt;else_block5 -->
<g id="edge7" class="edge">
<title>if43_48&#45;&gt;else_block5</title>
<path fill="none" stroke="black" d="M120.93,-1398.61C129.09,-1386.65 140.32,-1370.2 149.73,-1356.4"/>
<polygon fill="black" stroke="black" points="152.6,-1358.4 155.35,-1348.17 146.82,-1354.46 152.6,-1358.4"/>
<text text-anchor="middle" x="156.25" y="-1368.8" font-family="Times,serif" font-size="14.00">False</text>
</g>
<!-- block6 -->
<g id="node8" class="node">
<title>block6</title>
<ellipse fill="none" stroke="black" cx="109.75" cy="-1256" rx="34.39" ry="18"/>
<text text-anchor="middle" x="109.75" y="-1252.3" font-family="Times,serif" font-size="14.00">block6</text>
</g>
<!-- if_block4&#45;&gt;block6 -->
<g id="edge9" class="edge">
<title>if_block4&#45;&gt;block6</title>
<path fill="none" stroke="black" d="M65.97,-1311.53C73.04,-1302.72 81.91,-1291.68 89.8,-1281.84"/>
<polygon fill="black" stroke="black" points="92.51,-1284.06 96.04,-1274.07 87.05,-1279.68 92.51,-1284.06"/>
</g>
<!-- else_block5&#45;&gt;block6 -->
<g id="edge8" class="edge">
<title>else_block5&#45;&gt;block6</title>
<path fill="none" stroke="black" d="M154,-1311.17C146.79,-1302.35 137.82,-1291.37 129.85,-1281.61"/>
<polygon fill="black" stroke="black" points="132.59,-1279.43 123.56,-1273.9 127.17,-1283.86 132.59,-1279.43"/>
</g>
<!-- if54_60 -->
<g id="node9" class="node">
<title>if54_60</title>
<ellipse fill="none" stroke="black" cx="109.75" cy="-1183" rx="38.19" ry="18"/>
<text text-anchor="middle" x="109.75" y="-1179.3" font-family="Times,serif" font-size="14.00">if54_60</text>
</g>
<!-- block6&#45;&gt;if54_60 -->
<g id="edge10" class="edge">
<title>block6&#45;&gt;if54_60</title>
<path fill="none" stroke="black" d="M109.75,-1237.81C109.75,-1230.23 109.75,-1221.1 109.75,-1212.54"/>
<polygon fill="black" stroke="black" points="113.25,-1212.54 109.75,-1202.54 106.25,-1212.54 113.25,-1212.54"/>
</g>
<!-- if_block7 -->
<g id="node10" class="node">
<title>if_block7</title>
<ellipse fill="none" stroke="black" cx="69.75" cy="-1096" rx="44.39" ry="18"/>
<text text-anchor="middle" x="69.75" y="-1092.3" font-family="Times,serif" font-size="14.00">if_block7</text>
</g>
<!-- if54_60&#45;&gt;if_block7 -->
<g id="edge11" class="edge">
<title>if54_60&#45;&gt;if_block7</title>
<path fill="none" stroke="black" d="M101.84,-1165.21C96.35,-1153.52 88.89,-1137.69 82.56,-1124.22"/>
<polygon fill="black" stroke="black" points="85.84,-1122.98 78.41,-1115.42 79.5,-1125.96 85.84,-1122.98"/>
<text text-anchor="middle" x="105.75" y="-1135.8" font-family="Times,serif" font-size="14.00">True</text>
</g>
<!-- block8 -->
<g id="node11" class="node">
<title>block8</title>
<ellipse fill="none" stroke="black" cx="109.75" cy="-1023" rx="34.39" ry="18"/>
<text text-anchor="middle" x="109.75" y="-1019.3" font-family="Times,serif" font-size="14.00">block8</text>
</g>
<!-- if54_60&#45;&gt;block8 -->
<g id="edge12" class="edge">
<title>if54_60&#45;&gt;block8</title>
<path fill="none" stroke="black" d="M117.48,-1164.9C119.63,-1159.31 121.67,-1153 122.75,-1147 128.17,-1116.82 126.36,-1108.45 122.75,-1078 121.73,-1069.41 119.82,-1060.21 117.78,-1051.88"/>
<polygon fill="black" stroke="black" points="121.19,-1051.09 115.27,-1042.3 114.42,-1052.86 121.19,-1051.09"/>
<text text-anchor="middle" x="141.25" y="-1092.3" font-family="Times,serif" font-size="14.00">False</text>
</g>
<!-- if_block7&#45;&gt;block8 -->
<g id="edge13" class="edge">
<title>if_block7&#45;&gt;block8</title>
<path fill="none" stroke="black" d="M79.23,-1078.17C83.86,-1069.95 89.54,-1059.86 94.75,-1050.62"/>
<polygon fill="black" stroke="black" points="97.73,-1052.45 99.59,-1042.02 91.63,-1049.02 97.73,-1052.45"/>
</g>
<!-- if64_64 -->
<g id="node12" class="node">
<title>if64_64</title>
<ellipse fill="none" stroke="black" cx="109.75" cy="-950" rx="38.19" ry="18"/>
<text text-anchor="middle" x="109.75" y="-946.3" font-family="Times,serif" font-size="14.00">if64_64</text>
</g>
<!-- block8&#45;&gt;if64_64 -->
<g id="edge14" class="edge">
<title>block8&#45;&gt;if64_64</title>
<path fill="none" stroke="black" d="M109.75,-1004.81C109.75,-997.23 109.75,-988.1 109.75,-979.54"/>
<polygon fill="black" stroke="black" points="113.25,-979.54 109.75,-969.54 106.25,-979.54 113.25,-979.54"/>
</g>
<!-- if_block9 -->
<g id="node13" class="node">
<title>if_block9</title>
<ellipse fill="none" stroke="black" cx="69.75" cy="-863" rx="44.39" ry="18"/>
<text text-anchor="middle" x="69.75" y="-859.3" font-family="Times,serif" font-size="14.00">if_block9</text>
</g>
<!-- if64_64&#45;&gt;if_block9 -->
<g id="edge15" class="edge">
<title>if64_64&#45;&gt;if_block9</title>
<path fill="none" stroke="black" d="M101.84,-932.21C96.35,-920.52 88.89,-904.69 82.56,-891.22"/>
<polygon fill="black" stroke="black" points="85.84,-889.98 78.41,-882.42 79.5,-892.96 85.84,-889.98"/>
<text text-anchor="middle" x="105.75" y="-902.8" font-family="Times,serif" font-size="14.00">True</text>
</g>
<!-- block10 -->
<g id="node14" class="node">
<title>block10</title>
<ellipse fill="none" stroke="black" cx="109.75" cy="-790" rx="38.99" ry="18"/>
<text text-anchor="middle" x="109.75" y="-786.3" font-family="Times,serif" font-size="14.00">block10</text>
</g>
<!-- if64_64&#45;&gt;block10 -->
<g id="edge16" class="edge">
<title>if64_64&#45;&gt;block10</title>
<path fill="none" stroke="black" d="M117.48,-931.9C119.63,-926.31 121.67,-920 122.75,-914 128.17,-883.82 126.36,-875.45 122.75,-845 121.74,-836.54 119.88,-827.49 117.88,-819.26"/>
<polygon fill="black" stroke="black" points="121.32,-818.58 115.4,-809.78 114.54,-820.34 121.32,-818.58"/>
<text text-anchor="middle" x="141.25" y="-859.3" font-family="Times,serif" font-size="14.00">False</text>
</g>
<!-- if_block9&#45;&gt;block10 -->
<g id="edge17" class="edge">
<title>if_block9&#45;&gt;block10</title>
<path fill="none" stroke="black" d="M79.23,-845.17C83.86,-836.95 89.54,-826.86 94.75,-817.62"/>
<polygon fill="black" stroke="black" points="97.73,-819.45 99.59,-809.02 91.63,-816.02 97.73,-819.45"/>
</g>
<!-- if68_68 -->
<g id="node15" class="node">
<title>if68_68</title>
<ellipse fill="none" stroke="black" cx="109.75" cy="-717" rx="38.19" ry="18"/>
<text text-anchor="middle" x="109.75" y="-713.3" font-family="Times,serif" font-size="14.00">if68_68</text>
</g>
<!-- block10&#45;&gt;if68_68 -->
<g id="edge18" class="edge">
<title>block10&#45;&gt;if68_68</title>
<path fill="none" stroke="black" d="M109.75,-771.81C109.75,-764.23 109.75,-755.1 109.75,-746.54"/>
<polygon fill="black" stroke="black" points="113.25,-746.54 109.75,-736.54 106.25,-746.54 113.25,-746.54"/>
</g>
<!-- if_block11 -->
<g id="node16" class="node">
<title>if_block11</title>
<ellipse fill="none" stroke="black" cx="67.75" cy="-630" rx="48.99" ry="18"/>
<text text-anchor="middle" x="67.75" y="-626.3" font-family="Times,serif" font-size="14.00">if_block11</text>
</g>
<!-- if68_68&#45;&gt;if_block11 -->
<g id="edge19" class="edge">
<title>if68_68&#45;&gt;if_block11</title>
<path fill="none" stroke="black" d="M101.45,-699.21C95.68,-687.52 87.85,-671.69 81.2,-658.22"/>
<polygon fill="black" stroke="black" points="84.41,-656.82 76.84,-649.41 78.13,-659.92 84.41,-656.82"/>
<text text-anchor="middle" x="104.75" y="-669.8" font-family="Times,serif" font-size="14.00">True</text>
</g>
<!-- block12 -->
<g id="node17" class="node">
<title>block12</title>
<ellipse fill="none" stroke="black" cx="109.75" cy="-557" rx="38.99" ry="18"/>
<text text-anchor="middle" x="109.75" y="-553.3" font-family="Times,serif" font-size="14.00">block12</text>
</g>
<!-- if68_68&#45;&gt;block12 -->
<g id="edge20" class="edge">
<title>if68_68&#45;&gt;block12</title>
<path fill="none" stroke="black" d="M116.33,-699.12C118.33,-693.44 120.37,-687.01 121.75,-681 128.61,-651.06 130.15,-642.4 125.75,-612 124.51,-603.45 122.22,-594.37 119.75,-586.14"/>
<polygon fill="black" stroke="black" points="123.09,-585.11 116.7,-576.67 116.43,-587.26 123.09,-585.11"/>
<text text-anchor="middle" x="143.25" y="-626.3" font-family="Times,serif" font-size="14.00">False</text>
</g>
<!-- if_block11&#45;&gt;block12 -->
<g id="edge21" class="edge">
<title>if_block11&#45;&gt;block12</title>
<path fill="none" stroke="black" d="M77.7,-612.17C82.62,-603.86 88.66,-593.64 94.17,-584.33"/>
<polygon fill="black" stroke="black" points="97.01,-586.4 99.09,-576.01 90.99,-582.83 97.01,-586.4"/>
</g>
<!-- if75_75 -->
<g id="node18" class="node">
<title>if75_75</title>
<ellipse fill="none" stroke="black" cx="109.75" cy="-484" rx="38.19" ry="18"/>
<text text-anchor="middle" x="109.75" y="-480.3" font-family="Times,serif" font-size="14.00">if75_75</text>
</g>
<!-- block12&#45;&gt;if75_75 -->
<g id="edge22" class="edge">
<title>block12&#45;&gt;if75_75</title>
<path fill="none" stroke="black" d="M109.75,-538.81C109.75,-531.23 109.75,-522.1 109.75,-513.54"/>
<polygon fill="black" stroke="black" points="113.25,-513.54 109.75,-503.54 106.25,-513.54 113.25,-513.54"/>
</g>
<!-- if_block13 -->
<g id="node19" class="node">
<title>if_block13</title>
<ellipse fill="none" stroke="black" cx="67.75" cy="-397" rx="48.99" ry="18"/>
<text text-anchor="middle" x="67.75" y="-393.3" font-family="Times,serif" font-size="14.00">if_block13</text>
</g>
<!-- if75_75&#45;&gt;if_block13 -->
<g id="edge23" class="edge">
<title>if75_75&#45;&gt;if_block13</title>
<path fill="none" stroke="black" d="M101.45,-466.21C95.68,-454.52 87.85,-438.69 81.2,-425.22"/>
<polygon fill="black" stroke="black" points="84.41,-423.82 76.84,-416.41 78.13,-426.92 84.41,-423.82"/>
<text text-anchor="middle" x="104.75" y="-436.8" font-family="Times,serif" font-size="14.00">True</text>
</g>
<!-- block14 -->
<g id="node20" class="node">
<title>block14</title>
<ellipse fill="none" stroke="black" cx="109.75" cy="-324" rx="38.99" ry="18"/>
<text text-anchor="middle" x="109.75" y="-320.3" font-family="Times,serif" font-size="14.00">block14</text>
</g>
<!-- if75_75&#45;&gt;block14 -->
<g id="edge24" class="edge">
<title>if75_75&#45;&gt;block14</title>
<path fill="none" stroke="black" d="M116.33,-466.12C118.33,-460.44 120.37,-454.01 121.75,-448 128.61,-418.06 130.15,-409.4 125.75,-379 124.51,-370.45 122.22,-361.37 119.75,-353.14"/>
<polygon fill="black" stroke="black" points="123.09,-352.11 116.7,-343.67 116.43,-354.26 123.09,-352.11"/>
<text text-anchor="middle" x="143.25" y="-393.3" font-family="Times,serif" font-size="14.00">False</text>
</g>
<!-- if_block13&#45;&gt;block14 -->
<g id="edge25" class="edge">
<title>if_block13&#45;&gt;block14</title>
<path fill="none" stroke="black" d="M77.7,-379.17C82.62,-370.86 88.66,-360.64 94.17,-351.33"/>
<polygon fill="black" stroke="black" points="97.01,-353.4 99.09,-343.01 90.99,-349.83 97.01,-353.4"/>
</g>
<!-- if84_100 -->
<g id="node21" class="node">
<title>if84_100</title>
<ellipse fill="none" stroke="black" cx="109.75" cy="-251" rx="42.49" ry="18"/>
<text text-anchor="middle" x="109.75" y="-247.3" font-family="Times,serif" font-size="14.00">if84_100</text>
</g>
<!-- block14&#45;&gt;if84_100 -->
<g id="edge26" class="edge">
<title>block14&#45;&gt;if84_100</title>
<path fill="none" stroke="black" d="M109.75,-305.81C109.75,-298.23 109.75,-289.1 109.75,-280.54"/>
<polygon fill="black" stroke="black" points="113.25,-280.54 109.75,-270.54 106.25,-280.54 113.25,-280.54"/>
</g>
<!-- if_block15 -->
<g id="node22" class="node">
<title>if_block15</title>
<ellipse fill="none" stroke="black" cx="48.75" cy="-164" rx="48.99" ry="18"/>
<text text-anchor="middle" x="48.75" y="-160.3" font-family="Times,serif" font-size="14.00">if_block15</text>
</g>
<!-- if84_100&#45;&gt;if_block15 -->
<g id="edge27" class="edge">
<title>if84_100&#45;&gt;if_block15</title>
<path fill="none" stroke="black" d="M97.98,-233.61C89.32,-221.54 77.36,-204.88 67.4,-191"/>
<polygon fill="black" stroke="black" points="70.45,-189.23 61.77,-183.15 64.76,-193.32 70.45,-189.23"/>
<text text-anchor="middle" x="96.75" y="-203.8" font-family="Times,serif" font-size="14.00">True</text>
</g>
<!-- else_block16 -->
<g id="node23" class="node">
<title>else_block16</title>
<ellipse fill="none" stroke="black" cx="172.75" cy="-164" rx="57.39" ry="18"/>
<text text-anchor="middle" x="172.75" y="-160.3" font-family="Times,serif" font-size="14.00">else_block16</text>
</g>
<!-- if84_100&#45;&gt;else_block16 -->
<g id="edge28" class="edge">
<title>if84_100&#45;&gt;else_block16</title>
<path fill="none" stroke="black" d="M121.89,-233.61C130.84,-221.54 143.19,-204.88 153.48,-191"/>
<polygon fill="black" stroke="black" points="156.16,-193.25 159.3,-183.14 150.54,-189.09 156.16,-193.25"/>
<text text-anchor="middle" x="159.25" y="-203.8" font-family="Times,serif" font-size="14.00">False</text>
</g>
<!-- block17 -->
<g id="node24" class="node">
<title>block17</title>
<ellipse fill="none" stroke="black" cx="109.75" cy="-91" rx="38.99" ry="18"/>
<text text-anchor="middle" x="109.75" y="-87.3" font-family="Times,serif" font-size="14.00">block17</text>
</g>
<!-- if_block15&#45;&gt;block17 -->
<g id="edge30" class="edge">
<title>if_block15&#45;&gt;block17</title>
<path fill="none" stroke="black" d="M62.89,-146.53C70.55,-137.63 80.15,-126.45 88.67,-116.54"/>
<polygon fill="black" stroke="black" points="91.25,-118.9 95.11,-109.04 85.94,-114.34 91.25,-118.9"/>
</g>
<!-- else_block16&#45;&gt;block17 -->
<g id="edge29" class="edge">
<title>else_block16&#45;&gt;block17</title>
<path fill="none" stroke="black" d="M157.82,-146.17C150.02,-137.38 140.32,-126.46 131.68,-116.72"/>
<polygon fill="black" stroke="black" points="134.39,-114.51 125.14,-109.35 129.16,-119.15 134.39,-114.51"/>
</g>
<!-- end -->
<g id="node25" class="node">
<title>end</title>
<ellipse fill="none" stroke="black" cx="109.75" cy="-18" rx="27" ry="18"/>
<text text-anchor="middle" x="109.75" y="-14.3" font-family="Times,serif" font-size="14.00">end</text>
</g>
<!-- block17&#45;&gt;end -->
<g id="edge31" class="edge">
<title>block17&#45;&gt;end</title>
<path fill="none" stroke="black" d="M109.75,-72.81C109.75,-65.23 109.75,-56.1 109.75,-47.54"/>
<polygon fill="black" stroke="black" points="113.25,-47.54 109.75,-37.54 106.25,-47.54 113.25,-47.54"/>
</g>
</g>
</svg>
