<?xml version="1.0" encoding="UTF-8" standalone="no"?>
<!DOCTYPE svg PUBLIC "-//W3C//DTD SVG 1.1//EN"
 "http://www.w3.org/Graphics/SVG/1.1/DTD/svg11.dtd">
<!-- Generated by graphviz version 7.1.0 (20230121.1956)
 -->
<!-- Pages: 1 -->
<svg width="220pt" height="350pt"
 viewBox="0.00 0.00 219.84 350.00" xmlns="http://www.w3.org/2000/svg" xmlns:xlink="http://www.w3.org/1999/xlink">
<g id="graph0" class="graph" transform="scale(1 1) rotate(0) translate(4 346)">
<polygon fill="white" stroke="none" points="-4,4 -4,-346 215.84,-346 215.84,4 -4,4"/>
<!-- start -->
<g id="node1" class="node">
<title>start</title>
<ellipse fill="none" stroke="black" cx="101.2" cy="-324" rx="27" ry="18"/>
<text text-anchor="middle" x="101.2" y="-320.3" font-family="Times,serif" font-size="14.00">start</text>
</g>
<!-- if32_52 -->
<g id="node2" class="node">
<title>if32_52</title>
<ellipse fill="none" stroke="black" cx="101.2" cy="-251" rx="38.19" ry="18"/>
<text text-anchor="middle" x="101.2" y="-247.3" font-family="Times,serif" font-size="14.00">if32_52</text>
</g>
<!-- start&#45;&gt;if32_52 -->
<g id="edge1" class="edge">
<title>start&#45;&gt;if32_52</title>
<path fill="none" stroke="black" d="M101.2,-305.81C101.2,-298.23 101.2,-289.1 101.2,-280.54"/>
<polygon fill="black" stroke="black" points="104.7,-280.54 101.2,-270.54 97.7,-280.54 104.7,-280.54"/>
</g>
<!-- if_block2 -->
<g id="node3" class="node">
<title>if_block2</title>
<ellipse fill="none" stroke="black" cx="44.2" cy="-164" rx="44.39" ry="18"/>
<text text-anchor="middle" x="44.2" y="-160.3" font-family="Times,serif" font-size="14.00">if_block2</text>
</g>
<!-- if32_52&#45;&gt;if_block2 -->
<g id="edge2" class="edge">
<title>if32_52&#45;&gt;if_block2</title>
<path fill="none" stroke="black" d="M90.21,-233.61C82.14,-221.58 71.01,-204.98 61.72,-191.13"/>
<polygon fill="black" stroke="black" points="64.67,-189.24 56.19,-182.89 58.85,-193.14 64.67,-189.24"/>
<text text-anchor="middle" x="89.2" y="-203.8" font-family="Times,serif" font-size="14.00">True</text>
</g>
<!-- else_block3 -->
<g id="node4" class="node">
<title>else_block3</title>
<ellipse fill="none" stroke="black" cx="159.2" cy="-164" rx="52.79" ry="18"/>
<text text-anchor="middle" x="159.2" y="-160.3" font-family="Times,serif" font-size="14.00">else_block3</text>
</g>
<!-- if32_52&#45;&gt;else_block3 -->
<g id="edge3" class="edge">
<title>if32_52&#45;&gt;else_block3</title>
<path fill="none" stroke="black" d="M112.38,-233.61C120.54,-221.65 131.77,-205.2 141.18,-191.4"/>
<polygon fill="black" stroke="black" points="144.05,-193.4 146.8,-183.17 138.27,-189.46 144.05,-193.4"/>
<text text-anchor="middle" x="147.7" y="-203.8" font-family="Times,serif" font-size="14.00">False</text>
</g>
<!-- block4 -->
<g id="node5" class="node">
<title>block4</title>
<ellipse fill="none" stroke="black" cx="101.2" cy="-91" rx="34.39" ry="18"/>
<text text-anchor="middle" x="101.2" y="-87.3" font-family="Times,serif" font-size="14.00">block4</text>
</g>
<!-- if_block2&#45;&gt;block4 -->
<g id="edge5" class="edge">
<title>if_block2&#45;&gt;block4</title>
<path fill="none" stroke="black" d="M57.42,-146.53C64.49,-137.72 73.36,-126.68 81.25,-116.84"/>
<polygon fill="black" stroke="black" points="83.96,-119.06 87.49,-109.07 78.5,-114.68 83.96,-119.06"/>
</g>
<!-- else_block3&#45;&gt;block4 -->
<g id="edge4" class="edge">
<title>else_block3&#45;&gt;block4</title>
<path fill="none" stroke="black" d="M145.45,-146.17C138.24,-137.35 129.27,-126.37 121.3,-116.61"/>
<polygon fill="black" stroke="black" points="124.04,-114.43 115.01,-108.9 118.62,-118.86 124.04,-114.43"/>
</g>
<!-- end -->
<g id="node6" class="node">
<title>end</title>
<ellipse fill="none" stroke="black" cx="101.2" cy="-18" rx="27" ry="18"/>
<text text-anchor="middle" x="101.2" y="-14.3" font-family="Times,serif" font-size="14.00">end</text>
</g>
<!-- block4&#45;&gt;end -->
<g id="edge6" class="edge">
<title>block4&#45;&gt;end</title>
<path fill="none" stroke="black" d="M101.2,-72.81C101.2,-65.23 101.2,-56.1 101.2,-47.54"/>
<polygon fill="black" stroke="black" points="104.7,-47.54 101.2,-37.54 97.7,-47.54 104.7,-47.54"/>
</g>
</g>
</svg>
