<?xml version="1.0" encoding="UTF-8" standalone="no"?>
<!DOCTYPE svg PUBLIC "-//W3C//DTD SVG 1.1//EN"
 "http://www.w3.org/Graphics/SVG/1.1/DTD/svg11.dtd">
<!-- Generated by graphviz version 7.1.0 (20230121.1956)
 -->
<!-- Pages: 1 -->
<svg width="168pt" height="2447pt"
 viewBox="0.00 0.00 167.75 2447.00" xmlns="http://www.w3.org/2000/svg" xmlns:xlink="http://www.w3.org/1999/xlink">
<g id="graph0" class="graph" transform="scale(1 1) rotate(0) translate(4 2443)">
<polygon fill="white" stroke="none" points="-4,4 -4,-2443 163.75,-2443 163.75,4 -4,4"/>
<!-- start -->
<g id="node1" class="node">
<title>start</title>
<ellipse fill="none" stroke="black" cx="120.75" cy="-2421" rx="27" ry="18"/>
<text text-anchor="middle" x="120.75" y="-2417.3" font-family="Times,serif" font-size="14.00">start</text>
</g>
<!-- if42_42 -->
<g id="node2" class="node">
<title>if42_42</title>
<ellipse fill="none" stroke="black" cx="120.75" cy="-2348" rx="38.19" ry="18"/>
<text text-anchor="middle" x="120.75" y="-2344.3" font-family="Times,serif" font-size="14.00">if42_42</text>
</g>
<!-- start&#45;&gt;if42_42 -->
<g id="edge1" class="edge">
<title>start&#45;&gt;if42_42</title>
<path fill="none" stroke="black" d="M120.75,-2402.81C120.75,-2395.23 120.75,-2386.1 120.75,-2377.54"/>
<polygon fill="black" stroke="black" points="124.25,-2377.54 120.75,-2367.54 117.25,-2377.54 124.25,-2377.54"/>
</g>
<!-- if_block2 -->
<g id="node3" class="node">
<title>if_block2</title>
<ellipse fill="none" stroke="black" cx="71.75" cy="-2261" rx="44.39" ry="18"/>
<text text-anchor="middle" x="71.75" y="-2257.3" font-family="Times,serif" font-size="14.00">if_block2</text>
</g>
<!-- if42_42&#45;&gt;if_block2 -->
<g id="edge2" class="edge">
<title>if42_42&#45;&gt;if_block2</title>
<path fill="none" stroke="black" d="M111.06,-2330.21C104.26,-2318.41 95.02,-2302.38 87.21,-2288.82"/>
<polygon fill="black" stroke="black" points="90.36,-2287.28 82.33,-2280.36 84.29,-2290.77 90.36,-2287.28"/>
<text text-anchor="middle" x="112.75" y="-2300.8" font-family="Times,serif" font-size="14.00">True</text>
</g>
<!-- block3 -->
<g id="node4" class="node">
<title>block3</title>
<ellipse fill="none" stroke="black" cx="111.75" cy="-2188" rx="34.39" ry="18"/>
<text text-anchor="middle" x="111.75" y="-2184.3" font-family="Times,serif" font-size="14.00">block3</text>
</g>
<!-- if42_42&#45;&gt;block3 -->
<g id="edge3" class="edge">
<title>if42_42&#45;&gt;block3</title>
<path fill="none" stroke="black" d="M126.11,-2329.72C127.6,-2324.12 129.01,-2317.85 129.75,-2312 133.88,-2279.28 126.67,-2241.8 120.18,-2216.9"/>
<polygon fill="black" stroke="black" points="123.63,-2216.25 117.6,-2207.54 116.88,-2218.11 123.63,-2216.25"/>
<text text-anchor="middle" x="145.25" y="-2257.3" font-family="Times,serif" font-size="14.00">False</text>
</g>
<!-- if_block2&#45;&gt;block3 -->
<g id="edge4" class="edge">
<title>if_block2&#45;&gt;block3</title>
<path fill="none" stroke="black" d="M81.23,-2243.17C85.86,-2234.95 91.54,-2224.86 96.75,-2215.62"/>
<polygon fill="black" stroke="black" points="99.73,-2217.45 101.59,-2207.02 93.63,-2214.02 99.73,-2217.45"/>
</g>
<!-- if48_48 -->
<g id="node5" class="node">
<title>if48_48</title>
<ellipse fill="none" stroke="black" cx="111.75" cy="-2115" rx="38.19" ry="18"/>
<text text-anchor="middle" x="111.75" y="-2111.3" font-family="Times,serif" font-size="14.00">if48_48</text>
</g>
<!-- block3&#45;&gt;if48_48 -->
<g id="edge5" class="edge">
<title>block3&#45;&gt;if48_48</title>
<path fill="none" stroke="black" d="M111.75,-2169.81C111.75,-2162.23 111.75,-2153.1 111.75,-2144.54"/>
<polygon fill="black" stroke="black" points="115.25,-2144.54 111.75,-2134.54 108.25,-2144.54 115.25,-2144.54"/>
</g>
<!-- if_block4 -->
<g id="node6" class="node">
<title>if_block4</title>
<ellipse fill="none" stroke="black" cx="71.75" cy="-2028" rx="44.39" ry="18"/>
<text text-anchor="middle" x="71.75" y="-2024.3" font-family="Times,serif" font-size="14.00">if_block4</text>
</g>
<!-- if48_48&#45;&gt;if_block4 -->
<g id="edge6" class="edge">
<title>if48_48&#45;&gt;if_block4</title>
<path fill="none" stroke="black" d="M103.84,-2097.21C98.35,-2085.52 90.89,-2069.69 84.56,-2056.22"/>
<polygon fill="black" stroke="black" points="87.84,-2054.98 80.41,-2047.42 81.5,-2057.96 87.84,-2054.98"/>
<text text-anchor="middle" x="107.75" y="-2067.8" font-family="Times,serif" font-size="14.00">True</text>
</g>
<!-- block5 -->
<g id="node7" class="node">
<title>block5</title>
<ellipse fill="none" stroke="black" cx="111.75" cy="-1955" rx="34.39" ry="18"/>
<text text-anchor="middle" x="111.75" y="-1951.3" font-family="Times,serif" font-size="14.00">block5</text>
</g>
<!-- if48_48&#45;&gt;block5 -->
<g id="edge7" class="edge">
<title>if48_48&#45;&gt;block5</title>
<path fill="none" stroke="black" d="M119.48,-2096.9C121.63,-2091.31 123.67,-2085 124.75,-2079 130.17,-2048.82 128.36,-2040.45 124.75,-2010 123.73,-2001.41 121.82,-1992.21 119.78,-1983.88"/>
<polygon fill="black" stroke="black" points="123.19,-1983.09 117.27,-1974.3 116.42,-1984.86 123.19,-1983.09"/>
<text text-anchor="middle" x="143.25" y="-2024.3" font-family="Times,serif" font-size="14.00">False</text>
</g>
<!-- if_block4&#45;&gt;block5 -->
<g id="edge8" class="edge">
<title>if_block4&#45;&gt;block5</title>
<path fill="none" stroke="black" d="M81.23,-2010.17C85.86,-2001.95 91.54,-1991.86 96.75,-1982.62"/>
<polygon fill="black" stroke="black" points="99.73,-1984.45 101.59,-1974.02 93.63,-1981.02 99.73,-1984.45"/>
</g>
<!-- if52_52 -->
<g id="node8" class="node">
<title>if52_52</title>
<ellipse fill="none" stroke="black" cx="111.75" cy="-1882" rx="38.19" ry="18"/>
<text text-anchor="middle" x="111.75" y="-1878.3" font-family="Times,serif" font-size="14.00">if52_52</text>
</g>
<!-- block5&#45;&gt;if52_52 -->
<g id="edge9" class="edge">
<title>block5&#45;&gt;if52_52</title>
<path fill="none" stroke="black" d="M111.75,-1936.81C111.75,-1929.23 111.75,-1920.1 111.75,-1911.54"/>
<polygon fill="black" stroke="black" points="115.25,-1911.54 111.75,-1901.54 108.25,-1911.54 115.25,-1911.54"/>
</g>
<!-- if_block6 -->
<g id="node9" class="node">
<title>if_block6</title>
<ellipse fill="none" stroke="black" cx="71.75" cy="-1795" rx="44.39" ry="18"/>
<text text-anchor="middle" x="71.75" y="-1791.3" font-family="Times,serif" font-size="14.00">if_block6</text>
</g>
<!-- if52_52&#45;&gt;if_block6 -->
<g id="edge10" class="edge">
<title>if52_52&#45;&gt;if_block6</title>
<path fill="none" stroke="black" d="M103.84,-1864.21C98.35,-1852.52 90.89,-1836.69 84.56,-1823.22"/>
<polygon fill="black" stroke="black" points="87.84,-1821.98 80.41,-1814.42 81.5,-1824.96 87.84,-1821.98"/>
<text text-anchor="middle" x="107.75" y="-1834.8" font-family="Times,serif" font-size="14.00">True</text>
</g>
<!-- block7 -->
<g id="node10" class="node">
<title>block7</title>
<ellipse fill="none" stroke="black" cx="111.75" cy="-1722" rx="34.39" ry="18"/>
<text text-anchor="middle" x="111.75" y="-1718.3" font-family="Times,serif" font-size="14.00">block7</text>
</g>
<!-- if52_52&#45;&gt;block7 -->
<g id="edge11" class="edge">
<title>if52_52&#45;&gt;block7</title>
<path fill="none" stroke="black" d="M119.48,-1863.9C121.63,-1858.31 123.67,-1852 124.75,-1846 130.17,-1815.82 128.36,-1807.45 124.75,-1777 123.73,-1768.41 121.82,-1759.21 119.78,-1750.88"/>
<polygon fill="black" stroke="black" points="123.19,-1750.09 117.27,-1741.3 116.42,-1751.86 123.19,-1750.09"/>
<text text-anchor="middle" x="143.25" y="-1791.3" font-family="Times,serif" font-size="14.00">False</text>
</g>
<!-- if_block6&#45;&gt;block7 -->
<g id="edge12" class="edge">
<title>if_block6&#45;&gt;block7</title>
<path fill="none" stroke="black" d="M81.23,-1777.17C85.86,-1768.95 91.54,-1758.86 96.75,-1749.62"/>
<polygon fill="black" stroke="black" points="99.73,-1751.45 101.59,-1741.02 93.63,-1748.02 99.73,-1751.45"/>
</g>
<!-- if60_61 -->
<g id="node11" class="node">
<title>if60_61</title>
<ellipse fill="none" stroke="black" cx="111.75" cy="-1649" rx="38.19" ry="18"/>
<text text-anchor="middle" x="111.75" y="-1645.3" font-family="Times,serif" font-size="14.00">if60_61</text>
</g>
<!-- block7&#45;&gt;if60_61 -->
<g id="edge13" class="edge">
<title>block7&#45;&gt;if60_61</title>
<path fill="none" stroke="black" d="M111.75,-1703.81C111.75,-1696.23 111.75,-1687.1 111.75,-1678.54"/>
<polygon fill="black" stroke="black" points="115.25,-1678.54 111.75,-1668.54 108.25,-1678.54 115.25,-1678.54"/>
</g>
<!-- if_block8 -->
<g id="node12" class="node">
<title>if_block8</title>
<ellipse fill="none" stroke="black" cx="71.75" cy="-1562" rx="44.39" ry="18"/>
<text text-anchor="middle" x="71.75" y="-1558.3" font-family="Times,serif" font-size="14.00">if_block8</text>
</g>
<!-- if60_61&#45;&gt;if_block8 -->
<g id="edge14" class="edge">
<title>if60_61&#45;&gt;if_block8</title>
<path fill="none" stroke="black" d="M103.84,-1631.21C98.35,-1619.52 90.89,-1603.69 84.56,-1590.22"/>
<polygon fill="black" stroke="black" points="87.84,-1588.98 80.41,-1581.42 81.5,-1591.96 87.84,-1588.98"/>
<text text-anchor="middle" x="107.75" y="-1601.8" font-family="Times,serif" font-size="14.00">True</text>
</g>
<!-- block9 -->
<g id="node13" class="node">
<title>block9</title>
<ellipse fill="none" stroke="black" cx="111.75" cy="-1489" rx="34.39" ry="18"/>
<text text-anchor="middle" x="111.75" y="-1485.3" font-family="Times,serif" font-size="14.00">block9</text>
</g>
<!-- if60_61&#45;&gt;block9 -->
<g id="edge15" class="edge">
<title>if60_61&#45;&gt;block9</title>
<path fill="none" stroke="black" d="M119.48,-1630.9C121.63,-1625.31 123.67,-1619 124.75,-1613 130.17,-1582.82 128.36,-1574.45 124.75,-1544 123.73,-1535.41 121.82,-1526.21 119.78,-1517.88"/>
<polygon fill="black" stroke="black" points="123.19,-1517.09 117.27,-1508.3 116.42,-1518.86 123.19,-1517.09"/>
<text text-anchor="middle" x="143.25" y="-1558.3" font-family="Times,serif" font-size="14.00">False</text>
</g>
<!-- if_block8&#45;&gt;block9 -->
<g id="edge16" class="edge">
<title>if_block8&#45;&gt;block9</title>
<path fill="none" stroke="black" d="M81.23,-1544.17C85.86,-1535.95 91.54,-1525.86 96.75,-1516.62"/>
<polygon fill="black" stroke="black" points="99.73,-1518.45 101.59,-1508.02 93.63,-1515.02 99.73,-1518.45"/>
</g>
<!-- if65_65 -->
<g id="node14" class="node">
<title>if65_65</title>
<ellipse fill="none" stroke="black" cx="111.75" cy="-1416" rx="38.19" ry="18"/>
<text text-anchor="middle" x="111.75" y="-1412.3" font-family="Times,serif" font-size="14.00">if65_65</text>
</g>
<!-- block9&#45;&gt;if65_65 -->
<g id="edge17" class="edge">
<title>block9&#45;&gt;if65_65</title>
<path fill="none" stroke="black" d="M111.75,-1470.81C111.75,-1463.23 111.75,-1454.1 111.75,-1445.54"/>
<polygon fill="black" stroke="black" points="115.25,-1445.54 111.75,-1435.54 108.25,-1445.54 115.25,-1445.54"/>
</g>
<!-- if_block10 -->
<g id="node15" class="node">
<title>if_block10</title>
<ellipse fill="none" stroke="black" cx="69.75" cy="-1329" rx="48.99" ry="18"/>
<text text-anchor="middle" x="69.75" y="-1325.3" font-family="Times,serif" font-size="14.00">if_block10</text>
</g>
<!-- if65_65&#45;&gt;if_block10 -->
<g id="edge18" class="edge">
<title>if65_65&#45;&gt;if_block10</title>
<path fill="none" stroke="black" d="M103.45,-1398.21C97.68,-1386.52 89.85,-1370.69 83.2,-1357.22"/>
<polygon fill="black" stroke="black" points="86.41,-1355.82 78.84,-1348.41 80.13,-1358.92 86.41,-1355.82"/>
<text text-anchor="middle" x="106.75" y="-1368.8" font-family="Times,serif" font-size="14.00">True</text>
</g>
<!-- block11 -->
<g id="node16" class="node">
<title>block11</title>
<ellipse fill="none" stroke="black" cx="111.75" cy="-1256" rx="38.99" ry="18"/>
<text text-anchor="middle" x="111.75" y="-1252.3" font-family="Times,serif" font-size="14.00">block11</text>
</g>
<!-- if65_65&#45;&gt;block11 -->
<g id="edge19" class="edge">
<title>if65_65&#45;&gt;block11</title>
<path fill="none" stroke="black" d="M118.33,-1398.12C120.33,-1392.44 122.37,-1386.01 123.75,-1380 130.61,-1350.06 132.15,-1341.4 127.75,-1311 126.51,-1302.45 124.22,-1293.37 121.75,-1285.14"/>
<polygon fill="black" stroke="black" points="125.09,-1284.11 118.7,-1275.67 118.43,-1286.26 125.09,-1284.11"/>
<text text-anchor="middle" x="145.25" y="-1325.3" font-family="Times,serif" font-size="14.00">False</text>
</g>
<!-- if_block10&#45;&gt;block11 -->
<g id="edge20" class="edge">
<title>if_block10&#45;&gt;block11</title>
<path fill="none" stroke="black" d="M79.7,-1311.17C84.62,-1302.86 90.66,-1292.64 96.17,-1283.33"/>
<polygon fill="black" stroke="black" points="99.01,-1285.4 101.09,-1275.01 92.99,-1281.83 99.01,-1285.4"/>
</g>
<!-- if69_69 -->
<g id="node17" class="node">
<title>if69_69</title>
<ellipse fill="none" stroke="black" cx="111.75" cy="-1183" rx="38.19" ry="18"/>
<text text-anchor="middle" x="111.75" y="-1179.3" font-family="Times,serif" font-size="14.00">if69_69</text>
</g>
<!-- block11&#45;&gt;if69_69 -->
<g id="edge21" class="edge">
<title>block11&#45;&gt;if69_69</title>
<path fill="none" stroke="black" d="M111.75,-1237.81C111.75,-1230.23 111.75,-1221.1 111.75,-1212.54"/>
<polygon fill="black" stroke="black" points="115.25,-1212.54 111.75,-1202.54 108.25,-1212.54 115.25,-1212.54"/>
</g>
<!-- if_block12 -->
<g id="node18" class="node">
<title>if_block12</title>
<ellipse fill="none" stroke="black" cx="69.75" cy="-1096" rx="48.99" ry="18"/>
<text text-anchor="middle" x="69.75" y="-1092.3" font-family="Times,serif" font-size="14.00">if_block12</text>
</g>
<!-- if69_69&#45;&gt;if_block12 -->
<g id="edge22" class="edge">
<title>if69_69&#45;&gt;if_block12</title>
<path fill="none" stroke="black" d="M103.45,-1165.21C97.68,-1153.52 89.85,-1137.69 83.2,-1124.22"/>
<polygon fill="black" stroke="black" points="86.41,-1122.82 78.84,-1115.41 80.13,-1125.92 86.41,-1122.82"/>
<text text-anchor="middle" x="106.75" y="-1135.8" font-family="Times,serif" font-size="14.00">True</text>
</g>
<!-- block13 -->
<g id="node19" class="node">
<title>block13</title>
<ellipse fill="none" stroke="black" cx="111.75" cy="-1023" rx="38.99" ry="18"/>
<text text-anchor="middle" x="111.75" y="-1019.3" font-family="Times,serif" font-size="14.00">block13</text>
</g>
<!-- if69_69&#45;&gt;block13 -->
<g id="edge23" class="edge">
<title>if69_69&#45;&gt;block13</title>
<path fill="none" stroke="black" d="M118.33,-1165.12C120.33,-1159.44 122.37,-1153.01 123.75,-1147 130.61,-1117.06 132.15,-1108.4 127.75,-1078 126.51,-1069.45 124.22,-1060.37 121.75,-1052.14"/>
<polygon fill="black" stroke="black" points="125.09,-1051.11 118.7,-1042.67 118.43,-1053.26 125.09,-1051.11"/>
<text text-anchor="middle" x="145.25" y="-1092.3" font-family="Times,serif" font-size="14.00">False</text>
</g>
<!-- if_block12&#45;&gt;block13 -->
<g id="edge24" class="edge">
<title>if_block12&#45;&gt;block13</title>
<path fill="none" stroke="black" d="M79.7,-1078.17C84.62,-1069.86 90.66,-1059.64 96.17,-1050.33"/>
<polygon fill="black" stroke="black" points="99.01,-1052.4 101.09,-1042.01 92.99,-1048.83 99.01,-1052.4"/>
</g>
<!-- if81_81 -->
<g id="node20" class="node">
<title>if81_81</title>
<ellipse fill="none" stroke="black" cx="111.75" cy="-950" rx="38.19" ry="18"/>
<text text-anchor="middle" x="111.75" y="-946.3" font-family="Times,serif" font-size="14.00">if81_81</text>
</g>
<!-- block13&#45;&gt;if81_81 -->
<g id="edge25" class="edge">
<title>block13&#45;&gt;if81_81</title>
<path fill="none" stroke="black" d="M111.75,-1004.81C111.75,-997.23 111.75,-988.1 111.75,-979.54"/>
<polygon fill="black" stroke="black" points="115.25,-979.54 111.75,-969.54 108.25,-979.54 115.25,-979.54"/>
</g>
<!-- if_block14 -->
<g id="node21" class="node">
<title>if_block14</title>
<ellipse fill="none" stroke="black" cx="48.75" cy="-863" rx="48.99" ry="18"/>
<text text-anchor="middle" x="48.75" y="-859.3" font-family="Times,serif" font-size="14.00">if_block14</text>
</g>
<!-- if81_81&#45;&gt;if_block14 -->
<g id="edge26" class="edge">
<title>if81_81&#45;&gt;if_block14</title>
<path fill="none" stroke="black" d="M99.6,-932.61C90.59,-920.46 78.14,-903.66 67.81,-889.73"/>
<polygon fill="black" stroke="black" points="70.74,-887.79 61.97,-881.84 65.11,-891.96 70.74,-887.79"/>
<text text-anchor="middle" x="97.75" y="-902.8" font-family="Times,serif" font-size="14.00">True</text>
</g>
<!-- block15 -->
<g id="node22" class="node">
<title>block15</title>
<ellipse fill="none" stroke="black" cx="90.75" cy="-790" rx="38.99" ry="18"/>
<text text-anchor="middle" x="90.75" y="-786.3" font-family="Times,serif" font-size="14.00">block15</text>
</g>
<!-- if81_81&#45;&gt;block15 -->
<g id="edge27" class="edge">
<title>if81_81&#45;&gt;block15</title>
<path fill="none" stroke="black" d="M113.53,-931.57C114.03,-925.97 114.5,-919.73 114.75,-914 116.07,-883.16 113.41,-875.14 106.75,-845 104.83,-836.34 102.26,-827.03 99.74,-818.62"/>
<polygon fill="black" stroke="black" points="103.16,-817.83 96.86,-809.31 96.48,-819.9 103.16,-817.83"/>
<text text-anchor="middle" x="129.25" y="-859.3" font-family="Times,serif" font-size="14.00">False</text>
</g>
<!-- if_block14&#45;&gt;block15 -->
<g id="edge28" class="edge">
<title>if_block14&#45;&gt;block15</title>
<path fill="none" stroke="black" d="M58.7,-845.17C63.62,-836.86 69.66,-826.64 75.17,-817.33"/>
<polygon fill="black" stroke="black" points="78.01,-819.4 80.09,-809.01 71.99,-815.83 78.01,-819.4"/>
</g>
<!-- if84_84 -->
<g id="node23" class="node">
<title>if84_84</title>
<ellipse fill="none" stroke="black" cx="90.75" cy="-717" rx="38.19" ry="18"/>
<text text-anchor="middle" x="90.75" y="-713.3" font-family="Times,serif" font-size="14.00">if84_84</text>
</g>
<!-- block15&#45;&gt;if84_84 -->
<g id="edge29" class="edge">
<title>block15&#45;&gt;if84_84</title>
<path fill="none" stroke="black" d="M90.75,-771.81C90.75,-764.23 90.75,-755.1 90.75,-746.54"/>
<polygon fill="black" stroke="black" points="94.25,-746.54 90.75,-736.54 87.25,-746.54 94.25,-746.54"/>
</g>
<!-- if_block16 -->
<g id="node24" class="node">
<title>if_block16</title>
<ellipse fill="none" stroke="black" cx="48.75" cy="-630" rx="48.99" ry="18"/>
<text text-anchor="middle" x="48.75" y="-626.3" font-family="Times,serif" font-size="14.00">if_block16</text>
</g>
<!-- if84_84&#45;&gt;if_block16 -->
<g id="edge30" class="edge">
<title>if84_84&#45;&gt;if_block16</title>
<path fill="none" stroke="black" d="M82.45,-699.21C76.68,-687.52 68.85,-671.69 62.2,-658.22"/>
<polygon fill="black" stroke="black" points="65.41,-656.82 57.84,-649.41 59.13,-659.92 65.41,-656.82"/>
<text text-anchor="middle" x="85.75" y="-669.8" font-family="Times,serif" font-size="14.00">True</text>
</g>
<!-- block17 -->
<g id="node25" class="node">
<title>block17</title>
<ellipse fill="none" stroke="black" cx="90.75" cy="-557" rx="38.99" ry="18"/>
<text text-anchor="middle" x="90.75" y="-553.3" font-family="Times,serif" font-size="14.00">block17</text>
</g>
<!-- if84_84&#45;&gt;block17 -->
<g id="edge31" class="edge">
<title>if84_84&#45;&gt;block17</title>
<path fill="none" stroke="black" d="M97.33,-699.12C99.33,-693.44 101.37,-687.01 102.75,-681 109.61,-651.06 111.15,-642.4 106.75,-612 105.51,-603.45 103.22,-594.37 100.75,-586.14"/>
<polygon fill="black" stroke="black" points="104.09,-585.11 97.7,-576.67 97.43,-587.26 104.09,-585.11"/>
<text text-anchor="middle" x="124.25" y="-626.3" font-family="Times,serif" font-size="14.00">False</text>
</g>
<!-- if_block16&#45;&gt;block17 -->
<g id="edge32" class="edge">
<title>if_block16&#45;&gt;block17</title>
<path fill="none" stroke="black" d="M58.7,-612.17C63.62,-603.86 69.66,-593.64 75.17,-584.33"/>
<polygon fill="black" stroke="black" points="78.01,-586.4 80.09,-576.01 71.99,-582.83 78.01,-586.4"/>
</g>
<!-- if94_94 -->
<g id="node26" class="node">
<title>if94_94</title>
<ellipse fill="none" stroke="black" cx="90.75" cy="-484" rx="38.19" ry="18"/>
<text text-anchor="middle" x="90.75" y="-480.3" font-family="Times,serif" font-size="14.00">if94_94</text>
</g>
<!-- block17&#45;&gt;if94_94 -->
<g id="edge33" class="edge">
<title>block17&#45;&gt;if94_94</title>
<path fill="none" stroke="black" d="M90.75,-538.81C90.75,-531.23 90.75,-522.1 90.75,-513.54"/>
<polygon fill="black" stroke="black" points="94.25,-513.54 90.75,-503.54 87.25,-513.54 94.25,-513.54"/>
</g>
<!-- if_block18 -->
<g id="node27" class="node">
<title>if_block18</title>
<ellipse fill="none" stroke="black" cx="48.75" cy="-397" rx="48.99" ry="18"/>
<text text-anchor="middle" x="48.75" y="-393.3" font-family="Times,serif" font-size="14.00">if_block18</text>
</g>
<!-- if94_94&#45;&gt;if_block18 -->
<g id="edge34" class="edge">
<title>if94_94&#45;&gt;if_block18</title>
<path fill="none" stroke="black" d="M82.45,-466.21C76.68,-454.52 68.85,-438.69 62.2,-425.22"/>
<polygon fill="black" stroke="black" points="65.41,-423.82 57.84,-416.41 59.13,-426.92 65.41,-423.82"/>
<text text-anchor="middle" x="85.75" y="-436.8" font-family="Times,serif" font-size="14.00">True</text>
</g>
<!-- block19 -->
<g id="node28" class="node">
<title>block19</title>
<ellipse fill="none" stroke="black" cx="90.75" cy="-324" rx="38.99" ry="18"/>
<text text-anchor="middle" x="90.75" y="-320.3" font-family="Times,serif" font-size="14.00">block19</text>
</g>
<!-- if94_94&#45;&gt;block19 -->
<g id="edge35" class="edge">
<title>if94_94&#45;&gt;block19</title>
<path fill="none" stroke="black" d="M97.33,-466.12C99.33,-460.44 101.37,-454.01 102.75,-448 109.61,-418.06 111.15,-409.4 106.75,-379 105.51,-370.45 103.22,-361.37 100.75,-353.14"/>
<polygon fill="black" stroke="black" points="104.09,-352.11 97.7,-343.67 97.43,-354.26 104.09,-352.11"/>
<text text-anchor="middle" x="124.25" y="-393.3" font-family="Times,serif" font-size="14.00">False</text>
</g>
<!-- if_block18&#45;&gt;block19 -->
<g id="edge36" class="edge">
<title>if_block18&#45;&gt;block19</title>
<path fill="none" stroke="black" d="M58.7,-379.17C63.62,-370.86 69.66,-360.64 75.17,-351.33"/>
<polygon fill="black" stroke="black" points="78.01,-353.4 80.09,-343.01 71.99,-349.83 78.01,-353.4"/>
</g>
<!-- if96_96 -->
<g id="node29" class="node">
<title>if96_96</title>
<ellipse fill="none" stroke="black" cx="90.75" cy="-251" rx="38.19" ry="18"/>
<text text-anchor="middle" x="90.75" y="-247.3" font-family="Times,serif" font-size="14.00">if96_96</text>
</g>
<!-- block19&#45;&gt;if96_96 -->
<g id="edge37" class="edge">
<title>block19&#45;&gt;if96_96</title>
<path fill="none" stroke="black" d="M90.75,-305.81C90.75,-298.23 90.75,-289.1 90.75,-280.54"/>
<polygon fill="black" stroke="black" points="94.25,-280.54 90.75,-270.54 87.25,-280.54 94.25,-280.54"/>
</g>
<!-- if_block20 -->
<g id="node30" class="node">
<title>if_block20</title>
<ellipse fill="none" stroke="black" cx="48.75" cy="-164" rx="48.99" ry="18"/>
<text text-anchor="middle" x="48.75" y="-160.3" font-family="Times,serif" font-size="14.00">if_block20</text>
</g>
<!-- if96_96&#45;&gt;if_block20 -->
<g id="edge38" class="edge">
<title>if96_96&#45;&gt;if_block20</title>
<path fill="none" stroke="black" d="M82.45,-233.21C76.68,-221.52 68.85,-205.69 62.2,-192.22"/>
<polygon fill="black" stroke="black" points="65.41,-190.82 57.84,-183.41 59.13,-193.92 65.41,-190.82"/>
<text text-anchor="middle" x="85.75" y="-203.8" font-family="Times,serif" font-size="14.00">True</text>
</g>
<!-- block21 -->
<g id="node31" class="node">
<title>block21</title>
<ellipse fill="none" stroke="black" cx="90.75" cy="-91" rx="38.99" ry="18"/>
<text text-anchor="middle" x="90.75" y="-87.3" font-family="Times,serif" font-size="14.00">block21</text>
</g>
<!-- if96_96&#45;&gt;block21 -->
<g id="edge39" class="edge">
<title>if96_96&#45;&gt;block21</title>
<path fill="none" stroke="black" d="M97.33,-233.12C99.33,-227.44 101.37,-221.01 102.75,-215 109.61,-185.06 111.15,-176.4 106.75,-146 105.51,-137.45 103.22,-128.37 100.75,-120.14"/>
<polygon fill="black" stroke="black" points="104.09,-119.11 97.7,-110.67 97.43,-121.26 104.09,-119.11"/>
<text text-anchor="middle" x="124.25" y="-160.3" font-family="Times,serif" font-size="14.00">False</text>
</g>
<!-- if_block20&#45;&gt;block21 -->
<g id="edge40" class="edge">
<title>if_block20&#45;&gt;block21</title>
<path fill="none" stroke="black" d="M58.7,-146.17C63.62,-137.86 69.66,-127.64 75.17,-118.33"/>
<polygon fill="black" stroke="black" points="78.01,-120.4 80.09,-110.01 71.99,-116.83 78.01,-120.4"/>
</g>
<!-- end -->
<g id="node32" class="node">
<title>end</title>
<ellipse fill="none" stroke="black" cx="90.75" cy="-18" rx="27" ry="18"/>
<text text-anchor="middle" x="90.75" y="-14.3" font-family="Times,serif" font-size="14.00">end</text>
</g>
<!-- block21&#45;&gt;end -->
<g id="edge41" class="edge">
<title>block21&#45;&gt;end</title>
<path fill="none" stroke="black" d="M90.75,-72.81C90.75,-65.23 90.75,-56.1 90.75,-47.54"/>
<polygon fill="black" stroke="black" points="94.25,-47.54 90.75,-37.54 87.25,-47.54 94.25,-47.54"/>
</g>
</g>
</svg>
