<?xml version="1.0" encoding="UTF-8" standalone="no"?>
<!DOCTYPE svg PUBLIC "-//W3C//DTD SVG 1.1//EN"
 "http://www.w3.org/Graphics/SVG/1.1/DTD/svg11.dtd">
<!-- Generated by graphviz version 7.1.0 (20230121.1956)
 -->
<!-- Pages: 1 -->
<svg width="238pt" height="1282pt"
 viewBox="0.00 0.00 237.94 1282.00" xmlns="http://www.w3.org/2000/svg" xmlns:xlink="http://www.w3.org/1999/xlink">
<g id="graph0" class="graph" transform="scale(1 1) rotate(0) translate(4 1278)">
<polygon fill="white" stroke="none" points="-4,4 -4,-1278 233.94,-1278 233.94,4 -4,4"/>
<!-- start -->
<g id="node1" class="node">
<title>start</title>
<ellipse fill="none" stroke="black" cx="109.75" cy="-1256" rx="27" ry="18"/>
<text text-anchor="middle" x="109.75" y="-1252.3" font-family="Times,serif" font-size="14.00">start</text>
</g>
<!-- if17_22 -->
<g id="node2" class="node">
<title>if17_22</title>
<ellipse fill="none" stroke="black" cx="109.75" cy="-1183" rx="38.19" ry="18"/>
<text text-anchor="middle" x="109.75" y="-1179.3" font-family="Times,serif" font-size="14.00">if17_22</text>
</g>
<!-- start&#45;&gt;if17_22 -->
<g id="edge1" class="edge">
<title>start&#45;&gt;if17_22</title>
<path fill="none" stroke="black" d="M109.75,-1237.81C109.75,-1230.23 109.75,-1221.1 109.75,-1212.54"/>
<polygon fill="black" stroke="black" points="113.25,-1212.54 109.75,-1202.54 106.25,-1212.54 113.25,-1212.54"/>
</g>
<!-- if_block2 -->
<g id="node3" class="node">
<title>if_block2</title>
<ellipse fill="none" stroke="black" cx="69.75" cy="-1096" rx="44.39" ry="18"/>
<text text-anchor="middle" x="69.75" y="-1092.3" font-family="Times,serif" font-size="14.00">if_block2</text>
</g>
<!-- if17_22&#45;&gt;if_block2 -->
<g id="edge2" class="edge">
<title>if17_22&#45;&gt;if_block2</title>
<path fill="none" stroke="black" d="M101.84,-1165.21C96.35,-1153.52 88.89,-1137.69 82.56,-1124.22"/>
<polygon fill="black" stroke="black" points="85.84,-1122.98 78.41,-1115.42 79.5,-1125.96 85.84,-1122.98"/>
<text text-anchor="middle" x="105.75" y="-1135.8" font-family="Times,serif" font-size="14.00">True</text>
</g>
<!-- block3 -->
<g id="node4" class="node">
<title>block3</title>
<ellipse fill="none" stroke="black" cx="109.75" cy="-1023" rx="34.39" ry="18"/>
<text text-anchor="middle" x="109.75" y="-1019.3" font-family="Times,serif" font-size="14.00">block3</text>
</g>
<!-- if17_22&#45;&gt;block3 -->
<g id="edge3" class="edge">
<title>if17_22&#45;&gt;block3</title>
<path fill="none" stroke="black" d="M117.48,-1164.9C119.63,-1159.31 121.67,-1153 122.75,-1147 128.17,-1116.82 126.36,-1108.45 122.75,-1078 121.73,-1069.41 119.82,-1060.21 117.78,-1051.88"/>
<polygon fill="black" stroke="black" points="121.19,-1051.09 115.27,-1042.3 114.42,-1052.86 121.19,-1051.09"/>
<text text-anchor="middle" x="141.25" y="-1092.3" font-family="Times,serif" font-size="14.00">False</text>
</g>
<!-- if_block2&#45;&gt;block3 -->
<g id="edge4" class="edge">
<title>if_block2&#45;&gt;block3</title>
<path fill="none" stroke="black" d="M79.23,-1078.17C83.86,-1069.95 89.54,-1059.86 94.75,-1050.62"/>
<polygon fill="black" stroke="black" points="97.73,-1052.45 99.59,-1042.02 91.63,-1049.02 97.73,-1052.45"/>
</g>
<!-- if26_26 -->
<g id="node5" class="node">
<title>if26_26</title>
<ellipse fill="none" stroke="black" cx="109.75" cy="-950" rx="38.19" ry="18"/>
<text text-anchor="middle" x="109.75" y="-946.3" font-family="Times,serif" font-size="14.00">if26_26</text>
</g>
<!-- block3&#45;&gt;if26_26 -->
<g id="edge5" class="edge">
<title>block3&#45;&gt;if26_26</title>
<path fill="none" stroke="black" d="M109.75,-1004.81C109.75,-997.23 109.75,-988.1 109.75,-979.54"/>
<polygon fill="black" stroke="black" points="113.25,-979.54 109.75,-969.54 106.25,-979.54 113.25,-979.54"/>
</g>
<!-- if_block4 -->
<g id="node6" class="node">
<title>if_block4</title>
<ellipse fill="none" stroke="black" cx="69.75" cy="-863" rx="44.39" ry="18"/>
<text text-anchor="middle" x="69.75" y="-859.3" font-family="Times,serif" font-size="14.00">if_block4</text>
</g>
<!-- if26_26&#45;&gt;if_block4 -->
<g id="edge6" class="edge">
<title>if26_26&#45;&gt;if_block4</title>
<path fill="none" stroke="black" d="M101.84,-932.21C96.35,-920.52 88.89,-904.69 82.56,-891.22"/>
<polygon fill="black" stroke="black" points="85.84,-889.98 78.41,-882.42 79.5,-892.96 85.84,-889.98"/>
<text text-anchor="middle" x="105.75" y="-902.8" font-family="Times,serif" font-size="14.00">True</text>
</g>
<!-- block5 -->
<g id="node7" class="node">
<title>block5</title>
<ellipse fill="none" stroke="black" cx="109.75" cy="-790" rx="34.39" ry="18"/>
<text text-anchor="middle" x="109.75" y="-786.3" font-family="Times,serif" font-size="14.00">block5</text>
</g>
<!-- if26_26&#45;&gt;block5 -->
<g id="edge7" class="edge">
<title>if26_26&#45;&gt;block5</title>
<path fill="none" stroke="black" d="M117.48,-931.9C119.63,-926.31 121.67,-920 122.75,-914 128.17,-883.82 126.36,-875.45 122.75,-845 121.73,-836.41 119.82,-827.21 117.78,-818.88"/>
<polygon fill="black" stroke="black" points="121.19,-818.09 115.27,-809.3 114.42,-819.86 121.19,-818.09"/>
<text text-anchor="middle" x="141.25" y="-859.3" font-family="Times,serif" font-size="14.00">False</text>
</g>
<!-- if_block4&#45;&gt;block5 -->
<g id="edge8" class="edge">
<title>if_block4&#45;&gt;block5</title>
<path fill="none" stroke="black" d="M79.23,-845.17C83.86,-836.95 89.54,-826.86 94.75,-817.62"/>
<polygon fill="black" stroke="black" points="97.73,-819.45 99.59,-809.02 91.63,-816.02 97.73,-819.45"/>
</g>
<!-- if28_28 -->
<g id="node8" class="node">
<title>if28_28</title>
<ellipse fill="none" stroke="black" cx="109.75" cy="-717" rx="38.19" ry="18"/>
<text text-anchor="middle" x="109.75" y="-713.3" font-family="Times,serif" font-size="14.00">if28_28</text>
</g>
<!-- block5&#45;&gt;if28_28 -->
<g id="edge9" class="edge">
<title>block5&#45;&gt;if28_28</title>
<path fill="none" stroke="black" d="M109.75,-771.81C109.75,-764.23 109.75,-755.1 109.75,-746.54"/>
<polygon fill="black" stroke="black" points="113.25,-746.54 109.75,-736.54 106.25,-746.54 113.25,-746.54"/>
</g>
<!-- if_block6 -->
<g id="node9" class="node">
<title>if_block6</title>
<ellipse fill="none" stroke="black" cx="69.75" cy="-630" rx="44.39" ry="18"/>
<text text-anchor="middle" x="69.75" y="-626.3" font-family="Times,serif" font-size="14.00">if_block6</text>
</g>
<!-- if28_28&#45;&gt;if_block6 -->
<g id="edge10" class="edge">
<title>if28_28&#45;&gt;if_block6</title>
<path fill="none" stroke="black" d="M101.84,-699.21C96.35,-687.52 88.89,-671.69 82.56,-658.22"/>
<polygon fill="black" stroke="black" points="85.84,-656.98 78.41,-649.42 79.5,-659.96 85.84,-656.98"/>
<text text-anchor="middle" x="105.75" y="-669.8" font-family="Times,serif" font-size="14.00">True</text>
</g>
<!-- block7 -->
<g id="node10" class="node">
<title>block7</title>
<ellipse fill="none" stroke="black" cx="109.75" cy="-557" rx="34.39" ry="18"/>
<text text-anchor="middle" x="109.75" y="-553.3" font-family="Times,serif" font-size="14.00">block7</text>
</g>
<!-- if28_28&#45;&gt;block7 -->
<g id="edge11" class="edge">
<title>if28_28&#45;&gt;block7</title>
<path fill="none" stroke="black" d="M117.48,-698.9C119.63,-693.31 121.67,-687 122.75,-681 128.17,-650.82 126.36,-642.45 122.75,-612 121.73,-603.41 119.82,-594.21 117.78,-585.88"/>
<polygon fill="black" stroke="black" points="121.19,-585.09 115.27,-576.3 114.42,-586.86 121.19,-585.09"/>
<text text-anchor="middle" x="141.25" y="-626.3" font-family="Times,serif" font-size="14.00">False</text>
</g>
<!-- if_block6&#45;&gt;block7 -->
<g id="edge12" class="edge">
<title>if_block6&#45;&gt;block7</title>
<path fill="none" stroke="black" d="M79.23,-612.17C83.86,-603.95 89.54,-593.86 94.75,-584.62"/>
<polygon fill="black" stroke="black" points="97.73,-586.45 99.59,-576.02 91.63,-583.02 97.73,-586.45"/>
</g>
<!-- if30_30 -->
<g id="node11" class="node">
<title>if30_30</title>
<ellipse fill="none" stroke="black" cx="109.75" cy="-484" rx="38.19" ry="18"/>
<text text-anchor="middle" x="109.75" y="-480.3" font-family="Times,serif" font-size="14.00">if30_30</text>
</g>
<!-- block7&#45;&gt;if30_30 -->
<g id="edge13" class="edge">
<title>block7&#45;&gt;if30_30</title>
<path fill="none" stroke="black" d="M109.75,-538.81C109.75,-531.23 109.75,-522.1 109.75,-513.54"/>
<polygon fill="black" stroke="black" points="113.25,-513.54 109.75,-503.54 106.25,-513.54 113.25,-513.54"/>
</g>
<!-- if_block8 -->
<g id="node12" class="node">
<title>if_block8</title>
<ellipse fill="none" stroke="black" cx="69.75" cy="-397" rx="44.39" ry="18"/>
<text text-anchor="middle" x="69.75" y="-393.3" font-family="Times,serif" font-size="14.00">if_block8</text>
</g>
<!-- if30_30&#45;&gt;if_block8 -->
<g id="edge14" class="edge">
<title>if30_30&#45;&gt;if_block8</title>
<path fill="none" stroke="black" d="M101.84,-466.21C96.35,-454.52 88.89,-438.69 82.56,-425.22"/>
<polygon fill="black" stroke="black" points="85.84,-423.98 78.41,-416.42 79.5,-426.96 85.84,-423.98"/>
<text text-anchor="middle" x="105.75" y="-436.8" font-family="Times,serif" font-size="14.00">True</text>
</g>
<!-- block9 -->
<g id="node13" class="node">
<title>block9</title>
<ellipse fill="none" stroke="black" cx="109.75" cy="-324" rx="34.39" ry="18"/>
<text text-anchor="middle" x="109.75" y="-320.3" font-family="Times,serif" font-size="14.00">block9</text>
</g>
<!-- if30_30&#45;&gt;block9 -->
<g id="edge15" class="edge">
<title>if30_30&#45;&gt;block9</title>
<path fill="none" stroke="black" d="M117.48,-465.9C119.63,-460.31 121.67,-454 122.75,-448 128.17,-417.82 126.36,-409.45 122.75,-379 121.73,-370.41 119.82,-361.21 117.78,-352.88"/>
<polygon fill="black" stroke="black" points="121.19,-352.09 115.27,-343.3 114.42,-353.86 121.19,-352.09"/>
<text text-anchor="middle" x="141.25" y="-393.3" font-family="Times,serif" font-size="14.00">False</text>
</g>
<!-- if_block8&#45;&gt;block9 -->
<g id="edge16" class="edge">
<title>if_block8&#45;&gt;block9</title>
<path fill="none" stroke="black" d="M79.23,-379.17C83.86,-370.95 89.54,-360.86 94.75,-351.62"/>
<polygon fill="black" stroke="black" points="97.73,-353.45 99.59,-343.02 91.63,-350.02 97.73,-353.45"/>
</g>
<!-- if33_59 -->
<g id="node14" class="node">
<title>if33_59</title>
<ellipse fill="none" stroke="black" cx="109.75" cy="-251" rx="38.19" ry="18"/>
<text text-anchor="middle" x="109.75" y="-247.3" font-family="Times,serif" font-size="14.00">if33_59</text>
</g>
<!-- block9&#45;&gt;if33_59 -->
<g id="edge17" class="edge">
<title>block9&#45;&gt;if33_59</title>
<path fill="none" stroke="black" d="M109.75,-305.81C109.75,-298.23 109.75,-289.1 109.75,-280.54"/>
<polygon fill="black" stroke="black" points="113.25,-280.54 109.75,-270.54 106.25,-280.54 113.25,-280.54"/>
</g>
<!-- if_block10 -->
<g id="node15" class="node">
<title>if_block10</title>
<ellipse fill="none" stroke="black" cx="48.75" cy="-164" rx="48.99" ry="18"/>
<text text-anchor="middle" x="48.75" y="-160.3" font-family="Times,serif" font-size="14.00">if_block10</text>
</g>
<!-- if33_59&#45;&gt;if_block10 -->
<g id="edge18" class="edge">
<title>if33_59&#45;&gt;if_block10</title>
<path fill="none" stroke="black" d="M97.98,-233.61C89.32,-221.54 77.36,-204.88 67.4,-191"/>
<polygon fill="black" stroke="black" points="70.45,-189.23 61.77,-183.15 64.76,-193.32 70.45,-189.23"/>
<text text-anchor="middle" x="96.75" y="-203.8" font-family="Times,serif" font-size="14.00">True</text>
</g>
<!-- else_block11 -->
<g id="node16" class="node">
<title>else_block11</title>
<ellipse fill="none" stroke="black" cx="172.75" cy="-164" rx="57.39" ry="18"/>
<text text-anchor="middle" x="172.75" y="-160.3" font-family="Times,serif" font-size="14.00">else_block11</text>
</g>
<!-- if33_59&#45;&gt;else_block11 -->
<g id="edge19" class="edge">
<title>if33_59&#45;&gt;else_block11</title>
<path fill="none" stroke="black" d="M121.89,-233.61C130.84,-221.54 143.19,-204.88 153.48,-191"/>
<polygon fill="black" stroke="black" points="156.16,-193.25 159.3,-183.14 150.54,-189.09 156.16,-193.25"/>
<text text-anchor="middle" x="159.25" y="-203.8" font-family="Times,serif" font-size="14.00">False</text>
</g>
<!-- block12 -->
<g id="node17" class="node">
<title>block12</title>
<ellipse fill="none" stroke="black" cx="109.75" cy="-91" rx="38.99" ry="18"/>
<text text-anchor="middle" x="109.75" y="-87.3" font-family="Times,serif" font-size="14.00">block12</text>
</g>
<!-- if_block10&#45;&gt;block12 -->
<g id="edge21" class="edge">
<title>if_block10&#45;&gt;block12</title>
<path fill="none" stroke="black" d="M62.89,-146.53C70.55,-137.63 80.15,-126.45 88.67,-116.54"/>
<polygon fill="black" stroke="black" points="91.25,-118.9 95.11,-109.04 85.94,-114.34 91.25,-118.9"/>
</g>
<!-- else_block11&#45;&gt;block12 -->
<g id="edge20" class="edge">
<title>else_block11&#45;&gt;block12</title>
<path fill="none" stroke="black" d="M157.82,-146.17C150.02,-137.38 140.32,-126.46 131.68,-116.72"/>
<polygon fill="black" stroke="black" points="134.39,-114.51 125.14,-109.35 129.16,-119.15 134.39,-114.51"/>
</g>
<!-- end -->
<g id="node18" class="node">
<title>end</title>
<ellipse fill="none" stroke="black" cx="109.75" cy="-18" rx="27" ry="18"/>
<text text-anchor="middle" x="109.75" y="-14.3" font-family="Times,serif" font-size="14.00">end</text>
</g>
<!-- block12&#45;&gt;end -->
<g id="edge22" class="edge">
<title>block12&#45;&gt;end</title>
<path fill="none" stroke="black" d="M109.75,-72.81C109.75,-65.23 109.75,-56.1 109.75,-47.54"/>
<polygon fill="black" stroke="black" points="113.25,-47.54 109.75,-37.54 106.25,-47.54 113.25,-47.54"/>
</g>
</g>
</svg>
