<?xml version="1.0" encoding="UTF-8" standalone="no"?>
<!DOCTYPE svg PUBLIC "-//W3C//DTD SVG 1.1//EN"
 "http://www.w3.org/Graphics/SVG/1.1/DTD/svg11.dtd">
<!-- Generated by graphviz version 2.43.0 (0)
 -->
<!-- Title: %3 Pages: 1 -->
<svg width="590pt" height="908pt"
 viewBox="0.00 0.00 590.10 908.00" xmlns="http://www.w3.org/2000/svg" xmlns:xlink="http://www.w3.org/1999/xlink">
<g id="graph0" class="graph" transform="scale(1 1) rotate(0) translate(4 904)">
<title>%3</title>
<polygon fill="white" stroke="transparent" points="-4,4 -4,-904 586.1,-904 586.1,4 -4,4"/>
<!-- start -->
<g id="node1" class="node">
<title>start</title>
<ellipse fill="none" stroke="black" cx="442.5" cy="-882" rx="33.29" ry="18"/>
<text text-anchor="middle" x="442.5" y="-878.3" font-family="Times,serif" font-size="14.00">start</text>
</g>
<!-- try -->
<g id="node2" class="node">
<title>try</title>
<ellipse fill="none" stroke="black" cx="442.5" cy="-810" rx="27" ry="18"/>
<text text-anchor="middle" x="442.5" y="-806.3" font-family="Times,serif" font-size="14.00">try</text>
</g>
<!-- start&#45;&gt;try -->
<g id="edge1" class="edge">
<title>start&#45;&gt;try</title>
<path fill="none" stroke="black" d="M442.5,-863.7C442.5,-855.98 442.5,-846.71 442.5,-838.11"/>
<polygon fill="black" stroke="black" points="446,-838.1 442.5,-828.1 439,-838.1 446,-838.1"/>
</g>
<!-- a -->
<g id="node3" class="node">
<title>a</title>
<polygon fill="none" stroke="black" points="506,-756 195,-756 195,-720 506,-720 506,-756"/>
<text text-anchor="middle" x="350.5" y="-734.3" font-family="Times,serif" font-size="14.00">module = _resolver.load_module(module)</text>
</g>
<!-- try&#45;&gt;a -->
<g id="edge2" class="edge">
<title>try&#45;&gt;a</title>
<path fill="none" stroke="black" d="M425.2,-795.83C412.84,-786.43 395.88,-773.53 381.25,-762.39"/>
<polygon fill="black" stroke="black" points="383.03,-759.35 372.95,-756.08 378.79,-764.92 383.03,-759.35"/>
</g>
<!-- except -->
<g id="node4" class="node">
<title>except</title>
<ellipse fill="none" stroke="black" cx="540.5" cy="-666" rx="41.69" ry="18"/>
<text text-anchor="middle" x="540.5" y="-662.3" font-family="Times,serif" font-size="14.00">except</text>
</g>
<!-- try&#45;&gt;except -->
<g id="edge3" class="edge">
<title>try&#45;&gt;except</title>
<path fill="none" stroke="black" d="M463.43,-798.53C479.63,-789.4 501.42,-774.7 514.5,-756 527.36,-737.61 533.92,-712.85 537.24,-694.12"/>
<polygon fill="black" stroke="black" points="540.71,-694.57 538.8,-684.15 533.79,-693.48 540.71,-694.57"/>
</g>
<!-- b -->
<g id="node6" class="node">
<title>b</title>
<polygon fill="none" stroke="black" points="384.5,-684 304.5,-684 304.5,-648 384.5,-648 384.5,-684"/>
<text text-anchor="middle" x="344.5" y="-662.3" font-family="Times,serif" font-size="14.00">doc = {}</text>
</g>
<!-- a&#45;&gt;b -->
<g id="edge5" class="edge">
<title>a&#45;&gt;b</title>
<path fill="none" stroke="black" d="M349.02,-719.7C348.36,-711.98 347.56,-702.71 346.82,-694.11"/>
<polygon fill="black" stroke="black" points="350.31,-693.77 345.97,-684.1 343.33,-694.37 350.31,-693.77"/>
</g>
<!-- end -->
<g id="node5" class="node">
<title>end</title>
<ellipse fill="none" stroke="black" cx="451.5" cy="-18" rx="27.9" ry="18"/>
<text text-anchor="middle" x="451.5" y="-14.3" font-family="Times,serif" font-size="14.00">end</text>
</g>
<!-- except&#45;&gt;end -->
<g id="edge4" class="edge">
<title>except&#45;&gt;end</title>
<path fill="none" stroke="black" d="M541.49,-647.96C542.94,-621.31 545.5,-568.14 545.5,-523 545.5,-523 545.5,-523 545.5,-161 545.5,-119.91 543.52,-106.03 520.5,-72 510.5,-57.22 495.04,-44.8 481.28,-35.7"/>
<polygon fill="black" stroke="black" points="482.89,-32.58 472.57,-30.21 479.16,-38.5 482.89,-32.58"/>
</g>
<!-- c -->
<g id="node7" class="node">
<title>c</title>
<polygon fill="none" stroke="black" points="371,-612 294,-612 294,-576 371,-576 371,-612"/>
<text text-anchor="middle" x="332.5" y="-590.3" font-family="Times,serif" font-size="14.00">ret = {}</text>
</g>
<!-- b&#45;&gt;c -->
<g id="edge6" class="edge">
<title>b&#45;&gt;c</title>
<path fill="none" stroke="black" d="M341.53,-647.7C340.21,-639.98 338.62,-630.71 337.15,-622.11"/>
<polygon fill="black" stroke="black" points="340.57,-621.37 335.43,-612.1 333.67,-622.55 340.57,-621.37"/>
</g>
<!-- for -->
<g id="node8" class="node">
<title>for</title>
<polygon fill="none" stroke="black" points="511,-540 148,-540 148,-504 511,-504 511,-540"/>
<text text-anchor="middle" x="329.5" y="-518.3" font-family="Times,serif" font-size="14.00">for docset in module.DOCUMENTATION.split(&#45;&#45;&#45;)</text>
</g>
<!-- c&#45;&gt;for -->
<g id="edge7" class="edge">
<title>c&#45;&gt;for</title>
<path fill="none" stroke="black" d="M331.76,-575.7C331.43,-567.98 331.03,-558.71 330.66,-550.11"/>
<polygon fill="black" stroke="black" points="334.16,-549.95 330.23,-540.1 327.16,-550.25 334.16,-549.95"/>
</g>
<!-- d -->
<g id="node9" class="node">
<title>d</title>
<polygon fill="none" stroke="black" points="479,-468 166,-468 166,-432 479,-432 479,-468"/>
<text text-anchor="middle" x="322.5" y="-446.3" font-family="Times,serif" font-size="14.00">docset = salt.utils.yaml.safe_load(docset)</text>
</g>
<!-- for&#45;&gt;d -->
<g id="edge8" class="edge">
<title>for&#45;&gt;d</title>
<path fill="none" stroke="black" d="M321.85,-503.7C320.29,-495.98 319.13,-486.71 318.62,-478.11"/>
<polygon fill="black" stroke="black" points="322.11,-477.99 318.32,-468.1 315.12,-478.2 322.11,-477.99"/>
</g>
<!-- if1 -->
<g id="node10" class="node">
<title>if1</title>
<polygon fill="none" stroke="black" points="426.5,-396 336.5,-396 336.5,-360 426.5,-360 426.5,-396"/>
<text text-anchor="middle" x="381.5" y="-374.3" font-family="Times,serif" font-size="14.00">if not args</text>
</g>
<!-- for&#45;&gt;if1 -->
<g id="edge11" class="edge">
<title>for&#45;&gt;if1</title>
<path fill="none" stroke="black" d="M439.39,-503.93C458.26,-496.02 475.59,-484.56 487.5,-468 496.84,-455.01 495.91,-445.61 487.5,-432 476.02,-413.42 455.84,-401.14 436.15,-393.13"/>
<polygon fill="black" stroke="black" points="437.15,-389.76 426.56,-389.53 434.69,-396.32 437.15,-389.76"/>
</g>
<!-- d&#45;&gt;for -->
<g id="edge9" class="edge">
<title>d&#45;&gt;for</title>
<path fill="none" stroke="black" d="M330.11,-468.1C331.68,-475.79 332.84,-485.05 333.37,-493.67"/>
<polygon fill="black" stroke="black" points="329.87,-493.81 333.69,-503.7 336.87,-493.59 329.87,-493.81"/>
</g>
<!-- d&#45;&gt;if1 -->
<g id="edge10" class="edge">
<title>d&#45;&gt;if1</title>
<path fill="none" stroke="black" d="M337.08,-431.7C344.16,-423.3 352.78,-413.07 360.55,-403.86"/>
<polygon fill="black" stroke="black" points="363.31,-406.01 367.08,-396.1 357.96,-401.49 363.31,-406.01"/>
</g>
<!-- if2 -->
<g id="node11" class="node">
<title>if2</title>
<polygon fill="none" stroke="black" points="363.5,-324 205.5,-324 205.5,-288 363.5,-288 363.5,-324"/>
<text text-anchor="middle" x="284.5" y="-302.3" font-family="Times,serif" font-size="14.00">if description in doc</text>
</g>
<!-- if1&#45;&gt;if2 -->
<g id="edge12" class="edge">
<title>if1&#45;&gt;if2</title>
<path fill="none" stroke="black" d="M357.52,-359.7C345.19,-350.8 329.98,-339.82 316.65,-330.2"/>
<polygon fill="black" stroke="black" points="318.36,-327.12 308.2,-324.1 314.26,-332.79 318.36,-327.12"/>
</g>
<!-- for2 -->
<g id="node15" class="node">
<title>for2</title>
<polygon fill="none" stroke="black" points="501,-324 382,-324 382,-288 501,-288 501,-324"/>
<text text-anchor="middle" x="441.5" y="-302.3" font-family="Times,serif" font-size="14.00">for arg in args</text>
</g>
<!-- if1&#45;&gt;for2 -->
<g id="edge18" class="edge">
<title>if1&#45;&gt;for2</title>
<path fill="none" stroke="black" d="M396.33,-359.7C403.52,-351.3 412.3,-341.07 420.19,-331.86"/>
<polygon fill="black" stroke="black" points="422.99,-333.97 426.84,-324.1 417.67,-329.42 422.99,-333.97"/>
</g>
<!-- e -->
<g id="node12" class="node">
<title>e</title>
<polygon fill="none" stroke="black" points="285,-252 0,-252 0,-216 285,-216 285,-252"/>
<text text-anchor="middle" x="142.5" y="-230.3" font-family="Times,serif" font-size="14.00">description = doc.get(description) or </text>
</g>
<!-- if2&#45;&gt;e -->
<g id="edge13" class="edge">
<title>if2&#45;&gt;e</title>
<path fill="none" stroke="black" d="M249.76,-287.88C230.68,-278.47 206.82,-266.71 186.45,-256.67"/>
<polygon fill="black" stroke="black" points="187.89,-253.47 177.37,-252.19 184.79,-259.75 187.89,-253.47"/>
</g>
<!-- g -->
<g id="node13" class="node">
<title>g</title>
<polygon fill="none" stroke="black" points="373.5,-108 223.5,-108 223.5,-72 373.5,-72 373.5,-108"/>
<text text-anchor="middle" x="298.5" y="-86.3" font-family="Times,serif" font-size="14.00">ret[...]= doc.keys()</text>
</g>
<!-- if2&#45;&gt;g -->
<g id="edge14" class="edge">
<title>if2&#45;&gt;g</title>
<path fill="none" stroke="black" d="M288.02,-287.89C289.99,-277.55 292.29,-264.07 293.5,-252 298.15,-205.45 298.86,-150.99 298.79,-118.84"/>
<polygon fill="black" stroke="black" points="302.29,-118.43 298.74,-108.44 295.29,-118.46 302.29,-118.43"/>
</g>
<!-- f -->
<g id="node14" class="node">
<title>f</title>
<polygon fill="none" stroke="black" points="272.5,-180 40.5,-180 40.5,-144 272.5,-144 272.5,-180"/>
<text text-anchor="middle" x="156.5" y="-158.3" font-family="Times,serif" font-size="14.00">ret[Description] = description</text>
</g>
<!-- e&#45;&gt;f -->
<g id="edge15" class="edge">
<title>e&#45;&gt;f</title>
<path fill="none" stroke="black" d="M145.96,-215.7C147.5,-207.98 149.36,-198.71 151.08,-190.11"/>
<polygon fill="black" stroke="black" points="154.55,-190.6 153.08,-180.1 147.69,-189.22 154.55,-190.6"/>
</g>
<!-- g&#45;&gt;end -->
<g id="edge17" class="edge">
<title>g&#45;&gt;end</title>
<path fill="none" stroke="black" d="M335.93,-71.88C361.7,-60.08 395.56,-44.59 419.96,-33.43"/>
<polygon fill="black" stroke="black" points="421.5,-36.57 429.14,-29.23 418.59,-30.21 421.5,-36.57"/>
</g>
<!-- f&#45;&gt;g -->
<g id="edge16" class="edge">
<title>f&#45;&gt;g</title>
<path fill="none" stroke="black" d="M191.24,-143.88C210.32,-134.47 234.18,-122.71 254.55,-112.67"/>
<polygon fill="black" stroke="black" points="256.21,-115.75 263.63,-108.19 253.11,-109.47 256.21,-115.75"/>
</g>
<!-- h -->
<g id="node16" class="node">
<title>h</title>
<polygon fill="none" stroke="black" points="517.5,-252 365.5,-252 365.5,-216 517.5,-216 517.5,-252"/>
<text text-anchor="middle" x="441.5" y="-230.3" font-family="Times,serif" font-size="14.00">info = doc.get(arg)</text>
</g>
<!-- for2&#45;&gt;h -->
<g id="edge19" class="edge">
<title>for2&#45;&gt;h</title>
<path fill="none" stroke="black" d="M441.5,-287.7C441.5,-279.98 441.5,-270.71 441.5,-262.11"/>
<polygon fill="black" stroke="black" points="445,-262.1 441.5,-252.1 438,-262.1 445,-262.1"/>
</g>
<!-- if3 -->
<g id="node17" class="node">
<title>if3</title>
<polygon fill="none" stroke="black" points="515.5,-180 371.5,-180 371.5,-144 515.5,-144 515.5,-180"/>
<text text-anchor="middle" x="443.5" y="-158.3" font-family="Times,serif" font-size="14.00">if info is not None</text>
</g>
<!-- h&#45;&gt;if3 -->
<g id="edge20" class="edge">
<title>h&#45;&gt;if3</title>
<path fill="none" stroke="black" d="M441.99,-215.7C442.21,-207.98 442.48,-198.71 442.73,-190.11"/>
<polygon fill="black" stroke="black" points="446.22,-190.2 443.01,-180.1 439.23,-190 446.22,-190.2"/>
</g>
<!-- i -->
<g id="node18" class="node">
<title>i</title>
<polygon fill="none" stroke="black" points="511.5,-108 391.5,-108 391.5,-72 511.5,-72 511.5,-108"/>
<text text-anchor="middle" x="451.5" y="-86.3" font-family="Times,serif" font-size="14.00">ret[arg] = info</text>
</g>
<!-- if3&#45;&gt;i -->
<g id="edge21" class="edge">
<title>if3&#45;&gt;i</title>
<path fill="none" stroke="black" d="M445.48,-143.7C446.36,-135.98 447.42,-126.71 448.4,-118.11"/>
<polygon fill="black" stroke="black" points="451.89,-118.44 449.55,-108.1 444.93,-117.64 451.89,-118.44"/>
</g>
<!-- i&#45;&gt;end -->
<g id="edge22" class="edge">
<title>i&#45;&gt;end</title>
<path fill="none" stroke="black" d="M451.5,-71.7C451.5,-63.98 451.5,-54.71 451.5,-46.11"/>
<polygon fill="black" stroke="black" points="455,-46.1 451.5,-36.1 448,-46.1 455,-46.1"/>
</g>
</g>
</svg>
