<?xml version="1.0" encoding="UTF-8" standalone="no"?>
<!DOCTYPE svg PUBLIC "-//W3C//DTD SVG 1.1//EN"
 "http://www.w3.org/Graphics/SVG/1.1/DTD/svg11.dtd">
<!-- Generated by graphviz version 2.43.0 (0)
 -->
<!-- Title: %3 Pages: 1 -->
<svg width="801pt" height="496pt"
 viewBox="0.00 0.00 800.50 496.00" xmlns="http://www.w3.org/2000/svg" xmlns:xlink="http://www.w3.org/1999/xlink">
<g id="graph0" class="graph" transform="scale(1 1) rotate(0) translate(4 492)">
<title>%3</title>
<polygon fill="white" stroke="transparent" points="-4,4 -4,-492 796.5,-492 796.5,4 -4,4"/>
<!-- start -->
<g id="node1" class="node">
<title>start</title>
<ellipse fill="none" stroke="black" cx="596.5" cy="-470" rx="33.29" ry="18"/>
<text text-anchor="middle" x="596.5" y="-466.3" font-family="Times,serif" font-size="14.00">start</text>
</g>
<!-- try -->
<g id="node2" class="node">
<title>try</title>
<ellipse fill="none" stroke="black" cx="596.5" cy="-397" rx="27" ry="18"/>
<text text-anchor="middle" x="596.5" y="-393.3" font-family="Times,serif" font-size="14.00">try</text>
</g>
<!-- start&#45;&gt;try -->
<g id="edge1" class="edge">
<title>start&#45;&gt;try</title>
<path fill="none" stroke="black" d="M596.5,-451.81C596.5,-443.79 596.5,-434.05 596.5,-425.07"/>
<polygon fill="black" stroke="black" points="600,-425.03 596.5,-415.03 593,-425.03 600,-425.03"/>
</g>
<!-- a -->
<g id="node3" class="node">
<title>a</title>
<polygon fill="none" stroke="black" points="716.5,-342 182.5,-342 182.5,-306 716.5,-306 716.5,-342"/>
<text text-anchor="middle" x="449.5" y="-320.3" font-family="Times,serif" font-size="14.00">conn = _get_conn(region=region, key=key, keyid=keyid, profile=profile)</text>
</g>
<!-- try&#45;&gt;a -->
<g id="edge2" class="edge">
<title>try&#45;&gt;a</title>
<path fill="none" stroke="black" d="M575.12,-385.68C553.97,-375.46 520.94,-359.51 494.06,-346.52"/>
<polygon fill="black" stroke="black" points="495.37,-343.27 484.84,-342.07 492.32,-349.57 495.37,-343.27"/>
</g>
<!-- end -->
<g id="node4" class="node">
<title>end</title>
<ellipse fill="none" stroke="black" cx="581.5" cy="-18" rx="27.9" ry="18"/>
<text text-anchor="middle" x="581.5" y="-14.3" font-family="Times,serif" font-size="14.00">end</text>
</g>
<!-- try&#45;&gt;end -->
<g id="edge3" class="edge">
<title>try&#45;&gt;end</title>
<path fill="none" stroke="black" d="M623.65,-394.87C666.37,-391.47 744.5,-378.01 744.5,-325 744.5,-325 744.5,-325 744.5,-90 744.5,-35.79 667.79,-22.55 619.62,-19.57"/>
<polygon fill="black" stroke="black" points="619.68,-16.07 609.52,-19.07 619.33,-23.06 619.68,-16.07"/>
<text text-anchor="middle" x="768.5" y="-203.8" font-family="Times,serif" font-size="14.00">except</text>
</g>
<!-- b -->
<g id="node5" class="node">
<title>b</title>
<polygon fill="none" stroke="black" points="551.5,-269 347.5,-269 347.5,-233 551.5,-233 551.5,-269"/>
<text text-anchor="middle" x="449.5" y="-247.3" font-family="Times,serif" font-size="14.00">alias = conn.create_alias()</text>
</g>
<!-- a&#45;&gt;b -->
<g id="edge4" class="edge">
<title>a&#45;&gt;b</title>
<path fill="none" stroke="black" d="M449.5,-305.81C449.5,-297.79 449.5,-288.05 449.5,-279.07"/>
<polygon fill="black" stroke="black" points="453,-279.03 449.5,-269.03 446,-279.03 453,-279.03"/>
</g>
<!-- if -->
<g id="node6" class="node">
<title>if</title>
<polygon fill="none" stroke="black" points="481.5,-182 417.5,-182 417.5,-146 481.5,-146 481.5,-182"/>
<text text-anchor="middle" x="449.5" y="-160.3" font-family="Times,serif" font-size="14.00">if alias</text>
</g>
<!-- b&#45;&gt;if -->
<g id="edge5" class="edge">
<title>b&#45;&gt;if</title>
<path fill="none" stroke="black" d="M449.5,-232.8C449.5,-221.16 449.5,-205.55 449.5,-192.24"/>
<polygon fill="black" stroke="black" points="453,-192.18 449.5,-182.18 446,-192.18 453,-192.18"/>
</g>
<!-- log1 -->
<g id="node7" class="node">
<title>log1</title>
<polygon fill="none" stroke="black" points="429,-109 0,-109 0,-73 429,-73 429,-109"/>
<text text-anchor="middle" x="214.5" y="-87.3" font-family="Times,serif" font-size="14.00">log.info(The newly created alias name is %s, alias[Name])</text>
</g>
<!-- if&#45;&gt;log1 -->
<g id="edge6" class="edge">
<title>if&#45;&gt;log1</title>
<path fill="none" stroke="black" d="M417.32,-153.28C382.3,-142.7 325.35,-125.49 280.7,-112"/>
<polygon fill="black" stroke="black" points="281.67,-108.64 271.08,-109.1 279.64,-115.34 281.67,-108.64"/>
</g>
<!-- log2 -->
<g id="node8" class="node">
<title>log2</title>
<polygon fill="none" stroke="black" points="716,-109 447,-109 447,-73 716,-73 716,-109"/>
<text text-anchor="middle" x="581.5" y="-87.3" font-family="Times,serif" font-size="14.00"> log.warning(Alias was not created)</text>
</g>
<!-- if&#45;&gt;log2 -->
<g id="edge7" class="edge">
<title>if&#45;&gt;log2</title>
<path fill="none" stroke="black" d="M481.12,-145.99C499.03,-136.36 521.62,-124.21 540.84,-113.87"/>
<polygon fill="black" stroke="black" points="542.53,-116.93 549.68,-109.11 539.22,-110.77 542.53,-116.93"/>
</g>
<!-- log1&#45;&gt;end -->
<g id="edge8" class="edge">
<title>log1&#45;&gt;end</title>
<path fill="none" stroke="black" d="M302.41,-72.99C379.9,-58 488.96,-36.9 545.04,-26.05"/>
<polygon fill="black" stroke="black" points="546.05,-29.42 555.2,-24.09 544.72,-22.55 546.05,-29.42"/>
</g>
<!-- log2&#45;&gt;end -->
<g id="edge9" class="edge">
<title>log2&#45;&gt;end</title>
<path fill="none" stroke="black" d="M581.5,-72.81C581.5,-64.79 581.5,-55.05 581.5,-46.07"/>
<polygon fill="black" stroke="black" points="585,-46.03 581.5,-36.03 578,-46.03 585,-46.03"/>
</g>
</g>
</svg>
