<?xml version="1.0" encoding="UTF-8" standalone="no"?>
<!DOCTYPE svg PUBLIC "-//W3C//DTD SVG 1.1//EN"
 "http://www.w3.org/Graphics/SVG/1.1/DTD/svg11.dtd">
<!-- Generated by graphviz version 2.43.0 (0)
 -->
<!-- Title: %3 Pages: 1 -->
<svg width="529pt" height="332pt"
 viewBox="0.00 0.00 529.00 332.00" xmlns="http://www.w3.org/2000/svg" xmlns:xlink="http://www.w3.org/1999/xlink">
<g id="graph0" class="graph" transform="scale(1 1) rotate(0) translate(4 328)">
<title>%3</title>
<polygon fill="white" stroke="transparent" points="-4,4 -4,-328 525,-328 525,4 -4,4"/>
<!-- start -->
<g id="node1" class="node">
<title>start</title>
<ellipse fill="none" stroke="black" cx="260.5" cy="-306" rx="33.29" ry="18"/>
<text text-anchor="middle" x="260.5" y="-302.3" font-family="Times,serif" font-size="14.00">start</text>
</g>
<!-- if -->
<g id="node2" class="node">
<title>if</title>
<ellipse fill="none" stroke="black" cx="260.5" cy="-234" rx="27" ry="18"/>
<text text-anchor="middle" x="260.5" y="-230.3" font-family="Times,serif" font-size="14.00">if</text>
</g>
<!-- start&#45;&gt;if -->
<g id="edge1" class="edge">
<title>start&#45;&gt;if</title>
<path fill="none" stroke="black" d="M260.5,-287.7C260.5,-279.98 260.5,-270.71 260.5,-262.11"/>
<polygon fill="black" stroke="black" points="264,-262.1 260.5,-252.1 257,-262.1 264,-262.1"/>
</g>
<!-- a -->
<g id="node3" class="node">
<title>a</title>
<polygon fill="none" stroke="black" points="265,-180 16,-180 16,-144 265,-144 265,-180"/>
<text text-anchor="middle" x="140.5" y="-158.3" font-family="Times,serif" font-size="14.00">chunks = chain([5], repeat(126))</text>
</g>
<!-- if&#45;&gt;a -->
<g id="edge2" class="edge">
<title>if&#45;&gt;a</title>
<path fill="none" stroke="black" d="M240.68,-221.44C223.87,-211.63 199.26,-197.28 178.64,-185.25"/>
<polygon fill="black" stroke="black" points="180.18,-182.1 169.78,-180.08 176.66,-188.14 180.18,-182.1"/>
</g>
<!-- b -->
<g id="node4" class="node">
<title>b</title>
<polygon fill="none" stroke="black" points="478,-180 283,-180 283,-144 478,-144 478,-180"/>
<text text-anchor="middle" x="380.5" y="-158.3" font-family="Times,serif" font-size="14.00">chunks = repeat(chunks)</text>
</g>
<!-- if&#45;&gt;b -->
<g id="edge3" class="edge">
<title>if&#45;&gt;b</title>
<path fill="none" stroke="black" d="M280.32,-221.44C297.13,-211.63 321.74,-197.28 342.36,-185.25"/>
<polygon fill="black" stroke="black" points="344.34,-188.14 351.22,-180.08 340.82,-182.1 344.34,-188.14"/>
</g>
<!-- c -->
<g id="node5" class="node">
<title>c</title>
<polygon fill="none" stroke="black" points="521,-108 0,-108 0,-72 521,-72 521,-108"/>
<text text-anchor="middle" x="260.5" y="-86.3" font-family="Times,serif" font-size="14.00">self._pipelines[name] = AttachedPipeline(pipeline, iter(chunks), eager)</text>
</g>
<!-- a&#45;&gt;c -->
<g id="edge4" class="edge">
<title>a&#45;&gt;c</title>
<path fill="none" stroke="black" d="M169.86,-143.88C185.55,-134.72 205.06,-123.34 221.95,-113.48"/>
<polygon fill="black" stroke="black" points="224.16,-116.25 231.03,-108.19 220.63,-110.21 224.16,-116.25"/>
</g>
<!-- b&#45;&gt;c -->
<g id="edge5" class="edge">
<title>b&#45;&gt;c</title>
<path fill="none" stroke="black" d="M351.14,-143.88C335.45,-134.72 315.94,-123.34 299.05,-113.48"/>
<polygon fill="black" stroke="black" points="300.37,-110.21 289.97,-108.19 296.84,-116.25 300.37,-110.21"/>
</g>
<!-- end -->
<g id="node6" class="node">
<title>end</title>
<ellipse fill="none" stroke="black" cx="260.5" cy="-18" rx="27.9" ry="18"/>
<text text-anchor="middle" x="260.5" y="-14.3" font-family="Times,serif" font-size="14.00">end</text>
</g>
<!-- c&#45;&gt;end -->
<g id="edge6" class="edge">
<title>c&#45;&gt;end</title>
<path fill="none" stroke="black" d="M260.5,-71.7C260.5,-63.98 260.5,-54.71 260.5,-46.11"/>
<polygon fill="black" stroke="black" points="264,-46.1 260.5,-36.1 257,-46.1 264,-46.1"/>
</g>
</g>
</svg>
