<?xml version="1.0" encoding="UTF-8" standalone="no"?>
<!DOCTYPE svg PUBLIC "-//W3C//DTD SVG 1.1//EN"
 "http://www.w3.org/Graphics/SVG/1.1/DTD/svg11.dtd">
<!-- Generated by graphviz version 2.43.0 (0)
 -->
<!-- Title: %3 Pages: 1 -->
<svg width="364pt" height="908pt"
 viewBox="0.00 0.00 364.43 908.00" xmlns="http://www.w3.org/2000/svg" xmlns:xlink="http://www.w3.org/1999/xlink">
<g id="graph0" class="graph" transform="scale(1 1) rotate(0) translate(4 904)">
<title>%3</title>
<polygon fill="white" stroke="transparent" points="-4,4 -4,-904 360.43,-904 360.43,4 -4,4"/>
<!-- start -->
<g id="node1" class="node">
<title>start</title>
<ellipse fill="none" stroke="black" cx="190" cy="-882" rx="33.29" ry="18"/>
<text text-anchor="middle" x="190" y="-878.3" font-family="Times,serif" font-size="14.00">start</text>
</g>
<!-- a -->
<g id="node2" class="node">
<title>a</title>
<polygon fill="none" stroke="black" points="228.5,-828 151.5,-828 151.5,-792 228.5,-792 228.5,-828"/>
<text text-anchor="middle" x="190" y="-806.3" font-family="Times,serif" font-size="14.00">ret = {}</text>
</g>
<!-- start&#45;&gt;a -->
<g id="edge1" class="edge">
<title>start&#45;&gt;a</title>
<path fill="none" stroke="black" d="M190,-863.7C190,-855.98 190,-846.71 190,-838.11"/>
<polygon fill="black" stroke="black" points="193.5,-838.1 190,-828.1 186.5,-838.1 193.5,-838.1"/>
</g>
<!-- b -->
<g id="node3" class="node">
<title>b</title>
<polygon fill="none" stroke="black" points="278.5,-756 101.5,-756 101.5,-720 278.5,-720 278.5,-756"/>
<text text-anchor="middle" x="190" y="-734.3" font-family="Times,serif" font-size="14.00">cmd = imgadm avail &#45;j</text>
</g>
<!-- a&#45;&gt;b -->
<g id="edge2" class="edge">
<title>a&#45;&gt;b</title>
<path fill="none" stroke="black" d="M190,-791.7C190,-783.98 190,-774.71 190,-766.11"/>
<polygon fill="black" stroke="black" points="193.5,-766.1 190,-756.1 186.5,-766.1 193.5,-766.1"/>
</g>
<!-- c -->
<g id="node4" class="node">
<title>c</title>
<polygon fill="none" stroke="black" points="314,-684 66,-684 66,-648 314,-648 314,-684"/>
<text text-anchor="middle" x="190" y="-662.3" font-family="Times,serif" font-size="14.00">res = __salt__[cmd.run_all](cmd)</text>
</g>
<!-- b&#45;&gt;c -->
<g id="edge3" class="edge">
<title>b&#45;&gt;c</title>
<path fill="none" stroke="black" d="M190,-719.7C190,-711.98 190,-702.71 190,-694.11"/>
<polygon fill="black" stroke="black" points="193.5,-694.1 190,-684.1 186.5,-694.1 193.5,-694.1"/>
</g>
<!-- d -->
<g id="node5" class="node">
<title>d</title>
<polygon fill="none" stroke="black" points="279.5,-612 100.5,-612 100.5,-576 279.5,-576 279.5,-612"/>
<text text-anchor="middle" x="190" y="-590.3" font-family="Times,serif" font-size="14.00">retcode = res[retcode]</text>
</g>
<!-- c&#45;&gt;d -->
<g id="edge4" class="edge">
<title>c&#45;&gt;d</title>
<path fill="none" stroke="black" d="M190,-647.7C190,-639.98 190,-630.71 190,-622.11"/>
<polygon fill="black" stroke="black" points="193.5,-622.1 190,-612.1 186.5,-622.1 193.5,-622.1"/>
</g>
<!-- if -->
<g id="node6" class="node">
<title>if</title>
<ellipse fill="none" stroke="black" cx="190" cy="-522" rx="27" ry="18"/>
<text text-anchor="middle" x="190" y="-518.3" font-family="Times,serif" font-size="14.00">if</text>
</g>
<!-- d&#45;&gt;if -->
<g id="edge5" class="edge">
<title>d&#45;&gt;if</title>
<path fill="none" stroke="black" d="M190,-575.7C190,-567.98 190,-558.71 190,-550.11"/>
<polygon fill="black" stroke="black" points="193.5,-550.1 190,-540.1 186.5,-550.1 193.5,-550.1"/>
</g>
<!-- for -->
<g id="node8" class="node">
<title>for</title>
<ellipse fill="none" stroke="black" cx="190" cy="-450" rx="27" ry="18"/>
<text text-anchor="middle" x="190" y="-446.3" font-family="Times,serif" font-size="14.00">for</text>
</g>
<!-- if&#45;&gt;for -->
<g id="edge7" class="edge">
<title>if&#45;&gt;for</title>
<path fill="none" stroke="black" d="M190,-503.7C190,-495.98 190,-486.71 190,-478.11"/>
<polygon fill="black" stroke="black" points="193.5,-478.1 190,-468.1 186.5,-478.1 193.5,-478.1"/>
</g>
<!-- e -->
<g id="node7" class="node">
<title>e</title>
<polygon fill="none" stroke="black" points="318.5,-396 61.5,-396 61.5,-360 318.5,-360 318.5,-396"/>
<text text-anchor="middle" x="190" y="-374.3" font-family="Times,serif" font-size="14.00">ret[Error] = _exit_status(retcode)</text>
</g>
<!-- e&#45;&gt;for -->
<g id="edge6" class="edge">
<title>e&#45;&gt;for</title>
<path fill="none" stroke="black" d="M195.93,-396.45C196.73,-404.27 196.94,-413.67 196.58,-422.34"/>
<polygon fill="black" stroke="black" points="193.08,-422.18 195.84,-432.41 200.06,-422.69 193.08,-422.18"/>
</g>
<!-- f -->
<g id="node10" class="node">
<title>f</title>
<polygon fill="none" stroke="black" points="286.5,-324 59.5,-324 59.5,-288 286.5,-288 286.5,-324"/>
<text text-anchor="middle" x="173" y="-302.3" font-family="Times,serif" font-size="14.00">uuid = image[manifest][uuid]</text>
</g>
<!-- e&#45;&gt;f -->
<g id="edge10" class="edge">
<title>e&#45;&gt;f</title>
<path fill="none" stroke="black" d="M185.8,-359.7C183.9,-351.9 181.62,-342.51 179.52,-333.83"/>
<polygon fill="black" stroke="black" points="182.92,-333 177.15,-324.1 176.11,-334.65 182.92,-333"/>
</g>
<!-- for&#45;&gt;e -->
<g id="edge8" class="edge">
<title>for&#45;&gt;e</title>
<path fill="none" stroke="black" d="M184.16,-432.41C183.32,-424.71 183.06,-415.34 183.39,-406.62"/>
<polygon fill="black" stroke="black" points="186.89,-406.66 184.07,-396.45 179.91,-406.19 186.89,-406.66"/>
</g>
<!-- end -->
<g id="node9" class="node">
<title>end</title>
<ellipse fill="none" stroke="black" cx="260" cy="-18" rx="27.9" ry="18"/>
<text text-anchor="middle" x="260" y="-14.3" font-family="Times,serif" font-size="14.00">end</text>
</g>
<!-- for&#45;&gt;end -->
<g id="edge9" class="edge">
<title>for&#45;&gt;end</title>
<path fill="none" stroke="black" d="M216.44,-445.64C247.15,-440.36 297.36,-427.29 327,-396 355.61,-365.8 356,-348.6 356,-307 356,-307 356,-307 356,-161 356,-120.36 357.74,-105.69 335,-72 324.04,-55.76 306.32,-42.9 290.86,-33.91"/>
<polygon fill="black" stroke="black" points="292.53,-30.84 282.08,-29.08 289.15,-36.97 292.53,-30.84"/>
</g>
<!-- g -->
<g id="node11" class="node">
<title>g</title>
<polygon fill="none" stroke="black" points="328,-252 0,-252 0,-216 328,-216 328,-252"/>
<text text-anchor="middle" x="164" y="-230.3" font-family="Times,serif" font-size="14.00">data = _parse_image_meta(image, verbose)</text>
</g>
<!-- f&#45;&gt;g -->
<g id="edge11" class="edge">
<title>f&#45;&gt;g</title>
<path fill="none" stroke="black" d="M170.78,-287.7C169.78,-279.98 168.59,-270.71 167.49,-262.11"/>
<polygon fill="black" stroke="black" points="170.95,-261.58 166.2,-252.1 164,-262.47 170.95,-261.58"/>
</g>
<!-- if2 -->
<g id="node12" class="node">
<title>if2</title>
<ellipse fill="none" stroke="black" cx="166" cy="-162" rx="27" ry="18"/>
<text text-anchor="middle" x="166" y="-158.3" font-family="Times,serif" font-size="14.00">if2</text>
</g>
<!-- g&#45;&gt;if2 -->
<g id="edge12" class="edge">
<title>g&#45;&gt;if2</title>
<path fill="none" stroke="black" d="M164.49,-215.7C164.71,-207.98 164.98,-198.71 165.23,-190.11"/>
<polygon fill="black" stroke="black" points="168.72,-190.2 165.51,-180.1 161.73,-190 168.72,-190.2"/>
</g>
<!-- if2&#45;&gt;end -->
<g id="edge14" class="edge">
<title>if2&#45;&gt;end</title>
<path fill="none" stroke="black" d="M166.04,-143.85C166.86,-124.82 170.56,-93.9 185,-72 195.79,-55.64 213.5,-42.78 229,-33.82"/>
<polygon fill="black" stroke="black" points="230.71,-36.87 237.81,-29 227.35,-30.73 230.71,-36.87"/>
</g>
<!-- h -->
<g id="node13" class="node">
<title>h</title>
<polygon fill="none" stroke="black" points="326,-108 194,-108 194,-72 326,-72 326,-108"/>
<text text-anchor="middle" x="260" y="-86.3" font-family="Times,serif" font-size="14.00">ret[uuid] = data</text>
</g>
<!-- if2&#45;&gt;h -->
<g id="edge13" class="edge">
<title>if2&#45;&gt;h</title>
<path fill="none" stroke="black" d="M183.68,-147.83C196.42,-138.34 213.96,-125.29 229,-114.08"/>
<polygon fill="black" stroke="black" points="231.13,-116.86 237.06,-108.08 226.95,-111.25 231.13,-116.86"/>
</g>
<!-- h&#45;&gt;end -->
<g id="edge15" class="edge">
<title>h&#45;&gt;end</title>
<path fill="none" stroke="black" d="M260,-71.7C260,-63.98 260,-54.71 260,-46.11"/>
<polygon fill="black" stroke="black" points="263.5,-46.1 260,-36.1 256.5,-46.1 263.5,-46.1"/>
</g>
</g>
</svg>
