<?xml version="1.0" encoding="UTF-8" standalone="no"?>
<!DOCTYPE svg PUBLIC "-//W3C//DTD SVG 1.1//EN"
 "http://www.w3.org/Graphics/SVG/1.1/DTD/svg11.dtd">
<!-- Generated by graphviz version 2.43.0 (0)
 -->
<!-- Title: %3 Pages: 1 -->
<svg width="668pt" height="620pt"
 viewBox="0.00 0.00 667.50 620.00" xmlns="http://www.w3.org/2000/svg" xmlns:xlink="http://www.w3.org/1999/xlink">
<g id="graph0" class="graph" transform="scale(1 1) rotate(0) translate(4 616)">
<title>%3</title>
<polygon fill="white" stroke="transparent" points="-4,4 -4,-616 663.5,-616 663.5,4 -4,4"/>
<!-- start -->
<g id="node1" class="node">
<title>start</title>
<ellipse fill="none" stroke="black" cx="328.5" cy="-594" rx="33.29" ry="18"/>
<text text-anchor="middle" x="328.5" y="-590.3" font-family="Times,serif" font-size="14.00">start</text>
</g>
<!-- a -->
<g id="node2" class="node">
<title>a</title>
<polygon fill="none" stroke="black" points="440.5,-540 216.5,-540 216.5,-504 440.5,-504 440.5,-540"/>
<text text-anchor="middle" x="328.5" y="-518.3" font-family="Times,serif" font-size="14.00">settype = _find_set_type(set)</text>
</g>
<!-- start&#45;&gt;a -->
<g id="edge1" class="edge">
<title>start&#45;&gt;a</title>
<path fill="none" stroke="black" d="M328.5,-575.7C328.5,-567.98 328.5,-558.71 328.5,-550.11"/>
<polygon fill="black" stroke="black" points="332,-550.1 328.5,-540.1 325,-550.1 332,-550.1"/>
</g>
<!-- b -->
<g id="node3" class="node">
<title>b</title>
<polygon fill="none" stroke="black" points="591,-468 66,-468 66,-432 591,-432 591,-468"/>
<text text-anchor="middle" x="328.5" y="-446.3" font-family="Times,serif" font-size="14.00">current_members = _parse_members(settype, _find_set_members(set))</text>
</g>
<!-- a&#45;&gt;b -->
<g id="edge2" class="edge">
<title>a&#45;&gt;b</title>
<path fill="none" stroke="black" d="M328.5,-503.7C328.5,-495.98 328.5,-486.71 328.5,-478.11"/>
<polygon fill="black" stroke="black" points="332,-478.1 328.5,-468.1 325,-478.1 332,-478.1"/>
</g>
<!-- if -->
<g id="node4" class="node">
<title>if</title>
<ellipse fill="none" stroke="black" cx="328.5" cy="-378" rx="27" ry="18"/>
<text text-anchor="middle" x="328.5" y="-374.3" font-family="Times,serif" font-size="14.00">if</text>
</g>
<!-- b&#45;&gt;if -->
<g id="edge3" class="edge">
<title>b&#45;&gt;if</title>
<path fill="none" stroke="black" d="M328.5,-431.7C328.5,-423.98 328.5,-414.71 328.5,-406.11"/>
<polygon fill="black" stroke="black" points="332,-406.1 328.5,-396.1 325,-406.1 332,-406.1"/>
</g>
<!-- c -->
<g id="node5" class="node">
<title>c</title>
<polygon fill="none" stroke="black" points="319,-324 0,-324 0,-288 319,-288 319,-324"/>
<text text-anchor="middle" x="159.5" y="-302.3" font-family="Times,serif" font-size="14.00">entries = _parse_members(settype, entry)</text>
</g>
<!-- if&#45;&gt;c -->
<g id="edge4" class="edge">
<title>if&#45;&gt;c</title>
<path fill="none" stroke="black" d="M306.06,-367.7C281.73,-357.63 242.1,-341.21 210.18,-327.99"/>
<polygon fill="black" stroke="black" points="211.13,-324.6 200.55,-324 208.45,-331.06 211.13,-324.6"/>
</g>
<!-- d -->
<g id="node6" class="node">
<title>d</title>
<polygon fill="none" stroke="black" points="659.5,-324 337.5,-324 337.5,-288 659.5,-288 659.5,-324"/>
<text text-anchor="middle" x="498.5" y="-302.3" font-family="Times,serif" font-size="14.00">entries = [_parse_member(settype, entry)]</text>
</g>
<!-- if&#45;&gt;d -->
<g id="edge5" class="edge">
<title>if&#45;&gt;d</title>
<path fill="none" stroke="black" d="M351.07,-367.7C375.65,-357.58 415.75,-341.07 447.93,-327.82"/>
<polygon fill="black" stroke="black" points="449.29,-331.05 457.21,-324 446.63,-324.57 449.29,-331.05"/>
</g>
<!-- for -->
<g id="node7" class="node">
<title>for</title>
<ellipse fill="none" stroke="black" cx="328.5" cy="-234" rx="27" ry="18"/>
<text text-anchor="middle" x="328.5" y="-230.3" font-family="Times,serif" font-size="14.00">for</text>
</g>
<!-- c&#45;&gt;for -->
<g id="edge7" class="edge">
<title>c&#45;&gt;for</title>
<path fill="none" stroke="black" d="M200.84,-287.88C230.43,-275.62 269.68,-259.37 296.8,-248.13"/>
<polygon fill="black" stroke="black" points="298.31,-251.29 306.21,-244.23 295.63,-244.83 298.31,-251.29"/>
</g>
<!-- d&#45;&gt;for -->
<g id="edge6" class="edge">
<title>d&#45;&gt;for</title>
<path fill="none" stroke="black" d="M456.91,-287.88C427.15,-275.62 387.67,-259.37 360.39,-248.13"/>
<polygon fill="black" stroke="black" points="361.5,-244.8 350.92,-244.23 358.84,-251.28 361.5,-244.8"/>
</g>
<!-- for2 -->
<g id="node8" class="node">
<title>for2</title>
<ellipse fill="none" stroke="black" cx="297.5" cy="-162" rx="29.8" ry="18"/>
<text text-anchor="middle" x="297.5" y="-158.3" font-family="Times,serif" font-size="14.00">for2</text>
</g>
<!-- for&#45;&gt;for2 -->
<g id="edge8" class="edge">
<title>for&#45;&gt;for2</title>
<path fill="none" stroke="black" d="M321.15,-216.41C317.49,-208.13 312.97,-197.92 308.86,-188.66"/>
<polygon fill="black" stroke="black" points="312.04,-187.2 304.79,-179.47 305.64,-190.03 312.04,-187.2"/>
</g>
<!-- end -->
<g id="node9" class="node">
<title>end</title>
<ellipse fill="none" stroke="black" cx="297.5" cy="-18" rx="27.9" ry="18"/>
<text text-anchor="middle" x="297.5" y="-14.3" font-family="Times,serif" font-size="14.00">end</text>
</g>
<!-- for&#45;&gt;end -->
<g id="edge9" class="edge">
<title>for&#45;&gt;end</title>
<path fill="none" stroke="black" d="M334.25,-216.41C343.67,-186.53 359.59,-122.11 341.5,-72 337.23,-60.17 329.04,-49.11 320.87,-40.19"/>
<polygon fill="black" stroke="black" points="323.29,-37.65 313.8,-32.93 318.27,-42.54 323.29,-37.65"/>
</g>
<!-- for2&#45;&gt;end -->
<g id="edge10" class="edge">
<title>for2&#45;&gt;end</title>
<path fill="none" stroke="black" d="M280.75,-146.63C270.74,-136.89 258.94,-123.07 253.5,-108 248.07,-92.95 248.07,-87.05 253.5,-72 257.77,-60.17 265.96,-49.11 274.13,-40.19"/>
<polygon fill="black" stroke="black" points="276.73,-42.54 281.2,-32.93 271.71,-37.65 276.73,-42.54"/>
</g>
<!-- block -->
<g id="node10" class="node">
<title>block</title>
<ellipse fill="none" stroke="black" cx="297.5" cy="-90" rx="35.19" ry="18"/>
<text text-anchor="middle" x="297.5" y="-86.3" font-family="Times,serif" font-size="14.00">block</text>
</g>
<!-- for2&#45;&gt;block -->
<g id="edge11" class="edge">
<title>for2&#45;&gt;block</title>
<path fill="none" stroke="black" d="M297.5,-143.7C297.5,-135.98 297.5,-126.71 297.5,-118.11"/>
<polygon fill="black" stroke="black" points="301,-118.1 297.5,-108.1 294,-118.1 301,-118.1"/>
</g>
<!-- block&#45;&gt;end -->
<g id="edge12" class="edge">
<title>block&#45;&gt;end</title>
<path fill="none" stroke="black" d="M297.5,-71.7C297.5,-63.98 297.5,-54.71 297.5,-46.11"/>
<polygon fill="black" stroke="black" points="301,-46.1 297.5,-36.1 294,-46.1 301,-46.1"/>
</g>
</g>
</svg>
