<?xml version="1.0" encoding="UTF-8" standalone="no"?>
<!DOCTYPE svg PUBLIC "-//W3C//DTD SVG 1.1//EN"
 "http://www.w3.org/Graphics/SVG/1.1/DTD/svg11.dtd">
<!-- Generated by graphviz version 2.43.0 (0)
 -->
<!-- Title: %3 Pages: 1 -->
<svg width="210pt" height="332pt"
 viewBox="0.00 0.00 210.29 332.00" xmlns="http://www.w3.org/2000/svg" xmlns:xlink="http://www.w3.org/1999/xlink">
<g id="graph0" class="graph" transform="scale(1 1) rotate(0) translate(4 328)">
<title>%3</title>
<polygon fill="white" stroke="transparent" points="-4,4 -4,-328 206.29,-328 206.29,4 -4,4"/>
<!-- start -->
<g id="node1" class="node">
<title>start</title>
<ellipse fill="none" stroke="black" cx="101.15" cy="-306" rx="33.29" ry="18"/>
<text text-anchor="middle" x="101.15" y="-302.3" font-family="Times,serif" font-size="14.00">start</text>
</g>
<!-- a -->
<g id="node2" class="node">
<title>a</title>
<polygon fill="none" stroke="black" points="172.15,-252 30.15,-252 30.15,-216 172.15,-216 172.15,-252"/>
<text text-anchor="middle" x="101.15" y="-230.3" font-family="Times,serif" font-size="14.00">s2d = shape2d(a)</text>
</g>
<!-- start&#45;&gt;a -->
<g id="edge1" class="edge">
<title>start&#45;&gt;a</title>
<path fill="none" stroke="black" d="M101.15,-287.7C101.15,-279.98 101.15,-270.71 101.15,-262.11"/>
<polygon fill="black" stroke="black" points="104.65,-262.1 101.15,-252.1 97.65,-262.1 104.65,-262.1"/>
</g>
<!-- if -->
<g id="node3" class="node">
<title>if</title>
<ellipse fill="none" stroke="black" cx="101.15" cy="-162" rx="27" ry="18"/>
<text text-anchor="middle" x="101.15" y="-158.3" font-family="Times,serif" font-size="14.00">if</text>
</g>
<!-- a&#45;&gt;if -->
<g id="edge2" class="edge">
<title>a&#45;&gt;if</title>
<path fill="none" stroke="black" d="M101.15,-215.7C101.15,-207.98 101.15,-198.71 101.15,-190.11"/>
<polygon fill="black" stroke="black" points="104.65,-190.1 101.15,-180.1 97.65,-190.1 104.65,-190.1"/>
</g>
<!-- return1 -->
<g id="node4" class="node">
<title>return1</title>
<ellipse fill="none" stroke="black" cx="46.15" cy="-90" rx="46.29" ry="18"/>
<text text-anchor="middle" x="46.15" y="-86.3" font-family="Times,serif" font-size="14.00">return1</text>
</g>
<!-- if&#45;&gt;return1 -->
<g id="edge3" class="edge">
<title>if&#45;&gt;return1</title>
<path fill="none" stroke="black" d="M89.21,-145.81C82.3,-137.02 73.43,-125.73 65.54,-115.69"/>
<polygon fill="black" stroke="black" points="68.14,-113.33 59.21,-107.63 62.64,-117.65 68.14,-113.33"/>
</g>
<!-- return2 -->
<g id="node5" class="node">
<title>return2</title>
<ellipse fill="none" stroke="black" cx="156.15" cy="-90" rx="46.29" ry="18"/>
<text text-anchor="middle" x="156.15" y="-86.3" font-family="Times,serif" font-size="14.00">return2</text>
</g>
<!-- if&#45;&gt;return2 -->
<g id="edge4" class="edge">
<title>if&#45;&gt;return2</title>
<path fill="none" stroke="black" d="M113.08,-145.81C119.99,-137.02 128.86,-125.73 136.75,-115.69"/>
<polygon fill="black" stroke="black" points="139.66,-117.65 143.08,-107.63 134.15,-113.33 139.66,-117.65"/>
</g>
<!-- end -->
<g id="node6" class="node">
<title>end</title>
<ellipse fill="none" stroke="black" cx="101.15" cy="-18" rx="27.9" ry="18"/>
<text text-anchor="middle" x="101.15" y="-14.3" font-family="Times,serif" font-size="14.00">end</text>
</g>
<!-- return1&#45;&gt;end -->
<g id="edge6" class="edge">
<title>return1&#45;&gt;end</title>
<path fill="none" stroke="black" d="M59.18,-72.41C66.16,-63.53 74.87,-52.44 82.55,-42.67"/>
<polygon fill="black" stroke="black" points="85.53,-44.54 88.96,-34.51 80.03,-40.21 85.53,-44.54"/>
</g>
<!-- return2&#45;&gt;end -->
<g id="edge5" class="edge">
<title>return2&#45;&gt;end</title>
<path fill="none" stroke="black" d="M143.11,-72.41C136.13,-63.53 127.42,-52.44 119.74,-42.67"/>
<polygon fill="black" stroke="black" points="122.26,-40.21 113.33,-34.51 116.76,-44.54 122.26,-40.21"/>
</g>
</g>
</svg>
