<?xml version="1.0" encoding="UTF-8" standalone="no"?>
<!DOCTYPE svg PUBLIC "-//W3C//DTD SVG 1.1//EN"
 "http://www.w3.org/Graphics/SVG/1.1/DTD/svg11.dtd">
<!-- Generated by graphviz version 2.43.0 (0)
 -->
<!-- Title: %3 Pages: 1 -->
<svg width="352pt" height="332pt"
 viewBox="0.00 0.00 352.00 332.00" xmlns="http://www.w3.org/2000/svg" xmlns:xlink="http://www.w3.org/1999/xlink">
<g id="graph0" class="graph" transform="scale(1 1) rotate(0) translate(4 328)">
<title>%3</title>
<polygon fill="white" stroke="transparent" points="-4,4 -4,-328 348,-328 348,4 -4,4"/>
<!-- start -->
<g id="node1" class="node">
<title>start</title>
<ellipse fill="none" stroke="black" cx="172" cy="-306" rx="33.29" ry="18"/>
<text text-anchor="middle" x="172" y="-302.3" font-family="Times,serif" font-size="14.00">start</text>
</g>
<!-- a -->
<g id="node2" class="node">
<title>a</title>
<polygon fill="none" stroke="black" points="344,-252 0,-252 0,-216 344,-216 344,-252"/>
<text text-anchor="middle" x="172" y="-230.3" font-family="Times,serif" font-size="14.00">ret = libxml2mod.xmlLoadACatalog(filename)</text>
</g>
<!-- start&#45;&gt;a -->
<g id="edge1" class="edge">
<title>start&#45;&gt;a</title>
<path fill="none" stroke="black" d="M172,-287.7C172,-279.98 172,-270.71 172,-262.11"/>
<polygon fill="black" stroke="black" points="175.5,-262.1 172,-252.1 168.5,-262.1 175.5,-262.1"/>
</g>
<!-- if -->
<g id="node3" class="node">
<title>if</title>
<ellipse fill="none" stroke="black" cx="172" cy="-162" rx="27" ry="18"/>
<text text-anchor="middle" x="172" y="-158.3" font-family="Times,serif" font-size="14.00">if</text>
</g>
<!-- a&#45;&gt;if -->
<g id="edge2" class="edge">
<title>a&#45;&gt;if</title>
<path fill="none" stroke="black" d="M172,-215.7C172,-207.98 172,-198.71 172,-190.11"/>
<polygon fill="black" stroke="black" points="175.5,-190.1 172,-180.1 168.5,-190.1 175.5,-190.1"/>
</g>
<!-- block -->
<g id="node4" class="node">
<title>block</title>
<ellipse fill="none" stroke="black" cx="141" cy="-90" rx="35.19" ry="18"/>
<text text-anchor="middle" x="141" y="-86.3" font-family="Times,serif" font-size="14.00">block</text>
</g>
<!-- if&#45;&gt;block -->
<g id="edge3" class="edge">
<title>if&#45;&gt;block</title>
<path fill="none" stroke="black" d="M164.65,-144.41C161.08,-136.34 156.69,-126.43 152.67,-117.35"/>
<polygon fill="black" stroke="black" points="155.76,-115.68 148.51,-107.96 149.36,-118.52 155.76,-115.68"/>
</g>
<!-- end -->
<g id="node5" class="node">
<title>end</title>
<ellipse fill="none" stroke="black" cx="172" cy="-18" rx="27.9" ry="18"/>
<text text-anchor="middle" x="172" y="-14.3" font-family="Times,serif" font-size="14.00">end</text>
</g>
<!-- if&#45;&gt;end -->
<g id="edge4" class="edge">
<title>if&#45;&gt;end</title>
<path fill="none" stroke="black" d="M177.27,-144.01C180.19,-133.7 183.52,-120.23 185,-108 186.92,-92.12 186.92,-87.88 185,-72 183.96,-63.4 182.01,-54.19 179.92,-45.89"/>
<polygon fill="black" stroke="black" points="183.24,-44.75 177.27,-35.99 176.48,-46.56 183.24,-44.75"/>
</g>
<!-- block&#45;&gt;end -->
<g id="edge5" class="edge">
<title>block&#45;&gt;end</title>
<path fill="none" stroke="black" d="M148.5,-72.05C152.08,-63.97 156.45,-54.12 160.44,-45.11"/>
<polygon fill="black" stroke="black" points="163.72,-46.35 164.56,-35.79 157.32,-43.52 163.72,-46.35"/>
</g>
</g>
</svg>
