<?xml version="1.0" encoding="UTF-8" standalone="no"?>
<!DOCTYPE svg PUBLIC "-//W3C//DTD SVG 1.1//EN"
 "http://www.w3.org/Graphics/SVG/1.1/DTD/svg11.dtd">
<!-- Generated by graphviz version 2.43.0 (0)
 -->
<!-- Title: %3 Pages: 1 -->
<svg width="311pt" height="332pt"
 viewBox="0.00 0.00 311.00 332.00" xmlns="http://www.w3.org/2000/svg" xmlns:xlink="http://www.w3.org/1999/xlink">
<g id="graph0" class="graph" transform="scale(1 1) rotate(0) translate(4 328)">
<title>%3</title>
<polygon fill="white" stroke="transparent" points="-4,4 -4,-328 307,-328 307,4 -4,4"/>
<!-- start -->
<g id="node1" class="node">
<title>start</title>
<ellipse fill="none" stroke="black" cx="151.5" cy="-306" rx="33.29" ry="18"/>
<text text-anchor="middle" x="151.5" y="-302.3" font-family="Times,serif" font-size="14.00">start</text>
</g>
<!-- a -->
<g id="node2" class="node">
<title>a</title>
<polygon fill="none" stroke="black" points="303,-252 0,-252 0,-216 303,-216 303,-252"/>
<text text-anchor="middle" x="151.5" y="-230.3" font-family="Times,serif" font-size="14.00">trans = _LazyTransformDataset(self, fn)</text>
</g>
<!-- start&#45;&gt;a -->
<g id="edge1" class="edge">
<title>start&#45;&gt;a</title>
<path fill="none" stroke="black" d="M151.5,-287.7C151.5,-279.98 151.5,-270.71 151.5,-262.11"/>
<polygon fill="black" stroke="black" points="155,-262.1 151.5,-252.1 148,-262.1 155,-262.1"/>
</g>
<!-- if -->
<g id="node3" class="node">
<title>if</title>
<ellipse fill="none" stroke="black" cx="151.5" cy="-162" rx="27" ry="18"/>
<text text-anchor="middle" x="151.5" y="-158.3" font-family="Times,serif" font-size="14.00">if</text>
</g>
<!-- a&#45;&gt;if -->
<g id="edge2" class="edge">
<title>a&#45;&gt;if</title>
<path fill="none" stroke="black" d="M151.5,-215.7C151.5,-207.98 151.5,-198.71 151.5,-190.11"/>
<polygon fill="black" stroke="black" points="155,-190.1 151.5,-180.1 148,-190.1 155,-190.1"/>
</g>
<!-- block -->
<g id="node4" class="node">
<title>block</title>
<ellipse fill="none" stroke="black" cx="120.5" cy="-90" rx="35.19" ry="18"/>
<text text-anchor="middle" x="120.5" y="-86.3" font-family="Times,serif" font-size="14.00">block</text>
</g>
<!-- if&#45;&gt;block -->
<g id="edge3" class="edge">
<title>if&#45;&gt;block</title>
<path fill="none" stroke="black" d="M144.15,-144.41C140.58,-136.34 136.19,-126.43 132.17,-117.35"/>
<polygon fill="black" stroke="black" points="135.26,-115.68 128.01,-107.96 128.86,-118.52 135.26,-115.68"/>
</g>
<!-- end -->
<g id="node5" class="node">
<title>end</title>
<ellipse fill="none" stroke="black" cx="151.5" cy="-18" rx="27.9" ry="18"/>
<text text-anchor="middle" x="151.5" y="-14.3" font-family="Times,serif" font-size="14.00">end</text>
</g>
<!-- if&#45;&gt;end -->
<g id="edge4" class="edge">
<title>if&#45;&gt;end</title>
<path fill="none" stroke="black" d="M156.77,-144.01C159.69,-133.7 163.02,-120.23 164.5,-108 166.42,-92.12 166.42,-87.88 164.5,-72 163.46,-63.4 161.51,-54.19 159.42,-45.89"/>
<polygon fill="black" stroke="black" points="162.74,-44.75 156.77,-35.99 155.98,-46.56 162.74,-44.75"/>
</g>
<!-- block&#45;&gt;end -->
<g id="edge5" class="edge">
<title>block&#45;&gt;end</title>
<path fill="none" stroke="black" d="M128,-72.05C131.58,-63.97 135.95,-54.12 139.94,-45.11"/>
<polygon fill="black" stroke="black" points="143.22,-46.35 144.06,-35.79 136.82,-43.52 143.22,-46.35"/>
</g>
</g>
</svg>
