<?xml version="1.0" encoding="UTF-8" standalone="no"?>
<!DOCTYPE svg PUBLIC "-//W3C//DTD SVG 1.1//EN"
 "http://www.w3.org/Graphics/SVG/1.1/DTD/svg11.dtd">
<!-- Generated by graphviz version 2.43.0 (0)
 -->
<!-- Title: %3 Pages: 1 -->
<svg width="997pt" height="764pt"
 viewBox="0.00 0.00 997.00 764.00" xmlns="http://www.w3.org/2000/svg" xmlns:xlink="http://www.w3.org/1999/xlink">
<g id="graph0" class="graph" transform="scale(1 1) rotate(0) translate(4 760)">
<title>%3</title>
<polygon fill="white" stroke="transparent" points="-4,4 -4,-760 993,-760 993,4 -4,4"/>
<!-- start -->
<g id="node1" class="node">
<title>start</title>
<ellipse fill="none" stroke="black" cx="204.5" cy="-738" rx="33.29" ry="18"/>
<text text-anchor="middle" x="204.5" y="-734.3" font-family="Times,serif" font-size="14.00">start</text>
</g>
<!-- a -->
<g id="node2" class="node">
<title>a</title>
<polygon fill="none" stroke="black" points="270.5,-684 138.5,-684 138.5,-648 270.5,-648 270.5,-684"/>
<text text-anchor="middle" x="204.5" y="-662.3" font-family="Times,serif" font-size="14.00">methods = list()</text>
</g>
<!-- start&#45;&gt;a -->
<g id="edge1" class="edge">
<title>start&#45;&gt;a</title>
<path fill="none" stroke="black" d="M204.5,-719.7C204.5,-711.98 204.5,-702.71 204.5,-694.11"/>
<polygon fill="black" stroke="black" points="208,-694.1 204.5,-684.1 201,-694.1 208,-694.1"/>
</g>
<!-- for -->
<g id="node3" class="node">
<title>for</title>
<ellipse fill="none" stroke="black" cx="204.5" cy="-594" rx="27" ry="18"/>
<text text-anchor="middle" x="204.5" y="-590.3" font-family="Times,serif" font-size="14.00">for</text>
</g>
<!-- a&#45;&gt;for -->
<g id="edge2" class="edge">
<title>a&#45;&gt;for</title>
<path fill="none" stroke="black" d="M204.5,-647.7C204.5,-639.98 204.5,-630.71 204.5,-622.11"/>
<polygon fill="black" stroke="black" points="208,-622.1 204.5,-612.1 201,-622.1 208,-622.1"/>
</g>
<!-- b -->
<g id="node4" class="node">
<title>b</title>
<polygon fill="none" stroke="black" points="390,-180 1,-180 1,-144 390,-144 390,-180"/>
<text text-anchor="middle" x="195.5" y="-158.3" font-family="Times,serif" font-size="14.00">log_format = self.FORMAT_RE.sub(r%s, log_format)</text>
</g>
<!-- for&#45;&gt;b -->
<g id="edge3" class="edge">
<title>for&#45;&gt;b</title>
<path fill="none" stroke="black" d="M186.21,-580.47C156.13,-558.2 99.5,-508.64 99.5,-451 99.5,-451 99.5,-451 99.5,-305 99.5,-256.85 137.84,-212.85 166.06,-186.98"/>
<polygon fill="black" stroke="black" points="168.57,-189.43 173.72,-180.17 163.92,-184.2 168.57,-189.43"/>
</g>
<!-- if -->
<g id="node7" class="node">
<title>if</title>
<ellipse fill="none" stroke="black" cx="312.5" cy="-522" rx="27" ry="18"/>
<text text-anchor="middle" x="312.5" y="-518.3" font-family="Times,serif" font-size="14.00">if</text>
</g>
<!-- for&#45;&gt;if -->
<g id="edge6" class="edge">
<title>for&#45;&gt;if</title>
<path fill="none" stroke="black" d="M223.31,-580.81C240.5,-569.67 266.12,-553.06 285.49,-540.5"/>
<polygon fill="black" stroke="black" points="287.42,-543.43 293.9,-535.05 283.61,-537.56 287.42,-543.43"/>
</g>
<!-- c -->
<g id="node5" class="node">
<title>c</title>
<polygon fill="none" stroke="black" points="391,-108 0,-108 0,-72 391,-72 391,-108"/>
<text text-anchor="middle" x="195.5" y="-86.3" font-family="Times,serif" font-size="14.00">log_format = self.CLEANUP_RE.sub(r%, log_format)</text>
</g>
<!-- b&#45;&gt;c -->
<g id="edge4" class="edge">
<title>b&#45;&gt;c</title>
<path fill="none" stroke="black" d="M195.5,-143.7C195.5,-135.98 195.5,-126.71 195.5,-118.11"/>
<polygon fill="black" stroke="black" points="199,-118.1 195.5,-108.1 192,-118.1 199,-118.1"/>
</g>
<!-- end -->
<g id="node6" class="node">
<title>end</title>
<ellipse fill="none" stroke="black" cx="195.5" cy="-18" rx="27.9" ry="18"/>
<text text-anchor="middle" x="195.5" y="-14.3" font-family="Times,serif" font-size="14.00">end</text>
</g>
<!-- c&#45;&gt;end -->
<g id="edge5" class="edge">
<title>c&#45;&gt;end</title>
<path fill="none" stroke="black" d="M195.5,-71.7C195.5,-63.98 195.5,-54.71 195.5,-46.11"/>
<polygon fill="black" stroke="black" points="199,-46.1 195.5,-36.1 192,-46.1 199,-46.1"/>
</g>
<!-- d -->
<g id="node8" class="node">
<title>d</title>
<polygon fill="none" stroke="black" points="494.5,-468 130.5,-468 130.5,-432 494.5,-432 494.5,-468"/>
<text text-anchor="middle" x="312.5" y="-446.3" font-family="Times,serif" font-size="14.00">format_key1 = self.LOG_FORMAT_MAP[atom[0]]</text>
</g>
<!-- if&#45;&gt;d -->
<g id="edge7" class="edge">
<title>if&#45;&gt;d</title>
<path fill="none" stroke="black" d="M312.5,-503.7C312.5,-495.98 312.5,-486.71 312.5,-478.11"/>
<polygon fill="black" stroke="black" points="316,-478.1 312.5,-468.1 309,-478.1 316,-478.1"/>
</g>
<!-- h -->
<g id="node12" class="node">
<title>h</title>
<polygon fill="none" stroke="black" points="952,-468 513,-468 513,-432 952,-432 952,-468"/>
<text text-anchor="middle" x="732.5" y="-446.3" font-family="Times,serif" font-size="14.00">format_key2 = (self.LOG_FORMAT_MAP[atom[2]], atom[1])</text>
</g>
<!-- if&#45;&gt;h -->
<g id="edge12" class="edge">
<title>if&#45;&gt;h</title>
<path fill="none" stroke="black" d="M338.46,-516.67C393.39,-507.52 524.21,-485.72 620.1,-469.73"/>
<polygon fill="black" stroke="black" points="620.86,-473.15 630.15,-468.06 619.71,-466.25 620.86,-473.15"/>
</g>
<!-- e -->
<g id="node9" class="node">
<title>e</title>
<polygon fill="none" stroke="black" points="505.5,-396 127.5,-396 127.5,-360 505.5,-360 505.5,-396"/>
<text text-anchor="middle" x="316.5" y="-374.3" font-family="Times,serif" font-size="14.00">m = getattr(AccessLogger, _format_%s % atom[2])</text>
</g>
<!-- d&#45;&gt;e -->
<g id="edge8" class="edge">
<title>d&#45;&gt;e</title>
<path fill="none" stroke="black" d="M313.49,-431.7C313.93,-423.98 314.46,-414.71 314.95,-406.11"/>
<polygon fill="black" stroke="black" points="318.45,-406.29 315.52,-396.1 311.46,-405.89 318.45,-406.29"/>
</g>
<!-- f -->
<g id="node10" class="node">
<title>f</title>
<polygon fill="none" stroke="black" points="457.5,-324 131.5,-324 131.5,-288 457.5,-288 457.5,-324"/>
<text text-anchor="middle" x="294.5" y="-302.3" font-family="Times,serif" font-size="14.00">key_method = KeyMethod(format_key1, m)</text>
</g>
<!-- e&#45;&gt;f -->
<g id="edge9" class="edge">
<title>e&#45;&gt;f</title>
<path fill="none" stroke="black" d="M311.06,-359.7C308.61,-351.9 305.66,-342.51 302.93,-333.83"/>
<polygon fill="black" stroke="black" points="306.21,-332.59 299.88,-324.1 299.54,-334.69 306.21,-332.59"/>
</g>
<!-- g -->
<g id="node11" class="node">
<title>g</title>
<polygon fill="none" stroke="black" points="410,-252 179,-252 179,-216 410,-216 410,-252"/>
<text text-anchor="middle" x="294.5" y="-230.3" font-family="Times,serif" font-size="14.00">methods.append(key_method)</text>
</g>
<!-- f&#45;&gt;g -->
<g id="edge10" class="edge">
<title>f&#45;&gt;g</title>
<path fill="none" stroke="black" d="M294.5,-287.7C294.5,-279.98 294.5,-270.71 294.5,-262.11"/>
<polygon fill="black" stroke="black" points="298,-262.1 294.5,-252.1 291,-262.1 298,-262.1"/>
</g>
<!-- g&#45;&gt;b -->
<g id="edge11" class="edge">
<title>g&#45;&gt;b</title>
<path fill="none" stroke="black" d="M270.28,-215.88C257.58,-206.89 241.84,-195.76 228.08,-186.03"/>
<polygon fill="black" stroke="black" points="230,-183.11 219.81,-180.19 225.96,-188.82 230,-183.11"/>
</g>
<!-- i -->
<g id="node13" class="node">
<title>i</title>
<polygon fill="none" stroke="black" points="921.5,-396 543.5,-396 543.5,-360 921.5,-360 921.5,-396"/>
<text text-anchor="middle" x="732.5" y="-374.3" font-family="Times,serif" font-size="14.00">m = getattr(AccessLogger, _format_%s % atom[2])</text>
</g>
<!-- h&#45;&gt;i -->
<g id="edge13" class="edge">
<title>h&#45;&gt;i</title>
<path fill="none" stroke="black" d="M732.5,-431.7C732.5,-423.98 732.5,-414.71 732.5,-406.11"/>
<polygon fill="black" stroke="black" points="736,-406.1 732.5,-396.1 729,-406.1 736,-406.1"/>
</g>
<!-- j -->
<g id="node14" class="node">
<title>j</title>
<polygon fill="none" stroke="black" points="989,-324 476,-324 476,-288 989,-288 989,-324"/>
<text text-anchor="middle" x="732.5" y="-302.3" font-family="Times,serif" font-size="14.00">key_method = KeyMethod(format_key2,functools.partial(m, atom[1]))</text>
</g>
<!-- i&#45;&gt;j -->
<g id="edge14" class="edge">
<title>i&#45;&gt;j</title>
<path fill="none" stroke="black" d="M732.5,-359.7C732.5,-351.98 732.5,-342.71 732.5,-334.11"/>
<polygon fill="black" stroke="black" points="736,-334.1 732.5,-324.1 729,-334.1 736,-334.1"/>
</g>
<!-- j&#45;&gt;g -->
<g id="edge15" class="edge">
<title>j&#45;&gt;g</title>
<path fill="none" stroke="black" d="M625.91,-287.97C561,-277.59 478.01,-264.33 411.32,-253.67"/>
<polygon fill="black" stroke="black" points="411.61,-250.17 401.18,-252.05 410.51,-257.08 411.61,-250.17"/>
</g>
</g>
</svg>
