<?xml version="1.0" encoding="UTF-8" standalone="no"?>
<!DOCTYPE svg PUBLIC "-//W3C//DTD SVG 1.1//EN"
 "http://www.w3.org/Graphics/SVG/1.1/DTD/svg11.dtd">
<!-- Generated by graphviz version 2.43.0 (0)
 -->
<!-- Title: %3 Pages: 1 -->
<svg width="1022pt" height="764pt"
 viewBox="0.00 0.00 1022.00 764.00" xmlns="http://www.w3.org/2000/svg" xmlns:xlink="http://www.w3.org/1999/xlink">
<g id="graph0" class="graph" transform="scale(1 1) rotate(0) translate(4 760)">
<title>%3</title>
<polygon fill="white" stroke="transparent" points="-4,4 -4,-760 1018,-760 1018,4 -4,4"/>
<!-- start -->
<g id="node1" class="node">
<title>start</title>
<ellipse fill="none" stroke="black" cx="192.5" cy="-738" rx="33.29" ry="18"/>
<text text-anchor="middle" x="192.5" y="-734.3" font-family="Times,serif" font-size="14.00">start</text>
</g>
<!-- a -->
<g id="node2" class="node">
<title>a</title>
<polygon fill="none" stroke="black" points="258.5,-684 126.5,-684 126.5,-648 258.5,-648 258.5,-684"/>
<text text-anchor="middle" x="192.5" y="-662.3" font-family="Times,serif" font-size="14.00">methods = list()</text>
</g>
<!-- start&#45;&gt;a -->
<g id="edge1" class="edge">
<title>start&#45;&gt;a</title>
<path fill="none" stroke="black" d="M192.5,-719.7C192.5,-711.98 192.5,-702.71 192.5,-694.11"/>
<polygon fill="black" stroke="black" points="196,-694.1 192.5,-684.1 189,-694.1 196,-694.1"/>
</g>
<!-- for -->
<g id="node3" class="node">
<title>for</title>
<ellipse fill="none" stroke="black" cx="192.5" cy="-594" rx="27" ry="18"/>
<text text-anchor="middle" x="192.5" y="-590.3" font-family="Times,serif" font-size="14.00">for</text>
</g>
<!-- a&#45;&gt;for -->
<g id="edge2" class="edge">
<title>a&#45;&gt;for</title>
<path fill="none" stroke="black" d="M192.5,-647.7C192.5,-639.98 192.5,-630.71 192.5,-622.11"/>
<polygon fill="black" stroke="black" points="196,-622.1 192.5,-612.1 189,-622.1 196,-622.1"/>
</g>
<!-- b -->
<g id="node4" class="node">
<title>b</title>
<polygon fill="none" stroke="black" points="390,-180 1,-180 1,-144 390,-144 390,-180"/>
<text text-anchor="middle" x="195.5" y="-158.3" font-family="Times,serif" font-size="14.00">log_format = self.FORMAT_RE.sub(r%s, log_format)</text>
</g>
<!-- for&#45;&gt;b -->
<g id="edge3" class="edge">
<title>for&#45;&gt;b</title>
<path fill="none" stroke="black" d="M174.21,-580.47C144.13,-558.2 87.5,-508.64 87.5,-451 87.5,-451 87.5,-451 87.5,-305 87.5,-264.55 82.93,-248.87 106.5,-216 115.7,-203.17 129.05,-192.91 142.63,-184.96"/>
<polygon fill="black" stroke="black" points="144.46,-187.95 151.54,-180.07 141.09,-181.81 144.46,-187.95"/>
</g>
<!-- if -->
<g id="node7" class="node">
<title>if</title>
<ellipse fill="none" stroke="black" cx="300.5" cy="-522" rx="27" ry="18"/>
<text text-anchor="middle" x="300.5" y="-518.3" font-family="Times,serif" font-size="14.00">if</text>
</g>
<!-- for&#45;&gt;if -->
<g id="edge6" class="edge">
<title>for&#45;&gt;if</title>
<path fill="none" stroke="black" d="M211.31,-580.81C228.5,-569.67 254.12,-553.06 273.49,-540.5"/>
<polygon fill="black" stroke="black" points="275.42,-543.43 281.9,-535.05 271.61,-537.56 275.42,-543.43"/>
</g>
<!-- c -->
<g id="node5" class="node">
<title>c</title>
<polygon fill="none" stroke="black" points="391,-108 0,-108 0,-72 391,-72 391,-108"/>
<text text-anchor="middle" x="195.5" y="-86.3" font-family="Times,serif" font-size="14.00">log_format = self.CLEANUP_RE.sub(r%, log_format)</text>
</g>
<!-- b&#45;&gt;c -->
<g id="edge4" class="edge">
<title>b&#45;&gt;c</title>
<path fill="none" stroke="black" d="M195.5,-143.7C195.5,-135.98 195.5,-126.71 195.5,-118.11"/>
<polygon fill="black" stroke="black" points="199,-118.1 195.5,-108.1 192,-118.1 199,-118.1"/>
</g>
<!-- end -->
<g id="node6" class="node">
<title>end</title>
<ellipse fill="none" stroke="black" cx="195.5" cy="-18" rx="27.9" ry="18"/>
<text text-anchor="middle" x="195.5" y="-14.3" font-family="Times,serif" font-size="14.00">end</text>
</g>
<!-- c&#45;&gt;end -->
<g id="edge5" class="edge">
<title>c&#45;&gt;end</title>
<path fill="none" stroke="black" d="M195.5,-71.7C195.5,-63.98 195.5,-54.71 195.5,-46.11"/>
<polygon fill="black" stroke="black" points="199,-46.1 195.5,-36.1 192,-46.1 199,-46.1"/>
</g>
<!-- d -->
<g id="node8" class="node">
<title>d</title>
<polygon fill="none" stroke="black" points="482.5,-468 118.5,-468 118.5,-432 482.5,-432 482.5,-468"/>
<text text-anchor="middle" x="300.5" y="-446.3" font-family="Times,serif" font-size="14.00">format_key1 = self.LOG_FORMAT_MAP[atom[0]]</text>
</g>
<!-- if&#45;&gt;d -->
<g id="edge7" class="edge">
<title>if&#45;&gt;d</title>
<path fill="none" stroke="black" d="M300.5,-503.7C300.5,-495.98 300.5,-486.71 300.5,-478.11"/>
<polygon fill="black" stroke="black" points="304,-478.1 300.5,-468.1 297,-478.1 304,-478.1"/>
</g>
<!-- h -->
<g id="node12" class="node">
<title>h</title>
<polygon fill="none" stroke="black" points="1014,-468 501,-468 501,-432 1014,-432 1014,-468"/>
<text text-anchor="middle" x="757.5" y="-446.3" font-family="Times,serif" font-size="14.00">key_method = KeyMethod(format_key2,functools.partial(m, atom[1]))</text>
</g>
<!-- if&#45;&gt;h -->
<g id="edge12" class="edge">
<title>if&#45;&gt;h</title>
<path fill="none" stroke="black" d="M326.71,-516.99C385.41,-507.99 530.57,-485.76 636.21,-469.58"/>
<polygon fill="black" stroke="black" points="636.95,-473.01 646.3,-468.03 635.89,-466.09 636.95,-473.01"/>
</g>
<!-- e -->
<g id="node9" class="node">
<title>e</title>
<polygon fill="none" stroke="black" points="493.5,-396 115.5,-396 115.5,-360 493.5,-360 493.5,-396"/>
<text text-anchor="middle" x="304.5" y="-374.3" font-family="Times,serif" font-size="14.00">m = getattr(AccessLogger, _format_%s % atom[0])</text>
</g>
<!-- d&#45;&gt;e -->
<g id="edge8" class="edge">
<title>d&#45;&gt;e</title>
<path fill="none" stroke="black" d="M301.49,-431.7C301.93,-423.98 302.46,-414.71 302.95,-406.11"/>
<polygon fill="black" stroke="black" points="306.45,-406.29 303.52,-396.1 299.46,-405.89 306.45,-406.29"/>
</g>
<!-- f -->
<g id="node10" class="node">
<title>f</title>
<polygon fill="none" stroke="black" points="467.5,-324 141.5,-324 141.5,-288 467.5,-288 467.5,-324"/>
<text text-anchor="middle" x="304.5" y="-302.3" font-family="Times,serif" font-size="14.00">key_method = KeyMethod(format_key1, m)</text>
</g>
<!-- e&#45;&gt;f -->
<g id="edge9" class="edge">
<title>e&#45;&gt;f</title>
<path fill="none" stroke="black" d="M304.5,-359.7C304.5,-351.98 304.5,-342.71 304.5,-334.11"/>
<polygon fill="black" stroke="black" points="308,-334.1 304.5,-324.1 301,-334.1 308,-334.1"/>
</g>
<!-- g -->
<g id="node11" class="node">
<title>g</title>
<polygon fill="none" stroke="black" points="493.5,-252 115.5,-252 115.5,-216 493.5,-216 493.5,-252"/>
<text text-anchor="middle" x="304.5" y="-230.3" font-family="Times,serif" font-size="14.00">m = getattr(AccessLogger, _format_%s % atom[2])</text>
</g>
<!-- f&#45;&gt;g -->
<g id="edge10" class="edge">
<title>f&#45;&gt;g</title>
<path fill="none" stroke="black" d="M304.5,-287.7C304.5,-279.98 304.5,-270.71 304.5,-262.11"/>
<polygon fill="black" stroke="black" points="308,-262.1 304.5,-252.1 301,-262.1 308,-262.1"/>
</g>
<!-- g&#45;&gt;b -->
<g id="edge11" class="edge">
<title>g&#45;&gt;b</title>
<path fill="none" stroke="black" d="M277.84,-215.88C263.72,-206.81 246.19,-195.55 230.94,-185.76"/>
<polygon fill="black" stroke="black" points="232.57,-182.65 222.27,-180.19 228.79,-188.54 232.57,-182.65"/>
</g>
<!-- i -->
<g id="node13" class="node">
<title>i</title>
<polygon fill="none" stroke="black" points="873,-396 642,-396 642,-360 873,-360 873,-396"/>
<text text-anchor="middle" x="757.5" y="-374.3" font-family="Times,serif" font-size="14.00">methods.append(key_method)</text>
</g>
<!-- h&#45;&gt;i -->
<g id="edge13" class="edge">
<title>h&#45;&gt;i</title>
<path fill="none" stroke="black" d="M757.5,-431.7C757.5,-423.98 757.5,-414.71 757.5,-406.11"/>
<polygon fill="black" stroke="black" points="761,-406.1 757.5,-396.1 754,-406.1 761,-406.1"/>
</g>
<!-- j -->
<g id="node14" class="node">
<title>j</title>
<polygon fill="none" stroke="black" points="873,-324 642,-324 642,-288 873,-288 873,-324"/>
<text text-anchor="middle" x="757.5" y="-302.3" font-family="Times,serif" font-size="14.00">methods.append(key_method)</text>
</g>
<!-- i&#45;&gt;j -->
<g id="edge14" class="edge">
<title>i&#45;&gt;j</title>
<path fill="none" stroke="black" d="M757.5,-359.7C757.5,-351.98 757.5,-342.71 757.5,-334.11"/>
<polygon fill="black" stroke="black" points="761,-334.1 757.5,-324.1 754,-334.1 761,-334.1"/>
</g>
</g>
</svg>
