<?xml version="1.0" encoding="UTF-8" standalone="no"?>
<!DOCTYPE svg PUBLIC "-//W3C//DTD SVG 1.1//EN"
 "http://www.w3.org/Graphics/SVG/1.1/DTD/svg11.dtd">
<!-- Generated by graphviz version 2.43.0 (0)
 -->
<!-- Title: %3 Pages: 1 -->
<svg width="405pt" height="694pt"
 viewBox="0.00 0.00 405.00 694.00" xmlns="http://www.w3.org/2000/svg" xmlns:xlink="http://www.w3.org/1999/xlink">
<g id="graph0" class="graph" transform="scale(1 1) rotate(0) translate(4 690)">
<title>%3</title>
<polygon fill="white" stroke="transparent" points="-4,4 -4,-690 401,-690 401,4 -4,4"/>
<!-- start -->
<g id="node1" class="node">
<title>start</title>
<ellipse fill="none" stroke="black" cx="198.5" cy="-668" rx="33.29" ry="18"/>
<text text-anchor="middle" x="198.5" y="-664.3" font-family="Times,serif" font-size="14.00">start</text>
</g>
<!-- a -->
<g id="node2" class="node">
<title>a</title>
<polygon fill="none" stroke="black" points="366.5,-614 30.5,-614 30.5,-578 366.5,-578 366.5,-614"/>
<text text-anchor="middle" x="198.5" y="-592.3" font-family="Times,serif" font-size="14.00">cmd = {0} list {1}.format(_ipset_cmd(), set)</text>
</g>
<!-- start&#45;&gt;a -->
<g id="edge1" class="edge">
<title>start&#45;&gt;a</title>
<path fill="none" stroke="black" d="M198.5,-649.7C198.5,-641.98 198.5,-632.71 198.5,-624.11"/>
<polygon fill="black" stroke="black" points="202,-624.1 198.5,-614.1 195,-624.1 202,-624.1"/>
</g>
<!-- b -->
<g id="node3" class="node">
<title>b</title>
<polygon fill="none" stroke="black" points="397,-542 0,-542 0,-506 397,-506 397,-542"/>
<text text-anchor="middle" x="198.5" y="-520.3" font-family="Times,serif" font-size="14.00">out = __salt__[cmd.run_all](cmd, python_shell=False)</text>
</g>
<!-- a&#45;&gt;b -->
<g id="edge2" class="edge">
<title>a&#45;&gt;b</title>
<path fill="none" stroke="black" d="M198.5,-577.7C198.5,-569.98 198.5,-560.71 198.5,-552.11"/>
<polygon fill="black" stroke="black" points="202,-552.1 198.5,-542.1 195,-552.1 202,-552.1"/>
</g>
<!-- c -->
<g id="node4" class="node">
<title>c</title>
<polygon fill="none" stroke="black" points="295.5,-470 101.5,-470 101.5,-432 295.5,-432 295.5,-470"/>
<text text-anchor="middle" x="198.5" y="-454.8" font-family="Times,serif" font-size="14.00">_tmp = out[stdout].split(</text>
<text text-anchor="middle" x="198.5" y="-439.8" font-family="Times,serif" font-size="14.00">)</text>
</g>
<!-- b&#45;&gt;c -->
<g id="edge3" class="edge">
<title>b&#45;&gt;c</title>
<path fill="none" stroke="black" d="M198.5,-505.81C198.5,-498.11 198.5,-488.82 198.5,-480.15"/>
<polygon fill="black" stroke="black" points="202,-480.02 198.5,-470.02 195,-480.02 202,-480.02"/>
</g>
<!-- d -->
<g id="node5" class="node">
<title>d</title>
<polygon fill="none" stroke="black" points="256,-396 141,-396 141,-360 256,-360 256,-396"/>
<text text-anchor="middle" x="198.5" y="-374.3" font-family="Times,serif" font-size="14.00">members = []</text>
</g>
<!-- c&#45;&gt;d -->
<g id="edge4" class="edge">
<title>c&#45;&gt;d</title>
<path fill="none" stroke="black" d="M198.5,-431.72C198.5,-423.97 198.5,-414.79 198.5,-406.27"/>
<polygon fill="black" stroke="black" points="202,-406 198.5,-396 195,-406 202,-406"/>
</g>
<!-- e -->
<g id="node6" class="node">
<title>e</title>
<polygon fill="none" stroke="black" points="287,-324 110,-324 110,-288 287,-288 287,-324"/>
<text text-anchor="middle" x="198.5" y="-302.3" font-family="Times,serif" font-size="14.00">startMembers = False</text>
</g>
<!-- d&#45;&gt;e -->
<g id="edge5" class="edge">
<title>d&#45;&gt;e</title>
<path fill="none" stroke="black" d="M198.5,-359.7C198.5,-351.98 198.5,-342.71 198.5,-334.11"/>
<polygon fill="black" stroke="black" points="202,-334.1 198.5,-324.1 195,-334.1 202,-334.1"/>
</g>
<!-- for -->
<g id="node7" class="node">
<title>for</title>
<ellipse fill="none" stroke="black" cx="198.5" cy="-234" rx="27" ry="18"/>
<text text-anchor="middle" x="198.5" y="-230.3" font-family="Times,serif" font-size="14.00">for</text>
</g>
<!-- e&#45;&gt;for -->
<g id="edge6" class="edge">
<title>e&#45;&gt;for</title>
<path fill="none" stroke="black" d="M198.5,-287.7C198.5,-279.98 198.5,-270.71 198.5,-262.11"/>
<polygon fill="black" stroke="black" points="202,-262.1 198.5,-252.1 195,-262.1 202,-262.1"/>
</g>
<!-- if -->
<g id="node8" class="node">
<title>if</title>
<ellipse fill="none" stroke="black" cx="171.5" cy="-162" rx="27" ry="18"/>
<text text-anchor="middle" x="171.5" y="-158.3" font-family="Times,serif" font-size="14.00">if</text>
</g>
<!-- for&#45;&gt;if -->
<g id="edge7" class="edge">
<title>for&#45;&gt;if</title>
<path fill="none" stroke="black" d="M192.1,-216.41C188.99,-208.34 185.17,-198.43 181.67,-189.35"/>
<polygon fill="black" stroke="black" points="184.9,-188.03 178.04,-179.96 178.37,-190.55 184.9,-188.03"/>
</g>
<!-- end -->
<g id="node9" class="node">
<title>end</title>
<ellipse fill="none" stroke="black" cx="198.5" cy="-18" rx="27.9" ry="18"/>
<text text-anchor="middle" x="198.5" y="-14.3" font-family="Times,serif" font-size="14.00">end</text>
</g>
<!-- for&#45;&gt;end -->
<g id="edge8" class="edge">
<title>for&#45;&gt;end</title>
<path fill="none" stroke="black" d="M208.34,-216.77C224.81,-187.46 254.54,-123.92 237.5,-72 233.88,-60.98 227,-50.36 220.01,-41.56"/>
<polygon fill="black" stroke="black" points="222.51,-39.1 213.38,-33.73 217.17,-43.62 222.51,-39.1"/>
</g>
<!-- f -->
<g id="node10" class="node">
<title>f</title>
<polygon fill="none" stroke="black" points="228,-108 55,-108 55,-72 228,-72 228,-108"/>
<text text-anchor="middle" x="141.5" y="-86.3" font-family="Times,serif" font-size="14.00">startMembers = True</text>
</g>
<!-- if&#45;&gt;f -->
<g id="edge9" class="edge">
<title>if&#45;&gt;f</title>
<path fill="none" stroke="black" d="M164.39,-144.41C160.98,-136.45 156.81,-126.72 152.97,-117.76"/>
<polygon fill="black" stroke="black" points="156.13,-116.26 148.98,-108.45 149.7,-119.02 156.13,-116.26"/>
</g>
<!-- f&#45;&gt;end -->
<g id="edge10" class="edge">
<title>f&#45;&gt;end</title>
<path fill="none" stroke="black" d="M155.59,-71.7C162.83,-62.8 171.76,-51.84 179.59,-42.22"/>
<polygon fill="black" stroke="black" points="182.52,-44.17 186.12,-34.2 177.09,-39.75 182.52,-44.17"/>
</g>
</g>
</svg>
