<?xml version="1.0" encoding="UTF-8" standalone="no"?>
<!DOCTYPE svg PUBLIC "-//W3C//DTD SVG 1.1//EN"
 "http://www.w3.org/Graphics/SVG/1.1/DTD/svg11.dtd">
<!-- Generated by graphviz version 2.43.0 (0)
 -->
<!-- Title: %3 Pages: 1 -->
<svg width="808pt" height="836pt"
 viewBox="0.00 0.00 807.50 836.00" xmlns="http://www.w3.org/2000/svg" xmlns:xlink="http://www.w3.org/1999/xlink">
<g id="graph0" class="graph" transform="scale(1 1) rotate(0) translate(4 832)">
<title>%3</title>
<polygon fill="white" stroke="transparent" points="-4,4 -4,-832 803.5,-832 803.5,4 -4,4"/>
<!-- if1 -->
<g id="node1" class="node">
<title>if1</title>
<ellipse fill="none" stroke="black" cx="365.5" cy="-810" rx="27" ry="18"/>
<text text-anchor="middle" x="365.5" y="-806.3" font-family="Times,serif" font-size="14.00">if1</text>
</g>
<!-- a -->
<g id="node2" class="node">
<title>a</title>
<polygon fill="none" stroke="black" points="371,-756 0,-756 0,-720 371,-720 371,-756"/>
<text text-anchor="middle" x="185.5" y="-734.3" font-family="Times,serif" font-size="14.00">initial_mode = _get_adapter_mode_info(interface)</text>
</g>
<!-- if1&#45;&gt;a -->
<g id="edge1" class="edge">
<title>if1&#45;&gt;a</title>
<path fill="none" stroke="black" d="M342.7,-800.13C316.76,-790.05 273.51,-773.23 238.94,-759.78"/>
<polygon fill="black" stroke="black" points="240.03,-756.45 229.44,-756.09 237.49,-762.97 240.03,-756.45"/>
</g>
<!-- b -->
<g id="node7" class="node">
<title>b</title>
<polygon fill="none" stroke="black" points="701.5,-756 389.5,-756 389.5,-720 701.5,-720 701.5,-756"/>
<text text-anchor="middle" x="545.5" y="-734.3" font-family="Times,serif" font-size="14.00">service = _interface_to_service(interface)</text>
</g>
<!-- if1&#45;&gt;b -->
<g id="edge7" class="edge">
<title>if1&#45;&gt;b</title>
<path fill="none" stroke="black" d="M388.3,-800.13C414.24,-790.05 457.49,-773.23 492.06,-759.78"/>
<polygon fill="black" stroke="black" points="493.51,-762.97 501.56,-756.09 490.97,-756.45 493.51,-762.97"/>
</g>
<!-- if2 -->
<g id="node3" class="node">
<title>if2</title>
<ellipse fill="none" stroke="black" cx="230.5" cy="-162" rx="27" ry="18"/>
<text text-anchor="middle" x="230.5" y="-158.3" font-family="Times,serif" font-size="14.00">if2</text>
</g>
<!-- a&#45;&gt;if2 -->
<g id="edge2" class="edge">
<title>a&#45;&gt;if2</title>
<path fill="none" stroke="black" d="M191.77,-719.78C200.83,-693.32 216.5,-640.92 216.5,-595 216.5,-595 216.5,-595 216.5,-305 216.5,-264.8 222.12,-218.51 226.24,-190"/>
<polygon fill="black" stroke="black" points="229.72,-190.4 227.73,-180 222.8,-189.37 229.72,-190.4"/>
</g>
<!-- block2 -->
<g id="node4" class="node">
<title>block2</title>
<ellipse fill="none" stroke="black" cx="230.5" cy="-90" rx="40.89" ry="18"/>
<text text-anchor="middle" x="230.5" y="-86.3" font-family="Times,serif" font-size="14.00">block2</text>
</g>
<!-- if2&#45;&gt;block2 -->
<g id="edge3" class="edge">
<title>if2&#45;&gt;block2</title>
<path fill="none" stroke="black" d="M230.5,-143.7C230.5,-135.98 230.5,-126.71 230.5,-118.11"/>
<polygon fill="black" stroke="black" points="234,-118.1 230.5,-108.1 227,-118.1 234,-118.1"/>
</g>
<!-- block3 -->
<g id="node5" class="node">
<title>block3</title>
<ellipse fill="none" stroke="black" cx="330.5" cy="-90" rx="40.89" ry="18"/>
<text text-anchor="middle" x="330.5" y="-86.3" font-family="Times,serif" font-size="14.00">block3</text>
</g>
<!-- if2&#45;&gt;block3 -->
<g id="edge4" class="edge">
<title>if2&#45;&gt;block3</title>
<path fill="none" stroke="black" d="M248.38,-148.49C263.02,-138.24 284.03,-123.53 301.13,-111.56"/>
<polygon fill="black" stroke="black" points="303.48,-114.19 309.66,-105.59 299.46,-108.45 303.48,-114.19"/>
</g>
<!-- end -->
<g id="node6" class="node">
<title>end</title>
<ellipse fill="none" stroke="black" cx="364.5" cy="-18" rx="27.9" ry="18"/>
<text text-anchor="middle" x="364.5" y="-14.3" font-family="Times,serif" font-size="14.00">end</text>
</g>
<!-- block2&#45;&gt;end -->
<g id="edge5" class="edge">
<title>block2&#45;&gt;end</title>
<path fill="none" stroke="black" d="M256.02,-75.67C278.41,-63.97 310.99,-46.95 334.6,-34.62"/>
<polygon fill="black" stroke="black" points="336.24,-37.71 343.48,-29.98 332.99,-31.51 336.24,-37.71"/>
</g>
<!-- block3&#45;&gt;end -->
<g id="edge6" class="edge">
<title>block3&#45;&gt;end</title>
<path fill="none" stroke="black" d="M338.73,-72.05C342.76,-63.77 347.69,-53.62 352.15,-44.42"/>
<polygon fill="black" stroke="black" points="355.36,-45.83 356.58,-35.31 349.06,-42.77 355.36,-45.83"/>
</g>
<!-- c -->
<g id="node8" class="node">
<title>c</title>
<polygon fill="none" stroke="black" points="799.5,-684 259.5,-684 259.5,-648 799.5,-648 799.5,-684"/>
<text text-anchor="middle" x="529.5" y="-662.3" font-family="Times,serif" font-size="14.00">service = pyconnman.ConnService(os.path.join(SERVICE_PATH, service))</text>
</g>
<!-- b&#45;&gt;c -->
<g id="edge8" class="edge">
<title>b&#45;&gt;c</title>
<path fill="none" stroke="black" d="M541.54,-719.7C539.78,-711.98 537.66,-702.71 535.7,-694.11"/>
<polygon fill="black" stroke="black" points="539.05,-693.07 533.41,-684.1 532.23,-694.63 539.05,-693.07"/>
</g>
<!-- d -->
<g id="node9" class="node">
<title>d</title>
<polygon fill="none" stroke="black" points="709,-612 348,-612 348,-576 709,-576 709,-612"/>
<text text-anchor="middle" x="528.5" y="-590.3" font-family="Times,serif" font-size="14.00">ipv4 = service.get_property(IPv4.Configuration)</text>
</g>
<!-- c&#45;&gt;d -->
<g id="edge9" class="edge">
<title>c&#45;&gt;d</title>
<path fill="none" stroke="black" d="M529.25,-647.7C529.14,-639.98 529.01,-630.71 528.89,-622.11"/>
<polygon fill="black" stroke="black" points="532.39,-622.05 528.74,-612.1 525.39,-622.15 532.39,-622.05"/>
</g>
<!-- e -->
<g id="node10" class="node">
<title>e</title>
<polygon fill="none" stroke="black" points="719.5,-540 335.5,-540 335.5,-504 719.5,-504 719.5,-540"/>
<text text-anchor="middle" x="527.5" y="-518.3" font-family="Times,serif" font-size="14.00">ipv4[Method] = dbus.String(dhcp, variant_level=1)</text>
</g>
<!-- d&#45;&gt;e -->
<g id="edge10" class="edge">
<title>d&#45;&gt;e</title>
<path fill="none" stroke="black" d="M528.25,-575.7C528.14,-567.98 528.01,-558.71 527.89,-550.11"/>
<polygon fill="black" stroke="black" points="531.39,-550.05 527.74,-540.1 524.39,-550.15 531.39,-550.05"/>
</g>
<!-- f -->
<g id="node11" class="node">
<title>f</title>
<polygon fill="none" stroke="black" points="690,-468 337,-468 337,-432 690,-432 690,-468"/>
<text text-anchor="middle" x="513.5" y="-446.3" font-family="Times,serif" font-size="14.00">ipv4[Address] = dbus.String(, variant_level=1)</text>
</g>
<!-- e&#45;&gt;f -->
<g id="edge11" class="edge">
<title>e&#45;&gt;f</title>
<path fill="none" stroke="black" d="M524.04,-503.7C522.5,-495.98 520.64,-486.71 518.92,-478.11"/>
<polygon fill="black" stroke="black" points="522.31,-477.22 516.92,-468.1 515.45,-478.6 522.31,-477.22"/>
</g>
<!-- g -->
<g id="node12" class="node">
<title>g</title>
<polygon fill="none" stroke="black" points="691,-396 332,-396 332,-360 691,-360 691,-396"/>
<text text-anchor="middle" x="511.5" y="-374.3" font-family="Times,serif" font-size="14.00">ipv4[Netmask] = dbus.String(, variant_level=1)</text>
</g>
<!-- f&#45;&gt;g -->
<g id="edge12" class="edge">
<title>f&#45;&gt;g</title>
<path fill="none" stroke="black" d="M513.01,-431.7C512.79,-423.98 512.52,-414.71 512.27,-406.11"/>
<polygon fill="black" stroke="black" points="515.77,-406 511.99,-396.1 508.78,-406.2 515.77,-406"/>
</g>
<!-- h -->
<g id="node13" class="node">
<title>h</title>
<polygon fill="none" stroke="black" points="683,-324 326,-324 326,-288 683,-288 683,-324"/>
<text text-anchor="middle" x="504.5" y="-302.3" font-family="Times,serif" font-size="14.00">ipv4[Gateway] = dbus.String(, variant_level=1)</text>
</g>
<!-- g&#45;&gt;h -->
<g id="edge13" class="edge">
<title>g&#45;&gt;h</title>
<path fill="none" stroke="black" d="M509.77,-359.7C509,-351.98 508.07,-342.71 507.21,-334.11"/>
<polygon fill="black" stroke="black" points="510.69,-333.71 506.21,-324.1 503.72,-334.4 510.69,-333.71"/>
</g>
<!-- try -->
<g id="node14" class="node">
<title>try</title>
<ellipse fill="none" stroke="black" cx="500.5" cy="-234" rx="27" ry="18"/>
<text text-anchor="middle" x="500.5" y="-230.3" font-family="Times,serif" font-size="14.00">try</text>
</g>
<!-- h&#45;&gt;try -->
<g id="edge14" class="edge">
<title>h&#45;&gt;try</title>
<path fill="none" stroke="black" d="M503.51,-287.7C503.07,-279.98 502.54,-270.71 502.05,-262.11"/>
<polygon fill="black" stroke="black" points="505.54,-261.89 501.48,-252.1 498.55,-262.29 505.54,-261.89"/>
</g>
<!-- block4 -->
<g id="node15" class="node">
<title>block4</title>
<ellipse fill="none" stroke="black" cx="399.5" cy="-162" rx="40.89" ry="18"/>
<text text-anchor="middle" x="399.5" y="-158.3" font-family="Times,serif" font-size="14.00">block4</text>
</g>
<!-- try&#45;&gt;block4 -->
<g id="edge15" class="edge">
<title>try&#45;&gt;block4</title>
<path fill="none" stroke="black" d="M482.44,-220.49C467.66,-210.24 446.44,-195.53 429.16,-183.56"/>
<polygon fill="black" stroke="black" points="430.76,-180.4 420.54,-177.59 426.77,-186.16 430.76,-180.4"/>
</g>
<!-- except -->
<g id="node16" class="node">
<title>except</title>
<ellipse fill="none" stroke="black" cx="500.5" cy="-162" rx="41.69" ry="18"/>
<text text-anchor="middle" x="500.5" y="-158.3" font-family="Times,serif" font-size="14.00">except</text>
</g>
<!-- try&#45;&gt;except -->
<g id="edge16" class="edge">
<title>try&#45;&gt;except</title>
<path fill="none" stroke="black" d="M500.5,-215.7C500.5,-207.98 500.5,-198.71 500.5,-190.11"/>
<polygon fill="black" stroke="black" points="504,-190.1 500.5,-180.1 497,-190.1 504,-190.1"/>
</g>
<!-- block4&#45;&gt;end -->
<g id="edge19" class="edge">
<title>block4&#45;&gt;end</title>
<path fill="none" stroke="black" d="M396.28,-143.84C392.79,-125.84 386.88,-96.79 380.5,-72 378.29,-63.4 375.59,-54.1 373.04,-45.73"/>
<polygon fill="black" stroke="black" points="376.35,-44.6 370.05,-36.08 369.67,-46.67 376.35,-44.6"/>
</g>
<!-- i -->
<g id="node17" class="node">
<title>i</title>
<polygon fill="none" stroke="black" points="522,-108 445,-108 445,-72 522,-72 522,-108"/>
<text text-anchor="middle" x="483.5" y="-86.3" font-family="Times,serif" font-size="14.00">exc_msg</text>
</g>
<!-- except&#45;&gt;i -->
<g id="edge17" class="edge">
<title>except&#45;&gt;i</title>
<path fill="none" stroke="black" d="M496.38,-144.05C494.49,-136.26 492.2,-126.82 490.08,-118.08"/>
<polygon fill="black" stroke="black" points="493.46,-117.17 487.7,-108.28 486.65,-118.82 493.46,-117.17"/>
</g>
<!-- i&#45;&gt;end -->
<g id="edge18" class="edge">
<title>i&#45;&gt;end</title>
<path fill="none" stroke="black" d="M454.39,-71.88C435.79,-60.93 411.77,-46.81 393.24,-35.91"/>
<polygon fill="black" stroke="black" points="394.77,-32.74 384.37,-30.69 391.22,-38.78 394.77,-32.74"/>
</g>
</g>
</svg>
