<?xml version="1.0" encoding="UTF-8" standalone="no"?>
<!DOCTYPE svg PUBLIC "-//W3C//DTD SVG 1.1//EN"
 "http://www.w3.org/Graphics/SVG/1.1/DTD/svg11.dtd">
<!-- Generated by graphviz version 7.1.0 (20230121.1956)
 -->
<!-- Pages: 1 -->
<svg width="148pt" height="620pt"
 viewBox="0.00 0.00 147.50 620.00" xmlns="http://www.w3.org/2000/svg" xmlns:xlink="http://www.w3.org/1999/xlink">
<g id="graph0" class="graph" transform="scale(1 1) rotate(0) translate(4 616)">
<polygon fill="white" stroke="none" points="-4,4 -4,-616 143.5,-616 143.5,4 -4,4"/>
<!-- start -->
<g id="node1" class="node">
<title>start</title>
<ellipse fill="none" stroke="black" cx="101" cy="-594" rx="27" ry="18"/>
<text text-anchor="middle" x="101" y="-590.3" font-family="Times,serif" font-size="14.00">start</text>
</g>
<!-- a -->
<g id="node2" class="node">
<title>a</title>
<polygon fill="none" stroke="black" points="139.5,-540 62.5,-540 62.5,-504 139.5,-504 139.5,-540"/>
<text text-anchor="middle" x="101" y="-518.3" font-family="Times,serif" font-size="14.00">asserts = []</text>
</g>
<!-- start&#45;&gt;a -->
<g id="edge1" class="edge">
<title>start&#45;&gt;a</title>
<path fill="none" stroke="black" d="M101,-575.7C101,-568.41 101,-559.73 101,-551.54"/>
<polygon fill="black" stroke="black" points="104.5,-551.62 101,-541.62 97.5,-551.62 104.5,-551.62"/>
</g>
<!-- if1 -->
<g id="node3" class="node">
<title>if1</title>
<ellipse fill="none" stroke="black" cx="101" cy="-450" rx="27" ry="18"/>
<text text-anchor="middle" x="101" y="-446.3" font-family="Times,serif" font-size="14.00">if1</text>
</g>
<!-- a&#45;&gt;if1 -->
<g id="edge2" class="edge">
<title>a&#45;&gt;if1</title>
<path fill="none" stroke="black" d="M101,-503.7C101,-496.41 101,-487.73 101,-479.54"/>
<polygon fill="black" stroke="black" points="104.5,-479.62 101,-469.62 97.5,-479.62 104.5,-479.62"/>
</g>
<!-- b -->
<g id="node4" class="node">
<title>b</title>
<polygon fill="none" stroke="black" points="116,-396 0,-396 0,-360 116,-360 116,-396"/>
<text text-anchor="middle" x="58" y="-374.3" font-family="Times,serif" font-size="14.00">asserts.append(...)</text>
</g>
<!-- if1&#45;&gt;b -->
<g id="edge3" class="edge">
<title>if1&#45;&gt;b</title>
<path fill="none" stroke="black" d="M91.03,-432.76C86.12,-424.78 80.09,-414.95 74.52,-405.89"/>
<polygon fill="black" stroke="black" points="77.53,-404.1 69.31,-397.41 71.56,-407.77 77.53,-404.1"/>
</g>
<!-- c -->
<g id="node5" class="node">
<title>c</title>
<ellipse fill="none" stroke="black" cx="101" cy="-306" rx="27" ry="18"/>
<text text-anchor="middle" x="101" y="-302.3" font-family="Times,serif" font-size="14.00">c</text>
</g>
<!-- if1&#45;&gt;c -->
<g id="edge5" class="edge">
<title>if1&#45;&gt;c</title>
<path fill="none" stroke="black" d="M110.46,-432.92C115.89,-422.72 122.19,-409.03 125,-396 128.38,-380.36 128.38,-375.64 125,-360 123.04,-350.94 119.41,-341.56 115.54,-333.26"/>
<polygon fill="black" stroke="black" points="118.74,-331.82 111.13,-324.44 112.47,-334.95 118.74,-331.82"/>
</g>
<!-- b&#45;&gt;c -->
<g id="edge4" class="edge">
<title>b&#45;&gt;c</title>
<path fill="none" stroke="black" d="M68.63,-359.7C73.62,-351.58 79.66,-341.74 85.17,-332.76"/>
<polygon fill="black" stroke="black" points="88.04,-334.79 90.29,-324.43 82.07,-331.12 88.04,-334.79"/>
</g>
<!-- if2 -->
<g id="node6" class="node">
<title>if2</title>
<ellipse fill="none" stroke="black" cx="101" cy="-234" rx="27" ry="18"/>
<text text-anchor="middle" x="101" y="-230.3" font-family="Times,serif" font-size="14.00">if2</text>
</g>
<!-- c&#45;&gt;if2 -->
<g id="edge6" class="edge">
<title>c&#45;&gt;if2</title>
<path fill="none" stroke="black" d="M101,-287.7C101,-280.41 101,-271.73 101,-263.54"/>
<polygon fill="black" stroke="black" points="104.5,-263.62 101,-253.62 97.5,-263.62 104.5,-263.62"/>
</g>
<!-- d -->
<g id="node7" class="node">
<title>d</title>
<polygon fill="none" stroke="black" points="116,-180 0,-180 0,-144 116,-144 116,-180"/>
<text text-anchor="middle" x="58" y="-158.3" font-family="Times,serif" font-size="14.00">asserts.append(...)</text>
</g>
<!-- if2&#45;&gt;d -->
<g id="edge7" class="edge">
<title>if2&#45;&gt;d</title>
<path fill="none" stroke="black" d="M91.03,-216.76C86.12,-208.78 80.09,-198.95 74.52,-189.89"/>
<polygon fill="black" stroke="black" points="77.53,-188.1 69.31,-181.41 71.56,-191.77 77.53,-188.1"/>
</g>
<!-- e -->
<g id="node8" class="node">
<title>e</title>
<ellipse fill="none" stroke="black" cx="101" cy="-90" rx="27" ry="18"/>
<text text-anchor="middle" x="101" y="-86.3" font-family="Times,serif" font-size="14.00">e</text>
</g>
<!-- if2&#45;&gt;e -->
<g id="edge9" class="edge">
<title>if2&#45;&gt;e</title>
<path fill="none" stroke="black" d="M110.46,-216.92C115.89,-206.72 122.19,-193.03 125,-180 128.38,-164.36 128.38,-159.64 125,-144 123.04,-134.94 119.41,-125.56 115.54,-117.26"/>
<polygon fill="black" stroke="black" points="118.74,-115.82 111.13,-108.44 112.47,-118.95 118.74,-115.82"/>
</g>
<!-- d&#45;&gt;e -->
<g id="edge8" class="edge">
<title>d&#45;&gt;e</title>
<path fill="none" stroke="black" d="M68.63,-143.7C73.62,-135.58 79.66,-125.74 85.17,-116.76"/>
<polygon fill="black" stroke="black" points="88.04,-118.79 90.29,-108.43 82.07,-115.12 88.04,-118.79"/>
</g>
<!-- end -->
<g id="node9" class="node">
<title>end</title>
<ellipse fill="none" stroke="black" cx="101" cy="-18" rx="27" ry="18"/>
<text text-anchor="middle" x="101" y="-14.3" font-family="Times,serif" font-size="14.00">end</text>
</g>
<!-- e&#45;&gt;end -->
<g id="edge10" class="edge">
<title>e&#45;&gt;end</title>
<path fill="none" stroke="black" d="M101,-71.7C101,-64.41 101,-55.73 101,-47.54"/>
<polygon fill="black" stroke="black" points="104.5,-47.62 101,-37.62 97.5,-47.62 104.5,-47.62"/>
</g>
</g>
</svg>
