<?xml version="1.0" encoding="UTF-8" standalone="no"?>
<!DOCTYPE svg PUBLIC "-//W3C//DTD SVG 1.1//EN"
 "http://www.w3.org/Graphics/SVG/1.1/DTD/svg11.dtd">
<!-- Generated by graphviz version 2.43.0 (0)
 -->
<!-- Title: %3 Pages: 1 -->
<svg width="420pt" height="548pt"
 viewBox="0.00 0.00 419.50 548.00" xmlns="http://www.w3.org/2000/svg" xmlns:xlink="http://www.w3.org/1999/xlink">
<g id="graph0" class="graph" transform="scale(1 1) rotate(0) translate(4 544)">
<title>%3</title>
<polygon fill="white" stroke="transparent" points="-4,4 -4,-544 415.5,-544 415.5,4 -4,4"/>
<!-- start -->
<g id="node1" class="node">
<title>start</title>
<ellipse fill="none" stroke="black" cx="230" cy="-522" rx="33.29" ry="18"/>
<text text-anchor="middle" x="230" y="-518.3" font-family="Times,serif" font-size="14.00">start</text>
</g>
<!-- a -->
<g id="node2" class="node">
<title>a</title>
<polygon fill="none" stroke="black" points="392,-468 68,-468 68,-432 392,-432 392,-468"/>
<text text-anchor="middle" x="230" y="-446.3" font-family="Times,serif" font-size="14.00">wait_timeout = time.time() + wait_timeout</text>
</g>
<!-- start&#45;&gt;a -->
<g id="edge1" class="edge">
<title>start&#45;&gt;a</title>
<path fill="none" stroke="black" d="M230,-503.7C230,-495.98 230,-486.71 230,-478.11"/>
<polygon fill="black" stroke="black" points="233.5,-478.1 230,-468.1 226.5,-478.1 233.5,-478.1"/>
</g>
<!-- while1 -->
<g id="node3" class="node">
<title>while1</title>
<polygon fill="none" stroke="black" points="361,-396 99,-396 99,-360 361,-360 361,-396"/>
<text text-anchor="middle" x="230" y="-374.3" font-family="Times,serif" font-size="14.00">while: wait_timeout &gt; time.time() </text>
</g>
<!-- a&#45;&gt;while1 -->
<g id="edge2" class="edge">
<title>a&#45;&gt;while1</title>
<path fill="none" stroke="black" d="M230,-431.7C230,-423.98 230,-414.71 230,-406.11"/>
<polygon fill="black" stroke="black" points="233.5,-406.1 230,-396.1 226.5,-406.1 233.5,-406.1"/>
</g>
<!-- b -->
<g id="node4" class="node">
<title>b</title>
<polygon fill="none" stroke="black" points="288,-324 0,-324 0,-288 288,-288 288,-324"/>
<text text-anchor="middle" x="144" y="-302.3" font-family="Times,serif" font-size="14.00">operation_result = conn.get_request()</text>
</g>
<!-- while1&#45;&gt;b -->
<g id="edge3" class="edge">
<title>while1&#45;&gt;b</title>
<path fill="none" stroke="black" d="M208.74,-359.7C197.91,-350.88 184.58,-340.03 172.84,-330.47"/>
<polygon fill="black" stroke="black" points="174.98,-327.7 165.01,-324.1 170.56,-333.13 174.98,-327.7"/>
</g>
<!-- block1 -->
<g id="node5" class="node">
<title>block1</title>
<ellipse fill="none" stroke="black" cx="230" cy="-234" rx="40.89" ry="18"/>
<text text-anchor="middle" x="230" y="-230.3" font-family="Times,serif" font-size="14.00">block1</text>
</g>
<!-- b&#45;&gt;block1 -->
<g id="edge5" class="edge">
<title>b&#45;&gt;block1</title>
<path fill="none" stroke="black" d="M165.26,-287.7C176.74,-278.35 191.02,-266.73 203.25,-256.78"/>
<polygon fill="black" stroke="black" points="205.78,-259.23 211.32,-250.2 201.36,-253.8 205.78,-259.23"/>
</g>
<!-- block1&#45;&gt;while1 -->
<g id="edge6" class="edge">
<title>block1&#45;&gt;while1</title>
<path fill="none" stroke="black" d="M256.27,-248.06C271.19,-257.04 288.54,-270.51 297,-288 303.97,-302.4 303.97,-309.6 297,-324 291.24,-335.9 281.36,-345.94 270.94,-353.98"/>
<polygon fill="black" stroke="black" points="268.63,-351.32 262.53,-359.98 272.7,-357.02 268.63,-351.32"/>
</g>
<!-- if1 -->
<g id="node6" class="node">
<title>if1</title>
<polygon fill="none" stroke="black" points="411.5,-180 48.5,-180 48.5,-144 411.5,-144 411.5,-180"/>
<text text-anchor="middle" x="230" y="-158.3" font-family="Times,serif" font-size="14.00">if: operation_result[metadata][status] == DONE</text>
</g>
<!-- block1&#45;&gt;if1 -->
<g id="edge4" class="edge">
<title>block1&#45;&gt;if1</title>
<path fill="none" stroke="black" d="M230,-215.7C230,-207.98 230,-198.71 230,-190.11"/>
<polygon fill="black" stroke="black" points="233.5,-190.1 230,-180.1 226.5,-190.1 233.5,-190.1"/>
</g>
<!-- end -->
<g id="node7" class="node">
<title>end</title>
<ellipse fill="none" stroke="black" cx="230" cy="-18" rx="27.9" ry="18"/>
<text text-anchor="middle" x="230" y="-14.3" font-family="Times,serif" font-size="14.00">end</text>
</g>
<!-- if1&#45;&gt;end -->
<g id="edge7" class="edge">
<title>if1&#45;&gt;end</title>
<path fill="none" stroke="black" d="M223.76,-143.59C220.43,-133.37 216.68,-120.12 215,-108 212.8,-92.15 212.8,-87.85 215,-72 216.21,-63.25 218.51,-53.9 220.94,-45.54"/>
<polygon fill="black" stroke="black" points="224.3,-46.52 223.92,-35.93 217.62,-44.45 224.3,-46.52"/>
</g>
<!-- block2 -->
<g id="node8" class="node">
<title>block2</title>
<ellipse fill="none" stroke="black" cx="265" cy="-90" rx="40.89" ry="18"/>
<text text-anchor="middle" x="265" y="-86.3" font-family="Times,serif" font-size="14.00">block2</text>
</g>
<!-- if1&#45;&gt;block2 -->
<g id="edge8" class="edge">
<title>if1&#45;&gt;block2</title>
<path fill="none" stroke="black" d="M238.65,-143.7C242.64,-135.73 247.45,-126.1 251.87,-117.26"/>
<polygon fill="black" stroke="black" points="255.11,-118.61 256.45,-108.1 248.85,-115.48 255.11,-118.61"/>
</g>
<!-- block2&#45;&gt;end -->
<g id="edge9" class="edge">
<title>block2&#45;&gt;end</title>
<path fill="none" stroke="black" d="M256.53,-72.05C252.38,-63.77 247.31,-53.62 242.71,-44.42"/>
<polygon fill="black" stroke="black" points="245.76,-42.69 238.15,-35.31 239.5,-45.82 245.76,-42.69"/>
</g>
</g>
</svg>
