<?xml version="1.0" encoding="UTF-8" standalone="no"?>
<!DOCTYPE svg PUBLIC "-//W3C//DTD SVG 1.1//EN"
 "http://www.w3.org/Graphics/SVG/1.1/DTD/svg11.dtd">
<!-- Generated by graphviz version 7.1.0 (20230121.1956)
 -->
<!-- Pages: 1 -->
<svg width="247pt" height="548pt"
 viewBox="0.00 0.00 247.00 548.00" xmlns="http://www.w3.org/2000/svg" xmlns:xlink="http://www.w3.org/1999/xlink">
<g id="graph0" class="graph" transform="scale(1 1) rotate(0) translate(4 544)">
<polygon fill="white" stroke="none" points="-4,4 -4,-544 243,-544 243,4 -4,4"/>
<!-- start -->
<g id="node1" class="node">
<title>start</title>
<ellipse fill="none" stroke="black" cx="119.5" cy="-522" rx="27" ry="18"/>
<text text-anchor="middle" x="119.5" y="-518.3" font-family="Times,serif" font-size="14.00">start</text>
</g>
<!-- a -->
<g id="node2" class="node">
<title>a</title>
<polygon fill="none" stroke="black" points="193.5,-468 45.5,-468 45.5,-432 193.5,-432 193.5,-468"/>
<text text-anchor="middle" x="119.5" y="-446.3" font-family="Times,serif" font-size="14.00">df = data_to_pandas(...)</text>
</g>
<!-- start&#45;&gt;a -->
<g id="edge1" class="edge">
<title>start&#45;&gt;a</title>
<path fill="none" stroke="black" d="M119.5,-503.7C119.5,-496.41 119.5,-487.73 119.5,-479.54"/>
<polygon fill="black" stroke="black" points="123,-479.62 119.5,-469.62 116,-479.62 123,-479.62"/>
</g>
<!-- if1 -->
<g id="node3" class="node">
<title>if1</title>
<polygon fill="none" stroke="black" points="119.5,-396 92.5,-378 119.5,-360 146.5,-378 119.5,-396"/>
<text text-anchor="middle" x="119.5" y="-374.3" font-family="Times,serif" font-size="14.00">if</text>
</g>
<!-- a&#45;&gt;if1 -->
<g id="edge2" class="edge">
<title>a&#45;&gt;if1</title>
<path fill="none" stroke="black" d="M119.5,-431.7C119.5,-424.52 119.5,-415.99 119.5,-407.9"/>
<polygon fill="black" stroke="black" points="123,-408.1 119.5,-398.1 116,-408.1 123,-408.1"/>
</g>
<!-- b -->
<g id="node4" class="node">
<title>b</title>
<polygon fill="none" stroke="black" points="128,-252 3,-252 3,-216 128,-216 128,-252"/>
<text text-anchor="middle" x="65.5" y="-230.3" font-family="Times,serif" font-size="14.00">df = DataFrame(...)</text>
</g>
<!-- if1&#45;&gt;b -->
<g id="edge3" class="edge">
<title>if1&#45;&gt;b</title>
<path fill="none" stroke="black" d="M114.22,-363.13C105.42,-339.98 87.58,-293.07 76.1,-262.88"/>
<polygon fill="black" stroke="black" points="79.41,-261.74 72.59,-253.63 72.87,-264.22 79.41,-261.74"/>
</g>
<!-- else1 -->
<g id="node6" class="node">
<title>else1</title>
<polygon fill="none" stroke="black" points="163.5,-324 123.11,-306 163.5,-288 203.89,-306 163.5,-324"/>
<text text-anchor="middle" x="163.5" y="-302.3" font-family="Times,serif" font-size="14.00">else1</text>
</g>
<!-- if1&#45;&gt;else1 -->
<g id="edge5" class="edge">
<title>if1&#45;&gt;else1</title>
<path fill="none" stroke="black" d="M127.16,-364.81C133.18,-355.23 141.73,-341.63 149.03,-330.02"/>
<polygon fill="black" stroke="black" points="151.86,-332.1 154.22,-321.77 145.93,-328.37 151.86,-332.1"/>
</g>
<!-- c -->
<g id="node5" class="node">
<title>c</title>
<ellipse fill="none" stroke="black" cx="119.5" cy="-162" rx="27" ry="18"/>
<text text-anchor="middle" x="119.5" y="-158.3" font-family="Times,serif" font-size="14.00">c</text>
</g>
<!-- b&#45;&gt;c -->
<g id="edge4" class="edge">
<title>b&#45;&gt;c</title>
<path fill="none" stroke="black" d="M78.85,-215.7C85.5,-207.07 93.65,-196.5 100.91,-187.1"/>
<polygon fill="black" stroke="black" points="103.51,-189.46 106.85,-179.4 97.97,-185.18 103.51,-189.46"/>
</g>
<!-- e -->
<g id="node8" class="node">
<title>e</title>
<polygon fill="none" stroke="black" points="239,-108 0,-108 0,-72 239,-72 239,-108"/>
<text text-anchor="middle" x="119.5" y="-86.3" font-family="Times,serif" font-size="14.00">df.index = index; df.columns = columns</text>
</g>
<!-- c&#45;&gt;e -->
<g id="edge8" class="edge">
<title>c&#45;&gt;e</title>
<path fill="none" stroke="black" d="M119.5,-143.7C119.5,-136.41 119.5,-127.73 119.5,-119.54"/>
<polygon fill="black" stroke="black" points="123,-119.62 119.5,-109.62 116,-119.62 123,-119.62"/>
</g>
<!-- d -->
<g id="node7" class="node">
<title>d</title>
<ellipse fill="none" stroke="black" cx="173.5" cy="-234" rx="27" ry="18"/>
<text text-anchor="middle" x="173.5" y="-230.3" font-family="Times,serif" font-size="14.00">d</text>
</g>
<!-- else1&#45;&gt;d -->
<g id="edge6" class="edge">
<title>else1&#45;&gt;d</title>
<path fill="none" stroke="black" d="M165.82,-288.76C166.9,-281.21 168.21,-272 169.45,-263.36"/>
<polygon fill="black" stroke="black" points="172.89,-264.02 170.84,-253.62 165.96,-263.03 172.89,-264.02"/>
</g>
<!-- d&#45;&gt;c -->
<g id="edge7" class="edge">
<title>d&#45;&gt;c</title>
<path fill="none" stroke="black" d="M161.52,-217.46C154.73,-208.67 146.1,-197.48 138.42,-187.53"/>
<polygon fill="black" stroke="black" points="141.25,-185.47 132.38,-179.69 135.71,-189.75 141.25,-185.47"/>
</g>
<!-- end -->
<g id="node9" class="node">
<title>end</title>
<ellipse fill="none" stroke="black" cx="119.5" cy="-18" rx="27" ry="18"/>
<text text-anchor="middle" x="119.5" y="-14.3" font-family="Times,serif" font-size="14.00">end</text>
</g>
<!-- e&#45;&gt;end -->
<g id="edge9" class="edge">
<title>e&#45;&gt;end</title>
<path fill="none" stroke="black" d="M119.5,-71.7C119.5,-64.41 119.5,-55.73 119.5,-47.54"/>
<polygon fill="black" stroke="black" points="123,-47.62 119.5,-37.62 116,-47.62 123,-47.62"/>
</g>
</g>
</svg>
