<?xml version="1.0" encoding="UTF-8" standalone="no"?>
<!DOCTYPE svg PUBLIC "-//W3C//DTD SVG 1.1//EN"
 "http://www.w3.org/Graphics/SVG/1.1/DTD/svg11.dtd">
<!-- Generated by graphviz version 2.43.0 (0)
 -->
<!-- Title: %3 Pages: 1 -->
<svg width="815pt" height="908pt"
 viewBox="0.00 0.00 815.00 908.00" xmlns="http://www.w3.org/2000/svg" xmlns:xlink="http://www.w3.org/1999/xlink">
<g id="graph0" class="graph" transform="scale(1 1) rotate(0) translate(4 904)">
<title>%3</title>
<polygon fill="white" stroke="transparent" points="-4,4 -4,-904 811,-904 811,4 -4,4"/>
<!-- start -->
<g id="node1" class="node">
<title>start</title>
<ellipse fill="none" stroke="black" cx="246" cy="-882" rx="33.29" ry="18"/>
<text text-anchor="middle" x="246" y="-878.3" font-family="Times,serif" font-size="14.00">start</text>
</g>
<!-- a -->
<g id="node2" class="node">
<title>a</title>
<polygon fill="none" stroke="black" points="377,-828 115,-828 115,-792 377,-792 377,-828"/>
<text text-anchor="middle" x="246" y="-806.3" font-family="Times,serif" font-size="14.00">typs = get_dtype_kinds(to_concat)</text>
</g>
<!-- start&#45;&gt;a -->
<g id="edge1" class="edge">
<title>start&#45;&gt;a</title>
<path fill="none" stroke="black" d="M246,-863.7C246,-855.98 246,-846.71 246,-838.11"/>
<polygon fill="black" stroke="black" points="249.5,-838.1 246,-828.1 242.5,-838.1 249.5,-838.1"/>
</g>
<!-- b -->
<g id="node3" class="node">
<title>b</title>
<polygon fill="none" stroke="black" points="492,-756 0,-756 0,-720 492,-720 492,-756"/>
<text text-anchor="middle" x="246" y="-734.3" font-family="Times,serif" font-size="14.00">_contains_datetime = any(typ.startswith(datetime) for typ in typs)</text>
</g>
<!-- a&#45;&gt;b -->
<g id="edge2" class="edge">
<title>a&#45;&gt;b</title>
<path fill="none" stroke="black" d="M246,-791.7C246,-783.98 246,-774.71 246,-766.11"/>
<polygon fill="black" stroke="black" points="249.5,-766.1 246,-756.1 242.5,-766.1 249.5,-766.1"/>
</g>
<!-- c -->
<g id="node4" class="node">
<title>c</title>
<polygon fill="none" stroke="black" points="474,-684 18,-684 18,-648 474,-648 474,-684"/>
<text text-anchor="middle" x="246" y="-662.3" font-family="Times,serif" font-size="14.00">_contains_period = any(typ.startswith(period) for typ in typs)</text>
</g>
<!-- b&#45;&gt;c -->
<g id="edge3" class="edge">
<title>b&#45;&gt;c</title>
<path fill="none" stroke="black" d="M246,-719.7C246,-711.98 246,-702.71 246,-694.11"/>
<polygon fill="black" stroke="black" points="249.5,-694.1 246,-684.1 242.5,-694.1 249.5,-694.1"/>
</g>
<!-- if1 -->
<g id="node5" class="node">
<title>if1</title>
<ellipse fill="none" stroke="black" cx="246" cy="-594" rx="27" ry="18"/>
<text text-anchor="middle" x="246" y="-590.3" font-family="Times,serif" font-size="14.00">if1</text>
</g>
<!-- c&#45;&gt;if1 -->
<g id="edge4" class="edge">
<title>c&#45;&gt;if1</title>
<path fill="none" stroke="black" d="M246,-647.7C246,-639.98 246,-630.71 246,-622.11"/>
<polygon fill="black" stroke="black" points="249.5,-622.1 246,-612.1 242.5,-622.1 249.5,-622.1"/>
</g>
<!-- block1 -->
<g id="node6" class="node">
<title>block1</title>
<ellipse fill="none" stroke="black" cx="177" cy="-450" rx="40.89" ry="18"/>
<text text-anchor="middle" x="177" y="-446.3" font-family="Times,serif" font-size="14.00">block1</text>
</g>
<!-- if1&#45;&gt;block1 -->
<g id="edge5" class="edge">
<title>if1&#45;&gt;block1</title>
<path fill="none" stroke="black" d="M238.08,-576.71C226.25,-552.36 203.84,-506.24 189.7,-477.14"/>
<polygon fill="black" stroke="black" points="192.77,-475.44 185.25,-467.98 186.47,-478.5 192.77,-475.44"/>
</g>
<!-- block2 -->
<g id="node7" class="node">
<title>block2</title>
<ellipse fill="none" stroke="black" cx="246" cy="-378" rx="40.89" ry="18"/>
<text text-anchor="middle" x="246" y="-374.3" font-family="Times,serif" font-size="14.00">block2</text>
</g>
<!-- if1&#45;&gt;block2 -->
<g id="edge6" class="edge">
<title>if1&#45;&gt;block2</title>
<path fill="none" stroke="black" d="M246,-575.85C246,-538.83 246,-451.18 246,-406.39"/>
<polygon fill="black" stroke="black" points="249.5,-406.23 246,-396.23 242.5,-406.23 249.5,-406.23"/>
</g>
<!-- d -->
<g id="node9" class="node">
<title>d</title>
<polygon fill="none" stroke="black" points="672,-540 274,-540 274,-504 672,-504 672,-540"/>
<text text-anchor="middle" x="473" y="-518.3" font-family="Times,serif" font-size="14.00">all_empty = all(not is_nonempty(x) for x in to_concat)</text>
</g>
<!-- if1&#45;&gt;d -->
<g id="edge9" class="edge">
<title>if1&#45;&gt;d</title>
<path fill="none" stroke="black" d="M270.29,-585.51C302.86,-575.47 361.9,-557.26 407.89,-543.08"/>
<polygon fill="black" stroke="black" points="408.97,-546.41 417.5,-540.12 406.91,-539.72 408.97,-546.41"/>
</g>
<!-- end -->
<g id="node8" class="node">
<title>end</title>
<ellipse fill="none" stroke="black" cx="334" cy="-18" rx="27.9" ry="18"/>
<text text-anchor="middle" x="334" y="-14.3" font-family="Times,serif" font-size="14.00">end</text>
</g>
<!-- block1&#45;&gt;end -->
<g id="edge8" class="edge">
<title>block1&#45;&gt;end</title>
<path fill="none" stroke="black" d="M177,-431.95C177,-405.29 177,-352.11 177,-307 177,-307 177,-307 177,-161 177,-94.78 254.78,-51.43 300.85,-31.56"/>
<polygon fill="black" stroke="black" points="302.27,-34.76 310.16,-27.68 299.58,-28.3 302.27,-34.76"/>
</g>
<!-- block2&#45;&gt;end -->
<g id="edge7" class="edge">
<title>block2&#45;&gt;end</title>
<path fill="none" stroke="black" d="M249.16,-360.02C253.82,-333.45 262,-280.4 262,-235 262,-235 262,-235 262,-161 262,-114.86 292.62,-68.51 313.92,-41.85"/>
<polygon fill="black" stroke="black" points="316.8,-43.85 320.46,-33.91 311.4,-39.4 316.8,-43.85"/>
</g>
<!-- if2 -->
<g id="node10" class="node">
<title>if2</title>
<ellipse fill="none" stroke="black" cx="473" cy="-450" rx="27" ry="18"/>
<text text-anchor="middle" x="473" y="-446.3" font-family="Times,serif" font-size="14.00">if2</text>
</g>
<!-- d&#45;&gt;if2 -->
<g id="edge10" class="edge">
<title>d&#45;&gt;if2</title>
<path fill="none" stroke="black" d="M473,-503.7C473,-495.98 473,-486.71 473,-478.11"/>
<polygon fill="black" stroke="black" points="476.5,-478.1 473,-468.1 469.5,-478.1 476.5,-478.1"/>
</g>
<!-- if2&#45;&gt;end -->
<g id="edge12" class="edge">
<title>if2&#45;&gt;end</title>
<path fill="none" stroke="black" d="M446.43,-446.4C414.79,-441.85 362.65,-429.44 334,-396 307.68,-365.29 315,-347.45 315,-307 315,-307 315,-307 315,-161 315,-120.64 322.63,-74.39 328.22,-45.94"/>
<polygon fill="black" stroke="black" points="331.69,-46.45 330.25,-35.95 324.83,-45.06 331.69,-46.45"/>
</g>
<!-- e -->
<g id="node11" class="node">
<title>e</title>
<polygon fill="none" stroke="black" points="807,-396 343,-396 343,-360 807,-360 807,-396"/>
<text text-anchor="middle" x="575" y="-374.3" font-family="Times,serif" font-size="14.00">to_concat = [np.atleast_2d(x.astype(object)) for x in to_concat]</text>
</g>
<!-- if2&#45;&gt;e -->
<g id="edge11" class="edge">
<title>if2&#45;&gt;e</title>
<path fill="none" stroke="black" d="M491.24,-436.49C505.19,-426.91 524.82,-413.43 541.57,-401.94"/>
<polygon fill="black" stroke="black" points="543.76,-404.68 550.03,-396.14 539.8,-398.91 543.76,-404.68"/>
</g>
<!-- if3 -->
<g id="node12" class="node">
<title>if3</title>
<ellipse fill="none" stroke="black" cx="543" cy="-306" rx="27" ry="18"/>
<text text-anchor="middle" x="543" y="-302.3" font-family="Times,serif" font-size="14.00">if3</text>
</g>
<!-- e&#45;&gt;if3 -->
<g id="edge13" class="edge">
<title>e&#45;&gt;if3</title>
<path fill="none" stroke="black" d="M567.09,-359.7C563.39,-351.61 558.91,-341.81 554.83,-332.87"/>
<polygon fill="black" stroke="black" points="557.94,-331.26 550.6,-323.62 551.57,-334.17 557.94,-331.26"/>
</g>
<!-- if3&#45;&gt;end -->
<g id="edge14" class="edge">
<title>if3&#45;&gt;end</title>
<path fill="none" stroke="black" d="M516.4,-302.04C484.94,-297.12 433.06,-284.37 403,-252 348.67,-193.49 336.96,-94.15 334.55,-46.32"/>
<polygon fill="black" stroke="black" points="338.03,-45.98 334.14,-36.13 331.04,-46.26 338.03,-45.98"/>
</g>
<!-- f -->
<g id="node13" class="node">
<title>f</title>
<polygon fill="none" stroke="black" points="674,-252 412,-252 412,-216 674,-216 674,-252"/>
<text text-anchor="middle" x="543" y="-230.3" font-family="Times,serif" font-size="14.00">typs = get_dtype_kinds(to_concat)</text>
</g>
<!-- if3&#45;&gt;f -->
<g id="edge15" class="edge">
<title>if3&#45;&gt;f</title>
<path fill="none" stroke="black" d="M543,-287.7C543,-279.98 543,-270.71 543,-262.11"/>
<polygon fill="black" stroke="black" points="546.5,-262.1 543,-252.1 539.5,-262.1 546.5,-262.1"/>
</g>
<!-- if4 -->
<g id="node14" class="node">
<title>if4</title>
<ellipse fill="none" stroke="black" cx="543" cy="-162" rx="27" ry="18"/>
<text text-anchor="middle" x="543" y="-158.3" font-family="Times,serif" font-size="14.00">if4</text>
</g>
<!-- f&#45;&gt;if4 -->
<g id="edge16" class="edge">
<title>f&#45;&gt;if4</title>
<path fill="none" stroke="black" d="M543,-215.7C543,-207.98 543,-198.71 543,-190.11"/>
<polygon fill="black" stroke="black" points="546.5,-190.1 543,-180.1 539.5,-190.1 546.5,-190.1"/>
</g>
<!-- if4&#45;&gt;end -->
<g id="edge17" class="edge">
<title>if4&#45;&gt;end</title>
<path fill="none" stroke="black" d="M518.15,-154.85C490.24,-147.12 444.47,-131.88 411,-108 386.19,-90.3 364.15,-63.01 350.08,-43.32"/>
<polygon fill="black" stroke="black" points="352.78,-41.07 344.19,-34.87 347.03,-45.07 352.78,-41.07"/>
</g>
<!-- g -->
<g id="node15" class="node">
<title>g</title>
<polygon fill="none" stroke="black" points="776.5,-108 419.5,-108 419.5,-72 776.5,-72 776.5,-108"/>
<text text-anchor="middle" x="598" y="-86.3" font-family="Times,serif" font-size="14.00">to_concat = [x.astype(object) for x in to_concat]</text>
</g>
<!-- if4&#45;&gt;g -->
<g id="edge18" class="edge">
<title>if4&#45;&gt;g</title>
<path fill="none" stroke="black" d="M554.93,-145.81C561.75,-137.14 570.46,-126.05 578.26,-116.12"/>
<polygon fill="black" stroke="black" points="581.12,-118.15 584.54,-108.13 575.61,-113.83 581.12,-118.15"/>
</g>
<!-- g&#45;&gt;end -->
<g id="edge19" class="edge">
<title>g&#45;&gt;end</title>
<path fill="none" stroke="black" d="M533.76,-71.97C482.01,-58.24 411.2,-39.47 369.27,-28.35"/>
<polygon fill="black" stroke="black" points="370.07,-24.94 359.51,-25.76 368.28,-31.71 370.07,-24.94"/>
</g>
</g>
</svg>
