<?xml version="1.0" encoding="UTF-8" standalone="no"?>
<!DOCTYPE svg PUBLIC "-//W3C//DTD SVG 1.1//EN"
 "http://www.w3.org/Graphics/SVG/1.1/DTD/svg11.dtd">
<!-- Generated by graphviz version 7.1.0 (20230121.1956)
 -->
<!-- Pages: 1 -->
<svg width="160pt" height="548pt"
 viewBox="0.00 0.00 160.00 548.00" xmlns="http://www.w3.org/2000/svg" xmlns:xlink="http://www.w3.org/1999/xlink">
<g id="graph0" class="graph" transform="scale(1 1) rotate(0) translate(4 544)">
<polygon fill="white" stroke="none" points="-4,4 -4,-544 156,-544 156,4 -4,4"/>
<!-- start -->
<g id="node1" class="node">
<title>start</title>
<ellipse fill="none" stroke="black" cx="69" cy="-522" rx="27" ry="18"/>
<text text-anchor="middle" x="69" y="-518.3" font-family="Times,serif" font-size="14.00">start</text>
</g>
<!-- a -->
<g id="node2" class="node">
<title>a</title>
<polygon fill="none" stroke="black" points="138,-468 0,-468 0,-432 138,-432 138,-468"/>
<text text-anchor="middle" x="69" y="-446.3" font-family="Times,serif" font-size="14.00">cfg = _setup_conn(...)</text>
</g>
<!-- start&#45;&gt;a -->
<g id="edge1" class="edge">
<title>start&#45;&gt;a</title>
<path fill="none" stroke="black" d="M69,-503.7C69,-496.41 69,-487.73 69,-479.54"/>
<polygon fill="black" stroke="black" points="72.5,-479.62 69,-469.62 65.5,-479.62 72.5,-479.62"/>
</g>
<!-- try -->
<g id="node3" class="node">
<title>try</title>
<ellipse fill="none" stroke="black" cx="69" cy="-378" rx="27" ry="18"/>
<text text-anchor="middle" x="69" y="-374.3" font-family="Times,serif" font-size="14.00">try</text>
</g>
<!-- a&#45;&gt;try -->
<g id="edge2" class="edge">
<title>a&#45;&gt;try</title>
<path fill="none" stroke="black" d="M69,-431.7C69,-424.41 69,-415.73 69,-407.54"/>
<polygon fill="black" stroke="black" points="72.5,-407.62 69,-397.62 65.5,-407.62 72.5,-407.62"/>
</g>
<!-- b -->
<g id="node4" class="node">
<title>b</title>
<ellipse fill="none" stroke="black" cx="33" cy="-234" rx="27" ry="18"/>
<text text-anchor="middle" x="33" y="-230.3" font-family="Times,serif" font-size="14.00">b</text>
</g>
<!-- try&#45;&gt;b -->
<g id="edge3" class="edge">
<title>try&#45;&gt;b</title>
<path fill="none" stroke="black" d="M64.66,-359.87C58.58,-335.88 47.45,-291.99 40.14,-263.16"/>
<polygon fill="black" stroke="black" points="43.58,-262.49 37.73,-253.66 36.79,-264.21 43.58,-262.49"/>
</g>
<!-- except -->
<g id="node6" class="node">
<title>except</title>
<ellipse fill="none" stroke="black" cx="102" cy="-306" rx="33.6" ry="18"/>
<text text-anchor="middle" x="102" y="-302.3" font-family="Times,serif" font-size="14.00">except</text>
</g>
<!-- try&#45;&gt;except -->
<g id="edge5" class="edge">
<title>try&#45;&gt;except</title>
<path fill="none" stroke="black" d="M76.82,-360.41C80.51,-352.59 85,-343.06 89.16,-334.23"/>
<polygon fill="black" stroke="black" points="92.26,-335.86 93.36,-325.33 85.93,-332.88 92.26,-335.86"/>
</g>
<!-- end -->
<g id="node5" class="node">
<title>end</title>
<ellipse fill="none" stroke="black" cx="69" cy="-18" rx="27" ry="18"/>
<text text-anchor="middle" x="69" y="-14.3" font-family="Times,serif" font-size="14.00">end</text>
</g>
<!-- b&#45;&gt;end -->
<g id="edge4" class="edge">
<title>b&#45;&gt;end</title>
<path fill="none" stroke="black" d="M33.7,-215.88C35.18,-186.25 39.49,-123.61 51,-72 52.87,-63.62 55.59,-54.71 58.36,-46.64"/>
<polygon fill="black" stroke="black" points="61.61,-47.94 61.7,-37.34 55.02,-45.57 61.61,-47.94"/>
</g>
<!-- c -->
<g id="node7" class="node">
<title>c</title>
<ellipse fill="none" stroke="black" cx="105" cy="-234" rx="27" ry="18"/>
<text text-anchor="middle" x="105" y="-230.3" font-family="Times,serif" font-size="14.00">c</text>
</g>
<!-- except&#45;&gt;c -->
<g id="edge6" class="edge">
<title>except&#45;&gt;c</title>
<path fill="none" stroke="black" d="M102.74,-287.7C103.05,-280.41 103.43,-271.73 103.78,-263.54"/>
<polygon fill="black" stroke="black" points="107.27,-263.76 104.2,-253.62 100.28,-263.46 107.27,-263.76"/>
</g>
<!-- finally -->
<g id="node8" class="node">
<title>finally</title>
<ellipse fill="none" stroke="black" cx="105" cy="-162" rx="33.6" ry="18"/>
<text text-anchor="middle" x="105" y="-158.3" font-family="Times,serif" font-size="14.00">finally</text>
</g>
<!-- c&#45;&gt;finally -->
<g id="edge7" class="edge">
<title>c&#45;&gt;finally</title>
<path fill="none" stroke="black" d="M105,-215.7C105,-208.41 105,-199.73 105,-191.54"/>
<polygon fill="black" stroke="black" points="108.5,-191.62 105,-181.62 101.5,-191.62 108.5,-191.62"/>
</g>
<!-- d -->
<g id="node9" class="node">
<title>d</title>
<polygon fill="none" stroke="black" points="152,-108 60,-108 60,-72 152,-72 152,-108"/>
<text text-anchor="middle" x="106" y="-86.3" font-family="Times,serif" font-size="14.00">_cleanup(cfg)</text>
</g>
<!-- finally&#45;&gt;d -->
<g id="edge8" class="edge">
<title>finally&#45;&gt;d</title>
<path fill="none" stroke="black" d="M105.25,-143.7C105.35,-136.41 105.48,-127.73 105.59,-119.54"/>
<polygon fill="black" stroke="black" points="109.09,-119.67 105.73,-109.62 102.09,-119.57 109.09,-119.67"/>
</g>
<!-- d&#45;&gt;end -->
<g id="edge9" class="edge">
<title>d&#45;&gt;end</title>
<path fill="none" stroke="black" d="M96.85,-71.7C92.61,-63.67 87.47,-53.95 82.77,-45.05"/>
<polygon fill="black" stroke="black" points="86.01,-43.69 78.24,-36.48 79.82,-46.96 86.01,-43.69"/>
</g>
</g>
</svg>
