<?xml version="1.0" encoding="UTF-8" standalone="no"?>
<!DOCTYPE svg PUBLIC "-//W3C//DTD SVG 1.1//EN"
 "http://www.w3.org/Graphics/SVG/1.1/DTD/svg11.dtd">
<!-- Generated by graphviz version 2.43.0 (0)
 -->
<!-- Title: %3 Pages: 1 -->
<svg width="356pt" height="332pt"
 viewBox="0.00 0.00 356.00 332.00" xmlns="http://www.w3.org/2000/svg" xmlns:xlink="http://www.w3.org/1999/xlink">
<g id="graph0" class="graph" transform="scale(1 1) rotate(0) translate(4 328)">
<title>%3</title>
<polygon fill="white" stroke="transparent" points="-4,4 -4,-328 352,-328 352,4 -4,4"/>
<!-- start -->
<g id="node1" class="node">
<title>start</title>
<ellipse fill="none" stroke="black" cx="174" cy="-306" rx="33.29" ry="18"/>
<text text-anchor="middle" x="174" y="-302.3" font-family="Times,serif" font-size="14.00">start</text>
</g>
<!-- a -->
<g id="node2" class="node">
<title>a</title>
<polygon fill="none" stroke="black" points="348,-252 0,-252 0,-216 348,-216 348,-252"/>
<text text-anchor="middle" x="174" y="-230.3" font-family="Times,serif" font-size="14.00">tblist = traceback.extract_tb(sys.exc_info()[2])</text>
</g>
<!-- start&#45;&gt;a -->
<g id="edge1" class="edge">
<title>start&#45;&gt;a</title>
<path fill="none" stroke="black" d="M174,-287.7C174,-279.98 174,-270.71 174,-262.11"/>
<polygon fill="black" stroke="black" points="177.5,-262.1 174,-252.1 170.5,-262.1 177.5,-262.1"/>
</g>
<!-- b -->
<g id="node3" class="node">
<title>b</title>
<polygon fill="none" stroke="black" points="272.5,-180 75.5,-180 75.5,-144 272.5,-144 272.5,-180"/>
<text text-anchor="middle" x="174" y="-158.3" font-family="Times,serif" font-size="14.00">tblist = [item for item ...]</text>
</g>
<!-- a&#45;&gt;b -->
<g id="edge2" class="edge">
<title>a&#45;&gt;b</title>
<path fill="none" stroke="black" d="M174,-215.7C174,-207.98 174,-198.71 174,-190.11"/>
<polygon fill="black" stroke="black" points="177.5,-190.1 174,-180.1 170.5,-190.1 177.5,-190.1"/>
</g>
<!-- c -->
<g id="node4" class="node">
<title>c</title>
<polygon fill="none" stroke="black" points="282,-108 66,-108 66,-72 282,-72 282,-108"/>
<text text-anchor="middle" x="174" y="-86.3" font-family="Times,serif" font-size="14.00">traceback.format_list(tblist)</text>
</g>
<!-- b&#45;&gt;c -->
<g id="edge3" class="edge">
<title>b&#45;&gt;c</title>
<path fill="none" stroke="black" d="M174,-143.7C174,-135.98 174,-126.71 174,-118.11"/>
<polygon fill="black" stroke="black" points="177.5,-118.1 174,-108.1 170.5,-118.1 177.5,-118.1"/>
</g>
<!-- end -->
<g id="node5" class="node">
<title>end</title>
<ellipse fill="none" stroke="black" cx="174" cy="-18" rx="27.9" ry="18"/>
<text text-anchor="middle" x="174" y="-14.3" font-family="Times,serif" font-size="14.00">end</text>
</g>
<!-- c&#45;&gt;end -->
<g id="edge4" class="edge">
<title>c&#45;&gt;end</title>
<path fill="none" stroke="black" d="M174,-71.7C174,-63.98 174,-54.71 174,-46.11"/>
<polygon fill="black" stroke="black" points="177.5,-46.1 174,-36.1 170.5,-46.1 177.5,-46.1"/>
</g>
</g>
</svg>
