<?xml version="1.0" encoding="UTF-8" standalone="no"?>
<!DOCTYPE svg PUBLIC "-//W3C//DTD SVG 1.1//EN"
 "http://www.w3.org/Graphics/SVG/1.1/DTD/svg11.dtd">
<!-- Generated by graphviz version 2.43.0 (0)
 -->
<!-- Title: %3 Pages: 1 -->
<svg width="756pt" height="332pt"
 viewBox="0.00 0.00 756.45 332.00" xmlns="http://www.w3.org/2000/svg" xmlns:xlink="http://www.w3.org/1999/xlink">
<g id="graph0" class="graph" transform="scale(1 1) rotate(0) translate(4 328)">
<title>%3</title>
<polygon fill="white" stroke="transparent" points="-4,4 -4,-328 752.45,-328 752.45,4 -4,4"/>
<!-- start -->
<g id="node1" class="node">
<title>start</title>
<ellipse fill="none" stroke="black" cx="231.95" cy="-306" rx="33.29" ry="18"/>
<text text-anchor="middle" x="231.95" y="-302.3" font-family="Times,serif" font-size="14.00">start</text>
</g>
<!-- a -->
<g id="node2" class="node">
<title>a</title>
<polygon fill="none" stroke="black" points="380.45,-252 83.45,-252 83.45,-216 380.45,-216 380.45,-252"/>
<text text-anchor="middle" x="231.95" y="-230.3" font-family="Times,serif" font-size="14.00">kwargs[_return_http_data_only] = True</text>
</g>
<!-- start&#45;&gt;a -->
<g id="edge1" class="edge">
<title>start&#45;&gt;a</title>
<path fill="none" stroke="black" d="M231.95,-287.7C231.95,-279.98 231.95,-270.71 231.95,-262.11"/>
<polygon fill="black" stroke="black" points="235.45,-262.1 231.95,-252.1 228.45,-262.1 235.45,-262.1"/>
</g>
<!-- if1 -->
<g id="node3" class="node">
<title>if1</title>
<polygon fill="none" stroke="black" points="330.45,-180 133.45,-180 133.45,-144 330.45,-144 330.45,-180"/>
<text text-anchor="middle" x="231.95" y="-158.3" font-family="Times,serif" font-size="14.00">If: kwargs.get(async_req)</text>
</g>
<!-- a&#45;&gt;if1 -->
<g id="edge2" class="edge">
<title>a&#45;&gt;if1</title>
<path fill="none" stroke="black" d="M231.95,-215.7C231.95,-207.98 231.95,-198.71 231.95,-190.11"/>
<polygon fill="black" stroke="black" points="235.45,-190.1 231.95,-180.1 228.45,-190.1 235.45,-190.1"/>
</g>
<!-- block1 -->
<g id="node4" class="node">
<title>block1</title>
<ellipse fill="none" stroke="black" cx="40.95" cy="-90" rx="40.89" ry="18"/>
<text text-anchor="middle" x="40.95" y="-86.3" font-family="Times,serif" font-size="14.00">block1</text>
</g>
<!-- if1&#45;&gt;block1 -->
<g id="edge3" class="edge">
<title>if1&#45;&gt;block1</title>
<path fill="none" stroke="black" d="M185.22,-143.88C153.23,-132.15 111.26,-116.77 80.84,-105.62"/>
<polygon fill="black" stroke="black" points="81.99,-102.32 71.4,-102.16 79.58,-108.89 81.99,-102.32"/>
</g>
<!-- b -->
<g id="node6" class="node">
<title>b</title>
<polygon fill="none" stroke="black" points="748.45,-108 99.45,-108 99.45,-72 748.45,-72 748.45,-108"/>
<text text-anchor="middle" x="423.95" y="-86.3" font-family="Times,serif" font-size="14.00">(data) = self.create_namespaced_pod_preset_with_http_info(namespace, body, **kwargs)</text>
</g>
<!-- if1&#45;&gt;b -->
<g id="edge5" class="edge">
<title>if1&#45;&gt;b</title>
<path fill="none" stroke="black" d="M278.91,-143.88C305.63,-134.14 339.27,-121.87 367.42,-111.61"/>
<polygon fill="black" stroke="black" points="368.93,-114.78 377.13,-108.07 366.54,-108.21 368.93,-114.78"/>
</g>
<!-- end -->
<g id="node5" class="node">
<title>end</title>
<ellipse fill="none" stroke="black" cx="231.95" cy="-18" rx="27.9" ry="18"/>
<text text-anchor="middle" x="231.95" y="-14.3" font-family="Times,serif" font-size="14.00">end</text>
</g>
<!-- block1&#45;&gt;end -->
<g id="edge4" class="edge">
<title>block1&#45;&gt;end</title>
<path fill="none" stroke="black" d="M71.63,-77.75C106.43,-65 162.96,-44.28 198.76,-31.16"/>
<polygon fill="black" stroke="black" points="200.09,-34.4 208.27,-27.68 197.68,-27.83 200.09,-34.4"/>
</g>
<!-- b&#45;&gt;end -->
<g id="edge6" class="edge">
<title>b&#45;&gt;end</title>
<path fill="none" stroke="black" d="M376.98,-71.88C342.32,-59.24 296,-42.35 265.13,-31.1"/>
<polygon fill="black" stroke="black" points="266.28,-27.79 255.68,-27.65 263.88,-34.37 266.28,-27.79"/>
</g>
</g>
</svg>
