<?xml version="1.0" encoding="UTF-8" standalone="no"?>
<!DOCTYPE svg PUBLIC "-//W3C//DTD SVG 1.1//EN"
 "http://www.w3.org/Graphics/SVG/1.1/DTD/svg11.dtd">
<!-- Generated by graphviz version 7.1.0 (20230121.1956)
 -->
<!-- Pages: 1 -->
<svg width="355pt" height="620pt"
 viewBox="0.00 0.00 355.00 620.00" xmlns="http://www.w3.org/2000/svg" xmlns:xlink="http://www.w3.org/1999/xlink">
<g id="graph0" class="graph" transform="scale(1 1) rotate(0) translate(4 616)">
<polygon fill="white" stroke="none" points="-4,4 -4,-616 351,-616 351,4 -4,4"/>
<!-- start -->
<g id="node1" class="node">
<title>start</title>
<ellipse fill="none" stroke="black" cx="206" cy="-594" rx="27" ry="18"/>
<text text-anchor="middle" x="206" y="-590.3" font-family="Times,serif" font-size="14.00">start</text>
</g>
<!-- a -->
<g id="node2" class="node">
<title>a</title>
<polygon fill="none" stroke="black" points="319.5,-540 92.5,-540 92.5,-504 319.5,-504 319.5,-540"/>
<text text-anchor="middle" x="206" y="-518.3" font-family="Times,serif" font-size="14.00">makefile = get_makefile_filename(...)</text>
</g>
<!-- start&#45;&gt;a -->
<g id="edge1" class="edge">
<title>start&#45;&gt;a</title>
<path fill="none" stroke="black" d="M206,-575.7C206,-568.41 206,-559.73 206,-551.54"/>
<polygon fill="black" stroke="black" points="209.5,-551.62 206,-541.62 202.5,-551.62 209.5,-551.62"/>
</g>
<!-- try1 -->
<g id="node3" class="node">
<title>try1</title>
<ellipse fill="none" stroke="black" cx="206" cy="-450" rx="27" ry="18"/>
<text text-anchor="middle" x="206" y="-446.3" font-family="Times,serif" font-size="14.00">try1</text>
</g>
<!-- a&#45;&gt;try1 -->
<g id="edge2" class="edge">
<title>a&#45;&gt;try1</title>
<path fill="none" stroke="black" d="M206,-503.7C206,-496.41 206,-487.73 206,-479.54"/>
<polygon fill="black" stroke="black" points="209.5,-479.62 206,-469.62 202.5,-479.62 209.5,-479.62"/>
</g>
<!-- b -->
<g id="node4" class="node">
<title>b</title>
<polygon fill="none" stroke="black" points="224,-396 42,-396 42,-360 224,-360 224,-396"/>
<text text-anchor="middle" x="133" y="-374.3" font-family="Times,serif" font-size="14.00">_parse_makefile(makefile, ...)</text>
</g>
<!-- try1&#45;&gt;b -->
<g id="edge3" class="edge">
<title>try1&#45;&gt;b</title>
<path fill="none" stroke="black" d="M191.23,-434.83C182.09,-426.07 170.09,-414.57 159.36,-404.28"/>
<polygon fill="black" stroke="black" points="161.85,-401.81 152.2,-397.42 157,-406.86 161.85,-401.81"/>
</g>
<!-- except1 -->
<g id="node6" class="node">
<title>except1</title>
<ellipse fill="none" stroke="black" cx="280" cy="-378" rx="38.19" ry="18"/>
<text text-anchor="middle" x="280" y="-374.3" font-family="Times,serif" font-size="14.00">except1</text>
</g>
<!-- try1&#45;&gt;except1 -->
<g id="edge5" class="edge">
<title>try1&#45;&gt;except1</title>
<path fill="none" stroke="black" d="M220.98,-434.83C230.8,-425.54 243.89,-413.16 255.24,-402.42"/>
<polygon fill="black" stroke="black" points="257.54,-405.06 262.4,-395.65 252.73,-399.98 257.54,-405.06"/>
</g>
<!-- c -->
<g id="node5" class="node">
<title>c</title>
<polygon fill="none" stroke="black" points="246.5,-324 19.5,-324 19.5,-288 246.5,-288 246.5,-324"/>
<text text-anchor="middle" x="133" y="-302.3" font-family="Times,serif" font-size="14.00">config_h = get_config_h_filename(...)</text>
</g>
<!-- b&#45;&gt;c -->
<g id="edge4" class="edge">
<title>b&#45;&gt;c</title>
<path fill="none" stroke="black" d="M133,-359.7C133,-352.41 133,-343.73 133,-335.54"/>
<polygon fill="black" stroke="black" points="136.5,-335.62 133,-325.62 129.5,-335.62 136.5,-335.62"/>
</g>
<!-- try2 -->
<g id="node9" class="node">
<title>try2</title>
<ellipse fill="none" stroke="black" cx="133" cy="-234" rx="27" ry="18"/>
<text text-anchor="middle" x="133" y="-230.3" font-family="Times,serif" font-size="14.00">try2</text>
</g>
<!-- c&#45;&gt;try2 -->
<g id="edge8" class="edge">
<title>c&#45;&gt;try2</title>
<path fill="none" stroke="black" d="M133,-287.7C133,-280.41 133,-271.73 133,-263.54"/>
<polygon fill="black" stroke="black" points="136.5,-263.62 133,-253.62 129.5,-263.62 136.5,-263.62"/>
</g>
<!-- d -->
<g id="node7" class="node">
<title>d</title>
<polygon fill="none" stroke="black" points="347,-252 213,-252 213,-216 347,-216 347,-252"/>
<text text-anchor="middle" x="280" y="-230.3" font-family="Times,serif" font-size="14.00">msg = ... % makefile</text>
</g>
<!-- except1&#45;&gt;d -->
<g id="edge6" class="edge">
<title>except1&#45;&gt;d</title>
<path fill="none" stroke="black" d="M280,-359.59C280,-335.61 280,-292.14 280,-263.42"/>
<polygon fill="black" stroke="black" points="283.5,-263.62 280,-253.62 276.5,-263.62 283.5,-263.62"/>
</g>
<!-- end -->
<g id="node8" class="node">
<title>end</title>
<ellipse fill="none" stroke="black" cx="185" cy="-18" rx="27" ry="18"/>
<text text-anchor="middle" x="185" y="-14.3" font-family="Times,serif" font-size="14.00">end</text>
</g>
<!-- d&#45;&gt;end -->
<g id="edge7" class="edge">
<title>d&#45;&gt;end</title>
<path fill="none" stroke="black" d="M282.34,-215.56C285.63,-184.34 288.48,-117.88 261,-72 250.97,-55.25 233.36,-42.46 217.61,-33.65"/>
<polygon fill="black" stroke="black" points="219.46,-30.67 208.98,-29.14 216.22,-36.87 219.46,-30.67"/>
</g>
<!-- e -->
<g id="node10" class="node">
<title>e</title>
<polygon fill="none" stroke="black" points="100,-108 0,-108 0,-72 100,-72 100,-108"/>
<text text-anchor="middle" x="50" y="-86.3" font-family="Times,serif" font-size="14.00">open(config_h)</text>
</g>
<!-- try2&#45;&gt;e -->
<g id="edge9" class="edge">
<title>try2&#45;&gt;e</title>
<path fill="none" stroke="black" d="M123.48,-216.71C109.39,-192.6 82.81,-147.13 65.78,-117.99"/>
<polygon fill="black" stroke="black" points="69.02,-116.6 60.95,-109.73 62.97,-120.13 69.02,-116.6"/>
</g>
<!-- except2 -->
<g id="node11" class="node">
<title>except2</title>
<ellipse fill="none" stroke="black" cx="159" cy="-162" rx="38.19" ry="18"/>
<text text-anchor="middle" x="159" y="-158.3" font-family="Times,serif" font-size="14.00">except2</text>
</g>
<!-- try2&#45;&gt;except2 -->
<g id="edge11" class="edge">
<title>try2&#45;&gt;except2</title>
<path fill="none" stroke="black" d="M139.29,-216.05C142.14,-208.4 145.57,-199.16 148.76,-190.56"/>
<polygon fill="black" stroke="black" points="152.04,-191.8 152.24,-181.21 145.47,-189.36 152.04,-191.8"/>
</g>
<!-- e&#45;&gt;end -->
<g id="edge10" class="edge">
<title>e&#45;&gt;end</title>
<path fill="none" stroke="black" d="M83.72,-71.52C105.36,-60.29 133.26,-45.83 154.29,-34.93"/>
<polygon fill="black" stroke="black" points="155.69,-38.14 162.95,-30.43 152.46,-31.93 155.69,-38.14"/>
</g>
<!-- f -->
<g id="node12" class="node">
<title>f</title>
<polygon fill="none" stroke="black" points="252,-108 118,-108 118,-72 252,-72 252,-108"/>
<text text-anchor="middle" x="185" y="-86.3" font-family="Times,serif" font-size="14.00">msg = ... % config_h</text>
</g>
<!-- except2&#45;&gt;f -->
<g id="edge12" class="edge">
<title>except2&#45;&gt;f</title>
<path fill="none" stroke="black" d="M165.29,-144.05C168.09,-136.52 171.47,-127.44 174.62,-118.94"/>
<polygon fill="black" stroke="black" points="177.86,-120.29 178.06,-109.69 171.29,-117.85 177.86,-120.29"/>
</g>
<!-- f&#45;&gt;end -->
<g id="edge13" class="edge">
<title>f&#45;&gt;end</title>
<path fill="none" stroke="black" d="M185,-71.7C185,-64.41 185,-55.73 185,-47.54"/>
<polygon fill="black" stroke="black" points="188.5,-47.62 185,-37.62 181.5,-47.62 188.5,-47.62"/>
</g>
</g>
</svg>
