<?xml version="1.0" encoding="UTF-8" standalone="no"?>
<!DOCTYPE svg PUBLIC "-//W3C//DTD SVG 1.1//EN"
 "http://www.w3.org/Graphics/SVG/1.1/DTD/svg11.dtd">
<!-- Generated by graphviz version 2.43.0 (0)
 -->
<!-- Title: %3 Pages: 1 -->
<svg width="276pt" height="548pt"
 viewBox="0.00 0.00 275.95 548.00" xmlns="http://www.w3.org/2000/svg" xmlns:xlink="http://www.w3.org/1999/xlink">
<g id="graph0" class="graph" transform="scale(1 1) rotate(0) translate(4 544)">
<title>%3</title>
<polygon fill="white" stroke="transparent" points="-4,4 -4,-544 271.95,-544 271.95,4 -4,4"/>
<!-- start -->
<g id="node1" class="node">
<title>start</title>
<ellipse fill="none" stroke="black" cx="96.95" cy="-522" rx="33.29" ry="18"/>
<text text-anchor="middle" x="96.95" y="-518.3" font-family="Times,serif" font-size="14.00">start</text>
</g>
<!-- a -->
<g id="node2" class="node">
<title>a</title>
<polygon fill="none" stroke="black" points="141.45,-468 52.45,-468 52.45,-432 141.45,-432 141.45,-468"/>
<text text-anchor="middle" x="96.95" y="-446.3" font-family="Times,serif" font-size="14.00">result = 1</text>
</g>
<!-- start&#45;&gt;a -->
<g id="edge1" class="edge">
<title>start&#45;&gt;a</title>
<path fill="none" stroke="black" d="M96.95,-503.7C96.95,-495.98 96.95,-486.71 96.95,-478.11"/>
<polygon fill="black" stroke="black" points="100.45,-478.1 96.95,-468.1 93.45,-478.1 100.45,-478.1"/>
</g>
<!-- if1 -->
<g id="node3" class="node">
<title>if1</title>
<polygon fill="none" stroke="black" points="137.95,-396 55.95,-396 55.95,-360 137.95,-360 137.95,-396"/>
<text text-anchor="middle" x="96.95" y="-374.3" font-family="Times,serif" font-size="14.00">if n == 0</text>
</g>
<!-- a&#45;&gt;if1 -->
<g id="edge2" class="edge">
<title>a&#45;&gt;if1</title>
<path fill="none" stroke="black" d="M96.95,-431.7C96.95,-423.98 96.95,-414.71 96.95,-406.11"/>
<polygon fill="black" stroke="black" points="100.45,-406.1 96.95,-396.1 93.45,-406.1 100.45,-406.1"/>
</g>
<!-- block1 -->
<g id="node4" class="node">
<title>block1</title>
<ellipse fill="none" stroke="black" cx="40.95" cy="-234" rx="40.89" ry="18"/>
<text text-anchor="middle" x="40.95" y="-230.3" font-family="Times,serif" font-size="14.00">block1</text>
</g>
<!-- if1&#45;&gt;block1 -->
<g id="edge3" class="edge">
<title>if1&#45;&gt;block1</title>
<path fill="none" stroke="black" d="M82.37,-359.91C74.63,-350.01 65.58,-336.97 59.95,-324 51.35,-304.23 46.52,-280.25 43.89,-262.16"/>
<polygon fill="black" stroke="black" points="47.32,-261.47 42.54,-252.01 40.39,-262.39 47.32,-261.47"/>
</g>
<!-- for -->
<g id="node6" class="node">
<title>for</title>
<polygon fill="none" stroke="black" points="236.95,-324 68.95,-324 68.95,-288 236.95,-288 236.95,-324"/>
<text text-anchor="middle" x="152.95" y="-302.3" font-family="Times,serif" font-size="14.00">for i in range(2, n+1)</text>
</g>
<!-- if1&#45;&gt;for -->
<g id="edge5" class="edge">
<title>if1&#45;&gt;for</title>
<path fill="none" stroke="black" d="M110.79,-359.7C117.43,-351.39 125.52,-341.28 132.83,-332.14"/>
<polygon fill="black" stroke="black" points="135.75,-334.1 139.26,-324.1 130.28,-329.73 135.75,-334.1"/>
</g>
<!-- end -->
<g id="node5" class="node">
<title>end</title>
<ellipse fill="none" stroke="black" cx="115.95" cy="-18" rx="27.9" ry="18"/>
<text text-anchor="middle" x="115.95" y="-14.3" font-family="Times,serif" font-size="14.00">end</text>
</g>
<!-- block1&#45;&gt;end -->
<g id="edge4" class="edge">
<title>block1&#45;&gt;end</title>
<path fill="none" stroke="black" d="M46.96,-215.85C60.05,-178.49 91.22,-89.56 106.78,-45.16"/>
<polygon fill="black" stroke="black" points="110.11,-46.24 110.11,-35.64 103.5,-43.92 110.11,-46.24"/>
</g>
<!-- b -->
<g id="node7" class="node">
<title>b</title>
<polygon fill="none" stroke="black" points="190.45,-252 99.45,-252 99.45,-216 190.45,-216 190.45,-252"/>
<text text-anchor="middle" x="144.95" y="-230.3" font-family="Times,serif" font-size="14.00">result *= i</text>
</g>
<!-- for&#45;&gt;b -->
<g id="edge6" class="edge">
<title>for&#45;&gt;b</title>
<path fill="none" stroke="black" d="M150.97,-287.7C150.09,-279.98 149.03,-270.71 148.04,-262.11"/>
<polygon fill="black" stroke="black" points="151.51,-261.64 146.9,-252.1 144.56,-262.44 151.51,-261.64"/>
</g>
<!-- if2 -->
<g id="node8" class="node">
<title>if2</title>
<ellipse fill="none" stroke="black" cx="144.95" cy="-162" rx="27" ry="18"/>
<text text-anchor="middle" x="144.95" y="-158.3" font-family="Times,serif" font-size="14.00">if2</text>
</g>
<!-- b&#45;&gt;if2 -->
<g id="edge7" class="edge">
<title>b&#45;&gt;if2</title>
<path fill="none" stroke="black" d="M144.95,-215.7C144.95,-207.98 144.95,-198.71 144.95,-190.11"/>
<polygon fill="black" stroke="black" points="148.45,-190.1 144.95,-180.1 141.45,-190.1 148.45,-190.1"/>
</g>
<!-- if2&#45;&gt;end -->
<g id="edge11" class="edge">
<title>if2&#45;&gt;end</title>
<path fill="none" stroke="black" d="M141.45,-143.87C136.48,-119.56 127.35,-74.82 121.46,-46.01"/>
<polygon fill="black" stroke="black" points="124.89,-45.29 119.46,-36.19 118.03,-46.69 124.89,-45.29"/>
</g>
<!-- d -->
<g id="node9" class="node">
<title>d</title>
<polygon fill="none" stroke="black" points="267.95,-108 143.95,-108 143.95,-72 267.95,-72 267.95,-108"/>
<text text-anchor="middle" x="205.95" y="-86.3" font-family="Times,serif" font-size="14.00">result %= mod</text>
</g>
<!-- if2&#45;&gt;d -->
<g id="edge8" class="edge">
<title>if2&#45;&gt;d</title>
<path fill="none" stroke="black" d="M157.88,-146.15C165.55,-137.35 175.47,-125.97 184.31,-115.83"/>
<polygon fill="black" stroke="black" points="187.17,-117.88 191.1,-108.04 181.89,-113.28 187.17,-117.88"/>
</g>
<!-- d&#45;&gt;end -->
<g id="edge9" class="edge">
<title>d&#45;&gt;end</title>
<path fill="none" stroke="black" d="M183.7,-71.7C170.77,-61.64 154.43,-48.93 141.04,-38.52"/>
<polygon fill="black" stroke="black" points="143.19,-35.75 133.14,-32.38 138.89,-41.28 143.19,-35.75"/>
</g>
<!-- d&#45;&gt;for -->
<g id="edge10" class="edge">
<title>d&#45;&gt;for</title>
<path fill="none" stroke="black" d="M208.78,-108.22C213.01,-138.53 218.52,-202.88 198.95,-252 194.78,-262.46 187.62,-272.28 180.18,-280.56"/>
<polygon fill="black" stroke="black" points="177.44,-278.35 173.04,-287.99 182.49,-283.2 177.44,-278.35"/>
</g>
</g>
</svg>
