<?xml version="1.0" encoding="UTF-8" standalone="no"?>
<!DOCTYPE svg PUBLIC "-//W3C//DTD SVG 1.1//EN"
 "http://www.w3.org/Graphics/SVG/1.1/DTD/svg11.dtd">
<!-- Generated by graphviz version 7.1.0 (20230121.1956)
 -->
<!-- Pages: 1 -->
<svg width="160pt" height="404pt"
 viewBox="0.00 0.00 160.00 404.00" xmlns="http://www.w3.org/2000/svg" xmlns:xlink="http://www.w3.org/1999/xlink">
<g id="graph0" class="graph" transform="scale(1 1) rotate(0) translate(4 400)">
<polygon fill="white" stroke="none" points="-4,4 -4,-400 156,-400 156,4 -4,4"/>
<!-- s -->
<g id="node1" class="node">
<title>s</title>
<ellipse fill="none" stroke="black" cx="27" cy="-378" rx="27" ry="18"/>
<text text-anchor="middle" x="27" y="-374.3" font-family="Times,serif" font-size="14.00">s</text>
</g>
<!-- if26 -->
<g id="node2" class="node">
<title>if26</title>
<ellipse fill="none" stroke="black" cx="27" cy="-306" rx="27" ry="18"/>
<text text-anchor="middle" x="27" y="-302.3" font-family="Times,serif" font-size="14.00">if26</text>
</g>
<!-- s&#45;&gt;if26 -->
<g id="edge1" class="edge">
<title>s&#45;&gt;if26</title>
<path fill="none" stroke="black" d="M27,-359.7C27,-352.41 27,-343.73 27,-335.54"/>
<polygon fill="black" stroke="black" points="30.5,-335.62 27,-325.62 23.5,-335.62 30.5,-335.62"/>
</g>
<!-- m26 -->
<g id="node3" class="node">
<title>m26</title>
<ellipse fill="none" stroke="black" cx="27" cy="-18" rx="27" ry="18"/>
<text text-anchor="middle" x="27" y="-14.3" font-family="Times,serif" font-size="14.00">m26</text>
</g>
<!-- if26&#45;&gt;m26 -->
<g id="edge2" class="edge">
<title>if26&#45;&gt;m26</title>
<path fill="none" stroke="black" d="M23.75,-287.89C21.95,-277.54 19.91,-264.06 19,-252 13.01,-172.22 13.01,-151.78 19,-72 19.6,-63.99 20.71,-55.35 21.91,-47.43"/>
<polygon fill="black" stroke="black" points="25.35,-48.04 23.51,-37.61 18.45,-46.91 25.35,-48.04"/>
</g>
<!-- if27 -->
<g id="node4" class="node">
<title>if27</title>
<ellipse fill="none" stroke="black" cx="55" cy="-234" rx="27" ry="18"/>
<text text-anchor="middle" x="55" y="-230.3" font-family="Times,serif" font-size="14.00">if27</text>
</g>
<!-- if26&#45;&gt;if27 -->
<g id="edge3" class="edge">
<title>if26&#45;&gt;if27</title>
<path fill="none" stroke="black" d="M33.64,-288.41C36.77,-280.57 40.6,-270.99 44.15,-262.13"/>
<polygon fill="black" stroke="black" points="47.39,-263.46 47.85,-252.88 40.89,-260.86 47.39,-263.46"/>
</g>
<!-- m27 -->
<g id="node5" class="node">
<title>m27</title>
<ellipse fill="none" stroke="black" cx="55" cy="-90" rx="27" ry="18"/>
<text text-anchor="middle" x="55" y="-86.3" font-family="Times,serif" font-size="14.00">m27</text>
</g>
<!-- if27&#45;&gt;m27 -->
<g id="edge4" class="edge">
<title>if27&#45;&gt;m27</title>
<path fill="none" stroke="black" d="M55,-215.59C55,-191.61 55,-148.14 55,-119.42"/>
<polygon fill="black" stroke="black" points="58.5,-119.62 55,-109.62 51.5,-119.62 58.5,-119.62"/>
</g>
<!-- block27 -->
<g id="node6" class="node">
<title>block27</title>
<ellipse fill="none" stroke="black" cx="113" cy="-162" rx="38.99" ry="18"/>
<text text-anchor="middle" x="113" y="-158.3" font-family="Times,serif" font-size="14.00">block27</text>
</g>
<!-- if27&#45;&gt;block27 -->
<g id="edge5" class="edge">
<title>if27&#45;&gt;block27</title>
<path fill="none" stroke="black" d="M67.59,-217.81C74.83,-209.07 84.11,-197.87 92.39,-187.87"/>
<polygon fill="black" stroke="black" points="94.98,-190.23 98.67,-180.3 89.59,-185.77 94.98,-190.23"/>
</g>
<!-- m27&#45;&gt;m26 -->
<g id="edge7" class="edge">
<title>m27&#45;&gt;m26</title>
<path fill="none" stroke="black" d="M48.36,-72.41C45.23,-64.57 41.4,-54.99 37.85,-46.13"/>
<polygon fill="black" stroke="black" points="41.11,-44.86 34.15,-36.88 34.61,-47.46 41.11,-44.86"/>
</g>
<!-- block27&#45;&gt;m27 -->
<g id="edge6" class="edge">
<title>block27&#45;&gt;m27</title>
<path fill="none" stroke="black" d="M99.55,-144.76C92.17,-135.86 82.88,-124.65 74.7,-114.78"/>
<polygon fill="black" stroke="black" points="77.63,-112.82 68.55,-107.35 72.24,-117.29 77.63,-112.82"/>
</g>
</g>
</svg>
