<?xml version="1.0" encoding="UTF-8" standalone="no"?>
<!DOCTYPE svg PUBLIC "-//W3C//DTD SVG 1.1//EN"
 "http://www.w3.org/Graphics/SVG/1.1/DTD/svg11.dtd">
<!-- Generated by graphviz version 7.1.0 (20230121.1956)
 -->
<!-- Pages: 1 -->
<svg width="160pt" height="1700pt"
 viewBox="0.00 0.00 160.00 1700.00" xmlns="http://www.w3.org/2000/svg" xmlns:xlink="http://www.w3.org/1999/xlink">
<g id="graph0" class="graph" transform="scale(1 1) rotate(0) translate(4 1696)">
<polygon fill="white" stroke="none" points="-4,4 -4,-1696 156,-1696 156,4 -4,4"/>
<!-- s -->
<g id="node1" class="node">
<title>s</title>
<ellipse fill="none" stroke="black" cx="27" cy="-1674" rx="27" ry="18"/>
<text text-anchor="middle" x="27" y="-1670.3" font-family="Times,serif" font-size="14.00">s</text>
</g>
<!-- if28 -->
<g id="node2" class="node">
<title>if28</title>
<ellipse fill="none" stroke="black" cx="27" cy="-1602" rx="27" ry="18"/>
<text text-anchor="middle" x="27" y="-1598.3" font-family="Times,serif" font-size="14.00">if28</text>
</g>
<!-- s&#45;&gt;if28 -->
<g id="edge1" class="edge">
<title>s&#45;&gt;if28</title>
<path fill="none" stroke="black" d="M27,-1655.7C27,-1648.41 27,-1639.73 27,-1631.54"/>
<polygon fill="black" stroke="black" points="30.5,-1631.62 27,-1621.62 23.5,-1631.62 30.5,-1631.62"/>
</g>
<!-- m28 -->
<g id="node3" class="node">
<title>m28</title>
<ellipse fill="none" stroke="black" cx="27" cy="-1458" rx="27" ry="18"/>
<text text-anchor="middle" x="27" y="-1454.3" font-family="Times,serif" font-size="14.00">m28</text>
</g>
<!-- if28&#45;&gt;m28 -->
<g id="edge2" class="edge">
<title>if28&#45;&gt;m28</title>
<path fill="none" stroke="black" d="M21.32,-1584.04C18.18,-1573.74 14.59,-1560.27 13,-1548 10.94,-1532.13 10.94,-1527.87 13,-1512 14.07,-1503.76 16.04,-1494.97 18.17,-1486.97"/>
<polygon fill="black" stroke="black" points="21.52,-1487.99 20.91,-1477.42 14.79,-1486.07 21.52,-1487.99"/>
</g>
<!-- block28 -->
<g id="node4" class="node">
<title>block28</title>
<ellipse fill="none" stroke="black" cx="61" cy="-1530" rx="38.99" ry="18"/>
<text text-anchor="middle" x="61" y="-1526.3" font-family="Times,serif" font-size="14.00">block28</text>
</g>
<!-- if28&#45;&gt;block28 -->
<g id="edge3" class="edge">
<title>if28&#45;&gt;block28</title>
<path fill="none" stroke="black" d="M35.06,-1584.41C38.85,-1576.59 43.48,-1567.06 47.78,-1558.23"/>
<polygon fill="black" stroke="black" points="50.88,-1559.84 52.1,-1549.32 44.59,-1556.78 50.88,-1559.84"/>
</g>
<!-- if29 -->
<g id="node5" class="node">
<title>if29</title>
<ellipse fill="none" stroke="black" cx="27" cy="-1386" rx="27" ry="18"/>
<text text-anchor="middle" x="27" y="-1382.3" font-family="Times,serif" font-size="14.00">if29</text>
</g>
<!-- m28&#45;&gt;if29 -->
<g id="edge5" class="edge">
<title>m28&#45;&gt;if29</title>
<path fill="none" stroke="black" d="M27,-1439.7C27,-1432.41 27,-1423.73 27,-1415.54"/>
<polygon fill="black" stroke="black" points="30.5,-1415.62 27,-1405.62 23.5,-1415.62 30.5,-1415.62"/>
</g>
<!-- block28&#45;&gt;m28 -->
<g id="edge4" class="edge">
<title>block28&#45;&gt;m28</title>
<path fill="none" stroke="black" d="M52.77,-1512.05C48.91,-1504.12 44.23,-1494.47 39.92,-1485.59"/>
<polygon fill="black" stroke="black" points="43.1,-1484.13 35.58,-1476.67 36.8,-1487.19 43.1,-1484.13"/>
</g>
<!-- m29 -->
<g id="node6" class="node">
<title>m29</title>
<ellipse fill="none" stroke="black" cx="27" cy="-1242" rx="27" ry="18"/>
<text text-anchor="middle" x="27" y="-1238.3" font-family="Times,serif" font-size="14.00">m29</text>
</g>
<!-- if29&#45;&gt;m29 -->
<g id="edge6" class="edge">
<title>if29&#45;&gt;m29</title>
<path fill="none" stroke="black" d="M21.32,-1368.04C18.18,-1357.74 14.59,-1344.27 13,-1332 10.94,-1316.13 10.94,-1311.87 13,-1296 14.07,-1287.76 16.04,-1278.97 18.17,-1270.97"/>
<polygon fill="black" stroke="black" points="21.52,-1271.99 20.91,-1261.42 14.79,-1270.07 21.52,-1271.99"/>
</g>
<!-- block29 -->
<g id="node7" class="node">
<title>block29</title>
<ellipse fill="none" stroke="black" cx="61" cy="-1314" rx="38.99" ry="18"/>
<text text-anchor="middle" x="61" y="-1310.3" font-family="Times,serif" font-size="14.00">block29</text>
</g>
<!-- if29&#45;&gt;block29 -->
<g id="edge7" class="edge">
<title>if29&#45;&gt;block29</title>
<path fill="none" stroke="black" d="M35.06,-1368.41C38.85,-1360.59 43.48,-1351.06 47.78,-1342.23"/>
<polygon fill="black" stroke="black" points="50.88,-1343.84 52.1,-1333.32 44.59,-1340.78 50.88,-1343.84"/>
</g>
<!-- if30 -->
<g id="node8" class="node">
<title>if30</title>
<ellipse fill="none" stroke="black" cx="27" cy="-1170" rx="27" ry="18"/>
<text text-anchor="middle" x="27" y="-1166.3" font-family="Times,serif" font-size="14.00">if30</text>
</g>
<!-- m29&#45;&gt;if30 -->
<g id="edge9" class="edge">
<title>m29&#45;&gt;if30</title>
<path fill="none" stroke="black" d="M27,-1223.7C27,-1216.41 27,-1207.73 27,-1199.54"/>
<polygon fill="black" stroke="black" points="30.5,-1199.62 27,-1189.62 23.5,-1199.62 30.5,-1199.62"/>
</g>
<!-- block29&#45;&gt;m29 -->
<g id="edge8" class="edge">
<title>block29&#45;&gt;m29</title>
<path fill="none" stroke="black" d="M52.77,-1296.05C48.91,-1288.12 44.23,-1278.47 39.92,-1269.59"/>
<polygon fill="black" stroke="black" points="43.1,-1268.13 35.58,-1260.67 36.8,-1271.19 43.1,-1268.13"/>
</g>
<!-- m30 -->
<g id="node9" class="node">
<title>m30</title>
<ellipse fill="none" stroke="black" cx="27" cy="-1026" rx="27" ry="18"/>
<text text-anchor="middle" x="27" y="-1022.3" font-family="Times,serif" font-size="14.00">m30</text>
</g>
<!-- if30&#45;&gt;m30 -->
<g id="edge10" class="edge">
<title>if30&#45;&gt;m30</title>
<path fill="none" stroke="black" d="M21.32,-1152.04C18.18,-1141.74 14.59,-1128.27 13,-1116 10.94,-1100.13 10.94,-1095.87 13,-1080 14.07,-1071.76 16.04,-1062.97 18.17,-1054.97"/>
<polygon fill="black" stroke="black" points="21.52,-1055.99 20.91,-1045.42 14.79,-1054.07 21.52,-1055.99"/>
</g>
<!-- block30 -->
<g id="node10" class="node">
<title>block30</title>
<ellipse fill="none" stroke="black" cx="61" cy="-1098" rx="38.99" ry="18"/>
<text text-anchor="middle" x="61" y="-1094.3" font-family="Times,serif" font-size="14.00">block30</text>
</g>
<!-- if30&#45;&gt;block30 -->
<g id="edge11" class="edge">
<title>if30&#45;&gt;block30</title>
<path fill="none" stroke="black" d="M35.06,-1152.41C38.85,-1144.59 43.48,-1135.06 47.78,-1126.23"/>
<polygon fill="black" stroke="black" points="50.88,-1127.84 52.1,-1117.32 44.59,-1124.78 50.88,-1127.84"/>
</g>
<!-- if31 -->
<g id="node11" class="node">
<title>if31</title>
<ellipse fill="none" stroke="black" cx="27" cy="-954" rx="27" ry="18"/>
<text text-anchor="middle" x="27" y="-950.3" font-family="Times,serif" font-size="14.00">if31</text>
</g>
<!-- m30&#45;&gt;if31 -->
<g id="edge13" class="edge">
<title>m30&#45;&gt;if31</title>
<path fill="none" stroke="black" d="M27,-1007.7C27,-1000.41 27,-991.73 27,-983.54"/>
<polygon fill="black" stroke="black" points="30.5,-983.62 27,-973.62 23.5,-983.62 30.5,-983.62"/>
</g>
<!-- block30&#45;&gt;m30 -->
<g id="edge12" class="edge">
<title>block30&#45;&gt;m30</title>
<path fill="none" stroke="black" d="M52.77,-1080.05C48.91,-1072.12 44.23,-1062.47 39.92,-1053.59"/>
<polygon fill="black" stroke="black" points="43.1,-1052.13 35.58,-1044.67 36.8,-1055.19 43.1,-1052.13"/>
</g>
<!-- m31 -->
<g id="node12" class="node">
<title>m31</title>
<ellipse fill="none" stroke="black" cx="27" cy="-810" rx="27" ry="18"/>
<text text-anchor="middle" x="27" y="-806.3" font-family="Times,serif" font-size="14.00">m31</text>
</g>
<!-- if31&#45;&gt;m31 -->
<g id="edge14" class="edge">
<title>if31&#45;&gt;m31</title>
<path fill="none" stroke="black" d="M21.32,-936.04C18.18,-925.74 14.59,-912.27 13,-900 10.94,-884.13 10.94,-879.87 13,-864 14.07,-855.76 16.04,-846.97 18.17,-838.97"/>
<polygon fill="black" stroke="black" points="21.52,-839.99 20.91,-829.42 14.79,-838.07 21.52,-839.99"/>
</g>
<!-- block31 -->
<g id="node13" class="node">
<title>block31</title>
<ellipse fill="none" stroke="black" cx="61" cy="-882" rx="38.99" ry="18"/>
<text text-anchor="middle" x="61" y="-878.3" font-family="Times,serif" font-size="14.00">block31</text>
</g>
<!-- if31&#45;&gt;block31 -->
<g id="edge15" class="edge">
<title>if31&#45;&gt;block31</title>
<path fill="none" stroke="black" d="M35.06,-936.41C38.85,-928.59 43.48,-919.06 47.78,-910.23"/>
<polygon fill="black" stroke="black" points="50.88,-911.84 52.1,-901.32 44.59,-908.78 50.88,-911.84"/>
</g>
<!-- if32 -->
<g id="node14" class="node">
<title>if32</title>
<ellipse fill="none" stroke="black" cx="27" cy="-738" rx="27" ry="18"/>
<text text-anchor="middle" x="27" y="-734.3" font-family="Times,serif" font-size="14.00">if32</text>
</g>
<!-- m31&#45;&gt;if32 -->
<g id="edge17" class="edge">
<title>m31&#45;&gt;if32</title>
<path fill="none" stroke="black" d="M27,-791.7C27,-784.41 27,-775.73 27,-767.54"/>
<polygon fill="black" stroke="black" points="30.5,-767.62 27,-757.62 23.5,-767.62 30.5,-767.62"/>
</g>
<!-- block31&#45;&gt;m31 -->
<g id="edge16" class="edge">
<title>block31&#45;&gt;m31</title>
<path fill="none" stroke="black" d="M52.77,-864.05C48.91,-856.12 44.23,-846.47 39.92,-837.59"/>
<polygon fill="black" stroke="black" points="43.1,-836.13 35.58,-828.67 36.8,-839.19 43.1,-836.13"/>
</g>
<!-- m32 -->
<g id="node15" class="node">
<title>m32</title>
<ellipse fill="none" stroke="black" cx="27" cy="-594" rx="27" ry="18"/>
<text text-anchor="middle" x="27" y="-590.3" font-family="Times,serif" font-size="14.00">m32</text>
</g>
<!-- if32&#45;&gt;m32 -->
<g id="edge18" class="edge">
<title>if32&#45;&gt;m32</title>
<path fill="none" stroke="black" d="M21.32,-720.04C18.18,-709.74 14.59,-696.27 13,-684 10.94,-668.13 10.94,-663.87 13,-648 14.07,-639.76 16.04,-630.97 18.17,-622.97"/>
<polygon fill="black" stroke="black" points="21.52,-623.99 20.91,-613.42 14.79,-622.07 21.52,-623.99"/>
</g>
<!-- block32 -->
<g id="node16" class="node">
<title>block32</title>
<ellipse fill="none" stroke="black" cx="61" cy="-666" rx="38.99" ry="18"/>
<text text-anchor="middle" x="61" y="-662.3" font-family="Times,serif" font-size="14.00">block32</text>
</g>
<!-- if32&#45;&gt;block32 -->
<g id="edge19" class="edge">
<title>if32&#45;&gt;block32</title>
<path fill="none" stroke="black" d="M35.06,-720.41C38.85,-712.59 43.48,-703.06 47.78,-694.23"/>
<polygon fill="black" stroke="black" points="50.88,-695.84 52.1,-685.32 44.59,-692.78 50.88,-695.84"/>
</g>
<!-- if33 -->
<g id="node17" class="node">
<title>if33</title>
<ellipse fill="none" stroke="black" cx="27" cy="-522" rx="27" ry="18"/>
<text text-anchor="middle" x="27" y="-518.3" font-family="Times,serif" font-size="14.00">if33</text>
</g>
<!-- m32&#45;&gt;if33 -->
<g id="edge21" class="edge">
<title>m32&#45;&gt;if33</title>
<path fill="none" stroke="black" d="M27,-575.7C27,-568.41 27,-559.73 27,-551.54"/>
<polygon fill="black" stroke="black" points="30.5,-551.62 27,-541.62 23.5,-551.62 30.5,-551.62"/>
</g>
<!-- block32&#45;&gt;m32 -->
<g id="edge20" class="edge">
<title>block32&#45;&gt;m32</title>
<path fill="none" stroke="black" d="M52.77,-648.05C48.91,-640.12 44.23,-630.47 39.92,-621.59"/>
<polygon fill="black" stroke="black" points="43.1,-620.13 35.58,-612.67 36.8,-623.19 43.1,-620.13"/>
</g>
<!-- m33 -->
<g id="node18" class="node">
<title>m33</title>
<ellipse fill="none" stroke="black" cx="27" cy="-378" rx="27" ry="18"/>
<text text-anchor="middle" x="27" y="-374.3" font-family="Times,serif" font-size="14.00">m33</text>
</g>
<!-- if33&#45;&gt;m33 -->
<g id="edge22" class="edge">
<title>if33&#45;&gt;m33</title>
<path fill="none" stroke="black" d="M21.32,-504.04C18.18,-493.74 14.59,-480.27 13,-468 10.94,-452.13 10.94,-447.87 13,-432 14.07,-423.76 16.04,-414.97 18.17,-406.97"/>
<polygon fill="black" stroke="black" points="21.52,-407.99 20.91,-397.42 14.79,-406.07 21.52,-407.99"/>
</g>
<!-- block33 -->
<g id="node19" class="node">
<title>block33</title>
<ellipse fill="none" stroke="black" cx="61" cy="-450" rx="38.99" ry="18"/>
<text text-anchor="middle" x="61" y="-446.3" font-family="Times,serif" font-size="14.00">block33</text>
</g>
<!-- if33&#45;&gt;block33 -->
<g id="edge23" class="edge">
<title>if33&#45;&gt;block33</title>
<path fill="none" stroke="black" d="M35.06,-504.41C38.85,-496.59 43.48,-487.06 47.78,-478.23"/>
<polygon fill="black" stroke="black" points="50.88,-479.84 52.1,-469.32 44.59,-476.78 50.88,-479.84"/>
</g>
<!-- if34 -->
<g id="node20" class="node">
<title>if34</title>
<ellipse fill="none" stroke="black" cx="27" cy="-306" rx="27" ry="18"/>
<text text-anchor="middle" x="27" y="-302.3" font-family="Times,serif" font-size="14.00">if34</text>
</g>
<!-- m33&#45;&gt;if34 -->
<g id="edge25" class="edge">
<title>m33&#45;&gt;if34</title>
<path fill="none" stroke="black" d="M27,-359.7C27,-352.41 27,-343.73 27,-335.54"/>
<polygon fill="black" stroke="black" points="30.5,-335.62 27,-325.62 23.5,-335.62 30.5,-335.62"/>
</g>
<!-- block33&#45;&gt;m33 -->
<g id="edge24" class="edge">
<title>block33&#45;&gt;m33</title>
<path fill="none" stroke="black" d="M52.77,-432.05C48.91,-424.12 44.23,-414.47 39.92,-405.59"/>
<polygon fill="black" stroke="black" points="43.1,-404.13 35.58,-396.67 36.8,-407.19 43.1,-404.13"/>
</g>
<!-- m34 -->
<g id="node21" class="node">
<title>m34</title>
<ellipse fill="none" stroke="black" cx="27" cy="-18" rx="27" ry="18"/>
<text text-anchor="middle" x="27" y="-14.3" font-family="Times,serif" font-size="14.00">m34</text>
</g>
<!-- if34&#45;&gt;m34 -->
<g id="edge26" class="edge">
<title>if34&#45;&gt;m34</title>
<path fill="none" stroke="black" d="M23.75,-287.89C21.95,-277.54 19.91,-264.06 19,-252 13.01,-172.22 13.01,-151.78 19,-72 19.6,-63.99 20.71,-55.35 21.91,-47.43"/>
<polygon fill="black" stroke="black" points="25.35,-48.04 23.51,-37.61 18.45,-46.91 25.35,-48.04"/>
</g>
<!-- if35 -->
<g id="node22" class="node">
<title>if35</title>
<ellipse fill="none" stroke="black" cx="55" cy="-234" rx="27" ry="18"/>
<text text-anchor="middle" x="55" y="-230.3" font-family="Times,serif" font-size="14.00">if35</text>
</g>
<!-- if34&#45;&gt;if35 -->
<g id="edge27" class="edge">
<title>if34&#45;&gt;if35</title>
<path fill="none" stroke="black" d="M33.64,-288.41C36.77,-280.57 40.6,-270.99 44.15,-262.13"/>
<polygon fill="black" stroke="black" points="47.39,-263.46 47.85,-252.88 40.89,-260.86 47.39,-263.46"/>
</g>
<!-- m35 -->
<g id="node23" class="node">
<title>m35</title>
<ellipse fill="none" stroke="black" cx="55" cy="-90" rx="27" ry="18"/>
<text text-anchor="middle" x="55" y="-86.3" font-family="Times,serif" font-size="14.00">m35</text>
</g>
<!-- if35&#45;&gt;m35 -->
<g id="edge28" class="edge">
<title>if35&#45;&gt;m35</title>
<path fill="none" stroke="black" d="M55,-215.59C55,-191.61 55,-148.14 55,-119.42"/>
<polygon fill="black" stroke="black" points="58.5,-119.62 55,-109.62 51.5,-119.62 58.5,-119.62"/>
</g>
<!-- block35 -->
<g id="node24" class="node">
<title>block35</title>
<ellipse fill="none" stroke="black" cx="113" cy="-162" rx="38.99" ry="18"/>
<text text-anchor="middle" x="113" y="-158.3" font-family="Times,serif" font-size="14.00">block35</text>
</g>
<!-- if35&#45;&gt;block35 -->
<g id="edge29" class="edge">
<title>if35&#45;&gt;block35</title>
<path fill="none" stroke="black" d="M67.59,-217.81C74.83,-209.07 84.11,-197.87 92.39,-187.87"/>
<polygon fill="black" stroke="black" points="94.98,-190.23 98.67,-180.3 89.59,-185.77 94.98,-190.23"/>
</g>
<!-- m35&#45;&gt;m34 -->
<g id="edge31" class="edge">
<title>m35&#45;&gt;m34</title>
<path fill="none" stroke="black" d="M48.36,-72.41C45.23,-64.57 41.4,-54.99 37.85,-46.13"/>
<polygon fill="black" stroke="black" points="41.11,-44.86 34.15,-36.88 34.61,-47.46 41.11,-44.86"/>
</g>
<!-- block35&#45;&gt;m35 -->
<g id="edge30" class="edge">
<title>block35&#45;&gt;m35</title>
<path fill="none" stroke="black" d="M99.55,-144.76C92.17,-135.86 82.88,-124.65 74.7,-114.78"/>
<polygon fill="black" stroke="black" points="77.63,-112.82 68.55,-107.35 72.24,-117.29 77.63,-112.82"/>
</g>
</g>
</svg>
