<?xml version="1.0" encoding="UTF-8" standalone="no"?>
<!DOCTYPE svg PUBLIC "-//W3C//DTD SVG 1.1//EN"
 "http://www.w3.org/Graphics/SVG/1.1/DTD/svg11.dtd">
<!-- Generated by graphviz version 7.1.0 (20230121.1956)
 -->
<!-- Pages: 1 -->
<svg width="108pt" height="260pt"
 viewBox="0.00 0.00 108.00 260.00" xmlns="http://www.w3.org/2000/svg" xmlns:xlink="http://www.w3.org/1999/xlink">
<g id="graph0" class="graph" transform="scale(1 1) rotate(0) translate(4 256)">
<polygon fill="white" stroke="none" points="-4,4 -4,-256 104,-256 104,4 -4,4"/>
<!-- s -->
<g id="node1" class="node">
<title>s</title>
<ellipse fill="none" stroke="black" cx="27" cy="-234" rx="27" ry="18"/>
<text text-anchor="middle" x="27" y="-230.3" font-family="Times,serif" font-size="14.00">s</text>
</g>
<!-- if40 -->
<g id="node2" class="node">
<title>if40</title>
<ellipse fill="none" stroke="black" cx="27" cy="-162" rx="27" ry="18"/>
<text text-anchor="middle" x="27" y="-158.3" font-family="Times,serif" font-size="14.00">if40</text>
</g>
<!-- s&#45;&gt;if40 -->
<g id="edge1" class="edge">
<title>s&#45;&gt;if40</title>
<path fill="none" stroke="black" d="M27,-215.7C27,-208.41 27,-199.73 27,-191.54"/>
<polygon fill="black" stroke="black" points="30.5,-191.62 27,-181.62 23.5,-191.62 30.5,-191.62"/>
</g>
<!-- m40 -->
<g id="node3" class="node">
<title>m40</title>
<ellipse fill="none" stroke="black" cx="27" cy="-18" rx="27" ry="18"/>
<text text-anchor="middle" x="27" y="-14.3" font-family="Times,serif" font-size="14.00">m40</text>
</g>
<!-- if40&#45;&gt;m40 -->
<g id="edge2" class="edge">
<title>if40&#45;&gt;m40</title>
<path fill="none" stroke="black" d="M21.32,-144.04C18.18,-133.74 14.59,-120.27 13,-108 10.94,-92.13 10.94,-87.87 13,-72 14.07,-63.76 16.04,-54.97 18.17,-46.97"/>
<polygon fill="black" stroke="black" points="21.52,-47.99 20.91,-37.42 14.79,-46.07 21.52,-47.99"/>
</g>
<!-- block40 -->
<g id="node4" class="node">
<title>block40</title>
<ellipse fill="none" stroke="black" cx="61" cy="-90" rx="38.99" ry="18"/>
<text text-anchor="middle" x="61" y="-86.3" font-family="Times,serif" font-size="14.00">block40</text>
</g>
<!-- if40&#45;&gt;block40 -->
<g id="edge3" class="edge">
<title>if40&#45;&gt;block40</title>
<path fill="none" stroke="black" d="M35.06,-144.41C38.85,-136.59 43.48,-127.06 47.78,-118.23"/>
<polygon fill="black" stroke="black" points="50.88,-119.84 52.1,-109.32 44.59,-116.78 50.88,-119.84"/>
</g>
<!-- block40&#45;&gt;m40 -->
<g id="edge4" class="edge">
<title>block40&#45;&gt;m40</title>
<path fill="none" stroke="black" d="M52.77,-72.05C48.91,-64.12 44.23,-54.47 39.92,-45.59"/>
<polygon fill="black" stroke="black" points="43.1,-44.13 35.58,-36.67 36.8,-47.19 43.1,-44.13"/>
</g>
</g>
</svg>
