<?xml version="1.0" encoding="UTF-8" standalone="no"?>
<!DOCTYPE svg PUBLIC "-//W3C//DTD SVG 1.1//EN"
 "http://www.w3.org/Graphics/SVG/1.1/DTD/svg11.dtd">
<!-- Generated by graphviz version 7.1.0 (20230121.1956)
 -->
<!-- Pages: 1 -->
<svg width="108pt" height="476pt"
 viewBox="0.00 0.00 108.00 476.00" xmlns="http://www.w3.org/2000/svg" xmlns:xlink="http://www.w3.org/1999/xlink">
<g id="graph0" class="graph" transform="scale(1 1) rotate(0) translate(4 472)">
<polygon fill="white" stroke="none" points="-4,4 -4,-472 104,-472 104,4 -4,4"/>
<!-- s -->
<g id="node1" class="node">
<title>s</title>
<ellipse fill="none" stroke="black" cx="27" cy="-450" rx="27" ry="18"/>
<text text-anchor="middle" x="27" y="-446.3" font-family="Times,serif" font-size="14.00">s</text>
</g>
<!-- if45 -->
<g id="node2" class="node">
<title>if45</title>
<ellipse fill="none" stroke="black" cx="27" cy="-378" rx="27" ry="18"/>
<text text-anchor="middle" x="27" y="-374.3" font-family="Times,serif" font-size="14.00">if45</text>
</g>
<!-- s&#45;&gt;if45 -->
<g id="edge1" class="edge">
<title>s&#45;&gt;if45</title>
<path fill="none" stroke="black" d="M27,-431.7C27,-424.41 27,-415.73 27,-407.54"/>
<polygon fill="black" stroke="black" points="30.5,-407.62 27,-397.62 23.5,-407.62 30.5,-407.62"/>
</g>
<!-- m45 -->
<g id="node3" class="node">
<title>m45</title>
<ellipse fill="none" stroke="black" cx="27" cy="-234" rx="27" ry="18"/>
<text text-anchor="middle" x="27" y="-230.3" font-family="Times,serif" font-size="14.00">m45</text>
</g>
<!-- if45&#45;&gt;m45 -->
<g id="edge2" class="edge">
<title>if45&#45;&gt;m45</title>
<path fill="none" stroke="black" d="M21.32,-360.04C18.18,-349.74 14.59,-336.27 13,-324 10.94,-308.13 10.94,-303.87 13,-288 14.07,-279.76 16.04,-270.97 18.17,-262.97"/>
<polygon fill="black" stroke="black" points="21.52,-263.99 20.91,-253.42 14.79,-262.07 21.52,-263.99"/>
</g>
<!-- block45 -->
<g id="node4" class="node">
<title>block45</title>
<ellipse fill="none" stroke="black" cx="61" cy="-306" rx="38.99" ry="18"/>
<text text-anchor="middle" x="61" y="-302.3" font-family="Times,serif" font-size="14.00">block45</text>
</g>
<!-- if45&#45;&gt;block45 -->
<g id="edge3" class="edge">
<title>if45&#45;&gt;block45</title>
<path fill="none" stroke="black" d="M35.06,-360.41C38.85,-352.59 43.48,-343.06 47.78,-334.23"/>
<polygon fill="black" stroke="black" points="50.88,-335.84 52.1,-325.32 44.59,-332.78 50.88,-335.84"/>
</g>
<!-- if46 -->
<g id="node5" class="node">
<title>if46</title>
<ellipse fill="none" stroke="black" cx="27" cy="-162" rx="27" ry="18"/>
<text text-anchor="middle" x="27" y="-158.3" font-family="Times,serif" font-size="14.00">if46</text>
</g>
<!-- m45&#45;&gt;if46 -->
<g id="edge5" class="edge">
<title>m45&#45;&gt;if46</title>
<path fill="none" stroke="black" d="M27,-215.7C27,-208.41 27,-199.73 27,-191.54"/>
<polygon fill="black" stroke="black" points="30.5,-191.62 27,-181.62 23.5,-191.62 30.5,-191.62"/>
</g>
<!-- block45&#45;&gt;m45 -->
<g id="edge4" class="edge">
<title>block45&#45;&gt;m45</title>
<path fill="none" stroke="black" d="M52.77,-288.05C48.91,-280.12 44.23,-270.47 39.92,-261.59"/>
<polygon fill="black" stroke="black" points="43.1,-260.13 35.58,-252.67 36.8,-263.19 43.1,-260.13"/>
</g>
<!-- m46 -->
<g id="node6" class="node">
<title>m46</title>
<ellipse fill="none" stroke="black" cx="27" cy="-18" rx="27" ry="18"/>
<text text-anchor="middle" x="27" y="-14.3" font-family="Times,serif" font-size="14.00">m46</text>
</g>
<!-- if46&#45;&gt;m46 -->
<g id="edge6" class="edge">
<title>if46&#45;&gt;m46</title>
<path fill="none" stroke="black" d="M21.32,-144.04C18.18,-133.74 14.59,-120.27 13,-108 10.94,-92.13 10.94,-87.87 13,-72 14.07,-63.76 16.04,-54.97 18.17,-46.97"/>
<polygon fill="black" stroke="black" points="21.52,-47.99 20.91,-37.42 14.79,-46.07 21.52,-47.99"/>
</g>
<!-- block46 -->
<g id="node7" class="node">
<title>block46</title>
<ellipse fill="none" stroke="black" cx="61" cy="-90" rx="38.99" ry="18"/>
<text text-anchor="middle" x="61" y="-86.3" font-family="Times,serif" font-size="14.00">block46</text>
</g>
<!-- if46&#45;&gt;block46 -->
<g id="edge7" class="edge">
<title>if46&#45;&gt;block46</title>
<path fill="none" stroke="black" d="M35.06,-144.41C38.85,-136.59 43.48,-127.06 47.78,-118.23"/>
<polygon fill="black" stroke="black" points="50.88,-119.84 52.1,-109.32 44.59,-116.78 50.88,-119.84"/>
</g>
<!-- block46&#45;&gt;m46 -->
<g id="edge8" class="edge">
<title>block46&#45;&gt;m46</title>
<path fill="none" stroke="black" d="M52.77,-72.05C48.91,-64.12 44.23,-54.47 39.92,-45.59"/>
<polygon fill="black" stroke="black" points="43.1,-44.13 35.58,-36.67 36.8,-47.19 43.1,-44.13"/>
</g>
</g>
</svg>
