<?xml version="1.0" encoding="UTF-8" standalone="no"?>
<!DOCTYPE svg PUBLIC "-//W3C//DTD SVG 1.1//EN"
 "http://www.w3.org/Graphics/SVG/1.1/DTD/svg11.dtd">
<!-- Generated by graphviz version 7.1.0 (20230121.1956)
 -->
<!-- Pages: 1 -->
<svg width="242pt" height="692pt"
 viewBox="0.00 0.00 242.45 692.00" xmlns="http://www.w3.org/2000/svg" xmlns:xlink="http://www.w3.org/1999/xlink">
<g id="graph0" class="graph" transform="scale(1 1) rotate(0) translate(4 688)">
<polygon fill="white" stroke="none" points="-4,4 -4,-688 238.45,-688 238.45,4 -4,4"/>
<!-- s -->
<g id="node1" class="node">
<title>s</title>
<ellipse fill="none" stroke="black" cx="27" cy="-666" rx="27" ry="18"/>
<text text-anchor="middle" x="27" y="-662.3" font-family="Times,serif" font-size="14.00">s</text>
</g>
<!-- if5 -->
<g id="node2" class="node">
<title>if5</title>
<ellipse fill="none" stroke="black" cx="27" cy="-594" rx="27" ry="18"/>
<text text-anchor="middle" x="27" y="-590.3" font-family="Times,serif" font-size="14.00">if5</text>
</g>
<!-- s&#45;&gt;if5 -->
<g id="edge1" class="edge">
<title>s&#45;&gt;if5</title>
<path fill="none" stroke="black" d="M27,-647.7C27,-640.41 27,-631.73 27,-623.54"/>
<polygon fill="black" stroke="black" points="30.5,-623.62 27,-613.62 23.5,-623.62 30.5,-623.62"/>
</g>
<!-- m5 -->
<g id="node3" class="node">
<title>m5</title>
<ellipse fill="none" stroke="black" cx="27" cy="-18" rx="27" ry="18"/>
<text text-anchor="middle" x="27" y="-14.3" font-family="Times,serif" font-size="14.00">m5</text>
</g>
<!-- if5&#45;&gt;m5 -->
<g id="edge2" class="edge">
<title>if5&#45;&gt;m5</title>
<path fill="none" stroke="black" d="M21.67,-576.15C13.8,-549.75 0,-496.92 0,-451 0,-451 0,-451 0,-161 0,-120.64 10.66,-74.94 18.58,-46.54"/>
<polygon fill="black" stroke="black" points="21.84,-47.88 21.25,-37.31 15.11,-45.94 21.84,-47.88"/>
</g>
<!-- if6 -->
<g id="node4" class="node">
<title>if6</title>
<ellipse fill="none" stroke="black" cx="55" cy="-522" rx="27" ry="18"/>
<text text-anchor="middle" x="55" y="-518.3" font-family="Times,serif" font-size="14.00">if6</text>
</g>
<!-- if5&#45;&gt;if6 -->
<g id="edge3" class="edge">
<title>if5&#45;&gt;if6</title>
<path fill="none" stroke="black" d="M33.64,-576.41C36.77,-568.57 40.6,-558.99 44.15,-550.13"/>
<polygon fill="black" stroke="black" points="47.39,-551.46 47.85,-540.88 40.89,-548.86 47.39,-551.46"/>
</g>
<!-- m6 -->
<g id="node5" class="node">
<title>m6</title>
<ellipse fill="none" stroke="black" cx="55" cy="-90" rx="27" ry="18"/>
<text text-anchor="middle" x="55" y="-86.3" font-family="Times,serif" font-size="14.00">m6</text>
</g>
<!-- if6&#45;&gt;m6 -->
<g id="edge4" class="edge">
<title>if6&#45;&gt;m6</title>
<path fill="none" stroke="black" d="M53.22,-503.97C50.6,-477.34 46,-424.21 46,-379 46,-379 46,-379 46,-233 46,-193.45 49.52,-147.82 52.16,-119.19"/>
<polygon fill="black" stroke="black" points="55.61,-119.82 53.08,-109.53 48.65,-119.16 55.61,-119.82"/>
</g>
<!-- if7 -->
<g id="node6" class="node">
<title>if7</title>
<ellipse fill="none" stroke="black" cx="101" cy="-450" rx="27" ry="18"/>
<text text-anchor="middle" x="101" y="-446.3" font-family="Times,serif" font-size="14.00">if7</text>
</g>
<!-- if6&#45;&gt;if7 -->
<g id="edge6" class="edge">
<title>if6&#45;&gt;if7</title>
<path fill="none" stroke="black" d="M65.44,-505.12C71.03,-496.61 78.04,-485.94 84.36,-476.32"/>
<polygon fill="black" stroke="black" points="87.21,-478.37 89.77,-468.09 81.36,-474.52 87.21,-478.37"/>
</g>
<!-- m6&#45;&gt;m5 -->
<g id="edge5" class="edge">
<title>m6&#45;&gt;m5</title>
<path fill="none" stroke="black" d="M48.36,-72.41C45.23,-64.57 41.4,-54.99 37.85,-46.13"/>
<polygon fill="black" stroke="black" points="41.11,-44.86 34.15,-36.88 34.61,-47.46 41.11,-44.86"/>
</g>
<!-- m7 -->
<g id="node7" class="node">
<title>m7</title>
<ellipse fill="none" stroke="black" cx="101" cy="-162" rx="27" ry="18"/>
<text text-anchor="middle" x="101" y="-158.3" font-family="Times,serif" font-size="14.00">m7</text>
</g>
<!-- if7&#45;&gt;m7 -->
<g id="edge7" class="edge">
<title>if7&#45;&gt;m7</title>
<path fill="none" stroke="black" d="M101,-431.54C101,-383.76 101,-250.51 101,-191.61"/>
<polygon fill="black" stroke="black" points="104.5,-191.75 101,-181.75 97.5,-191.75 104.5,-191.75"/>
</g>
<!-- if8 -->
<g id="node8" class="node">
<title>if8</title>
<ellipse fill="none" stroke="black" cx="147" cy="-378" rx="27" ry="18"/>
<text text-anchor="middle" x="147" y="-374.3" font-family="Times,serif" font-size="14.00">if8</text>
</g>
<!-- if7&#45;&gt;if8 -->
<g id="edge9" class="edge">
<title>if7&#45;&gt;if8</title>
<path fill="none" stroke="black" d="M111.44,-433.12C117.03,-424.61 124.04,-413.94 130.36,-404.32"/>
<polygon fill="black" stroke="black" points="133.21,-406.37 135.77,-396.09 127.36,-402.52 133.21,-406.37"/>
</g>
<!-- m7&#45;&gt;m6 -->
<g id="edge8" class="edge">
<title>m7&#45;&gt;m6</title>
<path fill="none" stroke="black" d="M90.56,-145.12C84.97,-136.61 77.96,-125.94 71.64,-116.32"/>
<polygon fill="black" stroke="black" points="74.64,-114.52 66.23,-108.09 68.79,-118.37 74.64,-114.52"/>
</g>
<!-- m8 -->
<g id="node9" class="node">
<title>m8</title>
<ellipse fill="none" stroke="black" cx="147" cy="-234" rx="27" ry="18"/>
<text text-anchor="middle" x="147" y="-230.3" font-family="Times,serif" font-size="14.00">m8</text>
</g>
<!-- if8&#45;&gt;m8 -->
<g id="edge10" class="edge">
<title>if8&#45;&gt;m8</title>
<path fill="none" stroke="black" d="M147,-359.59C147,-335.61 147,-292.14 147,-263.42"/>
<polygon fill="black" stroke="black" points="150.5,-263.62 147,-253.62 143.5,-263.62 150.5,-263.62"/>
</g>
<!-- block8 -->
<g id="node10" class="node">
<title>block8</title>
<ellipse fill="none" stroke="black" cx="200" cy="-306" rx="34.39" ry="18"/>
<text text-anchor="middle" x="200" y="-302.3" font-family="Times,serif" font-size="14.00">block8</text>
</g>
<!-- if8&#45;&gt;block8 -->
<g id="edge11" class="edge">
<title>if8&#45;&gt;block8</title>
<path fill="none" stroke="black" d="M158.76,-361.46C165.33,-352.8 173.66,-341.79 181.11,-331.95"/>
<polygon fill="black" stroke="black" points="183.74,-334.27 186.99,-324.18 178.16,-330.04 183.74,-334.27"/>
</g>
<!-- m8&#45;&gt;m7 -->
<g id="edge13" class="edge">
<title>m8&#45;&gt;m7</title>
<path fill="none" stroke="black" d="M136.56,-217.12C130.97,-208.61 123.96,-197.94 117.64,-188.32"/>
<polygon fill="black" stroke="black" points="120.64,-186.52 112.23,-180.09 114.79,-190.37 120.64,-186.52"/>
</g>
<!-- block8&#45;&gt;m8 -->
<g id="edge12" class="edge">
<title>block8&#45;&gt;m8</title>
<path fill="none" stroke="black" d="M187.71,-288.76C181.19,-280.16 173.05,-269.41 165.77,-259.79"/>
<polygon fill="black" stroke="black" points="168.6,-257.73 159.77,-251.87 163.02,-261.96 168.6,-257.73"/>
</g>
</g>
</svg>
