<?xml version="1.0" encoding="UTF-8" standalone="no"?>
<!DOCTYPE svg PUBLIC "-//W3C//DTD SVG 1.1//EN"
 "http://www.w3.org/Graphics/SVG/1.1/DTD/svg11.dtd">
<!-- Generated by graphviz version 7.1.0 (20230121.1956)
 -->
<!-- Pages: 1 -->
<svg width="100pt" height="476pt"
 viewBox="0.00 0.00 100.45 476.00" xmlns="http://www.w3.org/2000/svg" xmlns:xlink="http://www.w3.org/1999/xlink">
<g id="graph0" class="graph" transform="scale(1 1) rotate(0) translate(4 472)">
<polygon fill="white" stroke="none" points="-4,4 -4,-472 96.45,-472 96.45,4 -4,4"/>
<!-- s -->
<g id="node1" class="node">
<title>s</title>
<ellipse fill="none" stroke="black" cx="27" cy="-450" rx="27" ry="18"/>
<text text-anchor="middle" x="27" y="-446.3" font-family="Times,serif" font-size="14.00">s</text>
</g>
<!-- if0 -->
<g id="node2" class="node">
<title>if0</title>
<ellipse fill="none" stroke="black" cx="27" cy="-378" rx="27" ry="18"/>
<text text-anchor="middle" x="27" y="-374.3" font-family="Times,serif" font-size="14.00">if0</text>
</g>
<!-- s&#45;&gt;if0 -->
<g id="edge1" class="edge">
<title>s&#45;&gt;if0</title>
<path fill="none" stroke="black" d="M27,-431.7C27,-424.41 27,-415.73 27,-407.54"/>
<polygon fill="black" stroke="black" points="30.5,-407.62 27,-397.62 23.5,-407.62 30.5,-407.62"/>
</g>
<!-- m0 -->
<g id="node3" class="node">
<title>m0</title>
<ellipse fill="none" stroke="black" cx="27" cy="-234" rx="27" ry="18"/>
<text text-anchor="middle" x="27" y="-230.3" font-family="Times,serif" font-size="14.00">m0</text>
</g>
<!-- if0&#45;&gt;m0 -->
<g id="edge2" class="edge">
<title>if0&#45;&gt;m0</title>
<path fill="none" stroke="black" d="M22.13,-359.98C19.44,-349.67 16.36,-336.19 15,-324 13.22,-308.1 13.22,-303.9 15,-288 15.92,-279.81 17.6,-271.04 19.43,-263.04"/>
<polygon fill="black" stroke="black" points="22.79,-264.04 21.77,-253.49 15.99,-262.37 22.79,-264.04"/>
</g>
<!-- block0 -->
<g id="node4" class="node">
<title>block0</title>
<ellipse fill="none" stroke="black" cx="58" cy="-306" rx="34.39" ry="18"/>
<text text-anchor="middle" x="58" y="-302.3" font-family="Times,serif" font-size="14.00">block0</text>
</g>
<!-- if0&#45;&gt;block0 -->
<g id="edge3" class="edge">
<title>if0&#45;&gt;block0</title>
<path fill="none" stroke="black" d="M34.35,-360.41C37.81,-352.59 42.03,-343.06 45.94,-334.23"/>
<polygon fill="black" stroke="black" points="49.03,-335.9 49.88,-325.34 42.63,-333.07 49.03,-335.9"/>
</g>
<!-- if1 -->
<g id="node5" class="node">
<title>if1</title>
<ellipse fill="none" stroke="black" cx="27" cy="-162" rx="27" ry="18"/>
<text text-anchor="middle" x="27" y="-158.3" font-family="Times,serif" font-size="14.00">if1</text>
</g>
<!-- m0&#45;&gt;if1 -->
<g id="edge5" class="edge">
<title>m0&#45;&gt;if1</title>
<path fill="none" stroke="black" d="M27,-215.7C27,-208.41 27,-199.73 27,-191.54"/>
<polygon fill="black" stroke="black" points="30.5,-191.62 27,-181.62 23.5,-191.62 30.5,-191.62"/>
</g>
<!-- block0&#45;&gt;m0 -->
<g id="edge4" class="edge">
<title>block0&#45;&gt;m0</title>
<path fill="none" stroke="black" d="M50.5,-288.05C47.07,-280.32 42.92,-270.96 39.08,-262.27"/>
<polygon fill="black" stroke="black" points="42.3,-260.9 35.05,-253.17 35.9,-263.73 42.3,-260.9"/>
</g>
<!-- m1 -->
<g id="node6" class="node">
<title>m1</title>
<ellipse fill="none" stroke="black" cx="27" cy="-18" rx="27" ry="18"/>
<text text-anchor="middle" x="27" y="-14.3" font-family="Times,serif" font-size="14.00">m1</text>
</g>
<!-- if1&#45;&gt;m1 -->
<g id="edge6" class="edge">
<title>if1&#45;&gt;m1</title>
<path fill="none" stroke="black" d="M22.13,-143.98C19.44,-133.67 16.36,-120.19 15,-108 13.22,-92.1 13.22,-87.9 15,-72 15.92,-63.81 17.6,-55.04 19.43,-47.04"/>
<polygon fill="black" stroke="black" points="22.79,-48.04 21.77,-37.49 15.99,-46.37 22.79,-48.04"/>
</g>
<!-- block1 -->
<g id="node7" class="node">
<title>block1</title>
<ellipse fill="none" stroke="black" cx="58" cy="-90" rx="34.39" ry="18"/>
<text text-anchor="middle" x="58" y="-86.3" font-family="Times,serif" font-size="14.00">block1</text>
</g>
<!-- if1&#45;&gt;block1 -->
<g id="edge7" class="edge">
<title>if1&#45;&gt;block1</title>
<path fill="none" stroke="black" d="M34.35,-144.41C37.81,-136.59 42.03,-127.06 45.94,-118.23"/>
<polygon fill="black" stroke="black" points="49.03,-119.9 49.88,-109.34 42.63,-117.07 49.03,-119.9"/>
</g>
<!-- block1&#45;&gt;m1 -->
<g id="edge8" class="edge">
<title>block1&#45;&gt;m1</title>
<path fill="none" stroke="black" d="M50.5,-72.05C47.07,-64.32 42.92,-54.96 39.08,-46.27"/>
<polygon fill="black" stroke="black" points="42.3,-44.9 35.05,-37.17 35.9,-47.73 42.3,-44.9"/>
</g>
</g>
</svg>
