<?xml version="1.0" encoding="UTF-8" standalone="no"?>
<!DOCTYPE svg PUBLIC "-//W3C//DTD SVG 1.1//EN"
 "http://www.w3.org/Graphics/SVG/1.1/DTD/svg11.dtd">
<!-- Generated by graphviz version 7.1.0 (20230121.1956)
 -->
<!-- Pages: 1 -->
<svg width="108pt" height="1124pt"
 viewBox="0.00 0.00 108.00 1124.00" xmlns="http://www.w3.org/2000/svg" xmlns:xlink="http://www.w3.org/1999/xlink">
<g id="graph0" class="graph" transform="scale(1 1) rotate(0) translate(4 1120)">
<polygon fill="white" stroke="none" points="-4,4 -4,-1120 104,-1120 104,4 -4,4"/>
<!-- s -->
<g id="node1" class="node">
<title>s</title>
<ellipse fill="none" stroke="black" cx="27" cy="-1098" rx="27" ry="18"/>
<text text-anchor="middle" x="27" y="-1094.3" font-family="Times,serif" font-size="14.00">s</text>
</g>
<!-- if18 -->
<g id="node2" class="node">
<title>if18</title>
<ellipse fill="none" stroke="black" cx="27" cy="-1026" rx="27" ry="18"/>
<text text-anchor="middle" x="27" y="-1022.3" font-family="Times,serif" font-size="14.00">if18</text>
</g>
<!-- s&#45;&gt;if18 -->
<g id="edge1" class="edge">
<title>s&#45;&gt;if18</title>
<path fill="none" stroke="black" d="M27,-1079.7C27,-1072.41 27,-1063.73 27,-1055.54"/>
<polygon fill="black" stroke="black" points="30.5,-1055.62 27,-1045.62 23.5,-1055.62 30.5,-1055.62"/>
</g>
<!-- m18 -->
<g id="node3" class="node">
<title>m18</title>
<ellipse fill="none" stroke="black" cx="27" cy="-882" rx="27" ry="18"/>
<text text-anchor="middle" x="27" y="-878.3" font-family="Times,serif" font-size="14.00">m18</text>
</g>
<!-- if18&#45;&gt;m18 -->
<g id="edge2" class="edge">
<title>if18&#45;&gt;m18</title>
<path fill="none" stroke="black" d="M21.32,-1008.04C18.18,-997.74 14.59,-984.27 13,-972 10.94,-956.13 10.94,-951.87 13,-936 14.07,-927.76 16.04,-918.97 18.17,-910.97"/>
<polygon fill="black" stroke="black" points="21.52,-911.99 20.91,-901.42 14.79,-910.07 21.52,-911.99"/>
</g>
<!-- block18 -->
<g id="node4" class="node">
<title>block18</title>
<ellipse fill="none" stroke="black" cx="61" cy="-954" rx="38.99" ry="18"/>
<text text-anchor="middle" x="61" y="-950.3" font-family="Times,serif" font-size="14.00">block18</text>
</g>
<!-- if18&#45;&gt;block18 -->
<g id="edge3" class="edge">
<title>if18&#45;&gt;block18</title>
<path fill="none" stroke="black" d="M35.06,-1008.41C38.85,-1000.59 43.48,-991.06 47.78,-982.23"/>
<polygon fill="black" stroke="black" points="50.88,-983.84 52.1,-973.32 44.59,-980.78 50.88,-983.84"/>
</g>
<!-- if19 -->
<g id="node5" class="node">
<title>if19</title>
<ellipse fill="none" stroke="black" cx="27" cy="-810" rx="27" ry="18"/>
<text text-anchor="middle" x="27" y="-806.3" font-family="Times,serif" font-size="14.00">if19</text>
</g>
<!-- m18&#45;&gt;if19 -->
<g id="edge5" class="edge">
<title>m18&#45;&gt;if19</title>
<path fill="none" stroke="black" d="M27,-863.7C27,-856.41 27,-847.73 27,-839.54"/>
<polygon fill="black" stroke="black" points="30.5,-839.62 27,-829.62 23.5,-839.62 30.5,-839.62"/>
</g>
<!-- block18&#45;&gt;m18 -->
<g id="edge4" class="edge">
<title>block18&#45;&gt;m18</title>
<path fill="none" stroke="black" d="M52.77,-936.05C48.91,-928.12 44.23,-918.47 39.92,-909.59"/>
<polygon fill="black" stroke="black" points="43.1,-908.13 35.58,-900.67 36.8,-911.19 43.1,-908.13"/>
</g>
<!-- m19 -->
<g id="node6" class="node">
<title>m19</title>
<ellipse fill="none" stroke="black" cx="27" cy="-666" rx="27" ry="18"/>
<text text-anchor="middle" x="27" y="-662.3" font-family="Times,serif" font-size="14.00">m19</text>
</g>
<!-- if19&#45;&gt;m19 -->
<g id="edge6" class="edge">
<title>if19&#45;&gt;m19</title>
<path fill="none" stroke="black" d="M21.32,-792.04C18.18,-781.74 14.59,-768.27 13,-756 10.94,-740.13 10.94,-735.87 13,-720 14.07,-711.76 16.04,-702.97 18.17,-694.97"/>
<polygon fill="black" stroke="black" points="21.52,-695.99 20.91,-685.42 14.79,-694.07 21.52,-695.99"/>
</g>
<!-- block19 -->
<g id="node7" class="node">
<title>block19</title>
<ellipse fill="none" stroke="black" cx="61" cy="-738" rx="38.99" ry="18"/>
<text text-anchor="middle" x="61" y="-734.3" font-family="Times,serif" font-size="14.00">block19</text>
</g>
<!-- if19&#45;&gt;block19 -->
<g id="edge7" class="edge">
<title>if19&#45;&gt;block19</title>
<path fill="none" stroke="black" d="M35.06,-792.41C38.85,-784.59 43.48,-775.06 47.78,-766.23"/>
<polygon fill="black" stroke="black" points="50.88,-767.84 52.1,-757.32 44.59,-764.78 50.88,-767.84"/>
</g>
<!-- if20 -->
<g id="node8" class="node">
<title>if20</title>
<ellipse fill="none" stroke="black" cx="27" cy="-594" rx="27" ry="18"/>
<text text-anchor="middle" x="27" y="-590.3" font-family="Times,serif" font-size="14.00">if20</text>
</g>
<!-- m19&#45;&gt;if20 -->
<g id="edge9" class="edge">
<title>m19&#45;&gt;if20</title>
<path fill="none" stroke="black" d="M27,-647.7C27,-640.41 27,-631.73 27,-623.54"/>
<polygon fill="black" stroke="black" points="30.5,-623.62 27,-613.62 23.5,-623.62 30.5,-623.62"/>
</g>
<!-- block19&#45;&gt;m19 -->
<g id="edge8" class="edge">
<title>block19&#45;&gt;m19</title>
<path fill="none" stroke="black" d="M52.77,-720.05C48.91,-712.12 44.23,-702.47 39.92,-693.59"/>
<polygon fill="black" stroke="black" points="43.1,-692.13 35.58,-684.67 36.8,-695.19 43.1,-692.13"/>
</g>
<!-- m20 -->
<g id="node9" class="node">
<title>m20</title>
<ellipse fill="none" stroke="black" cx="27" cy="-450" rx="27" ry="18"/>
<text text-anchor="middle" x="27" y="-446.3" font-family="Times,serif" font-size="14.00">m20</text>
</g>
<!-- if20&#45;&gt;m20 -->
<g id="edge10" class="edge">
<title>if20&#45;&gt;m20</title>
<path fill="none" stroke="black" d="M21.32,-576.04C18.18,-565.74 14.59,-552.27 13,-540 10.94,-524.13 10.94,-519.87 13,-504 14.07,-495.76 16.04,-486.97 18.17,-478.97"/>
<polygon fill="black" stroke="black" points="21.52,-479.99 20.91,-469.42 14.79,-478.07 21.52,-479.99"/>
</g>
<!-- block20 -->
<g id="node10" class="node">
<title>block20</title>
<ellipse fill="none" stroke="black" cx="61" cy="-522" rx="38.99" ry="18"/>
<text text-anchor="middle" x="61" y="-518.3" font-family="Times,serif" font-size="14.00">block20</text>
</g>
<!-- if20&#45;&gt;block20 -->
<g id="edge11" class="edge">
<title>if20&#45;&gt;block20</title>
<path fill="none" stroke="black" d="M35.06,-576.41C38.85,-568.59 43.48,-559.06 47.78,-550.23"/>
<polygon fill="black" stroke="black" points="50.88,-551.84 52.1,-541.32 44.59,-548.78 50.88,-551.84"/>
</g>
<!-- if21 -->
<g id="node11" class="node">
<title>if21</title>
<ellipse fill="none" stroke="black" cx="27" cy="-378" rx="27" ry="18"/>
<text text-anchor="middle" x="27" y="-374.3" font-family="Times,serif" font-size="14.00">if21</text>
</g>
<!-- m20&#45;&gt;if21 -->
<g id="edge13" class="edge">
<title>m20&#45;&gt;if21</title>
<path fill="none" stroke="black" d="M27,-431.7C27,-424.41 27,-415.73 27,-407.54"/>
<polygon fill="black" stroke="black" points="30.5,-407.62 27,-397.62 23.5,-407.62 30.5,-407.62"/>
</g>
<!-- block20&#45;&gt;m20 -->
<g id="edge12" class="edge">
<title>block20&#45;&gt;m20</title>
<path fill="none" stroke="black" d="M52.77,-504.05C48.91,-496.12 44.23,-486.47 39.92,-477.59"/>
<polygon fill="black" stroke="black" points="43.1,-476.13 35.58,-468.67 36.8,-479.19 43.1,-476.13"/>
</g>
<!-- m21 -->
<g id="node12" class="node">
<title>m21</title>
<ellipse fill="none" stroke="black" cx="27" cy="-234" rx="27" ry="18"/>
<text text-anchor="middle" x="27" y="-230.3" font-family="Times,serif" font-size="14.00">m21</text>
</g>
<!-- if21&#45;&gt;m21 -->
<g id="edge14" class="edge">
<title>if21&#45;&gt;m21</title>
<path fill="none" stroke="black" d="M21.32,-360.04C18.18,-349.74 14.59,-336.27 13,-324 10.94,-308.13 10.94,-303.87 13,-288 14.07,-279.76 16.04,-270.97 18.17,-262.97"/>
<polygon fill="black" stroke="black" points="21.52,-263.99 20.91,-253.42 14.79,-262.07 21.52,-263.99"/>
</g>
<!-- block21 -->
<g id="node13" class="node">
<title>block21</title>
<ellipse fill="none" stroke="black" cx="61" cy="-306" rx="38.99" ry="18"/>
<text text-anchor="middle" x="61" y="-302.3" font-family="Times,serif" font-size="14.00">block21</text>
</g>
<!-- if21&#45;&gt;block21 -->
<g id="edge15" class="edge">
<title>if21&#45;&gt;block21</title>
<path fill="none" stroke="black" d="M35.06,-360.41C38.85,-352.59 43.48,-343.06 47.78,-334.23"/>
<polygon fill="black" stroke="black" points="50.88,-335.84 52.1,-325.32 44.59,-332.78 50.88,-335.84"/>
</g>
<!-- if22 -->
<g id="node14" class="node">
<title>if22</title>
<ellipse fill="none" stroke="black" cx="27" cy="-162" rx="27" ry="18"/>
<text text-anchor="middle" x="27" y="-158.3" font-family="Times,serif" font-size="14.00">if22</text>
</g>
<!-- m21&#45;&gt;if22 -->
<g id="edge17" class="edge">
<title>m21&#45;&gt;if22</title>
<path fill="none" stroke="black" d="M27,-215.7C27,-208.41 27,-199.73 27,-191.54"/>
<polygon fill="black" stroke="black" points="30.5,-191.62 27,-181.62 23.5,-191.62 30.5,-191.62"/>
</g>
<!-- block21&#45;&gt;m21 -->
<g id="edge16" class="edge">
<title>block21&#45;&gt;m21</title>
<path fill="none" stroke="black" d="M52.77,-288.05C48.91,-280.12 44.23,-270.47 39.92,-261.59"/>
<polygon fill="black" stroke="black" points="43.1,-260.13 35.58,-252.67 36.8,-263.19 43.1,-260.13"/>
</g>
<!-- m22 -->
<g id="node15" class="node">
<title>m22</title>
<ellipse fill="none" stroke="black" cx="27" cy="-18" rx="27" ry="18"/>
<text text-anchor="middle" x="27" y="-14.3" font-family="Times,serif" font-size="14.00">m22</text>
</g>
<!-- if22&#45;&gt;m22 -->
<g id="edge18" class="edge">
<title>if22&#45;&gt;m22</title>
<path fill="none" stroke="black" d="M21.32,-144.04C18.18,-133.74 14.59,-120.27 13,-108 10.94,-92.13 10.94,-87.87 13,-72 14.07,-63.76 16.04,-54.97 18.17,-46.97"/>
<polygon fill="black" stroke="black" points="21.52,-47.99 20.91,-37.42 14.79,-46.07 21.52,-47.99"/>
</g>
<!-- block22 -->
<g id="node16" class="node">
<title>block22</title>
<ellipse fill="none" stroke="black" cx="61" cy="-90" rx="38.99" ry="18"/>
<text text-anchor="middle" x="61" y="-86.3" font-family="Times,serif" font-size="14.00">block22</text>
</g>
<!-- if22&#45;&gt;block22 -->
<g id="edge19" class="edge">
<title>if22&#45;&gt;block22</title>
<path fill="none" stroke="black" d="M35.06,-144.41C38.85,-136.59 43.48,-127.06 47.78,-118.23"/>
<polygon fill="black" stroke="black" points="50.88,-119.84 52.1,-109.32 44.59,-116.78 50.88,-119.84"/>
</g>
<!-- block22&#45;&gt;m22 -->
<g id="edge20" class="edge">
<title>block22&#45;&gt;m22</title>
<path fill="none" stroke="black" d="M52.77,-72.05C48.91,-64.12 44.23,-54.47 39.92,-45.59"/>
<polygon fill="black" stroke="black" points="43.1,-44.13 35.58,-36.67 36.8,-47.19 43.1,-44.13"/>
</g>
</g>
</svg>
