<?xml version="1.0" encoding="UTF-8" standalone="no"?>
<!DOCTYPE svg PUBLIC "-//W3C//DTD SVG 1.1//EN"
 "http://www.w3.org/Graphics/SVG/1.1/DTD/svg11.dtd">
<!-- Generated by graphviz version 7.1.0 (20230121.1956)
 -->
<!-- Pages: 1 -->
<svg width="520pt" height="620pt"
 viewBox="0.00 0.00 520.00 620.00" xmlns="http://www.w3.org/2000/svg" xmlns:xlink="http://www.w3.org/1999/xlink">
<g id="graph0" class="graph" transform="scale(1 1) rotate(0) translate(4 616)">
<polygon fill="white" stroke="none" points="-4,4 -4,-616 516,-616 516,4 -4,4"/>
<!-- start -->
<g id="node1" class="node">
<title>start</title>
<ellipse fill="none" stroke="black" cx="256" cy="-594" rx="27" ry="18"/>
<text text-anchor="middle" x="256" y="-590.3" font-family="Times,serif" font-size="14.00">start</text>
</g>
<!-- a -->
<g id="node2" class="node">
<title>a</title>
<polygon fill="none" stroke="black" points="512,-540 0,-540 0,-504 512,-504 512,-540"/>
<text text-anchor="middle" x="256" y="-518.3" font-family="Times,serif" font-size="14.00">this.logger = logger(...); this.reconnectTracker = new RetryTracker(...); snapshotting = !...</text>
</g>
<!-- start&#45;&gt;a -->
<g id="edge1" class="edge">
<title>start&#45;&gt;a</title>
<path fill="none" stroke="black" d="M256,-575.7C256,-568.41 256,-559.73 256,-551.54"/>
<polygon fill="black" stroke="black" points="259.5,-551.62 256,-541.62 252.5,-551.62 259.5,-551.62"/>
</g>
<!-- if1 -->
<g id="node3" class="node">
<title>if1</title>
<polygon fill="none" stroke="black" points="256,-468 226.67,-450 256,-432 285.33,-450 256,-468"/>
<text text-anchor="middle" x="256" y="-446.3" font-family="Times,serif" font-size="14.00">if1</text>
</g>
<!-- a&#45;&gt;if1 -->
<g id="edge2" class="edge">
<title>a&#45;&gt;if1</title>
<path fill="none" stroke="black" d="M256,-503.7C256,-496.41 256,-487.73 256,-479.54"/>
<polygon fill="black" stroke="black" points="259.5,-479.62 256,-469.62 252.5,-479.62 259.5,-479.62"/>
</g>
<!-- b -->
<g id="node4" class="node">
<title>b</title>
<polygon fill="none" stroke="black" points="304.5,-396 53.5,-396 53.5,-360 304.5,-360 304.5,-396"/>
<text text-anchor="middle" x="179" y="-374.3" font-family="Times,serif" font-size="14.00">this.commitPeriod = getCommitPeriod(...)</text>
</g>
<!-- if1&#45;&gt;b -->
<g id="edge3" class="edge">
<title>if1&#45;&gt;b</title>
<path fill="none" stroke="black" d="M244.64,-438.67C234.62,-429.56 219.61,-415.92 206.47,-403.97"/>
<polygon fill="black" stroke="black" points="209.05,-401.59 199.3,-397.45 204.34,-406.77 209.05,-401.59"/>
</g>
<!-- e -->
<g id="node8" class="node">
<title>e</title>
<polygon fill="none" stroke="black" points="333,-108 277,-108 277,-72 333,-72 333,-108"/>
<text text-anchor="middle" x="305" y="-86.3" font-family="Times,serif" font-size="14.00">b1_end</text>
</g>
<!-- if1&#45;&gt;e -->
<g id="edge9" class="edge">
<title>if1&#45;&gt;e</title>
<path fill="none" stroke="black" d="M269.74,-439.96C282.9,-430.56 302.3,-414.63 313,-396 333.19,-360.85 333,-347.54 333,-307 333,-307 333,-307 333,-233 333,-192.81 322.07,-147.4 313.87,-118.99"/>
<polygon fill="black" stroke="black" points="317.31,-118.3 311.1,-109.72 310.61,-120.31 317.31,-118.3"/>
</g>
<!-- if2 -->
<g id="node5" class="node">
<title>if2</title>
<polygon fill="none" stroke="black" points="179,-324 149.67,-306 179,-288 208.33,-306 179,-324"/>
<text text-anchor="middle" x="179" y="-302.3" font-family="Times,serif" font-size="14.00">if2</text>
</g>
<!-- b&#45;&gt;if2 -->
<g id="edge4" class="edge">
<title>b&#45;&gt;if2</title>
<path fill="none" stroke="black" d="M179,-359.7C179,-352.41 179,-343.73 179,-335.54"/>
<polygon fill="black" stroke="black" points="182.5,-335.62 179,-325.62 175.5,-335.62 182.5,-335.62"/>
</g>
<!-- c -->
<g id="node6" class="node">
<title>c</title>
<polygon fill="none" stroke="black" points="258,-252 56,-252 56,-216 258,-216 258,-252"/>
<text text-anchor="middle" x="157" y="-230.3" font-family="Times,serif" font-size="14.00">lastCommitTime = nanoTime(...)</text>
</g>
<!-- if2&#45;&gt;c -->
<g id="edge5" class="edge">
<title>if2&#45;&gt;c</title>
<path fill="none" stroke="black" d="M174.44,-290.5C171.97,-282.64 168.83,-272.65 165.9,-263.32"/>
<polygon fill="black" stroke="black" points="169.28,-262.39 162.94,-253.9 162.6,-264.49 169.28,-262.39"/>
</g>
<!-- d -->
<g id="node7" class="node">
<title>d</title>
<polygon fill="none" stroke="black" points="305,-180 249,-180 249,-144 305,-144 305,-180"/>
<text text-anchor="middle" x="277" y="-158.3" font-family="Times,serif" font-size="14.00">b2_end</text>
</g>
<!-- if2&#45;&gt;d -->
<g id="edge7" class="edge">
<title>if2&#45;&gt;d</title>
<path fill="none" stroke="black" d="M198.06,-299.19C218.76,-291.81 251.02,-276.92 267,-252 278.43,-234.18 280.53,-210.13 279.99,-191.53"/>
<polygon fill="black" stroke="black" points="283.5,-191.5 279.42,-181.72 276.51,-191.91 283.5,-191.5"/>
</g>
<!-- c&#45;&gt;d -->
<g id="edge6" class="edge">
<title>c&#45;&gt;d</title>
<path fill="none" stroke="black" d="M186.97,-215.52C202.76,-206.31 222.28,-194.92 239.1,-185.11"/>
<polygon fill="black" stroke="black" points="240.47,-188.36 247.34,-180.3 236.94,-182.32 240.47,-188.36"/>
</g>
<!-- d&#45;&gt;e -->
<g id="edge8" class="edge">
<title>d&#45;&gt;e</title>
<path fill="none" stroke="black" d="M283.92,-143.7C286.94,-136.15 290.55,-127.12 293.93,-118.68"/>
<polygon fill="black" stroke="black" points="297.13,-120.09 297.6,-109.51 290.63,-117.49 297.13,-120.09"/>
</g>
<!-- f -->
<g id="node9" class="node">
<title>f</title>
<polygon fill="none" stroke="black" points="332,-36 278,-36 278,0 332,0 332,-36"/>
<text text-anchor="middle" x="305" y="-14.3" font-family="Times,serif" font-size="14.00">end</text>
</g>
<!-- e&#45;&gt;f -->
<g id="edge10" class="edge">
<title>e&#45;&gt;f</title>
<path fill="none" stroke="black" d="M305,-71.7C305,-64.41 305,-55.73 305,-47.54"/>
<polygon fill="black" stroke="black" points="308.5,-47.62 305,-37.62 301.5,-47.62 308.5,-47.62"/>
</g>
</g>
</svg>
