<?xml version="1.0" encoding="UTF-8" standalone="no"?>
<!DOCTYPE svg PUBLIC "-//W3C//DTD SVG 1.1//EN"
 "http://www.w3.org/Graphics/SVG/1.1/DTD/svg11.dtd">
<!-- Generated by graphviz version 7.1.0 (20230121.1956)
 -->
<!-- Pages: 1 -->
<svg width="132pt" height="476pt"
 viewBox="0.00 0.00 132.00 476.00" xmlns="http://www.w3.org/2000/svg" xmlns:xlink="http://www.w3.org/1999/xlink">
<g id="graph0" class="graph" transform="scale(1 1) rotate(0) translate(4 472)">
<polygon fill="white" stroke="none" points="-4,4 -4,-472 128,-472 128,4 -4,4"/>
<!-- start -->
<g id="node1" class="node">
<title>start</title>
<ellipse fill="none" stroke="black" cx="70.5" cy="-450" rx="27" ry="18"/>
<text text-anchor="middle" x="70.5" y="-446.3" font-family="Times,serif" font-size="14.00">start</text>
</g>
<!-- if1 -->
<g id="node2" class="node">
<title>if1</title>
<polygon fill="none" stroke="black" points="70.5,-396 41.17,-378 70.5,-360 99.83,-378 70.5,-396"/>
<text text-anchor="middle" x="70.5" y="-374.3" font-family="Times,serif" font-size="14.00">if1</text>
</g>
<!-- start&#45;&gt;if1 -->
<g id="edge1" class="edge">
<title>start&#45;&gt;if1</title>
<path fill="none" stroke="black" d="M70.5,-431.7C70.5,-424.41 70.5,-415.73 70.5,-407.54"/>
<polygon fill="black" stroke="black" points="74,-407.62 70.5,-397.62 67,-407.62 74,-407.62"/>
</g>
<!-- a -->
<g id="node3" class="node">
<title>a</title>
<polygon fill="none" stroke="black" points="75,-324 0,-324 0,-288 75,-288 75,-324"/>
<text text-anchor="middle" x="37.5" y="-302.3" font-family="Times,serif" font-size="14.00">task = null</text>
</g>
<!-- if1&#45;&gt;a -->
<g id="edge2" class="edge">
<title>if1&#45;&gt;a</title>
<path fill="none" stroke="black" d="M64.14,-363.5C60.29,-355.33 55.23,-344.61 50.56,-334.71"/>
<polygon fill="black" stroke="black" points="53.8,-333.36 46.37,-325.81 47.46,-336.35 53.8,-333.36"/>
</g>
<!-- b -->
<g id="node4" class="node">
<title>b</title>
<polygon fill="none" stroke="black" points="124,-252 17,-252 17,-216 124,-216 124,-252"/>
<text text-anchor="middle" x="70.5" y="-230.3" font-family="Times,serif" font-size="14.00">connector = null</text>
</g>
<!-- if1&#45;&gt;b -->
<g id="edge4" class="edge">
<title>if1&#45;&gt;b</title>
<path fill="none" stroke="black" d="M75.32,-362.8C78.64,-352.24 82.76,-337.4 84.5,-324 86.56,-308.13 86.56,-303.87 84.5,-288 83.45,-279.88 81.52,-271.24 79.43,-263.34"/>
<polygon fill="black" stroke="black" points="82.84,-262.55 76.74,-253.9 76.11,-264.47 82.84,-262.55"/>
</g>
<!-- a&#45;&gt;b -->
<g id="edge3" class="edge">
<title>a&#45;&gt;b</title>
<path fill="none" stroke="black" d="M45.66,-287.7C49.25,-280.07 53.57,-270.92 57.58,-262.4"/>
<polygon fill="black" stroke="black" points="60.69,-264.01 61.79,-253.47 54.36,-261.03 60.69,-264.01"/>
</g>
<!-- if2 -->
<g id="node5" class="node">
<title>if2</title>
<polygon fill="none" stroke="black" points="70.5,-180 41.17,-162 70.5,-144 99.83,-162 70.5,-180"/>
<text text-anchor="middle" x="70.5" y="-158.3" font-family="Times,serif" font-size="14.00">if2</text>
</g>
<!-- b&#45;&gt;if2 -->
<g id="edge5" class="edge">
<title>b&#45;&gt;if2</title>
<path fill="none" stroke="black" d="M70.5,-215.7C70.5,-208.41 70.5,-199.73 70.5,-191.54"/>
<polygon fill="black" stroke="black" points="74,-191.62 70.5,-181.62 67,-191.62 74,-191.62"/>
</g>
<!-- c -->
<g id="node6" class="node">
<title>c</title>
<ellipse fill="none" stroke="black" cx="43.5" cy="-90" rx="27" ry="18"/>
<text text-anchor="middle" x="43.5" y="-86.3" font-family="Times,serif" font-size="14.00">c</text>
</g>
<!-- if2&#45;&gt;c -->
<g id="edge6" class="edge">
<title>if2&#45;&gt;c</title>
<path fill="none" stroke="black" d="M65.04,-146.83C61.88,-138.65 57.8,-128.07 54.04,-118.33"/>
<polygon fill="black" stroke="black" points="57.41,-117.34 50.55,-109.27 50.88,-119.86 57.41,-117.34"/>
</g>
<!-- end -->
<g id="node7" class="node">
<title>end</title>
<ellipse fill="none" stroke="black" cx="70.5" cy="-18" rx="27" ry="18"/>
<text text-anchor="middle" x="70.5" y="-14.3" font-family="Times,serif" font-size="14.00">end</text>
</g>
<!-- if2&#45;&gt;end -->
<g id="edge8" class="edge">
<title>if2&#45;&gt;end</title>
<path fill="none" stroke="black" d="M73.78,-145.78C75.89,-135.23 78.42,-120.83 79.5,-108 80.84,-92.06 80.84,-87.94 79.5,-72 78.82,-63.97 77.58,-55.33 76.23,-47.4"/>
<polygon fill="black" stroke="black" points="79.67,-46.79 74.43,-37.58 72.79,-48.05 79.67,-46.79"/>
</g>
<!-- c&#45;&gt;end -->
<g id="edge7" class="edge">
<title>c&#45;&gt;end</title>
<path fill="none" stroke="black" d="M50.04,-72.05C53.02,-64.32 56.63,-54.96 59.98,-46.27"/>
<polygon fill="black" stroke="black" points="63.15,-47.79 63.48,-37.2 56.62,-45.27 63.15,-47.79"/>
</g>
</g>
</svg>
