<?xml version="1.0" encoding="UTF-8" standalone="no"?>
<!DOCTYPE svg PUBLIC "-//W3C//DTD SVG 1.1//EN"
 "http://www.w3.org/Graphics/SVG/1.1/DTD/svg11.dtd">
<!-- Generated by graphviz version 7.1.0 (20230121.1956)
 -->
<!-- Pages: 1 -->
<svg width="176pt" height="260pt"
 viewBox="0.00 0.00 175.88 260.00" xmlns="http://www.w3.org/2000/svg" xmlns:xlink="http://www.w3.org/1999/xlink">
<g id="graph0" class="graph" transform="scale(1 1) rotate(0) translate(4 256)">
<polygon fill="white" stroke="none" points="-4,4 -4,-256 171.88,-256 171.88,4 -4,4"/>
<!-- start -->
<g id="node1" class="node">
<title>start</title>
<ellipse fill="none" stroke="black" cx="130.5" cy="-234" rx="27" ry="18"/>
<text text-anchor="middle" x="130.5" y="-230.3" font-family="Times,serif" font-size="14.00">start</text>
</g>
<!-- if -->
<g id="node2" class="node">
<title>if</title>
<ellipse fill="none" stroke="black" cx="130.5" cy="-162" rx="27" ry="18"/>
<text text-anchor="middle" x="130.5" y="-158.3" font-family="Times,serif" font-size="14.00">if</text>
</g>
<!-- start&#45;&gt;if -->
<g id="edge1" class="edge">
<title>start&#45;&gt;if</title>
<path fill="none" stroke="black" d="M130.5,-215.7C130.5,-208.41 130.5,-199.73 130.5,-191.54"/>
<polygon fill="black" stroke="black" points="134,-191.62 130.5,-181.62 127,-191.62 134,-191.62"/>
</g>
<!-- a -->
<g id="node3" class="node">
<title>a</title>
<polygon fill="none" stroke="black" points="155,-108 0,-108 0,-72 155,-72 155,-108"/>
<text text-anchor="middle" x="77.5" y="-86.3" font-family="Times,serif" font-size="14.00">timestamp = getInt64(...)</text>
</g>
<!-- if&#45;&gt;a -->
<g id="edge2" class="edge">
<title>if&#45;&gt;a</title>
<path fill="none" stroke="black" d="M118.74,-145.46C112.52,-137.25 104.71,-126.93 97.56,-117.5"/>
<polygon fill="black" stroke="black" points="100.46,-115.53 91.63,-109.67 94.88,-119.75 100.46,-115.53"/>
</g>
<!-- end -->
<g id="node4" class="node">
<title>end</title>
<ellipse fill="none" stroke="black" cx="130.5" cy="-18" rx="27" ry="18"/>
<text text-anchor="middle" x="130.5" y="-14.3" font-family="Times,serif" font-size="14.00">end</text>
</g>
<!-- if&#45;&gt;end -->
<g id="edge3" class="edge">
<title>if&#45;&gt;end</title>
<path fill="none" stroke="black" d="M143.5,-145.94C151.26,-135.92 160.38,-122.06 164.5,-108 169,-92.65 169,-87.35 164.5,-72 161.54,-61.9 155.99,-51.89 150.23,-43.35"/>
<polygon fill="black" stroke="black" points="153.09,-41.33 144.39,-35.29 147.42,-45.44 153.09,-41.33"/>
</g>
<!-- a&#45;&gt;end -->
<g id="edge4" class="edge">
<title>a&#45;&gt;end</title>
<path fill="none" stroke="black" d="M90.6,-71.7C96.97,-63.28 104.74,-53.02 111.73,-43.79"/>
<polygon fill="black" stroke="black" points="114.47,-45.96 117.72,-35.88 108.89,-41.74 114.47,-45.96"/>
</g>
</g>
</svg>
