<?xml version="1.0" encoding="UTF-8" standalone="no"?>
<!DOCTYPE svg PUBLIC "-//W3C//DTD SVG 1.1//EN"
 "http://www.w3.org/Graphics/SVG/1.1/DTD/svg11.dtd">
<!-- Generated by graphviz version 7.1.0 (20230121.1956)
 -->
<!-- Pages: 1 -->
<svg width="268pt" height="404pt"
 viewBox="0.00 0.00 268.00 404.00" xmlns="http://www.w3.org/2000/svg" xmlns:xlink="http://www.w3.org/1999/xlink">
<g id="graph0" class="graph" transform="scale(1 1) rotate(0) translate(4 400)">
<polygon fill="white" stroke="none" points="-4,4 -4,-400 264,-400 264,4 -4,4"/>
<!-- start -->
<g id="node1" class="node">
<title>start</title>
<ellipse fill="none" stroke="black" cx="174" cy="-378" rx="27" ry="18"/>
<text text-anchor="middle" x="174" y="-374.3" font-family="Times,serif" font-size="14.00">start</text>
</g>
<!-- a -->
<g id="node2" class="node">
<title>a</title>
<polygon fill="none" stroke="black" points="260,-324 88,-324 88,-288 260,-288 260,-324"/>
<text text-anchor="middle" x="174" y="-302.3" font-family="Times,serif" font-size="14.00">snapshotInProgress = TRUE</text>
</g>
<!-- start&#45;&gt;a -->
<g id="edge1" class="edge">
<title>start&#45;&gt;a</title>
<path fill="none" stroke="black" d="M174,-359.7C174,-352.41 174,-343.73 174,-335.54"/>
<polygon fill="black" stroke="black" points="177.5,-335.62 174,-325.62 170.5,-335.62 177.5,-335.62"/>
</g>
<!-- if -->
<g id="node3" class="node">
<title>if</title>
<polygon fill="none" stroke="black" points="174,-252 147,-234 174,-216 201,-234 174,-252"/>
<text text-anchor="middle" x="174" y="-230.3" font-family="Times,serif" font-size="14.00">if</text>
</g>
<!-- a&#45;&gt;if -->
<g id="edge2" class="edge">
<title>a&#45;&gt;if</title>
<path fill="none" stroke="black" d="M174,-287.7C174,-280.52 174,-271.99 174,-263.9"/>
<polygon fill="black" stroke="black" points="177.5,-264.1 174,-254.1 170.5,-264.1 177.5,-264.1"/>
</g>
<!-- b -->
<g id="node4" class="node">
<title>b</title>
<polygon fill="none" stroke="black" points="214,-180 0,-180 0,-144 214,-144 214,-180"/>
<text text-anchor="middle" x="107" y="-158.3" font-family="Times,serif" font-size="14.00">snapshotTraverser = onFirstNull(...)</text>
</g>
<!-- if&#45;&gt;b -->
<g id="edge3" class="edge">
<title>if&#45;&gt;b</title>
<path fill="none" stroke="black" d="M163.82,-222.37C155.22,-213.38 142.55,-200.14 131.35,-188.44"/>
<polygon fill="black" stroke="black" points="134.03,-186.18 124.58,-181.37 128.97,-191.02 134.03,-186.18"/>
</g>
<!-- c -->
<g id="node5" class="node">
<title>c</title>
<ellipse fill="none" stroke="black" cx="174" cy="-90" rx="27" ry="18"/>
<text text-anchor="middle" x="174" y="-86.3" font-family="Times,serif" font-size="14.00">c</text>
</g>
<!-- if&#45;&gt;c -->
<g id="edge5" class="edge">
<title>if&#45;&gt;c</title>
<path fill="none" stroke="black" d="M186.42,-224.11C198.38,-214.71 215.69,-198.67 223,-180 228.83,-165.1 228.83,-158.9 223,-144 218.17,-131.67 208.98,-120.49 199.86,-111.61"/>
<polygon fill="black" stroke="black" points="202.5,-109.28 192.74,-105.15 197.79,-114.46 202.5,-109.28"/>
</g>
<!-- b&#45;&gt;c -->
<g id="edge4" class="edge">
<title>b&#45;&gt;c</title>
<path fill="none" stroke="black" d="M123.56,-143.7C132.19,-134.68 142.86,-123.53 152.16,-113.82"/>
<polygon fill="black" stroke="black" points="154.46,-116.48 158.85,-106.83 149.4,-111.64 154.46,-116.48"/>
</g>
<!-- end -->
<g id="node6" class="node">
<title>end</title>
<ellipse fill="none" stroke="black" cx="174" cy="-18" rx="27" ry="18"/>
<text text-anchor="middle" x="174" y="-14.3" font-family="Times,serif" font-size="14.00">end</text>
</g>
<!-- c&#45;&gt;end -->
<g id="edge6" class="edge">
<title>c&#45;&gt;end</title>
<path fill="none" stroke="black" d="M174,-71.7C174,-64.41 174,-55.73 174,-47.54"/>
<polygon fill="black" stroke="black" points="177.5,-47.62 174,-37.62 170.5,-47.62 177.5,-47.62"/>
</g>
</g>
</svg>
