<?xml version="1.0" encoding="UTF-8" standalone="no"?>
<!DOCTYPE svg PUBLIC "-//W3C//DTD SVG 1.1//EN"
 "http://www.w3.org/Graphics/SVG/1.1/DTD/svg11.dtd">
<!-- Generated by graphviz version 7.1.0 (20230121.1956)
 -->
<!-- Pages: 1 -->
<svg width="158pt" height="260pt"
 viewBox="0.00 0.00 158.06 260.00" xmlns="http://www.w3.org/2000/svg" xmlns:xlink="http://www.w3.org/1999/xlink">
<g id="graph0" class="graph" transform="scale(1 1) rotate(0) translate(4 256)">
<polygon fill="white" stroke="none" points="-4,4 -4,-256 154.06,-256 154.06,4 -4,4"/>
<!-- start -->
<g id="node1" class="node">
<title>start</title>
<ellipse fill="none" stroke="black" cx="117" cy="-234" rx="27" ry="18"/>
<text text-anchor="middle" x="117" y="-230.3" font-family="Times,serif" font-size="14.00">start</text>
</g>
<!-- if -->
<g id="node2" class="node">
<title>if</title>
<ellipse fill="none" stroke="black" cx="117" cy="-162" rx="27" ry="18"/>
<text text-anchor="middle" x="117" y="-158.3" font-family="Times,serif" font-size="14.00">if</text>
</g>
<!-- start&#45;&gt;if -->
<g id="edge1" class="edge">
<title>start&#45;&gt;if</title>
<path fill="none" stroke="black" d="M117,-215.7C117,-208.41 117,-199.73 117,-191.54"/>
<polygon fill="black" stroke="black" points="120.5,-191.62 117,-181.62 113.5,-191.62 120.5,-191.62"/>
</g>
<!-- a -->
<g id="node3" class="node">
<title>a</title>
<polygon fill="none" stroke="black" points="138,-108 0,-108 0,-72 138,-72 138,-108"/>
<text text-anchor="middle" x="69" y="-86.3" font-family="Times,serif" font-size="14.00">result = startsWith(...)</text>
</g>
<!-- if&#45;&gt;a -->
<g id="edge2" class="edge">
<title>if&#45;&gt;a</title>
<path fill="none" stroke="black" d="M106.11,-145.12C100.52,-136.97 93.57,-126.84 87.2,-117.55"/>
<polygon fill="black" stroke="black" points="90.26,-115.81 81.71,-109.54 84.48,-119.77 90.26,-115.81"/>
</g>
<!-- end -->
<g id="node4" class="node">
<title>end</title>
<ellipse fill="none" stroke="black" cx="117" cy="-18" rx="27" ry="18"/>
<text text-anchor="middle" x="117" y="-14.3" font-family="Times,serif" font-size="14.00">end</text>
</g>
<!-- if&#45;&gt;end -->
<g id="edge3" class="edge">
<title>if&#45;&gt;end</title>
<path fill="none" stroke="black" d="M128.49,-145.7C135.34,-135.58 143.39,-121.7 147,-108 151.08,-92.53 151.08,-87.47 147,-72 144.43,-62.26 139.62,-52.43 134.59,-43.92"/>
<polygon fill="black" stroke="black" points="137.61,-42.15 129.3,-35.58 131.7,-45.9 137.61,-42.15"/>
</g>
<!-- a&#45;&gt;end -->
<g id="edge4" class="edge">
<title>a&#45;&gt;end</title>
<path fill="none" stroke="black" d="M80.87,-71.7C86.57,-63.37 93.53,-53.23 99.8,-44.08"/>
<polygon fill="black" stroke="black" points="102.63,-46.15 105.4,-35.92 96.86,-42.19 102.63,-46.15"/>
</g>
</g>
</svg>
