<?xml version="1.0" encoding="UTF-8" standalone="no"?>
<!DOCTYPE svg PUBLIC "-//W3C//DTD SVG 1.1//EN"
 "http://www.w3.org/Graphics/SVG/1.1/DTD/svg11.dtd">
<!-- Generated by graphviz version 7.1.0 (20230121.1956)
 -->
<!-- Pages: 1 -->
<svg width="151pt" height="260pt"
 viewBox="0.00 0.00 151.39 260.00" xmlns="http://www.w3.org/2000/svg" xmlns:xlink="http://www.w3.org/1999/xlink">
<g id="graph0" class="graph" transform="scale(1 1) rotate(0) translate(4 256)">
<polygon fill="white" stroke="none" points="-4,4 -4,-256 147.39,-256 147.39,4 -4,4"/>
<!-- start -->
<g id="node1" class="node">
<title>start</title>
<ellipse fill="none" stroke="black" cx="112.5" cy="-234" rx="27" ry="18"/>
<text text-anchor="middle" x="112.5" y="-230.3" font-family="Times,serif" font-size="14.00">start</text>
</g>
<!-- if -->
<g id="node2" class="node">
<title>if</title>
<ellipse fill="none" stroke="black" cx="112.5" cy="-162" rx="27" ry="18"/>
<text text-anchor="middle" x="112.5" y="-158.3" font-family="Times,serif" font-size="14.00">if</text>
</g>
<!-- start&#45;&gt;if -->
<g id="edge1" class="edge">
<title>start&#45;&gt;if</title>
<path fill="none" stroke="black" d="M112.5,-215.7C112.5,-208.41 112.5,-199.73 112.5,-191.54"/>
<polygon fill="black" stroke="black" points="116,-191.62 112.5,-181.62 109,-191.62 116,-191.62"/>
</g>
<!-- a -->
<g id="node3" class="node">
<title>a</title>
<polygon fill="none" stroke="black" points="131,-108 0,-108 0,-72 131,-72 131,-108"/>
<text text-anchor="middle" x="65.5" y="-86.3" font-family="Times,serif" font-size="14.00">state = new State(...)</text>
</g>
<!-- if&#45;&gt;a -->
<g id="edge2" class="edge">
<title>if&#45;&gt;a</title>
<path fill="none" stroke="black" d="M101.83,-145.12C96.42,-137.06 89.71,-127.05 83.52,-117.84"/>
<polygon fill="black" stroke="black" points="86.43,-115.9 77.95,-109.55 80.62,-119.8 86.43,-115.9"/>
</g>
<!-- end -->
<g id="node4" class="node">
<title>end</title>
<ellipse fill="none" stroke="black" cx="112.5" cy="-18" rx="27" ry="18"/>
<text text-anchor="middle" x="112.5" y="-14.3" font-family="Times,serif" font-size="14.00">end</text>
</g>
<!-- if&#45;&gt;end -->
<g id="edge3" class="edge">
<title>if&#45;&gt;end</title>
<path fill="none" stroke="black" d="M123.52,-145.13C129.85,-135.01 137.19,-121.33 140.5,-108 144.35,-92.47 144.35,-87.53 140.5,-72 138.18,-62.63 133.86,-53.08 129.29,-44.72"/>
<polygon fill="black" stroke="black" points="132.36,-43.03 124.28,-36.18 126.32,-46.58 132.36,-43.03"/>
</g>
<!-- a&#45;&gt;end -->
<g id="edge4" class="edge">
<title>a&#45;&gt;end</title>
<path fill="none" stroke="black" d="M77.12,-71.7C82.71,-63.37 89.51,-53.23 95.66,-44.08"/>
<polygon fill="black" stroke="black" points="98.47,-46.18 101.13,-35.93 92.65,-42.28 98.47,-46.18"/>
</g>
</g>
</svg>
