<?xml version="1.0" encoding="UTF-8" standalone="no"?>
<!DOCTYPE svg PUBLIC "-//W3C//DTD SVG 1.1//EN"
 "http://www.w3.org/Graphics/SVG/1.1/DTD/svg11.dtd">
<!-- Generated by graphviz version 7.1.0 (20230121.1956)
 -->
<!-- Pages: 1 -->
<svg width="220pt" height="476pt"
 viewBox="0.00 0.00 220.00 476.00" xmlns="http://www.w3.org/2000/svg" xmlns:xlink="http://www.w3.org/1999/xlink">
<g id="graph0" class="graph" transform="scale(1 1) rotate(0) translate(4 472)">
<polygon fill="white" stroke="none" points="-4,4 -4,-472 216,-472 216,4 -4,4"/>
<!-- start -->
<g id="node1" class="node">
<title>start</title>
<ellipse fill="none" stroke="black" cx="184" cy="-450" rx="27" ry="18"/>
<text text-anchor="middle" x="184" y="-446.3" font-family="Times,serif" font-size="14.00">start</text>
</g>
<!-- if1 -->
<g id="node2" class="node">
<title>if1</title>
<ellipse fill="none" stroke="black" cx="184" cy="-378" rx="27" ry="18"/>
<text text-anchor="middle" x="184" y="-374.3" font-family="Times,serif" font-size="14.00">if1</text>
</g>
<!-- start&#45;&gt;if1 -->
<g id="edge1" class="edge">
<title>start&#45;&gt;if1</title>
<path fill="none" stroke="black" d="M184,-431.7C184,-424.41 184,-415.73 184,-407.54"/>
<polygon fill="black" stroke="black" points="187.5,-407.62 184,-397.62 180.5,-407.62 187.5,-407.62"/>
</g>
<!-- a -->
<g id="node3" class="node">
<title>a</title>
<ellipse fill="none" stroke="black" cx="157" cy="-306" rx="27" ry="18"/>
<text text-anchor="middle" x="157" y="-302.3" font-family="Times,serif" font-size="14.00">a</text>
</g>
<!-- if1&#45;&gt;a -->
<g id="edge2" class="edge">
<title>if1&#45;&gt;a</title>
<path fill="none" stroke="black" d="M177.46,-360.05C174.48,-352.32 170.87,-342.96 167.52,-334.27"/>
<polygon fill="black" stroke="black" points="170.88,-333.27 164.02,-325.2 164.35,-335.79 170.88,-333.27"/>
</g>
<!-- d -->
<g id="node7" class="node">
<title>d</title>
<ellipse fill="none" stroke="black" cx="184" cy="-18" rx="27" ry="18"/>
<text text-anchor="middle" x="184" y="-14.3" font-family="Times,serif" font-size="14.00">d</text>
</g>
<!-- if1&#45;&gt;d -->
<g id="edge8" class="edge">
<title>if1&#45;&gt;d</title>
<path fill="none" stroke="black" d="M189.53,-360.16C197.69,-333.79 212,-280.98 212,-235 212,-235 212,-235 212,-161 212,-120.59 200.95,-74.9 192.73,-46.52"/>
<polygon fill="black" stroke="black" points="196.19,-45.86 189.97,-37.29 189.48,-47.87 196.19,-45.86"/>
</g>
<!-- if2 -->
<g id="node4" class="node">
<title>if2</title>
<ellipse fill="none" stroke="black" cx="157" cy="-234" rx="27" ry="18"/>
<text text-anchor="middle" x="157" y="-230.3" font-family="Times,serif" font-size="14.00">if2</text>
</g>
<!-- a&#45;&gt;if2 -->
<g id="edge3" class="edge">
<title>a&#45;&gt;if2</title>
<path fill="none" stroke="black" d="M157,-287.7C157,-280.41 157,-271.73 157,-263.54"/>
<polygon fill="black" stroke="black" points="160.5,-263.62 157,-253.62 153.5,-263.62 160.5,-263.62"/>
</g>
<!-- b -->
<g id="node5" class="node">
<title>b</title>
<polygon fill="none" stroke="black" points="138,-180 0,-180 0,-144 138,-144 138,-180"/>
<text text-anchor="middle" x="69" y="-158.3" font-family="Times,serif" font-size="14.00">result = startsWith(...)</text>
</g>
<!-- if2&#45;&gt;b -->
<g id="edge4" class="edge">
<title>if2&#45;&gt;b</title>
<path fill="none" stroke="black" d="M140.03,-219.5C128.67,-210.46 113.38,-198.3 99.9,-187.58"/>
<polygon fill="black" stroke="black" points="102.11,-184.87 92.11,-181.38 97.75,-190.34 102.11,-184.87"/>
</g>
<!-- c -->
<g id="node6" class="node">
<title>c</title>
<ellipse fill="none" stroke="black" cx="157" cy="-90" rx="27" ry="18"/>
<text text-anchor="middle" x="157" y="-86.3" font-family="Times,serif" font-size="14.00">c</text>
</g>
<!-- if2&#45;&gt;c -->
<g id="edge6" class="edge">
<title>if2&#45;&gt;c</title>
<path fill="none" stroke="black" d="M157,-215.59C157,-191.61 157,-148.14 157,-119.42"/>
<polygon fill="black" stroke="black" points="160.5,-119.62 157,-109.62 153.5,-119.62 160.5,-119.62"/>
</g>
<!-- b&#45;&gt;c -->
<g id="edge5" class="edge">
<title>b&#45;&gt;c</title>
<path fill="none" stroke="black" d="M90.75,-143.7C103.04,-133.92 118.47,-121.65 131.34,-111.41"/>
<polygon fill="black" stroke="black" points="133.35,-114.28 139,-105.32 129,-108.8 133.35,-114.28"/>
</g>
<!-- c&#45;&gt;d -->
<g id="edge7" class="edge">
<title>c&#45;&gt;d</title>
<path fill="none" stroke="black" d="M163.54,-72.05C166.52,-64.32 170.13,-54.96 173.48,-46.27"/>
<polygon fill="black" stroke="black" points="176.65,-47.79 176.98,-37.2 170.12,-45.27 176.65,-47.79"/>
</g>
</g>
</svg>
