<?xml version="1.0" encoding="UTF-8" standalone="no"?>
<!DOCTYPE svg PUBLIC "-//W3C//DTD SVG 1.1//EN"
 "http://www.w3.org/Graphics/SVG/1.1/DTD/svg11.dtd">
<!-- Generated by graphviz version 7.1.0 (20230121.1956)
 -->
<!-- Pages: 1 -->
<svg width="238pt" height="188pt"
 viewBox="0.00 0.00 237.50 188.00" xmlns="http://www.w3.org/2000/svg" xmlns:xlink="http://www.w3.org/1999/xlink">
<g id="graph0" class="graph" transform="scale(1 1) rotate(0) translate(4 184)">
<polygon fill="white" stroke="none" points="-4,4 -4,-184 233.5,-184 233.5,4 -4,4"/>
<!-- start -->
<g id="node1" class="node">
<title>start</title>
<ellipse fill="none" stroke="black" cx="78.5" cy="-162" rx="27" ry="18"/>
<text text-anchor="middle" x="78.5" y="-158.3" font-family="Times,serif" font-size="14.00">start</text>
</g>
<!-- while -->
<g id="node2" class="node">
<title>while</title>
<ellipse fill="none" stroke="black" cx="78.5" cy="-90" rx="30.59" ry="18"/>
<text text-anchor="middle" x="78.5" y="-86.3" font-family="Times,serif" font-size="14.00">while</text>
</g>
<!-- start&#45;&gt;while -->
<g id="edge1" class="edge">
<title>start&#45;&gt;while</title>
<path fill="none" stroke="black" d="M78.5,-143.7C78.5,-136.41 78.5,-127.73 78.5,-119.54"/>
<polygon fill="black" stroke="black" points="82,-119.62 78.5,-109.62 75,-119.62 82,-119.62"/>
</g>
<!-- a -->
<g id="node3" class="node">
<title>a</title>
<polygon fill="none" stroke="black" points="157,-36 0,-36 0,0 157,0 157,-36"/>
<text text-anchor="middle" x="78.5" y="-14.3" font-family="Times,serif" font-size="14.00">rootCause = getCause(...)</text>
</g>
<!-- while&#45;&gt;a -->
<g id="edge2" class="edge">
<title>while&#45;&gt;a</title>
<path fill="none" stroke="black" d="M72.62,-72.05C71.84,-64.68 71.58,-55.84 71.85,-47.51"/>
<polygon fill="black" stroke="black" points="75.33,-47.99 72.49,-37.79 68.34,-47.54 75.33,-47.99"/>
</g>
<!-- end -->
<g id="node4" class="node">
<title>end</title>
<ellipse fill="none" stroke="black" cx="202.5" cy="-18" rx="27" ry="18"/>
<text text-anchor="middle" x="202.5" y="-14.3" font-family="Times,serif" font-size="14.00">end</text>
</g>
<!-- while&#45;&gt;end -->
<g id="edge3" class="edge">
<title>while&#45;&gt;end</title>
<path fill="none" stroke="black" d="M100.1,-76.81C120.11,-65.51 150.06,-48.61 172.4,-35.99"/>
<polygon fill="black" stroke="black" points="174.07,-39.07 181.06,-31.1 170.63,-32.97 174.07,-39.07"/>
</g>
<!-- a&#45;&gt;while -->
<g id="edge4" class="edge">
<title>a&#45;&gt;while</title>
<path fill="none" stroke="black" d="M84.41,-36.28C85.17,-43.6 85.41,-52.34 85.14,-60.57"/>
<polygon fill="black" stroke="black" points="81.65,-60.33 84.48,-70.54 88.64,-60.8 81.65,-60.33"/>
</g>
</g>
</svg>
