<?xml version="1.0" encoding="UTF-8" standalone="no"?>
<!DOCTYPE svg PUBLIC "-//W3C//DTD SVG 1.1//EN"
 "http://www.w3.org/Graphics/SVG/1.1/DTD/svg11.dtd">
<!-- Generated by graphviz version 7.1.0 (20230121.1956)
 -->
<!-- Pages: 1 -->
<svg width="211pt" height="260pt"
 viewBox="0.00 0.00 211.00 260.00" xmlns="http://www.w3.org/2000/svg" xmlns:xlink="http://www.w3.org/1999/xlink">
<g id="graph0" class="graph" transform="scale(1 1) rotate(0) translate(4 256)">
<polygon fill="white" stroke="none" points="-4,4 -4,-256 207,-256 207,4 -4,4"/>
<!-- start -->
<g id="node1" class="node">
<title>start</title>
<ellipse fill="none" stroke="black" cx="101.5" cy="-234" rx="27" ry="18"/>
<text text-anchor="middle" x="101.5" y="-230.3" font-family="Times,serif" font-size="14.00">start</text>
</g>
<!-- a -->
<g id="node2" class="node">
<title>a</title>
<polygon fill="none" stroke="black" points="203,-180 0,-180 0,-144 203,-144 203,-180"/>
<text text-anchor="middle" x="101.5" y="-158.3" font-family="Times,serif" font-size="14.00">attributes = getMainAttributes(...)</text>
</g>
<!-- start&#45;&gt;a -->
<g id="edge1" class="edge">
<title>start&#45;&gt;a</title>
<path fill="none" stroke="black" d="M101.5,-215.7C101.5,-208.41 101.5,-199.73 101.5,-191.54"/>
<polygon fill="black" stroke="black" points="105,-191.62 101.5,-181.62 98,-191.62 105,-191.62"/>
</g>
<!-- b -->
<g id="node3" class="node">
<title>b</title>
<polygon fill="none" stroke="black" points="186.5,-108 16.5,-108 16.5,-72 186.5,-72 186.5,-108"/>
<text text-anchor="middle" x="101.5" y="-86.3" font-family="Times,serif" font-size="14.00">this.mainClass = mainClass</text>
</g>
<!-- a&#45;&gt;b -->
<g id="edge2" class="edge">
<title>a&#45;&gt;b</title>
<path fill="none" stroke="black" d="M101.5,-143.7C101.5,-136.41 101.5,-127.73 101.5,-119.54"/>
<polygon fill="black" stroke="black" points="105,-119.62 101.5,-109.62 98,-119.62 105,-119.62"/>
</g>
<!-- end -->
<g id="node4" class="node">
<title>end</title>
<ellipse fill="none" stroke="black" cx="101.5" cy="-18" rx="27" ry="18"/>
<text text-anchor="middle" x="101.5" y="-14.3" font-family="Times,serif" font-size="14.00">end</text>
</g>
<!-- b&#45;&gt;end -->
<g id="edge3" class="edge">
<title>b&#45;&gt;end</title>
<path fill="none" stroke="black" d="M101.5,-71.7C101.5,-64.41 101.5,-55.73 101.5,-47.54"/>
<polygon fill="black" stroke="black" points="105,-47.62 101.5,-37.62 98,-47.62 105,-47.62"/>
</g>
</g>
</svg>
