<?xml version="1.0" encoding="UTF-8" standalone="no"?>
<!DOCTYPE svg PUBLIC "-//W3C//DTD SVG 1.1//EN"
 "http://www.w3.org/Graphics/SVG/1.1/DTD/svg11.dtd">
<!-- Generated by graphviz version 7.1.0 (20230121.1956)
 -->
<!-- Pages: 1 -->
<svg width="235pt" height="260pt"
 viewBox="0.00 0.00 235.32 260.00" xmlns="http://www.w3.org/2000/svg" xmlns:xlink="http://www.w3.org/1999/xlink">
<g id="graph0" class="graph" transform="scale(1 1) rotate(0) translate(4 256)">
<polygon fill="white" stroke="none" points="-4,4 -4,-256 231.32,-256 231.32,4 -4,4"/>
<!-- start -->
<g id="node1" class="node">
<title>start</title>
<ellipse fill="none" stroke="black" cx="52.32" cy="-234" rx="27" ry="18"/>
<text text-anchor="middle" x="52.32" y="-230.3" font-family="Times,serif" font-size="14.00">start</text>
</g>
<!-- if -->
<g id="node2" class="node">
<title>if</title>
<polygon fill="none" stroke="black" points="52.32,-180 25.32,-162 52.32,-144 79.32,-162 52.32,-180"/>
<text text-anchor="middle" x="52.32" y="-158.3" font-family="Times,serif" font-size="14.00">if</text>
</g>
<!-- start&#45;&gt;if -->
<g id="edge1" class="edge">
<title>start&#45;&gt;if</title>
<path fill="none" stroke="black" d="M52.32,-215.7C52.32,-208.52 52.32,-199.99 52.32,-191.9"/>
<polygon fill="black" stroke="black" points="55.82,-192.1 52.32,-182.1 48.82,-192.1 55.82,-192.1"/>
</g>
<!-- end -->
<g id="node3" class="node">
<title>end</title>
<ellipse fill="none" stroke="black" cx="52.32" cy="-18" rx="27" ry="18"/>
<text text-anchor="middle" x="52.32" y="-14.3" font-family="Times,serif" font-size="14.00">end</text>
</g>
<!-- if&#45;&gt;end -->
<g id="edge2" class="edge">
<title>if&#45;&gt;end</title>
<path fill="none" stroke="black" d="M40.14,-152.05C28.43,-142.6 11.46,-126.53 4.32,-108 -1.44,-93.07 -1.44,-86.93 4.32,-72 8.99,-59.89 17.85,-48.83 26.7,-39.98"/>
<polygon fill="black" stroke="black" points="29.01,-42.62 33.94,-33.24 24.24,-37.49 29.01,-42.62"/>
</g>
<!-- a -->
<g id="node4" class="node">
<title>a</title>
<polygon fill="none" stroke="black" points="227.32,-108 13.32,-108 13.32,-72 227.32,-72 227.32,-108"/>
<text text-anchor="middle" x="120.32" y="-86.3" font-family="Times,serif" font-size="14.00">shadedManifest = new Manifest(...)</text>
</g>
<!-- if&#45;&gt;a -->
<g id="edge3" class="edge">
<title>if&#45;&gt;a</title>
<path fill="none" stroke="black" d="M62.64,-150.37C71.37,-141.38 84.24,-128.14 95.6,-116.44"/>
<polygon fill="black" stroke="black" points="98.02,-118.98 102.48,-109.36 93,-114.1 98.02,-118.98"/>
</g>
<!-- a&#45;&gt;end -->
<g id="edge4" class="edge">
<title>a&#45;&gt;end</title>
<path fill="none" stroke="black" d="M103.51,-71.7C94.75,-62.68 83.92,-51.53 74.48,-41.82"/>
<polygon fill="black" stroke="black" points="77.17,-39.56 67.69,-34.82 72.15,-44.44 77.17,-39.56"/>
</g>
</g>
</svg>
