<?xml version="1.0" encoding="UTF-8" standalone="no"?>
<!DOCTYPE svg PUBLIC "-//W3C//DTD SVG 1.1//EN"
 "http://www.w3.org/Graphics/SVG/1.1/DTD/svg11.dtd">
<!-- Generated by graphviz version 7.1.0 (20230121.1956)
 -->
<!-- Pages: 1 -->
<svg width="178pt" height="188pt"
 viewBox="0.00 0.00 178.00 188.00" xmlns="http://www.w3.org/2000/svg" xmlns:xlink="http://www.w3.org/1999/xlink">
<g id="graph0" class="graph" transform="scale(1 1) rotate(0) translate(4 184)">
<polygon fill="white" stroke="none" points="-4,4 -4,-184 174,-184 174,4 -4,4"/>
<!-- start -->
<g id="node1" class="node">
<title>start</title>
<ellipse fill="none" stroke="black" cx="85" cy="-162" rx="27" ry="18"/>
<text text-anchor="middle" x="85" y="-158.3" font-family="Times,serif" font-size="14.00">start</text>
</g>
<!-- a -->
<g id="node2" class="node">
<title>a</title>
<polygon fill="none" stroke="black" points="170,-108 0,-108 0,-72 170,-72 170,-108"/>
<text text-anchor="middle" x="85" y="-86.3" font-family="Times,serif" font-size="14.00">this.mainClass = mainClass</text>
</g>
<!-- start&#45;&gt;a -->
<g id="edge1" class="edge">
<title>start&#45;&gt;a</title>
<path fill="none" stroke="black" d="M85,-143.7C85,-136.41 85,-127.73 85,-119.54"/>
<polygon fill="black" stroke="black" points="88.5,-119.62 85,-109.62 81.5,-119.62 88.5,-119.62"/>
</g>
<!-- end -->
<g id="node3" class="node">
<title>end</title>
<ellipse fill="none" stroke="black" cx="85" cy="-18" rx="27" ry="18"/>
<text text-anchor="middle" x="85" y="-14.3" font-family="Times,serif" font-size="14.00">end</text>
</g>
<!-- a&#45;&gt;end -->
<g id="edge2" class="edge">
<title>a&#45;&gt;end</title>
<path fill="none" stroke="black" d="M85,-71.7C85,-64.41 85,-55.73 85,-47.54"/>
<polygon fill="black" stroke="black" points="88.5,-47.62 85,-37.62 81.5,-47.62 88.5,-47.62"/>
</g>
</g>
</svg>
